$MeshFormat
2.2 0 8
$EndMeshFormat
$Nodes
357
1 1.0000000000000000e+01 0.0000000000000000e+00 -3.0750000000000000e+01
2 1.0000000000000000e+01 0.0000000000000000e+00 -2.9750000000000000e+01
3 1.0000000000000000e+01 0.0000000000000000e+00 -2.8750000000000000e+01
4 1.0000000000000000e+01 0.0000000000000000e+00 -2.7750000000000000e+01
5 1.0000000000000000e+01 0.0000000000000000e+00 -2.6750000000000000e+01
6 1.0000000000000000e+01 0.0000000000000000e+00 -2.5750000000000000e+01
7 1.0000000000000000e+01 0.0000000000000000e+00 -2.4750000000000000e+01
8 1.0375000000000000e+01 0.0000000000000000e+00 -3.0750000000000000e+01
9 1.0375000000000000e+01 0.0000000000000000e+00 -2.9750000000000000e+01
10 1.0375000000000000e+01 0.0000000000000000e+00 -2.8750000000000000e+01
11 1.0375000000000000e+01 0.0000000000000000e+00 -2.7750000000000000e+01
12 1.0375000000000000e+01 0.0000000000000000e+00 -2.6750000000000000e+01
13 1.0375000000000000e+01 0.0000000000000000e+00 -2.5750000000000000e+01
14 1.0375000000000000e+01 0.0000000000000000e+00 -2.4750000000000000e+01
15 1.0750000000000000e+01 0.0000000000000000e+00 -3.0750000000000000e+01
16 1.0750000000000000e+01 0.0000000000000000e+00 -2.9750000000000000e+01
17 1.0750000000000000e+01 0.0000000000000000e+00 -2.8750000000000000e+01
18 1.0750000000000000e+01 0.0000000000000000e+00 -2.7750000000000000e+01
19 1.0750000000000000e+01 0.0000000000000000e+00 -2.6750000000000000e+01
20 1.0750000000000000e+01 0.0000000000000000e+00 -2.5750000000000000e+01
21 1.0750000000000000e+01 0.0000000000000000e+00 -2.4750000000000000e+01
22 9.9518472667219697e+00 9.8017140329560604e-01 -3.0750000000000000e+01
23 9.9518472667219697e+00 9.8017140329560604e-01 -2.9750000000000000e+01
24 9.9518472667219697e+00 9.8017140329560604e-01 -2.8750000000000000e+01
25 9.9518472667219697e+00 9.8017140329560604e-01 -2.7750000000000000e+01
26 9.9518472667219697e+00 9.8017140329560604e-01 -2.6750000000000000e+01
27 9.9518472667219697e+00 9.8017140329560604e-01 -2.5750000000000000e+01
28 9.9518472667219697e+00 9.8017140329560604e-01 -2.4750000000000000e+01
29 1.0325041539224044e+01 1.0169278309191914e+00 -3.0750000000000000e+01
30 1.0325041539224044e+01 1.0169278309191914e+00 -2.9750000000000000e+01
31 1.0325041539224044e+01 1.0169278309191914e+00 -2.8750000000000000e+01
32 1.0325041539224044e+01 1.0169278309191914e+00 -2.7750000000000000e+01
33 1.0325041539224044e+01 1.0169278309191914e+00 -2.6750000000000000e+01
34 1.0325041539224044e+01 1.0169278309191914e+00 -2.5750000000000000e+01
35 1.0325041539224044e+01 1.0169278309191914e+00 -2.4750000000000000e+01
36 1.0698235811726118e+01 1.0536842585427766e+00 -3.0750000000000000e+01
37 1.0698235811726118e+01 1.0536842585427766e+00 -2.9750000000000000e+01
38 1.0698235811726118e+01 1.0536842585427766e+00 -2.8750000000000000e+01
39 1.0698235811726118e+01 1.0536842585427766e+00 -2.7750000000000000e+01
40 1.0698235811726118e+01 1.0536842585427766e+00 -2.6750000000000000e+01
41 1.0698235811726118e+01 1.0536842585427766e+00 -2.5750000000000000e+01
42 1.0698235811726118e+01 1.0536842585427766e+00 -2.4750000000000000e+01
43 9.8078528040323043e+00 1.9509032201612824e+00 -3.0750000000000000e+01
44 9.8078528040323043e+00 1.9509032201612824e+00 -2.9750000000000000e+01
45 9.8078528040323043e+00 1.9509032201612824e+00 -2.8750000000000000e+01
46 9.8078528040323043e+00 1.9509032201612824e+00 -2.7750000000000000e+01
47 9.8078528040323043e+00 1.9509032201612824e+00 -2.6750000000000000e+01
48 9.8078528040323043e+00 1.9509032201612824e+00 -2.5750000000000000e+01
49 9.8078528040323043e+00 1.9509032201612824e+00 -2.4750000000000000e+01
50 1.0175647284183515e+01 2.0240620909173304e+00 -3.0750000000000000e+01
51 1.0175647284183515e+01 2.0240620909173304e+00 -2.9750000000000000e+01
52 1.0175647284183515e+01 2.0240620909173304e+00 -2.8750000000000000e+01
53 1.0175647284183515e+01 2.0240620909173304e+00 -2.7750000000000000e+01
54 1.0175647284183515e+01 2.0240620909173304e+00 -2.6750000000000000e+01
55 1.0175647284183515e+01 2.0240620909173304e+00 -2.5750000000000000e+01
56 1.0175647284183515e+01 2.0240620909173304e+00 -2.4750000000000000e+01
57 1.0543441764334727e+01 2.0972209616733788e+00 -3.0750000000000000e+01
58 1.0543441764334727e+01 2.0972209616733788e+00 -2.9750000000000000e+01
59 1.0543441764334727e+01 2.0972209616733788e+00 -2.8750000000000000e+01
60 1.0543441764334727e+01 2.0972209616733788e+00 -2.7750000000000000e+01
61 1.0543441764334727e+01 2.0972209616733788e+00 -2.6750000000000000e+01
62 1.0543441764334727e+01 2.0972209616733788e+00 -2.5750000000000000e+01
63 1.0543441764334727e+01 2.0972209616733788e+00 -2.4750000000000000e+01
64 9.5694033573220878e+00 2.9028467725446232e+00 -3.0750000000000000e+01
65 9.5694033573220878e+00 2.9028467725446232e+00 -2.9750000000000000e+01
66 9.5694033573220878e+00 2.9028467725446232e+00 -2.8750000000000000e+01
67 9.5694033573220878e+00 2.9028467725446232e+00 -2.7750000000000000e+01
68 9.5694033573220878e+00 2.9028467725446232e+00 -2.6750000000000000e+01
69 9.5694033573220878e+00 2.9028467725446232e+00 -2.5750000000000000e+01
70 9.5694033573220878e+00 2.9028467725446232e+00 -2.4750000000000000e+01
71 9.9282559832216659e+00 3.0117035265150465e+00 -3.0750000000000000e+01
72 9.9282559832216659e+00 3.0117035265150465e+00 -2.9750000000000000e+01
73 9.9282559832216659e+00 3.0117035265150465e+00 -2.8750000000000000e+01
74 9.9282559832216659e+00 3.0117035265150465e+00 -2.7750000000000000e+01
75 9.9282559832216659e+00 3.0117035265150465e+00 -2.6750000000000000e+01
76 9.9282559832216659e+00 3.0117035265150465e+00 -2.5750000000000000e+01
77 9.9282559832216659e+00 3.0117035265150465e+00 -2.4750000000000000e+01
78 1.0287108609121244e+01 3.1205602804854702e+00 -3.0750000000000000e+01
79 1.0287108609121244e+01 3.1205602804854702e+00 -2.9750000000000000e+01
80 1.0287108609121244e+01 3.1205602804854702e+00 -2.8750000000000000e+01
81 1.0287108609121244e+01 3.1205602804854702e+00 -2.7750000000000000e+01
82 1.0287108609121244e+01 3.1205602804854702e+00 -2.6750000000000000e+01
83 1.0287108609121244e+01 3.1205602804854702e+00 -2.5750000000000000e+01
84 1.0287108609121244e+01 3.1205602804854702e+00 -2.4750000000000000e+01
85 9.2387953251128678e+00 3.8268343236508979e+00 -3.0750000000000000e+01
86 9.2387953251128678e+00 3.8268343236508979e+00 -2.9750000000000000e+01
87 9.2387953251128678e+00 3.8268343236508979e+00 -2.8750000000000000e+01
88 9.2387953251128678e+00 3.8268343236508979e+00 -2.7750000000000000e+01
89 9.2387953251128678e+00 3.8268343236508979e+00 -2.6750000000000000e+01
90 9.2387953251128678e+00 3.8268343236508979e+00 -2.5750000000000000e+01
91 9.2387953251128678e+00 3.8268343236508979e+00 -2.4750000000000000e+01
92 9.5852501498045992e+00 3.9703406107878063e+00 -3.0750000000000000e+01
93 9.5852501498045992e+00 3.9703406107878063e+00 -2.9750000000000000e+01
94 9.5852501498045992e+00 3.9703406107878063e+00 -2.8750000000000000e+01
95 9.5852501498045992e+00 3.9703406107878063e+00 -2.7750000000000000e+01
96 9.5852501498045992e+00 3.9703406107878063e+00 -2.6750000000000000e+01
97 9.5852501498045992e+00 3.9703406107878063e+00 -2.5750000000000000e+01
98 9.5852501498045992e+00 3.9703406107878063e+00 -2.4750000000000000e+01
99 9.9317049744963324e+00 4.1138468979247156e+00 -3.0750000000000000e+01
100 9.9317049744963324e+00 4.1138468979247156e+00 -2.9750000000000000e+01
101 9.9317049744963324e+00 4.1138468979247156e+00 -2.8750000000000000e+01
102 9.9317049744963324e+00 4.1138468979247156e+00 -2.7750000000000000e+01
103 9.9317049744963324e+00 4.1138468979247156e+00 -2.6750000000000000e+01
104 9.9317049744963324e+00 4.1138468979247156e+00 -2.5750000000000000e+01
105 9.9317049744963324e+00 4.1138468979247156e+00 -2.4750000000000000e+01
106 8.8192126434835512e+00 4.7139673682599765e+00 -3.0750000000000000e+01
107 8.8192126434835512e+00 4.7139673682599765e+00 -2.9750000000000000e+01
108 8.8192126434835512e+00 4.7139673682599765e+00 -2.8750000000000000e+01
109 8.8192126434835512e+00 4.7139673682599765e+00 -2.7750000000000000e+01
110 8.8192126434835512e+00 4.7139673682599765e+00 -2.6750000000000000e+01
111 8.8192126434835512e+00 4.7139673682599765e+00 -2.5750000000000000e+01
112 8.8192126434835512e+00 4.7139673682599765e+00 -2.4750000000000000e+01
113 9.1499331176141840e+00 4.8907411445697253e+00 -3.0750000000000000e+01
114 9.1499331176141840e+00 4.8907411445697253e+00 -2.9750000000000000e+01
115 9.1499331176141840e+00 4.8907411445697253e+00 -2.8750000000000000e+01
116 9.1499331176141840e+00 4.8907411445697253e+00 -2.7750000000000000e+01
117 9.1499331176141840e+00 4.8907411445697253e+00 -2.6750000000000000e+01
118 9.1499331176141840e+00 4.8907411445697253e+00 -2.5750000000000000e+01
119 9.1499331176141840e+00 4.8907411445697253e+00 -2.4750000000000000e+01
120 9.4806535917448169e+00 5.0675149208794750e+00 -3.0750000000000000e+01
121 9.4806535917448169e+00 5.0675149208794750e+00 -2.9750000000000000e+01
122 9.4806535917448169e+00 5.0675149208794750e+00 -2.8750000000000000e+01
123 9.4806535917448169e+00 5.0675149208794750e+00 -2.7750000000000000e+01
124 9.4806535917448169e+00 5.0675149208794750e+00 -2.6750000000000000e+01
125 9.4806535917448169e+00 5.0675149208794750e+00 -2.5750000000000000e+01
126 9.4806535917448169e+00 5.0675149208794750e+00 -2.4750000000000000e+01
127 8.3146961230254526e+00 5.5557023301960218e+00 -3.0750000000000000e+01
128 8.3146961230254526e+00 5.5557023301960218e+00 -2.9750000000000000e+01
129 8.3146961230254526e+00 5.5557023301960218e+00 -2.8750000000000000e+01
130 8.3146961230254526e+00 5.5557023301960218e+00 -2.7750000000000000e+01
131 8.3146961230254526e+00 5.5557023301960218e+00 -2.6750000000000000e+01
132 8.3146961230254526e+00 5.5557023301960218e+00 -2.5750000000000000e+01
133 8.3146961230254526e+00 5.5557023301960218e+00 -2.4750000000000000e+01
134 8.6264972276389074e+00 5.7640411675783723e+00 -3.0750000000000000e+01
135 8.6264972276389074e+00 5.7640411675783723e+00 -2.9750000000000000e+01
136 8.6264972276389074e+00 5.7640411675783723e+00 -2.8750000000000000e+01
137 8.6264972276389074e+00 5.7640411675783723e+00 -2.7750000000000000e+01
138 8.6264972276389074e+00 5.7640411675783723e+00 -2.6750000000000000e+01
139 8.6264972276389074e+00 5.7640411675783723e+00 -2.5750000000000000e+01
140 8.6264972276389074e+00 5.7640411675783723e+00 -2.4750000000000000e+01
141 8.9382983322523621e+00 5.9723800049607236e+00 -3.0750000000000000e+01
142 8.9382983322523621e+00 5.9723800049607236e+00 -2.9750000000000000e+01
143 8.9382983322523621e+00 5.9723800049607236e+00 -2.8750000000000000e+01
144 8.9382983322523621e+00 5.9723800049607236e+00 -2.7750000000000000e+01
145 8.9382983322523621e+00 5.9723800049607236e+00 -2.6750000000000000e+01
146 8.9382983322523621e+00 5.9723800049607236e+00 -2.5750000000000000e+01
147 8.9382983322523621e+00 5.9723800049607236e+00 -2.4750000000000000e+01
148 7.7301045336273697e+00 6.3439328416364553e+00 -3.0750000000000000e+01
149 7.7301045336273697e+00 6.3439328416364553e+00 -2.9750000000000000e+01
150 7.7301045336273697e+00 6.3439328416364553e+00 -2.8750000000000000e+01
151 7.7301045336273697e+00 6.3439328416364553e+00 -2.7750000000000000e+01
152 7.7301045336273697e+00 6.3439328416364553e+00 -2.6750000000000000e+01
153 7.7301045336273697e+00 6.3439328416364553e+00 -2.5750000000000000e+01
154 7.7301045336273697e+00 6.3439328416364553e+00 -2.4750000000000000e+01
155 8.0199834536383960e+00 6.5818303231978224e+00 -3.0750000000000000e+01
156 8.0199834536383960e+00 6.5818303231978224e+00 -2.9750000000000000e+01
157 8.0199834536383960e+00 6.5818303231978224e+00 -2.8750000000000000e+01
158 8.0199834536383960e+00 6.5818303231978224e+00 -2.7750000000000000e+01
159 8.0199834536383960e+00 6.5818303231978224e+00 -2.6750000000000000e+01
160 8.0199834536383960e+00 6.5818303231978224e+00 -2.5750000000000000e+01
161 8.0199834536383960e+00 6.5818303231978224e+00 -2.4750000000000000e+01
162 8.3098623736494233e+00 6.8197278047591894e+00 -3.0750000000000000e+01
163 8.3098623736494233e+00 6.8197278047591894e+00 -2.9750000000000000e+01
164 8.3098623736494233e+00 6.8197278047591894e+00 -2.8750000000000000e+01
165 8.3098623736494233e+00 6.8197278047591894e+00 -2.7750000000000000e+01
166 8.3098623736494233e+00 6.8197278047591894e+00 -2.6750000000000000e+01
167 8.3098623736494233e+00 6.8197278047591894e+00 -2.5750000000000000e+01
168 8.3098623736494233e+00 6.8197278047591894e+00 -2.4750000000000000e+01
169 7.0710678118654755e+00 7.0710678118654746e+00 -3.0750000000000000e+01
170 7.0710678118654755e+00 7.0710678118654746e+00 -2.9750000000000000e+01
171 7.0710678118654755e+00 7.0710678118654746e+00 -2.8750000000000000e+01
172 7.0710678118654755e+00 7.0710678118654746e+00 -2.7750000000000000e+01
173 7.0710678118654755e+00 7.0710678118654746e+00 -2.6750000000000000e+01
174 7.0710678118654755e+00 7.0710678118654746e+00 -2.5750000000000000e+01
175 7.0710678118654755e+00 7.0710678118654746e+00 -2.4750000000000000e+01
176 7.3362328548104312e+00 7.3362328548104303e+00 -3.0750000000000000e+01
177 7.3362328548104312e+00 7.3362328548104303e+00 -2.9750000000000000e+01
178 7.3362328548104312e+00 7.3362328548104303e+00 -2.8750000000000000e+01
179 7.3362328548104312e+00 7.3362328548104303e+00 -2.7750000000000000e+01
180 7.3362328548104312e+00 7.3362328548104303e+00 -2.6750000000000000e+01
181 7.3362328548104312e+00 7.3362328548104303e+00 -2.5750000000000000e+01
182 7.3362328548104312e+00 7.3362328548104303e+00 -2.4750000000000000e+01
183 7.6013978977553860e+00 7.6013978977553851e+00 -3.0750000000000000e+01
184 7.6013978977553860e+00 7.6013978977553851e+00 -2.9750000000000000e+01
185 7.6013978977553860e+00 7.6013978977553851e+00 -2.8750000000000000e+01
186 7.6013978977553860e+00 7.6013978977553851e+00 -2.7750000000000000e+01
187 7.6013978977553860e+00 7.6013978977553851e+00 -2.6750000000000000e+01
188 7.6013978977553860e+00 7.6013978977553851e+00 -2.5750000000000000e+01
189 7.6013978977553860e+00 7.6013978977553851e+00 -2.4750000000000000e+01
190 6.3439328416364553e+00 7.7301045336273697e+00 -3.0750000000000000e+01
191 6.3439328416364553e+00 7.7301045336273697e+00 -2.9750000000000000e+01
192 6.3439328416364553e+00 7.7301045336273697e+00 -2.8750000000000000e+01
193 6.3439328416364553e+00 7.7301045336273697e+00 -2.7750000000000000e+01
194 6.3439328416364553e+00 7.7301045336273697e+00 -2.6750000000000000e+01
195 6.3439328416364553e+00 7.7301045336273697e+00 -2.5750000000000000e+01
196 6.3439328416364553e+00 7.7301045336273697e+00 -2.4750000000000000e+01
197 6.5818303231978224e+00 8.0199834536383960e+00 -3.0750000000000000e+01
198 6.5818303231978224e+00 8.0199834536383960e+00 -2.9750000000000000e+01
199 6.5818303231978224e+00 8.0199834536383960e+00 -2.8750000000000000e+01
200 6.5818303231978224e+00 8.0199834536383960e+00 -2.7750000000000000e+01
201 6.5818303231978224e+00 8.0199834536383960e+00 -2.6750000000000000e+01
202 6.5818303231978224e+00 8.0199834536383960e+00 -2.5750000000000000e+01
203 6.5818303231978224e+00 8.0199834536383960e+00 -2.4750000000000000e+01
204 6.8197278047591894e+00 8.3098623736494233e+00 -3.0750000000000000e+01
205 6.8197278047591894e+00 8.3098623736494233e+00 -2.9750000000000000e+01
206 6.8197278047591894e+00 8.3098623736494233e+00 -2.8750000000000000e+01
207 6.8197278047591894e+00 8.3098623736494233e+00 -2.7750000000000000e+01
208 6.8197278047591894e+00 8.3098623736494233e+00 -2.6750000000000000e+01
209 6.8197278047591894e+00 8.3098623736494233e+00 -2.5750000000000000e+01
210 6.8197278047591894e+00 8.3098623736494233e+00 -2.4750000000000000e+01
211 5.5557023301960227e+00 8.3146961230254526e+00 -3.0750000000000000e+01
212 5.5557023301960227e+00 8.3146961230254526e+00 -2.9750000000000000e+01
213 5.5557023301960227e+00 8.3146961230254526e+00 -2.8750000000000000e+01
214 5.5557023301960227e+00 8.3146961230254526e+00 -2.7750000000000000e+01
215 5.5557023301960227e+00 8.3146961230254526e+00 -2.6750000000000000e+01
216 5.5557023301960227e+00 8.3146961230254526e+00 -2.5750000000000000e+01
217 5.5557023301960227e+00 8.3146961230254526e+00 -2.4750000000000000e+01
218 5.7640411675783740e+00 8.6264972276389074e+00 -3.0750000000000000e+01
219 5.7640411675783740e+00 8.6264972276389074e+00 -2.9750000000000000e+01
220 5.7640411675783740e+00 8.6264972276389074e+00 -2.8750000000000000e+01
221 5.7640411675783740e+00 8.6264972276389074e+00 -2.7750000000000000e+01
222 5.7640411675783740e+00 8.6264972276389074e+00 -2.6750000000000000e+01
223 5.7640411675783740e+00 8.6264972276389074e+00 -2.5750000000000000e+01
224 5.7640411675783740e+00 8.6264972276389074e+00 -2.4750000000000000e+01
225 5.9723800049607245e+00 8.9382983322523621e+00 -3.0750000000000000e+01
226 5.9723800049607245e+00 8.9382983322523621e+00 -2.9750000000000000e+01
227 5.9723800049607245e+00 8.9382983322523621e+00 -2.8750000000000000e+01
228 5.9723800049607245e+00 8.9382983322523621e+00 -2.7750000000000000e+01
229 5.9723800049607245e+00 8.9382983322523621e+00 -2.6750000000000000e+01
230 5.9723800049607245e+00 8.9382983322523621e+00 -2.5750000000000000e+01
231 5.9723800049607245e+00 8.9382983322523621e+00 -2.4750000000000000e+01
232 4.7139673682599783e+00 8.8192126434835494e+00 -3.0750000000000000e+01
233 4.7139673682599783e+00 8.8192126434835494e+00 -2.9750000000000000e+01
234 4.7139673682599783e+00 8.8192126434835494e+00 -2.8750000000000000e+01
235 4.7139673682599783e+00 8.8192126434835494e+00 -2.7750000000000000e+01
236 4.7139673682599783e+00 8.8192126434835494e+00 -2.6750000000000000e+01
237 4.7139673682599783e+00 8.8192126434835494e+00 -2.5750000000000000e+01
238 4.7139673682599783e+00 8.8192126434835494e+00 -2.4750000000000000e+01
239 4.8907411445697271e+00 9.1499331176141823e+00 -3.0750000000000000e+01
240 4.8907411445697271e+00 9.1499331176141823e+00 -2.9750000000000000e+01
241 4.8907411445697271e+00 9.1499331176141823e+00 -2.8750000000000000e+01
242 4.8907411445697271e+00 9.1499331176141823e+00 -2.7750000000000000e+01
243 4.8907411445697271e+00 9.1499331176141823e+00 -2.6750000000000000e+01
244 4.8907411445697271e+00 9.1499331176141823e+00 -2.5750000000000000e+01
245 4.8907411445697271e+00 9.1499331176141823e+00 -2.4750000000000000e+01
246 5.0675149208794767e+00 9.4806535917448151e+00 -3.0750000000000000e+01
247 5.0675149208794767e+00 9.4806535917448151e+00 -2.9750000000000000e+01
248 5.0675149208794767e+00 9.4806535917448151e+00 -2.8750000000000000e+01
249 5.0675149208794767e+00 9.4806535917448151e+00 -2.7750000000000000e+01
250 5.0675149208794767e+00 9.4806535917448151e+00 -2.6750000000000000e+01
251 5.0675149208794767e+00 9.4806535917448151e+00 -2.5750000000000000e+01
252 5.0675149208794767e+00 9.4806535917448151e+00 -2.4750000000000000e+01
253 3.8268343236508984e+00 9.2387953251128678e+00 -3.0750000000000000e+01
254 3.8268343236508984e+00 9.2387953251128678e+00 -2.9750000000000000e+01
255 3.8268343236508984e+00 9.2387953251128678e+00 -2.8750000000000000e+01
256 3.8268343236508984e+00 9.2387953251128678e+00 -2.7750000000000000e+01
257 3.8268343236508984e+00 9.2387953251128678e+00 -2.6750000000000000e+01
258 3.8268343236508984e+00 9.2387953251128678e+00 -2.5750000000000000e+01
259 3.8268343236508984e+00 9.2387953251128678e+00 -2.4750000000000000e+01
260 3.9703406107878072e+00 9.5852501498045992e+00 -3.0750000000000000e+01
261 3.9703406107878072e+00 9.5852501498045992e+00 -2.9750000000000000e+01
262 3.9703406107878072e+00 9.5852501498045992e+00 -2.8750000000000000e+01
263 3.9703406107878072e+00 9.5852501498045992e+00 -2.7750000000000000e+01
264 3.9703406107878072e+00 9.5852501498045992e+00 -2.6750000000000000e+01
265 3.9703406107878072e+00 9.5852501498045992e+00 -2.5750000000000000e+01
266 3.9703406107878072e+00 9.5852501498045992e+00 -2.4750000000000000e+01
267 4.1138468979247156e+00 9.9317049744963324e+00 -3.0750000000000000e+01
268 4.1138468979247156e+00 9.9317049744963324e+00 -2.9750000000000000e+01
269 4.1138468979247156e+00 9.9317049744963324e+00 -2.8750000000000000e+01
270 4.1138468979247156e+00 9.9317049744963324e+00 -2.7750000000000000e+01
271 4.1138468979247156e+00 9.9317049744963324e+00 -2.6750000000000000e+01
272 4.1138468979247156e+00 9.9317049744963324e+00 -2.5750000000000000e+01
273 4.1138468979247156e+00 9.9317049744963324e+00 -2.4750000000000000e+01
274 2.9028467725446232e+00 9.5694033573220896e+00 -3.0750000000000000e+01
275 2.9028467725446232e+00 9.5694033573220896e+00 -2.9750000000000000e+01
276 2.9028467725446232e+00 9.5694033573220896e+00 -2.8750000000000000e+01
277 2.9028467725446232e+00 9.5694033573220896e+00 -2.7750000000000000e+01
278 2.9028467725446232e+00 9.5694033573220896e+00 -2.6750000000000000e+01
279 2.9028467725446232e+00 9.5694033573220896e+00 -2.5750000000000000e+01
280 2.9028467725446232e+00 9.5694033573220896e+00 -2.4750000000000000e+01
281 3.0117035265150465e+00 9.9282559832216677e+00 -3.0750000000000000e+01
282 3.0117035265150465e+00 9.9282559832216677e+00 -2.9750000000000000e+01
283 3.0117035265150465e+00 9.9282559832216677e+00 -2.8750000000000000e+01
284 3.0117035265150465e+00 9.9282559832216677e+00 -2.7750000000000000e+01
285 3.0117035265150465e+00 9.9282559832216677e+00 -2.6750000000000000e+01
286 3.0117035265150465e+00 9.9282559832216677e+00 -2.5750000000000000e+01
287 3.0117035265150465e+00 9.9282559832216677e+00 -2.4750000000000000e+01
288 3.1205602804854702e+00 1.0287108609121246e+01 -3.0750000000000000e+01
289 3.1205602804854702e+00 1.0287108609121246e+01 -2.9750000000000000e+01
290 3.1205602804854702e+00 1.0287108609121246e+01 -2.8750000000000000e+01
291 3.1205602804854702e+00 1.0287108609121246e+01 -2.7750000000000000e+01
292 3.1205602804854702e+00 1.0287108609121246e+01 -2.6750000000000000e+01
293 3.1205602804854702e+00 1.0287108609121246e+01 -2.5750000000000000e+01
294 3.1205602804854702e+00 1.0287108609121246e+01 -2.4750000000000000e+01
295 1.9509032201612833e+00 9.8078528040323043e+00 -3.0750000000000000e+01
296 1.9509032201612833e+00 9.8078528040323043e+00 -2.9750000000000000e+01
297 1.9509032201612833e+00 9.8078528040323043e+00 -2.8750000000000000e+01
298 1.9509032201612833e+00 9.8078528040323043e+00 -2.7750000000000000e+01
299 1.9509032201612833e+00 9.8078528040323043e+00 -2.6750000000000000e+01
300 1.9509032201612833e+00 9.8078528040323043e+00 -2.5750000000000000e+01
301 1.9509032201612833e+00 9.8078528040323043e+00 -2.4750000000000000e+01
302 2.0240620909173312e+00 1.0175647284183515e+01 -3.0750000000000000e+01
303 2.0240620909173312e+00 1.0175647284183515e+01 -2.9750000000000000e+01
304 2.0240620909173312e+00 1.0175647284183515e+01 -2.8750000000000000e+01
305 2.0240620909173312e+00 1.0175647284183515e+01 -2.7750000000000000e+01
306 2.0240620909173312e+00 1.0175647284183515e+01 -2.6750000000000000e+01
307 2.0240620909173312e+00 1.0175647284183515e+01 -2.5750000000000000e+01
308 2.0240620909173312e+00 1.0175647284183515e+01 -2.4750000000000000e+01
309 2.0972209616733797e+00 1.0543441764334727e+01 -3.0750000000000000e+01
310 2.0972209616733797e+00 1.0543441764334727e+01 -2.9750000000000000e+01
311 2.0972209616733797e+00 1.0543441764334727e+01 -2.8750000000000000e+01
312 2.0972209616733797e+00 1.0543441764334727e+01 -2.7750000000000000e+01
313 2.0972209616733797e+00 1.0543441764334727e+01 -2.6750000000000000e+01
314 2.0972209616733797e+00 1.0543441764334727e+01 -2.5750000000000000e+01
315 2.0972209616733797e+00 1.0543441764334727e+01 -2.4750000000000000e+01
316 9.8017140329560770e-01 9.9518472667219680e+00 -3.0750000000000000e+01
317 9.8017140329560770e-01 9.9518472667219680e+00 -2.9750000000000000e+01
318 9.8017140329560770e-01 9.9518472667219680e+00 -2.8750000000000000e+01
319 9.8017140329560770e-01 9.9518472667219680e+00 -2.7750000000000000e+01
320 9.8017140329560770e-01 9.9518472667219680e+00 -2.6750000000000000e+01
321 9.8017140329560770e-01 9.9518472667219680e+00 -2.5750000000000000e+01
322 9.8017140329560770e-01 9.9518472667219680e+00 -2.4750000000000000e+01
323 1.0169278309191929e+00 1.0325041539224042e+01 -3.0750000000000000e+01
324 1.0169278309191929e+00 1.0325041539224042e+01 -2.9750000000000000e+01
325 1.0169278309191929e+00 1.0325041539224042e+01 -2.8750000000000000e+01
326 1.0169278309191929e+00 1.0325041539224042e+01 -2.7750000000000000e+01
327 1.0169278309191929e+00 1.0325041539224042e+01 -2.6750000000000000e+01
328 1.0169278309191929e+00 1.0325041539224042e+01 -2.5750000000000000e+01
329 1.0169278309191929e+00 1.0325041539224042e+01 -2.4750000000000000e+01
330 1.0536842585427784e+00 1.0698235811726116e+01 -3.0750000000000000e+01
331 1.0536842585427784e+00 1.0698235811726116e+01 -2.9750000000000000e+01
332 1.0536842585427784e+00 1.0698235811726116e+01 -2.8750000000000000e+01
333 1.0536842585427784e+00 1.0698235811726116e+01 -2.7750000000000000e+01
334 1.0536842585427784e+00 1.0698235811726116e+01 -2.6750000000000000e+01
335 1.0536842585427784e+00 1.0698235811726116e+01 -2.5750000000000000e+01
336 1.0536842585427784e+00 1.0698235811726116e+01 -2.4750000000000000e+01
337 6.1232339957367663e-16 1.0000000000000000e+01 -3.0750000000000000e+01
338 6.1232339957367663e-16 1.0000000000000000e+01 -2.9750000000000000e+01
339 6.1232339957367663e-16 1.0000000000000000e+01 -2.8750000000000000e+01
340 6.1232339957367663e-16 1.0000000000000000e+01 -2.7750000000000000e+01
341 6.1232339957367663e-16 1.0000000000000000e+01 -2.6750000000000000e+01
342 6.1232339957367663e-16 1.0000000000000000e+01 -2.5750000000000000e+01
343 6.1232339957367663e-16 1.0000000000000000e+01 -2.4750000000000000e+01
344 6.3528552705768947e-16 1.0375000000000000e+01 -3.0750000000000000e+01
345 6.3528552705768947e-16 1.0375000000000000e+01 -2.9750000000000000e+01
346 6.3528552705768947e-16 1.0375000000000000e+01 -2.8750000000000000e+01
347 6.3528552705768947e-16 1.0375000000000000e+01 -2.7750000000000000e+01
348 6.3528552705768947e-16 1.0375000000000000e+01 -2.6750000000000000e+01
349 6.3528552705768947e-16 1.0375000000000000e+01 -2.5750000000000000e+01
350 6.3528552705768947e-16 1.0375000000000000e+01 -2.4750000000000000e+01
351 6.5824765454170231e-16 1.0750000000000000e+01 -3.0750000000000000e+01
352 6.5824765454170231e-16 1.0750000000000000e+01 -2.9750000000000000e+01
353 6.5824765454170231e-16 1.0750000000000000e+01 -2.8750000000000000e+01
354 6.5824765454170231e-16 1.0750000000000000e+01 -2.7750000000000000e+01
355 6.5824765454170231e-16 1.0750000000000000e+01 -2.6750000000000000e+01
356 6.5824765454170231e-16 1.0750000000000000e+01 -2.5750000000000000e+01
357 6.5824765454170231e-16 1.0750000000000000e+01 -2.4750000000000000e+01
$EndNodes
$Elements
1152
1 4 2 0 0 1 22 29 30
2 4 2 0 0 1 29 8 30
3 4 2 0 0 1 8 9 30
4 4 2 0 0 1 9 2 30
5 4 2 0 0 1 2 23 30
6 4 2 0 0 1 23 22 30
7 4 2 0 0 2 23 30 31
8 4 2 0 0 2 30 9 31
9 4 2 0 0 2 9 10 31
10 4 2 0 0 2 10 3 31
11 4 2 0 0 2 3 24 31
12 4 2 0 0 2 24 23 31
13 4 2 0 0 3 24 31 32
14 4 2 0 0 3 31 10 32
15 4 2 0 0 3 10 11 32
16 4 2 0 0 3 11 4 32
17 4 2 0 0 3 4 25 32
18 4 2 0 0 3 25 24 32
19 4 2 0 0 4 25 32 33
20 4 2 0 0 4 32 11 33
21 4 2 0 0 4 11 12 33
22 4 2 0 0 4 12 5 33
23 4 2 0 0 4 5 26 33
24 4 2 0 0 4 26 25 33
25 4 2 0 0 5 26 33 34
26 4 2 0 0 5 33 12 34
27 4 2 0 0 5 12 13 34
28 4 2 0 0 5 13 6 34
29 4 2 0 0 5 6 27 34
30 4 2 0 0 5 27 26 34
31 4 2 0 0 6 27 34 35
32 4 2 0 0 6 34 13 35
33 4 2 0 0 6 13 14 35
34 4 2 0 0 6 14 7 35
35 4 2 0 0 6 7 28 35
36 4 2 0 0 6 28 27 35
37 4 2 0 0 8 29 36 37
38 4 2 0 0 8 36 15 37
39 4 2 0 0 8 15 16 37
40 4 2 0 0 8 16 9 37
41 4 2 0 0 8 9 30 37
42 4 2 0 0 8 30 29 37
43 4 2 0 0 9 30 37 38
44 4 2 0 0 9 37 16 38
45 4 2 0 0 9 16 17 38
46 4 2 0 0 9 17 10 38
47 4 2 0 0 9 10 31 38
48 4 2 0 0 9 31 30 38
49 4 2 0 0 10 31 38 39
50 4 2 0 0 10 38 17 39
51 4 2 0 0 10 17 18 39
52 4 2 0 0 10 18 11 39
53 4 2 0 0 10 11 32 39
54 4 2 0 0 10 32 31 39
55 4 2 0 0 11 32 39 40
56 4 2 0 0 11 39 18 40
57 4 2 0 0 11 18 19 40
58 4 2 0 0 11 19 12 40
59 4 2 0 0 11 12 33 40
60 4 2 0 0 11 33 32 40
61 4 2 0 0 12 33 40 41
62 4 2 0 0 12 40 19 41
63 4 2 0 0 12 19 20 41
64 4 2 0 0 12 20 13 41
65 4 2 0 0 12 13 34 41
66 4 2 0 0 12 34 33 41
67 4 2 0 0 13 34 41 42
68 4 2 0 0 13 41 20 42
69 4 2 0 0 13 20 21 42
70 4 2 0 0 13 21 14 42
71 4 2 0 0 13 14 35 42
72 4 2 0 0 13 35 34 42
73 4 2 0 0 22 43 50 51
74 4 2 0 0 22 50 29 51
75 4 2 0 0 22 29 30 51
76 4 2 0 0 22 30 23 51
77 4 2 0 0 22 23 44 51
78 4 2 0 0 22 44 43 51
79 4 2 0 0 23 44 51 52
80 4 2 0 0 23 51 30 52
81 4 2 0 0 23 30 31 52
82 4 2 0 0 23 31 24 52
83 4 2 0 0 23 24 45 52
84 4 2 0 0 23 45 44 52
85 4 2 0 0 24 45 52 53
86 4 2 0 0 24 52 31 53
87 4 2 0 0 24 31 32 53
88 4 2 0 0 24 32 25 53
89 4 2 0 0 24 25 46 53
90 4 2 0 0 24 46 45 53
91 4 2 0 0 25 46 53 54
92 4 2 0 0 25 53 32 54
93 4 2 0 0 25 32 33 54
94 4 2 0 0 25 33 26 54
95 4 2 0 0 25 26 47 54
96 4 2 0 0 25 47 46 54
97 4 2 0 0 26 47 54 55
98 4 2 0 0 26 54 33 55
99 4 2 0 0 26 33 34 55
100 4 2 0 0 26 34 27 55
101 4 2 0 0 26 27 48 55
102 4 2 0 0 26 48 47 55
103 4 2 0 0 27 48 55 56
104 4 2 0 0 27 55 34 56
105 4 2 0 0 27 34 35 56
106 4 2 0 0 27 35 28 56
107 4 2 0 0 27 28 49 56
108 4 2 0 0 27 49 48 56
109 4 2 0 0 29 50 57 58
110 4 2 0 0 29 57 36 58
111 4 2 0 0 29 36 37 58
112 4 2 0 0 29 37 30 58
113 4 2 0 0 29 30 51 58
114 4 2 0 0 29 51 50 58
115 4 2 0 0 30 51 58 59
116 4 2 0 0 30 58 37 59
117 4 2 0 0 30 37 38 59
118 4 2 0 0 30 38 31 59
119 4 2 0 0 30 31 52 59
120 4 2 0 0 30 52 51 59
121 4 2 0 0 31 52 59 60
122 4 2 0 0 31 59 38 60
123 4 2 0 0 31 38 39 60
124 4 2 0 0 31 39 32 60
125 4 2 0 0 31 32 53 60
126 4 2 0 0 31 53 52 60
127 4 2 0 0 32 53 60 61
128 4 2 0 0 32 60 39 61
129 4 2 0 0 32 39 40 61
130 4 2 0 0 32 40 33 61
131 4 2 0 0 32 33 54 61
132 4 2 0 0 32 54 53 61
133 4 2 0 0 33 54 61 62
134 4 2 0 0 33 61 40 62
135 4 2 0 0 33 40 41 62
136 4 2 0 0 33 41 34 62
137 4 2 0 0 33 34 55 62
138 4 2 0 0 33 55 54 62
139 4 2 0 0 34 55 62 63
140 4 2 0 0 34 62 41 63
141 4 2 0 0 34 41 42 63
142 4 2 0 0 34 42 35 63
143 4 2 0 0 34 35 56 63
144 4 2 0 0 34 56 55 63
145 4 2 0 0 43 64 71 72
146 4 2 0 0 43 71 50 72
147 4 2 0 0 43 50 51 72
148 4 2 0 0 43 51 44 72
149 4 2 0 0 43 44 65 72
150 4 2 0 0 43 65 64 72
151 4 2 0 0 44 65 72 73
152 4 2 0 0 44 72 51 73
153 4 2 0 0 44 51 52 73
154 4 2 0 0 44 52 45 73
155 4 2 0 0 44 45 66 73
156 4 2 0 0 44 66 65 73
157 4 2 0 0 45 66 73 74
158 4 2 0 0 45 73 52 74
159 4 2 0 0 45 52 53 74
160 4 2 0 0 45 53 46 74
161 4 2 0 0 45 46 67 74
162 4 2 0 0 45 67 66 74
163 4 2 0 0 46 67 74 75
164 4 2 0 0 46 74 53 75
165 4 2 0 0 46 53 54 75
166 4 2 0 0 46 54 47 75
167 4 2 0 0 46 47 68 75
168 4 2 0 0 46 68 67 75
169 4 2 0 0 47 68 75 76
170 4 2 0 0 47 75 54 76
171 4 2 0 0 47 54 55 76
172 4 2 0 0 47 55 48 76
173 4 2 0 0 47 48 69 76
174 4 2 0 0 47 69 68 76
175 4 2 0 0 48 69 76 77
176 4 2 0 0 48 76 55 77
177 4 2 0 0 48 55 56 77
178 4 2 0 0 48 56 49 77
179 4 2 0 0 48 49 70 77
180 4 2 0 0 48 70 69 77
181 4 2 0 0 50 71 78 79
182 4 2 0 0 50 78 57 79
183 4 2 0 0 50 57 58 79
184 4 2 0 0 50 58 51 79
185 4 2 0 0 50 51 72 79
186 4 2 0 0 50 72 71 79
187 4 2 0 0 51 72 79 80
188 4 2 0 0 51 79 58 80
189 4 2 0 0 51 58 59 80
190 4 2 0 0 51 59 52 80
191 4 2 0 0 51 52 73 80
192 4 2 0 0 51 73 72 80
193 4 2 0 0 52 73 80 81
194 4 2 0 0 52 80 59 81
195 4 2 0 0 52 59 60 81
196 4 2 0 0 52 60 53 81
197 4 2 0 0 52 53 74 81
198 4 2 0 0 52 74 73 81
199 4 2 0 0 53 74 81 82
200 4 2 0 0 53 81 60 82
201 4 2 0 0 53 60 61 82
202 4 2 0 0 53 61 54 82
203 4 2 0 0 53 54 75 82
204 4 2 0 0 53 75 74 82
205 4 2 0 0 54 75 82 83
206 4 2 0 0 54 82 61 83
207 4 2 0 0 54 61 62 83
208 4 2 0 0 54 62 55 83
209 4 2 0 0 54 55 76 83
210 4 2 0 0 54 76 75 83
211 4 2 0 0 55 76 83 84
212 4 2 0 0 55 83 62 84
213 4 2 0 0 55 62 63 84
214 4 2 0 0 55 63 56 84
215 4 2 0 0 55 56 77 84
216 4 2 0 0 55 77 76 84
217 4 2 0 0 64 85 92 93
218 4 2 0 0 64 92 71 93
219 4 2 0 0 64 71 72 93
220 4 2 0 0 64 72 65 93
221 4 2 0 0 64 65 86 93
222 4 2 0 0 64 86 85 93
223 4 2 0 0 65 86 93 94
224 4 2 0 0 65 93 72 94
225 4 2 0 0 65 72 73 94
226 4 2 0 0 65 73 66 94
227 4 2 0 0 65 66 87 94
228 4 2 0 0 65 87 86 94
229 4 2 0 0 66 87 94 95
230 4 2 0 0 66 94 73 95
231 4 2 0 0 66 73 74 95
232 4 2 0 0 66 74 67 95
233 4 2 0 0 66 67 88 95
234 4 2 0 0 66 88 87 95
235 4 2 0 0 67 88 95 96
236 4 2 0 0 67 95 74 96
237 4 2 0 0 67 74 75 96
238 4 2 0 0 67 75 68 96
239 4 2 0 0 67 68 89 96
240 4 2 0 0 67 89 88 96
241 4 2 0 0 68 89 96 97
242 4 2 0 0 68 96 75 97
243 4 2 0 0 68 75 76 97
244 4 2 0 0 68 76 69 97
245 4 2 0 0 68 69 90 97
246 4 2 0 0 68 90 89 97
247 4 2 0 0 69 90 97 98
248 4 2 0 0 69 97 76 98
249 4 2 0 0 69 76 77 98
250 4 2 0 0 69 77 70 98
251 4 2 0 0 69 70 91 98
252 4 2 0 0 69 91 90 98
253 4 2 0 0 71 92 99 100
254 4 2 0 0 71 99 78 100
255 4 2 0 0 71 78 79 100
256 4 2 0 0 71 79 72 100
257 4 2 0 0 71 72 93 100
258 4 2 0 0 71 93 92 100
259 4 2 0 0 72 93 100 101
260 4 2 0 0 72 100 79 101
261 4 2 0 0 72 79 80 101
262 4 2 0 0 72 80 73 101
263 4 2 0 0 72 73 94 101
264 4 2 0 0 72 94 93 101
265 4 2 0 0 73 94 101 102
266 4 2 0 0 73 101 80 102
267 4 2 0 0 73 80 81 102
268 4 2 0 0 73 81 74 102
269 4 2 0 0 73 74 95 102
270 4 2 0 0 73 95 94 102
271 4 2 0 0 74 95 102 103
272 4 2 0 0 74 102 81 103
273 4 2 0 0 74 81 82 103
274 4 2 0 0 74 82 75 103
275 4 2 0 0 74 75 96 103
276 4 2 0 0 74 96 95 103
277 4 2 0 0 75 96 103 104
278 4 2 0 0 75 103 82 104
279 4 2 0 0 75 82 83 104
280 4 2 0 0 75 83 76 104
281 4 2 0 0 75 76 97 104
282 4 2 0 0 75 97 96 104
283 4 2 0 0 76 97 104 105
284 4 2 0 0 76 104 83 105
285 4 2 0 0 76 83 84 105
286 4 2 0 0 76 84 77 105
287 4 2 0 0 76 77 98 105
288 4 2 0 0 76 98 97 105
289 4 2 0 0 85 106 113 114
290 4 2 0 0 85 113 92 114
291 4 2 0 0 85 92 93 114
292 4 2 0 0 85 93 86 114
293 4 2 0 0 85 86 107 114
294 4 2 0 0 85 107 106 114
295 4 2 0 0 86 107 114 115
296 4 2 0 0 86 114 93 115
297 4 2 0 0 86 93 94 115
298 4 2 0 0 86 94 87 115
299 4 2 0 0 86 87 108 115
300 4 2 0 0 86 108 107 115
301 4 2 0 0 87 108 115 116
302 4 2 0 0 87 115 94 116
303 4 2 0 0 87 94 95 116
304 4 2 0 0 87 95 88 116
305 4 2 0 0 87 88 109 116
306 4 2 0 0 87 109 108 116
307 4 2 0 0 88 109 116 117
308 4 2 0 0 88 116 95 117
309 4 2 0 0 88 95 96 117
310 4 2 0 0 88 96 89 117
311 4 2 0 0 88 89 110 117
312 4 2 0 0 88 110 109 117
313 4 2 0 0 89 110 117 118
314 4 2 0 0 89 117 96 118
315 4 2 0 0 89 96 97 118
316 4 2 0 0 89 97 90 118
317 4 2 0 0 89 90 111 118
318 4 2 0 0 89 111 110 118
319 4 2 0 0 90 111 118 119
320 4 2 0 0 90 118 97 119
321 4 2 0 0 90 97 98 119
322 4 2 0 0 90 98 91 119
323 4 2 0 0 90 91 112 119
324 4 2 0 0 90 112 111 119
325 4 2 0 0 92 113 120 121
326 4 2 0 0 92 120 99 121
327 4 2 0 0 92 99 100 121
328 4 2 0 0 92 100 93 121
329 4 2 0 0 92 93 114 121
330 4 2 0 0 92 114 113 121
331 4 2 0 0 93 114 121 122
332 4 2 0 0 93 121 100 122
333 4 2 0 0 93 100 101 122
334 4 2 0 0 93 101 94 122
335 4 2 0 0 93 94 115 122
336 4 2 0 0 93 115 114 122
337 4 2 0 0 94 115 122 123
338 4 2 0 0 94 122 101 123
339 4 2 0 0 94 101 102 123
340 4 2 0 0 94 102 95 123
341 4 2 0 0 94 95 116 123
342 4 2 0 0 94 116 115 123
343 4 2 0 0 95 116 123 124
344 4 2 0 0 95 123 102 124
345 4 2 0 0 95 102 103 124
346 4 2 0 0 95 103 96 124
347 4 2 0 0 95 96 117 124
348 4 2 0 0 95 117 116 124
349 4 2 0 0 96 117 124 125
350 4 2 0 0 96 124 103 125
351 4 2 0 0 96 103 104 125
352 4 2 0 0 96 104 97 125
353 4 2 0 0 96 97 118 125
354 4 2 0 0 96 118 117 125
355 4 2 0 0 97 118 125 126
356 4 2 0 0 97 125 104 126
357 4 2 0 0 97 104 105 126
358 4 2 0 0 97 105 98 126
359 4 2 0 0 97 98 119 126
360 4 2 0 0 97 119 118 126
361 4 2 0 0 106 127 134 135
362 4 2 0 0 106 134 113 135
363 4 2 0 0 106 113 114 135
364 4 2 0 0 106 114 107 135
365 4 2 0 0 106 107 128 135
366 4 2 0 0 106 128 127 135
367 4 2 0 0 107 128 135 136
368 4 2 0 0 107 135 114 136
369 4 2 0 0 107 114 115 136
370 4 2 0 0 107 115 108 136
371 4 2 0 0 107 108 129 136
372 4 2 0 0 107 129 128 136
373 4 2 0 0 108 129 136 137
374 4 2 0 0 108 136 115 137
375 4 2 0 0 108 115 116 137
376 4 2 0 0 108 116 109 137
377 4 2 0 0 108 109 130 137
378 4 2 0 0 108 130 129 137
379 4 2 0 0 109 130 137 138
380 4 2 0 0 109 137 116 138
381 4 2 0 0 109 116 117 138
382 4 2 0 0 109 117 110 138
383 4 2 0 0 109 110 131 138
384 4 2 0 0 109 131 130 138
385 4 2 0 0 110 131 138 139
386 4 2 0 0 110 138 117 139
387 4 2 0 0 110 117 118 139
388 4 2 0 0 110 118 111 139
389 4 2 0 0 110 111 132 139
390 4 2 0 0 110 132 131 139
391 4 2 0 0 111 132 139 140
392 4 2 0 0 111 139 118 140
393 4 2 0 0 111 118 119 140
394 4 2 0 0 111 119 112 140
395 4 2 0 0 111 112 133 140
396 4 2 0 0 111 133 132 140
397 4 2 0 0 113 134 141 142
398 4 2 0 0 113 141 120 142
399 4 2 0 0 113 120 121 142
400 4 2 0 0 113 121 114 142
401 4 2 0 0 113 114 135 142
402 4 2 0 0 113 135 134 142
403 4 2 0 0 114 135 142 143
404 4 2 0 0 114 142 121 143
405 4 2 0 0 114 121 122 143
406 4 2 0 0 114 122 115 143
407 4 2 0 0 114 115 136 143
408 4 2 0 0 114 136 135 143
409 4 2 0 0 115 136 143 144
410 4 2 0 0 115 143 122 144
411 4 2 0 0 115 122 123 144
412 4 2 0 0 115 123 116 144
413 4 2 0 0 115 116 137 144
414 4 2 0 0 115 137 136 144
415 4 2 0 0 116 137 144 145
416 4 2 0 0 116 144 123 145
417 4 2 0 0 116 123 124 145
418 4 2 0 0 116 124 117 145
419 4 2 0 0 116 117 138 145
420 4 2 0 0 116 138 137 145
421 4 2 0 0 117 138 145 146
422 4 2 0 0 117 145 124 146
423 4 2 0 0 117 124 125 146
424 4 2 0 0 117 125 118 146
425 4 2 0 0 117 118 139 146
426 4 2 0 0 117 139 138 146
427 4 2 0 0 118 139 146 147
428 4 2 0 0 118 146 125 147
429 4 2 0 0 118 125 126 147
430 4 2 0 0 118 126 119 147
431 4 2 0 0 118 119 140 147
432 4 2 0 0 118 140 139 147
433 4 2 0 0 127 148 155 156
434 4 2 0 0 127 155 134 156
435 4 2 0 0 127 134 135 156
436 4 2 0 0 127 135 128 156
437 4 2 0 0 127 128 149 156
438 4 2 0 0 127 149 148 156
439 4 2 0 0 128 149 156 157
440 4 2 0 0 128 156 135 157
441 4 2 0 0 128 135 136 157
442 4 2 0 0 128 136 129 157
443 4 2 0 0 128 129 150 157
444 4 2 0 0 128 150 149 157
445 4 2 0 0 129 150 157 158
446 4 2 0 0 129 157 136 158
447 4 2 0 0 129 136 137 158
448 4 2 0 0 129 137 130 158
449 4 2 0 0 129 130 151 158
450 4 2 0 0 129 151 150 158
451 4 2 0 0 130 151 158 159
452 4 2 0 0 130 158 137 159
453 4 2 0 0 130 137 138 159
454 4 2 0 0 130 138 131 159
455 4 2 0 0 130 131 152 159
456 4 2 0 0 130 152 151 159
457 4 2 0 0 131 152 159 160
458 4 2 0 0 131 159 138 160
459 4 2 0 0 131 138 139 160
460 4 2 0 0 131 139 132 160
461 4 2 0 0 131 132 153 160
462 4 2 0 0 131 153 152 160
463 4 2 0 0 132 153 160 161
464 4 2 0 0 132 160 139 161
465 4 2 0 0 132 139 140 161
466 4 2 0 0 132 140 133 161
467 4 2 0 0 132 133 154 161
468 4 2 0 0 132 154 153 161
469 4 2 0 0 134 155 162 163
470 4 2 0 0 134 162 141 163
471 4 2 0 0 134 141 142 163
472 4 2 0 0 134 142 135 163
473 4 2 0 0 134 135 156 163
474 4 2 0 0 134 156 155 163
475 4 2 0 0 135 156 163 164
476 4 2 0 0 135 163 142 164
477 4 2 0 0 135 142 143 164
478 4 2 0 0 135 143 136 164
479 4 2 0 0 135 136 157 164
480 4 2 0 0 135 157 156 164
481 4 2 0 0 136 157 164 165
482 4 2 0 0 136 164 143 165
483 4 2 0 0 136 143 144 165
484 4 2 0 0 136 144 137 165
485 4 2 0 0 136 137 158 165
486 4 2 0 0 136 158 157 165
487 4 2 0 0 137 158 165 166
488 4 2 0 0 137 165 144 166
489 4 2 0 0 137 144 145 166
490 4 2 0 0 137 145 138 166
491 4 2 0 0 137 138 159 166
492 4 2 0 0 137 159 158 166
493 4 2 0 0 138 159 166 167
494 4 2 0 0 138 166 145 167
495 4 2 0 0 138 145 146 167
496 4 2 0 0 138 146 139 167
497 4 2 0 0 138 139 160 167
498 4 2 0 0 138 160 159 167
499 4 2 0 0 139 160 167 168
500 4 2 0 0 139 167 146 168
501 4 2 0 0 139 146 147 168
502 4 2 0 0 139 147 140 168
503 4 2 0 0 139 140 161 168
504 4 2 0 0 139 161 160 168
505 4 2 0 0 148 169 176 177
506 4 2 0 0 148 176 155 177
507 4 2 0 0 148 155 156 177
508 4 2 0 0 148 156 149 177
509 4 2 0 0 148 149 170 177
510 4 2 0 0 148 170 169 177
511 4 2 0 0 149 170 177 178
512 4 2 0 0 149 177 156 178
513 4 2 0 0 149 156 157 178
514 4 2 0 0 149 157 150 178
515 4 2 0 0 149 150 171 178
516 4 2 0 0 149 171 170 178
517 4 2 0 0 150 171 178 179
518 4 2 0 0 150 178 157 179
519 4 2 0 0 150 157 158 179
520 4 2 0 0 150 158 151 179
521 4 2 0 0 150 151 172 179
522 4 2 0 0 150 172 171 179
523 4 2 0 0 151 172 179 180
524 4 2 0 0 151 179 158 180
525 4 2 0 0 151 158 159 180
526 4 2 0 0 151 159 152 180
527 4 2 0 0 151 152 173 180
528 4 2 0 0 151 173 172 180
529 4 2 0 0 152 173 180 181
530 4 2 0 0 152 180 159 181
531 4 2 0 0 152 159 160 181
532 4 2 0 0 152 160 153 181
533 4 2 0 0 152 153 174 181
534 4 2 0 0 152 174 173 181
535 4 2 0 0 153 174 181 182
536 4 2 0 0 153 181 160 182
537 4 2 0 0 153 160 161 182
538 4 2 0 0 153 161 154 182
539 4 2 0 0 153 154 175 182
540 4 2 0 0 153 175 174 182
541 4 2 0 0 155 176 183 184
542 4 2 0 0 155 183 162 184
543 4 2 0 0 155 162 163 184
544 4 2 0 0 155 163 156 184
545 4 2 0 0 155 156 177 184
546 4 2 0 0 155 177 176 184
547 4 2 0 0 156 177 184 185
548 4 2 0 0 156 184 163 185
549 4 2 0 0 156 163 164 185
550 4 2 0 0 156 164 157 185
551 4 2 0 0 156 157 178 185
552 4 2 0 0 156 178 177 185
553 4 2 0 0 157 178 185 186
554 4 2 0 0 157 185 164 186
555 4 2 0 0 157 164 165 186
556 4 2 0 0 157 165 158 186
557 4 2 0 0 157 158 179 186
558 4 2 0 0 157 179 178 186
559 4 2 0 0 158 179 186 187
560 4 2 0 0 158 186 165 187
561 4 2 0 0 158 165 166 187
562 4 2 0 0 158 166 159 187
563 4 2 0 0 158 159 180 187
564 4 2 0 0 158 180 179 187
565 4 2 0 0 159 180 187 188
566 4 2 0 0 159 187 166 188
567 4 2 0 0 159 166 167 188
568 4 2 0 0 159 167 160 188
569 4 2 0 0 159 160 181 188
570 4 2 0 0 159 181 180 188
571 4 2 0 0 160 181 188 189
572 4 2 0 0 160 188 167 189
573 4 2 0 0 160 167 168 189
574 4 2 0 0 160 168 161 189
575 4 2 0 0 160 161 182 189
576 4 2 0 0 160 182 181 189
577 4 2 0 0 169 190 197 198
578 4 2 0 0 169 197 176 198
579 4 2 0 0 169 176 177 198
580 4 2 0 0 169 177 170 198
581 4 2 0 0 169 170 191 198
582 4 2 0 0 169 191 190 198
583 4 2 0 0 170 191 198 199
584 4 2 0 0 170 198 177 199
585 4 2 0 0 170 177 178 199
586 4 2 0 0 170 178 171 199
587 4 2 0 0 170 171 192 199
588 4 2 0 0 170 192 191 199
589 4 2 0 0 171 192 199 200
590 4 2 0 0 171 199 178 200
591 4 2 0 0 171 178 179 200
592 4 2 0 0 171 179 172 200
593 4 2 0 0 171 172 193 200
594 4 2 0 0 171 193 192 200
595 4 2 0 0 172 193 200 201
596 4 2 0 0 172 200 179 201
597 4 2 0 0 172 179 180 201
598 4 2 0 0 172 180 173 201
599 4 2 0 0 172 173 194 201
600 4 2 0 0 172 194 193 201
601 4 2 0 0 173 194 201 202
602 4 2 0 0 173 201 180 202
603 4 2 0 0 173 180 181 202
604 4 2 0 0 173 181 174 202
605 4 2 0 0 173 174 195 202
606 4 2 0 0 173 195 194 202
607 4 2 0 0 174 195 202 203
608 4 2 0 0 174 202 181 203
609 4 2 0 0 174 181 182 203
610 4 2 0 0 174 182 175 203
611 4 2 0 0 174 175 196 203
612 4 2 0 0 174 196 195 203
613 4 2 0 0 176 197 204 205
614 4 2 0 0 176 204 183 205
615 4 2 0 0 176 183 184 205
616 4 2 0 0 176 184 177 205
617 4 2 0 0 176 177 198 205
618 4 2 0 0 176 198 197 205
619 4 2 0 0 177 198 205 206
620 4 2 0 0 177 205 184 206
621 4 2 0 0 177 184 185 206
622 4 2 0 0 177 185 178 206
623 4 2 0 0 177 178 199 206
624 4 2 0 0 177 199 198 206
625 4 2 0 0 178 199 206 207
626 4 2 0 0 178 206 185 207
627 4 2 0 0 178 185 186 207
628 4 2 0 0 178 186 179 207
629 4 2 0 0 178 179 200 207
630 4 2 0 0 178 200 199 207
631 4 2 0 0 179 200 207 208
632 4 2 0 0 179 207 186 208
633 4 2 0 0 179 186 187 208
634 4 2 0 0 179 187 180 208
635 4 2 0 0 179 180 201 208
636 4 2 0 0 179 201 200 208
637 4 2 0 0 180 201 208 209
638 4 2 0 0 180 208 187 209
639 4 2 0 0 180 187 188 209
640 4 2 0 0 180 188 181 209
641 4 2 0 0 180 181 202 209
642 4 2 0 0 180 202 201 209
643 4 2 0 0 181 202 209 210
644 4 2 0 0 181 209 188 210
645 4 2 0 0 181 188 189 210
646 4 2 0 0 181 189 182 210
647 4 2 0 0 181 182 203 210
648 4 2 0 0 181 203 202 210
649 4 2 0 0 190 211 218 219
650 4 2 0 0 190 218 197 219
651 4 2 0 0 190 197 198 219
652 4 2 0 0 190 198 191 219
653 4 2 0 0 190 191 212 219
654 4 2 0 0 190 212 211 219
655 4 2 0 0 191 212 219 220
656 4 2 0 0 191 219 198 220
657 4 2 0 0 191 198 199 220
658 4 2 0 0 191 199 192 220
659 4 2 0 0 191 192 213 220
660 4 2 0 0 191 213 212 220
661 4 2 0 0 192 213 220 221
662 4 2 0 0 192 220 199 221
663 4 2 0 0 192 199 200 221
664 4 2 0 0 192 200 193 221
665 4 2 0 0 192 193 214 221
666 4 2 0 0 192 214 213 221
667 4 2 0 0 193 214 221 222
668 4 2 0 0 193 221 200 222
669 4 2 0 0 193 200 201 222
670 4 2 0 0 193 201 194 222
671 4 2 0 0 193 194 215 222
672 4 2 0 0 193 215 214 222
673 4 2 0 0 194 215 222 223
674 4 2 0 0 194 222 201 223
675 4 2 0 0 194 201 202 223
676 4 2 0 0 194 202 195 223
677 4 2 0 0 194 195 216 223
678 4 2 0 0 194 216 215 223
679 4 2 0 0 195 216 223 224
680 4 2 0 0 195 223 202 224
681 4 2 0 0 195 202 203 224
682 4 2 0 0 195 203 196 224
683 4 2 0 0 195 196 217 224
684 4 2 0 0 195 217 216 224
685 4 2 0 0 197 218 225 226
686 4 2 0 0 197 225 204 226
687 4 2 0 0 197 204 205 226
688 4 2 0 0 197 205 198 226
689 4 2 0 0 197 198 219 226
690 4 2 0 0 197 219 218 226
691 4 2 0 0 198 219 226 227
692 4 2 0 0 198 226 205 227
693 4 2 0 0 198 205 206 227
694 4 2 0 0 198 206 199 227
695 4 2 0 0 198 199 220 227
696 4 2 0 0 198 220 219 227
697 4 2 0 0 199 220 227 228
698 4 2 0 0 199 227 206 228
699 4 2 0 0 199 206 207 228
700 4 2 0 0 199 207 200 228
701 4 2 0 0 199 200 221 228
702 4 2 0 0 199 221 220 228
703 4 2 0 0 200 221 228 229
704 4 2 0 0 200 228 207 229
705 4 2 0 0 200 207 208 229
706 4 2 0 0 200 208 201 229
707 4 2 0 0 200 201 222 229
708 4 2 0 0 200 222 221 229
709 4 2 0 0 201 222 229 230
710 4 2 0 0 201 229 208 230
711 4 2 0 0 201 208 209 230
712 4 2 0 0 201 209 202 230
713 4 2 0 0 201 202 223 230
714 4 2 0 0 201 223 222 230
715 4 2 0 0 202 223 230 231
716 4 2 0 0 202 230 209 231
717 4 2 0 0 202 209 210 231
718 4 2 0 0 202 210 203 231
719 4 2 0 0 202 203 224 231
720 4 2 0 0 202 224 223 231
721 4 2 0 0 211 232 239 240
722 4 2 0 0 211 239 218 240
723 4 2 0 0 211 218 219 240
724 4 2 0 0 211 219 212 240
725 4 2 0 0 211 212 233 240
726 4 2 0 0 211 233 232 240
727 4 2 0 0 212 233 240 241
728 4 2 0 0 212 240 219 241
729 4 2 0 0 212 219 220 241
730 4 2 0 0 212 220 213 241
731 4 2 0 0 212 213 234 241
732 4 2 0 0 212 234 233 241
733 4 2 0 0 213 234 241 242
734 4 2 0 0 213 241 220 242
735 4 2 0 0 213 220 221 242
736 4 2 0 0 213 221 214 242
737 4 2 0 0 213 214 235 242
738 4 2 0 0 213 235 234 242
739 4 2 0 0 214 235 242 243
740 4 2 0 0 214 242 221 243
741 4 2 0 0 214 221 222 243
742 4 2 0 0 214 222 215 243
743 4 2 0 0 214 215 236 243
744 4 2 0 0 214 236 235 243
745 4 2 0 0 215 236 243 244
746 4 2 0 0 215 243 222 244
747 4 2 0 0 215 222 223 244
748 4 2 0 0 215 223 216 244
749 4 2 0 0 215 216 237 244
750 4 2 0 0 215 237 236 244
751 4 2 0 0 216 237 244 245
752 4 2 0 0 216 244 223 245
753 4 2 0 0 216 223 224 245
754 4 2 0 0 216 224 217 245
755 4 2 0 0 216 217 238 245
756 4 2 0 0 216 238 237 245
757 4 2 0 0 218 239 246 247
758 4 2 0 0 218 246 225 247
759 4 2 0 0 218 225 226 247
760 4 2 0 0 218 226 219 247
761 4 2 0 0 218 219 240 247
762 4 2 0 0 218 240 239 247
763 4 2 0 0 219 240 247 248
764 4 2 0 0 219 247 226 248
765 4 2 0 0 219 226 227 248
766 4 2 0 0 219 227 220 248
767 4 2 0 0 219 220 241 248
768 4 2 0 0 219 241 240 248
769 4 2 0 0 220 241 248 249
770 4 2 0 0 220 248 227 249
771 4 2 0 0 220 227 228 249
772 4 2 0 0 220 228 221 249
773 4 2 0 0 220 221 242 249
774 4 2 0 0 220 242 241 249
775 4 2 0 0 221 242 249 250
776 4 2 0 0 221 249 228 250
777 4 2 0 0 221 228 229 250
778 4 2 0 0 221 229 222 250
779 4 2 0 0 221 222 243 250
780 4 2 0 0 221 243 242 250
781 4 2 0 0 222 243 250 251
782 4 2 0 0 222 250 229 251
783 4 2 0 0 222 229 230 251
784 4 2 0 0 222 230 223 251
785 4 2 0 0 222 223 244 251
786 4 2 0 0 222 244 243 251
787 4 2 0 0 223 244 251 252
788 4 2 0 0 223 251 230 252
789 4 2 0 0 223 230 231 252
790 4 2 0 0 223 231 224 252
791 4 2 0 0 223 224 245 252
792 4 2 0 0 223 245 244 252
793 4 2 0 0 232 253 260 261
794 4 2 0 0 232 260 239 261
795 4 2 0 0 232 239 240 261
796 4 2 0 0 232 240 233 261
797 4 2 0 0 232 233 254 261
798 4 2 0 0 232 254 253 261
799 4 2 0 0 233 254 261 262
800 4 2 0 0 233 261 240 262
801 4 2 0 0 233 240 241 262
802 4 2 0 0 233 241 234 262
803 4 2 0 0 233 234 255 262
804 4 2 0 0 233 255 254 262
805 4 2 0 0 234 255 262 263
806 4 2 0 0 234 262 241 263
807 4 2 0 0 234 241 242 263
808 4 2 0 0 234 242 235 263
809 4 2 0 0 234 235 256 263
810 4 2 0 0 234 256 255 263
811 4 2 0 0 235 256 263 264
812 4 2 0 0 235 263 242 264
813 4 2 0 0 235 242 243 264
814 4 2 0 0 235 243 236 264
815 4 2 0 0 235 236 257 264
816 4 2 0 0 235 257 256 264
817 4 2 0 0 236 257 264 265
818 4 2 0 0 236 264 243 265
819 4 2 0 0 236 243 244 265
820 4 2 0 0 236 244 237 265
821 4 2 0 0 236 237 258 265
822 4 2 0 0 236 258 257 265
823 4 2 0 0 237 258 265 266
824 4 2 0 0 237 265 244 266
825 4 2 0 0 237 244 245 266
826 4 2 0 0 237 245 238 266
827 4 2 0 0 237 238 259 266
828 4 2 0 0 237 259 258 266
829 4 2 0 0 239 260 267 268
830 4 2 0 0 239 267 246 268
831 4 2 0 0 239 246 247 268
832 4 2 0 0 239 247 240 268
833 4 2 0 0 239 240 261 268
834 4 2 0 0 239 261 260 268
835 4 2 0 0 240 261 268 269
836 4 2 0 0 240 268 247 269
837 4 2 0 0 240 247 248 269
838 4 2 0 0 240 248 241 269
839 4 2 0 0 240 241 262 269
840 4 2 0 0 240 262 261 269
841 4 2 0 0 241 262 269 270
842 4 2 0 0 241 269 248 270
843 4 2 0 0 241 248 249 270
844 4 2 0 0 241 249 242 270
845 4 2 0 0 241 242 263 270
846 4 2 0 0 241 263 262 270
847 4 2 0 0 242 263 270 271
848 4 2 0 0 242 270 249 271
849 4 2 0 0 242 249 250 271
850 4 2 0 0 242 250 243 271
851 4 2 0 0 242 243 264 271
852 4 2 0 0 242 264 263 271
853 4 2 0 0 243 264 271 272
854 4 2 0 0 243 271 250 272
855 4 2 0 0 243 250 251 272
856 4 2 0 0 243 251 244 272
857 4 2 0 0 243 244 265 272
858 4 2 0 0 243 265 264 272
859 4 2 0 0 244 265 272 273
860 4 2 0 0 244 272 251 273
861 4 2 0 0 244 251 252 273
862 4 2 0 0 244 252 245 273
863 4 2 0 0 244 245 266 273
864 4 2 0 0 244 266 265 273
865 4 2 0 0 253 274 281 282
866 4 2 0 0 253 281 260 282
867 4 2 0 0 253 260 261 282
868 4 2 0 0 253 261 254 282
869 4 2 0 0 253 254 275 282
870 4 2 0 0 253 275 274 282
871 4 2 0 0 254 275 282 283
872 4 2 0 0 254 282 261 283
873 4 2 0 0 254 261 262 283
874 4 2 0 0 254 262 255 283
875 4 2 0 0 254 255 276 283
876 4 2 0 0 254 276 275 283
877 4 2 0 0 255 276 283 284
878 4 2 0 0 255 283 262 284
879 4 2 0 0 255 262 263 284
880 4 2 0 0 255 263 256 284
881 4 2 0 0 255 256 277 284
882 4 2 0 0 255 277 276 284
883 4 2 0 0 256 277 284 285
884 4 2 0 0 256 284 263 285
885 4 2 0 0 256 263 264 285
886 4 2 0 0 256 264 257 285
887 4 2 0 0 256 257 278 285
888 4 2 0 0 256 278 277 285
889 4 2 0 0 257 278 285 286
890 4 2 0 0 257 285 264 286
891 4 2 0 0 257 264 265 286
892 4 2 0 0 257 265 258 286
893 4 2 0 0 257 258 279 286
894 4 2 0 0 257 279 278 286
895 4 2 0 0 258 279 286 287
896 4 2 0 0 258 286 265 287
897 4 2 0 0 258 265 266 287
898 4 2 0 0 258 266 259 287
899 4 2 0 0 258 259 280 287
900 4 2 0 0 258 280 279 287
901 4 2 0 0 260 281 288 289
902 4 2 0 0 260 288 267 289
903 4 2 0 0 260 267 268 289
904 4 2 0 0 260 268 261 289
905 4 2 0 0 260 261 282 289
906 4 2 0 0 260 282 281 289
907 4 2 0 0 261 282 289 290
908 4 2 0 0 261 289 268 290
909 4 2 0 0 261 268 269 290
910 4 2 0 0 261 269 262 290
911 4 2 0 0 261 262 283 290
912 4 2 0 0 261 283 282 290
913 4 2 0 0 262 283 290 291
914 4 2 0 0 262 290 269 291
915 4 2 0 0 262 269 270 291
916 4 2 0 0 262 270 263 291
917 4 2 0 0 262 263 284 291
918 4 2 0 0 262 284 283 291
919 4 2 0 0 263 284 291 292
920 4 2 0 0 263 291 270 292
921 4 2 0 0 263 270 271 292
922 4 2 0 0 263 271 264 292
923 4 2 0 0 263 264 285 292
924 4 2 0 0 263 285 284 292
925 4 2 0 0 264 285 292 293
926 4 2 0 0 264 292 271 293
927 4 2 0 0 264 271 272 293
928 4 2 0 0 264 272 265 293
929 4 2 0 0 264 265 286 293
930 4 2 0 0 264 286 285 293
931 4 2 0 0 265 286 293 294
932 4 2 0 0 265 293 272 294
933 4 2 0 0 265 272 273 294
934 4 2 0 0 265 273 266 294
935 4 2 0 0 265 266 287 294
936 4 2 0 0 265 287 286 294
937 4 2 0 0 274 295 302 303
938 4 2 0 0 274 302 281 303
939 4 2 0 0 274 281 282 303
940 4 2 0 0 274 282 275 303
941 4 2 0 0 274 275 296 303
942 4 2 0 0 274 296 295 303
943 4 2 0 0 275 296 303 304
944 4 2 0 0 275 303 282 304
945 4 2 0 0 275 282 283 304
946 4 2 0 0 275 283 276 304
947 4 2 0 0 275 276 297 304
948 4 2 0 0 275 297 296 304
949 4 2 0 0 276 297 304 305
950 4 2 0 0 276 304 283 305
951 4 2 0 0 276 283 284 305
952 4 2 0 0 276 284 277 305
953 4 2 0 0 276 277 298 305
954 4 2 0 0 276 298 297 305
955 4 2 0 0 277 298 305 306
956 4 2 0 0 277 305 284 306
957 4 2 0 0 277 284 285 306
958 4 2 0 0 277 285 278 306
959 4 2 0 0 277 278 299 306
960 4 2 0 0 277 299 298 306
961 4 2 0 0 278 299 306 307
962 4 2 0 0 278 306 285 307
963 4 2 0 0 278 285 286 307
964 4 2 0 0 278 286 279 307
965 4 2 0 0 278 279 300 307
966 4 2 0 0 278 300 299 307
967 4 2 0 0 279 300 307 308
968 4 2 0 0 279 307 286 308
969 4 2 0 0 279 286 287 308
970 4 2 0 0 279 287 280 308
971 4 2 0 0 279 280 301 308
972 4 2 0 0 279 301 300 308
973 4 2 0 0 281 302 309 310
974 4 2 0 0 281 309 288 310
975 4 2 0 0 281 288 289 310
976 4 2 0 0 281 289 282 310
977 4 2 0 0 281 282 303 310
978 4 2 0 0 281 303 302 310
979 4 2 0 0 282 303 310 311
980 4 2 0 0 282 310 289 311
981 4 2 0 0 282 289 290 311
982 4 2 0 0 282 290 283 311
983 4 2 0 0 282 283 304 311
984 4 2 0 0 282 304 303 311
985 4 2 0 0 283 304 311 312
986 4 2 0 0 283 311 290 312
987 4 2 0 0 283 290 291 312
988 4 2 0 0 283 291 284 312
989 4 2 0 0 283 284 305 312
990 4 2 0 0 283 305 304 312
991 4 2 0 0 284 305 312 313
992 4 2 0 0 284 312 291 313
993 4 2 0 0 284 291 292 313
994 4 2 0 0 284 292 285 313
995 4 2 0 0 284 285 306 313
996 4 2 0 0 284 306 305 313
997 4 2 0 0 285 306 313 314
998 4 2 0 0 285 313 292 314
999 4 2 0 0 285 292 293 314
1000 4 2 0 0 285 293 286 314
1001 4 2 0 0 285 286 307 314
1002 4 2 0 0 285 307 306 314
1003 4 2 0 0 286 307 314 315
1004 4 2 0 0 286 314 293 315
1005 4 2 0 0 286 293 294 315
1006 4 2 0 0 286 294 287 315
1007 4 2 0 0 286 287 308 315
1008 4 2 0 0 286 308 307 315
1009 4 2 0 0 295 316 323 324
1010 4 2 0 0 295 323 302 324
1011 4 2 0 0 295 302 303 324
1012 4 2 0 0 295 303 296 324
1013 4 2 0 0 295 296 317 324
1014 4 2 0 0 295 317 316 324
1015 4 2 0 0 296 317 324 325
1016 4 2 0 0 296 324 303 325
1017 4 2 0 0 296 303 304 325
1018 4 2 0 0 296 304 297 325
1019 4 2 0 0 296 297 318 325
1020 4 2 0 0 296 318 317 325
1021 4 2 0 0 297 318 325 326
1022 4 2 0 0 297 325 304 326
1023 4 2 0 0 297 304 305 326
1024 4 2 0 0 297 305 298 326
1025 4 2 0 0 297 298 319 326
1026 4 2 0 0 297 319 318 326
1027 4 2 0 0 298 319 326 327
1028 4 2 0 0 298 326 305 327
1029 4 2 0 0 298 305 306 327
1030 4 2 0 0 298 306 299 327
1031 4 2 0 0 298 299 320 327
1032 4 2 0 0 298 320 319 327
1033 4 2 0 0 299 320 327 328
1034 4 2 0 0 299 327 306 328
1035 4 2 0 0 299 306 307 328
1036 4 2 0 0 299 307 300 328
1037 4 2 0 0 299 300 321 328
1038 4 2 0 0 299 321 320 328
1039 4 2 0 0 300 321 328 329
1040 4 2 0 0 300 328 307 329
1041 4 2 0 0 300 307 308 329
1042 4 2 0 0 300 308 301 329
1043 4 2 0 0 300 301 322 329
1044 4 2 0 0 300 322 321 329
1045 4 2 0 0 302 323 330 331
1046 4 2 0 0 302 330 309 331
1047 4 2 0 0 302 309 310 331
1048 4 2 0 0 302 310 303 331
1049 4 2 0 0 302 303 324 331
1050 4 2 0 0 302 324 323 331
1051 4 2 0 0 303 324 331 332
1052 4 2 0 0 303 331 310 332
1053 4 2 0 0 303 310 311 332
1054 4 2 0 0 303 311 304 332
1055 4 2 0 0 303 304 325 332
1056 4 2 0 0 303 325 324 332
1057 4 2 0 0 304 325 332 333
1058 4 2 0 0 304 332 311 333
1059 4 2 0 0 304 311 312 333
1060 4 2 0 0 304 312 305 333
1061 4 2 0 0 304 305 326 333
1062 4 2 0 0 304 326 325 333
1063 4 2 0 0 305 326 333 334
1064 4 2 0 0 305 333 312 334
1065 4 2 0 0 305 312 313 334
1066 4 2 0 0 305 313 306 334
1067 4 2 0 0 305 306 327 334
1068 4 2 0 0 305 327 326 334
1069 4 2 0 0 306 327 334 335
1070 4 2 0 0 306 334 313 335
1071 4 2 0 0 306 313 314 335
1072 4 2 0 0 306 314 307 335
1073 4 2 0 0 306 307 328 335
1074 4 2 0 0 306 328 327 335
1075 4 2 0 0 307 328 335 336
1076 4 2 0 0 307 335 314 336
1077 4 2 0 0 307 314 315 336
1078 4 2 0 0 307 315 308 336
1079 4 2 0 0 307 308 329 336
1080 4 2 0 0 307 329 328 336
1081 4 2 0 0 316 337 344 345
1082 4 2 0 0 316 344 323 345
1083 4 2 0 0 316 323 324 345
1084 4 2 0 0 316 324 317 345
1085 4 2 0 0 316 317 338 345
1086 4 2 0 0 316 338 337 345
1087 4 2 0 0 317 338 345 346
1088 4 2 0 0 317 345 324 346
1089 4 2 0 0 317 324 325 346
1090 4 2 0 0 317 325 318 346
1091 4 2 0 0 317 318 339 346
1092 4 2 0 0 317 339 338 346
1093 4 2 0 0 318 339 346 347
1094 4 2 0 0 318 346 325 347
1095 4 2 0 0 318 325 326 347
1096 4 2 0 0 318 326 319 347
1097 4 2 0 0 318 319 340 347
1098 4 2 0 0 318 340 339 347
1099 4 2 0 0 319 340 347 348
1100 4 2 0 0 319 347 326 348
1101 4 2 0 0 319 326 327 348
1102 4 2 0 0 319 327 320 348
1103 4 2 0 0 319 320 341 348
1104 4 2 0 0 319 341 340 348
1105 4 2 0 0 320 341 348 349
1106 4 2 0 0 320 348 327 349
1107 4 2 0 0 320 327 328 349
1108 4 2 0 0 320 328 321 349
1109 4 2 0 0 320 321 342 349
1110 4 2 0 0 320 342 341 349
1111 4 2 0 0 321 342 349 350
1112 4 2 0 0 321 349 328 350
1113 4 2 0 0 321 328 329 350
1114 4 2 0 0 321 329 322 350
1115 4 2 0 0 321 322 343 350
1116 4 2 0 0 321 343 342 350
1117 4 2 0 0 323 344 351 352
1118 4 2 0 0 323 351 330 352
1119 4 2 0 0 323 330 331 352
1120 4 2 0 0 323 331 324 352
1121 4 2 0 0 323 324 345 352
1122 4 2 0 0 323 345 344 352
1123 4 2 0 0 324 345 352 353
1124 4 2 0 0 324 352 331 353
1125 4 2 0 0 324 331 332 353
1126 4 2 0 0 324 332 325 353
1127 4 2 0 0 324 325 346 353
1128 4 2 0 0 324 346 345 353
1129 4 2 0 0 325 346 353 354
1130 4 2 0 0 325 353 332 354
1131 4 2 0 0 325 332 333 354
1132 4 2 0 0 325 333 326 354
1133 4 2 0 0 325 326 347 354
1134 4 2 0 0 325 347 346 354
1135 4 2 0 0 326 347 354 355
1136 4 2 0 0 326 354 333 355
1137 4 2 0 0 326 333 334 355
1138 4 2 0 0 326 334 327 355
1139 4 2 0 0 326 327 348 355
1140 4 2 0 0 326 348 347 355
1141 4 2 0 0 327 348 355 356
1142 4 2 0 0 327 355 334 356
1143 4 2 0 0 327 334 335 356
1144 4 2 0 0 327 335 328 356
1145 4 2 0 0 327 328 349 356
1146 4 2 0 0 327 349 348 356
1147 4 2 0 0 328 349 356 357
1148 4 2 0 0 328 356 335 357
1149 4 2 0 0 328 335 336 357
1150 4 2 0 0 328 336 329 357
1151 4 2 0 0 328 329 350 357
1152 4 2 0 0 328 350 349 357
$EndElements
