$MeshFormat
2.2 0 8
$EndMeshFormat
$Nodes
476
1 1.0358499004712900e+01 0.0000000000000000e+00 -1.5338122650016571e+01
2 1.0241500995287101e+01 0.0000000000000000e+00 -1.5061877349983428e+01
3 1.2158499004712901e+01 0.0000000000000000e+00 -1.4575769708840101e+01
4 1.2041500995287102e+01 0.0000000000000000e+00 -1.4299524408806958e+01
5 1.3958499004712900e+01 0.0000000000000000e+00 -1.3813416767663629e+01
6 1.3841500995287101e+01 0.0000000000000000e+00 -1.3537171467630486e+01
7 1.5758499004712899e+01 0.0000000000000000e+00 -1.3051063826487159e+01
8 1.5641500995287100e+01 0.0000000000000000e+00 -1.2774818526454016e+01
9 1.7558499004712900e+01 0.0000000000000000e+00 -1.2288710885310689e+01
10 1.7441500995287100e+01 0.0000000000000000e+00 -1.2012465585277546e+01
11 2.0064054560268456e+01 0.0000000000000000e+00 -1.1227534414722452e+01
12 1.9947056550842657e+01 0.0000000000000000e+00 -1.0951289114689310e+01
13 2.2569610115824009e+01 0.0000000000000000e+00 -1.0166357944134218e+01
14 2.2452612106398210e+01 0.0000000000000000e+00 -9.8901126441010749e+00
15 2.5075165671379565e+01 0.0000000000000000e+00 -9.1051814735459811e+00
16 2.4958167661953766e+01 0.0000000000000000e+00 -8.8289361735128384e+00
17 2.7580721226935118e+01 0.0000000000000000e+00 -8.0440050029577481e+00
18 2.7463723217509319e+01 0.0000000000000000e+00 -7.7677597029246064e+00
19 3.0086276782490675e+01 0.0000000000000000e+00 -6.9828285323695107e+00
20 2.9969278773064875e+01 0.0000000000000000e+00 -6.7065832323363699e+00
21 3.2591832338046231e+01 0.0000000000000000e+00 -5.9216520617812760e+00
22 3.2474834328620432e+01 0.0000000000000000e+00 -5.6454067617481352e+00
23 3.5097387893601784e+01 0.0000000000000000e+00 -4.8604755911930413e+00
24 3.4980389884175985e+01 0.0000000000000000e+00 -4.5842302911599004e+00
25 3.7602943449157337e+01 0.0000000000000000e+00 -3.7992991206048066e+00
26 3.7485945439731537e+01 0.0000000000000000e+00 -3.5230538205716657e+00
27 4.0108499004712897e+01 0.0000000000000000e+00 -2.7381226500165701e+00
28 3.9991500995287097e+01 0.0000000000000000e+00 -2.4618773499834292e+00
29 1.0308620000739431e+01 1.0153104505485582e+00 -1.5338122650016571e+01
30 1.0192185368707827e+01 1.0038426402403904e+00 -1.5061877349983428e+01
31 1.2099952508749388e+01 1.1917413031417674e+00 -1.4575769708840101e+01
32 1.1983517876717782e+01 1.1802734928335996e+00 -1.4299524408806958e+01
33 1.3891285016759340e+01 1.3681721557349764e+00 -1.3813416767663629e+01
34 1.3774850384727735e+01 1.3567043454268084e+00 -1.3537171467630486e+01
35 1.5682617524769293e+01 1.5446030083281854e+00 -1.3051063826487159e+01
36 1.5566182892737688e+01 1.5331351980200174e+00 -1.2774818526454016e+01
37 1.7473950032779250e+01 1.7210338609213944e+00 -1.2288710885310689e+01
38 1.7357515400747644e+01 1.7095660506132266e+00 -1.2012465585277546e+01
39 1.9967440653496809e+01 1.9666212514137937e+00 -1.1227534414722452e+01
40 1.9851006021465203e+01 1.9551534411056257e+00 -1.0951289114689310e+01
41 2.2460931274214367e+01 2.2122086419061926e+00 -1.0166357944134218e+01
42 2.2344496642182762e+01 2.2007408315980248e+00 -9.8901126441010749e+00
43 2.4954421894931929e+01 2.4577960323985915e+00 -9.1051814735459811e+00
44 2.4837987262900324e+01 2.4463282220904237e+00 -8.8289361735128384e+00
45 2.7447912515649485e+01 2.7033834228909903e+00 -8.0440050029577481e+00
46 2.7331477883617879e+01 2.6919156125828225e+00 -7.7677597029246064e+00
47 2.9941403136367047e+01 2.9489708133833896e+00 -6.9828285323695107e+00
48 2.9824968504335441e+01 2.9375030030752218e+00 -6.7065832323363699e+00
49 3.2434893757084609e+01 3.1945582038757885e+00 -5.9216520617812760e+00
50 3.2318459125053003e+01 3.1830903935676207e+00 -5.6454067617481352e+00
51 3.4928384377802168e+01 3.4401455943681873e+00 -4.8604755911930413e+00
52 3.4811949745770562e+01 3.4286777840600196e+00 -4.5842302911599004e+00
53 3.7421874998519719e+01 3.6857329848605862e+00 -3.7992991206048066e+00
54 3.7305440366488114e+01 3.6742651745524184e+00 -3.5230538205716657e+00
55 3.9915365619237285e+01 3.9313203753529860e+00 -2.7381226500165701e+00
56 3.9798930987205679e+01 3.9198525650448182e+00 -2.4618773499834292e+00
57 1.0159463350893926e+01 2.0208429064331836e+00 -1.5338122650016571e+01
58 1.0044713425412622e+01 1.9980177270990584e+00 -1.5061877349983428e+01
59 1.1924876855619742e+01 2.3720054860622146e+00 -1.4575769708840101e+01
60 1.1810126930138438e+01 2.3491803067280896e+00 -1.4299524408806958e+01
61 1.3690290360345555e+01 2.7231680656912451e+00 -1.3813416767663629e+01
62 1.3575540434864251e+01 2.7003428863571202e+00 -1.3537171467630486e+01
63 1.5455703865071369e+01 3.0743306453202761e+00 -1.3051063826487159e+01
64 1.5340953939590065e+01 3.0515054659861507e+00 -1.2774818526454016e+01
65 1.7221117369797184e+01 3.4254932249493071e+00 -1.2288710885310689e+01
66 1.7106367444315882e+01 3.4026680456151817e+00 -1.2012465585277546e+01
67 1.9678529377918611e+01 3.9143028651119396e+00 -1.1227534414722452e+01
68 1.9563779452437309e+01 3.8914776857778142e+00 -1.0951289114689310e+01
69 2.2135941386040038e+01 4.4031125052745717e+00 -1.0166357944134218e+01
70 2.2021191460558736e+01 4.3802873259404462e+00 -9.8901126441010749e+00
71 2.4593353394161465e+01 4.8919221454372037e+00 -9.1051814735459811e+00
72 2.4478603468680163e+01 4.8690969661030792e+00 -8.8289361735128384e+00
73 2.7050765402282888e+01 5.3807317855998358e+00 -8.0440050029577481e+00
74 2.6936015476801586e+01 5.3579066062657104e+00 -7.7677597029246064e+00
75 2.9508177410404318e+01 5.8695414257624687e+00 -6.9828285323695107e+00
76 2.9393427484923016e+01 5.8467162464283433e+00 -6.7065832323363699e+00
77 3.1965589418525745e+01 6.3583510659251017e+00 -5.9216520617812760e+00
78 3.1850839493044443e+01 6.3355258865909763e+00 -5.6454067617481352e+00
79 3.4423001426647168e+01 6.8471607060877329e+00 -4.8604755911930413e+00
80 3.4308251501165870e+01 6.8243355267536083e+00 -4.5842302911599004e+00
81 3.6880413434768599e+01 7.3359703462503649e+00 -3.7992991206048066e+00
82 3.6765663509287293e+01 7.3131451669162395e+00 -3.5230538205716657e+00
83 3.9337825442890029e+01 7.8247799864129988e+00 -2.7381226500165701e+00
84 3.9223075517408724e+01 7.8019548070788733e+00 -2.4618773499834292e+00
85 9.9124655152517143e+00 3.0069135404237537e+00 -1.5338122650016571e+01
86 9.8005054008317884e+00 2.9729508110181708e+00 -1.5061877349983428e+01
87 1.1634958119569690e+01 3.5294259594817858e+00 -1.4575769708840101e+01
88 1.1522998005149766e+01 3.4954632300762034e+00 -1.4299524408806958e+01
89 1.3357450723887665e+01 4.0519383785398180e+00 -1.3813416767663629e+01
90 1.3245490609467740e+01 4.0179756491342351e+00 -1.3537171467630486e+01
91 1.5079943328205641e+01 4.5744507975978497e+00 -1.3051063826487159e+01
92 1.4967983213785715e+01 4.5404880681922668e+00 -1.2774818526454016e+01
93 1.6802435932523618e+01 5.0969632166558823e+00 -1.2288710885310689e+01
94 1.6690475818103693e+01 5.0630004872502994e+00 -1.2012465585277546e+01
95 1.9200103107052652e+01 5.8242876024434516e+00 -1.1227534414722452e+01
96 1.9088142992632726e+01 5.7903248730378696e+00 -1.0951289114689310e+01
97 2.1597770281581685e+01 6.5516119882310209e+00 -1.0166357944134218e+01
98 2.1485810167161759e+01 6.5176492588254380e+00 -9.8901126441010749e+00
99 2.3995437456110718e+01 7.2789363740185902e+00 -9.1051814735459811e+00
100 2.3883477341690796e+01 7.2449736446130073e+00 -8.8289361735128384e+00
101 2.6393104630639751e+01 8.0062607598061586e+00 -8.0440050029577481e+00
102 2.6281144516219825e+01 7.9722980304005766e+00 -7.7677597029246064e+00
103 2.8790771805168784e+01 8.7335851455937288e+00 -6.9828285323695107e+00
104 2.8678811690748862e+01 8.6996224161881468e+00 -6.7065832323363699e+00
105 3.1188438979697821e+01 9.4609095313812990e+00 -5.9216520617812760e+00
106 3.1076478865277895e+01 9.4269468019757152e+00 -5.6454067617481352e+00
107 3.3586106154226854e+01 1.0188233917168867e+01 -4.8604755911930413e+00
108 3.3474146039806925e+01 1.0154271187763285e+01 -4.5842302911599004e+00
109 3.5983773328755888e+01 1.0915558302956436e+01 -3.7992991206048066e+00
110 3.5871813214335958e+01 1.0881595573550854e+01 -3.5230538205716657e+00
111 3.8381440503284921e+01 1.1642882688744008e+01 -2.7381226500165701e+00
112 3.8269480388864999e+01 1.1608919959338424e+01 -2.4618773499834292e+00
113 9.5700052179927830e+00 3.9640259532738988e+00 -1.5338122650016571e+01
114 9.4619131517397239e+00 3.9192527534469508e+00 -1.5061877349983428e+01
115 1.1232988376513100e+01 4.6528561315310606e+00 -1.4575769708840101e+01
116 1.1124896310260041e+01 4.6080829317041125e+00 -1.4299524408806958e+01
117 1.2895971535033416e+01 5.3416863097882219e+00 -1.3813416767663629e+01
118 1.2787879468780357e+01 5.2969131099612738e+00 -1.3537171467630486e+01
119 1.4558954693553730e+01 6.0305164880453832e+00 -1.3051063826487159e+01
120 1.4450862627300673e+01 5.9857432882184352e+00 -1.2774818526454016e+01
121 1.6221937852074046e+01 6.7193466663025454e+00 -1.2288710885310689e+01
122 1.6113845785820988e+01 6.6745734664755973e+00 -1.2012465585277546e+01
123 1.8536769347421771e+01 7.6781812662839650e+00 -1.1227534414722452e+01
124 1.8428677281168714e+01 7.6334080664570170e+00 -1.0951289114689310e+01
125 2.0851600842769493e+01 8.6370158662653829e+00 -1.0166357944134218e+01
126 2.0743508776516435e+01 8.5922426664384357e+00 -9.8901126441010749e+00
127 2.3166432338117218e+01 9.5958504662468034e+00 -9.1051814735459811e+00
128 2.3058340271864161e+01 9.5510772664198544e+00 -8.8289361735128384e+00
129 2.5481263833464940e+01 1.0554685066228222e+01 -8.0440050029577481e+00
130 2.5373171767211883e+01 1.0509911866401273e+01 -7.7677597029246064e+00
131 2.7796095328812665e+01 1.1513519666209641e+01 -6.9828285323695107e+00
132 2.7688003262559604e+01 1.1468746466382694e+01 -6.7065832323363699e+00
133 3.0110926824160391e+01 1.2472354266191061e+01 -5.9216520617812760e+00
134 3.0002834757907330e+01 1.2427581066364112e+01 -5.6454067617481352e+00
135 3.2425758319508112e+01 1.3431188866172480e+01 -4.8604755911930413e+00
136 3.2317666253255055e+01 1.3386415666345531e+01 -4.5842302911599004e+00
137 3.4740589814855831e+01 1.4390023466153897e+01 -3.7992991206048066e+00
138 3.4632497748602773e+01 1.4345250266326950e+01 -3.5230538205716657e+00
139 3.7055421310203563e+01 1.5348858066135319e+01 -2.7381226500165701e+00
140 3.6947329243950499e+01 1.5304084866308370e+01 -2.4618773499834292e+00
141 9.1353805389875777e+00 4.8829626292370056e+00 -1.5338122650016571e+01
142 9.0321975065885365e+00 4.8278101493785464e+00 -1.5061877349983428e+01
143 1.0722838814814619e+01 5.7314767555238015e+00 -1.4575769708840101e+01
144 1.0619655782415576e+01 5.6763242756653423e+00 -1.4299524408806958e+01
145 1.2310297090641656e+01 6.5799908818105965e+00 -1.3813416767663629e+01
146 1.2207114058242615e+01 6.5248384019521382e+00 -1.3537171467630486e+01
147 1.3897755366468694e+01 7.4285050080973924e+00 -1.3051063826487159e+01
148 1.3794572334069652e+01 7.3733525282389332e+00 -1.2774818526454016e+01
149 1.5485213642295735e+01 8.2770191343841883e+00 -1.2288710885310689e+01
150 1.5382030609896692e+01 8.2218666545257300e+00 -1.2012465585277546e+01
151 1.7694916365746337e+01 9.4581298472093280e+00 -1.1227534414722452e+01
152 1.7591733333347293e+01 9.4029773673508679e+00 -1.0951289114689310e+01
153 1.9904619089196935e+01 1.0639240560034464e+01 -1.0166357944134218e+01
154 1.9801436056797893e+01 1.0584088080176006e+01 -9.8901126441010749e+00
155 2.2114321812647535e+01 1.1820351272859604e+01 -9.1051814735459811e+00
156 2.2011138780248494e+01 1.1765198793001144e+01 -8.8289361735128384e+00
157 2.4324024536098133e+01 1.3001461985684740e+01 -8.0440050029577481e+00
158 2.4220841503699091e+01 1.2946309505826282e+01 -7.7677597029246064e+00
159 2.6533727259548737e+01 1.4182572698509880e+01 -6.9828285323695107e+00
160 2.6430544227149692e+01 1.4127420218651421e+01 -6.7065832323363699e+00
161 2.8743429982999338e+01 1.5363683411335019e+01 -5.9216520617812760e+00
162 2.8640246950600297e+01 1.5308530931476559e+01 -5.6454067617481352e+00
163 3.0953132706449935e+01 1.6544794124160155e+01 -4.8604755911930413e+00
164 3.0849949674050894e+01 1.6489641644301695e+01 -4.5842302911599004e+00
165 3.3162835429900532e+01 1.7725904836985293e+01 -3.7992991206048066e+00
166 3.3059652397501495e+01 1.7670752357126833e+01 -3.5230538205716657e+00
167 3.5372538153351137e+01 1.8907015549810435e+01 -2.7381226500165701e+00
168 3.5269355120952099e+01 1.8851863069951975e+01 -2.4618773499834292e+00
169 8.6127771514849361e+00 5.7548737057816632e+00 -1.5338122650016571e+01
170 8.5154968619474971e+00 5.6898730944221425e+00 -1.5061877349983428e+01
171 1.0109422453629518e+01 6.7549001252169480e+00 -1.4575769708840101e+01
172 1.0012142164092079e+01 6.6898995138574264e+00 -1.4299524408806958e+01
173 1.1606067755774099e+01 7.7549265446522311e+00 -1.3813416767663629e+01
174 1.1508787466236660e+01 7.6899259332927103e+00 -1.3537171467630486e+01
175 1.3102713057918679e+01 8.7549529640875150e+00 -1.3051063826487159e+01
176 1.3005432768381240e+01 8.6899523527279925e+00 -1.2774818526454016e+01
177 1.4599358360063261e+01 9.7549793835227980e+00 -1.2288710885310689e+01
178 1.4502078070525823e+01 9.6899787721632773e+00 -1.2012465585277546e+01
179 1.6682651666443530e+01 1.1146991467366357e+01 -1.1227534414722452e+01
180 1.6585371376906089e+01 1.1081990856006836e+01 -1.0951289114689310e+01
181 1.8765944972823792e+01 1.2539003551209916e+01 -1.0166357944134218e+01
182 1.8668664683286352e+01 1.2474002939850394e+01 -9.8901126441010749e+00
183 2.0849238279204059e+01 1.3931015635053475e+01 -9.1051814735459811e+00
184 2.0751957989666618e+01 1.3866015023693954e+01 -8.8289361735128384e+00
185 2.2932531585584321e+01 1.5323027718897032e+01 -8.0440050029577481e+00
186 2.2835251296046884e+01 1.5258027107537512e+01 -7.7677597029246064e+00
187 2.5015824891964588e+01 1.6715039802740591e+01 -6.9828285323695107e+00
188 2.4918544602427151e+01 1.6650039191381069e+01 -6.7065832323363699e+00
189 2.7099118198344858e+01 1.8107051886584149e+01 -5.9216520617812760e+00
190 2.7001837908807417e+01 1.8042051275224630e+01 -5.6454067617481352e+00
191 2.9182411504725120e+01 1.9499063970427709e+01 -4.8604755911930413e+00
192 2.9085131215187680e+01 1.9434063359068187e+01 -4.5842302911599004e+00
193 3.1265704811105383e+01 2.0891076054271267e+01 -3.7992991206048066e+00
194 3.1168424521567946e+01 2.0826075442911744e+01 -3.5230538205716657e+00
195 3.3348998117485657e+01 2.2283088138114827e+01 -2.7381226500165701e+00
196 3.3251717827948212e+01 2.2218087526755305e+01 -2.4618773499834292e+00
197 8.0072280117905787e+00 6.5713622026056697e+00 -1.5338122650016571e+01
198 7.9167873274818037e+00 6.4971394511654283e+00 -1.5061877349983428e+01
199 9.3986468278435069e+00 7.7132701141002320e+00 -1.4575769708840101e+01
200 9.3082061435347310e+00 7.6390473626599906e+00 -1.4299524408806958e+01
201 1.0790065643896432e+01 8.8551780255947943e+00 -1.3813416767663629e+01
202 1.0699624959587657e+01 8.7809552741545520e+00 -1.3537171467630486e+01
203 1.2181484459949358e+01 9.9970859370893539e+00 -1.3051063826487159e+01
204 1.2091043775640582e+01 9.9228631856491134e+00 -1.2774818526454016e+01
205 1.3572903276002284e+01 1.1138993848583917e+01 -1.2288710885310689e+01
206 1.3482462591693510e+01 1.1064771097143675e+01 -1.2012465585277546e+01
207 1.5509723911927811e+01 1.2728501466127273e+01 -1.1227534414722452e+01
208 1.5419283227619035e+01 1.2654278714687031e+01 -1.0951289114689310e+01
209 1.7446544547853332e+01 1.4318009083670628e+01 -1.0166357944134218e+01
210 1.7356103863544558e+01 1.4243786332230385e+01 -9.8901126441010749e+00
211 1.9383365183778857e+01 1.5907516701213986e+01 -9.1051814735459811e+00
212 1.9292924499470082e+01 1.5833293949773743e+01 -8.8289361735128384e+00
213 2.1320185819704381e+01 1.7497024318757340e+01 -8.0440050029577481e+00
214 2.1229745135395603e+01 1.7422801567317098e+01 -7.7677597029246064e+00
215 2.3257006455629906e+01 1.9086531936300695e+01 -6.9828285323695107e+00
216 2.3166565771321128e+01 1.9012309184860456e+01 -6.7065832323363699e+00
217 2.5193827091555431e+01 2.0676039553844053e+01 -5.9216520617812760e+00
218 2.5103386407246653e+01 2.0601816802403810e+01 -5.6454067617481352e+00
219 2.7130647727480952e+01 2.2265547171387407e+01 -4.8604755911930413e+00
220 2.7040207043172177e+01 2.2191324419947165e+01 -4.5842302911599004e+00
221 2.9067468363406473e+01 2.3855054788930762e+01 -3.7992991206048066e+00
222 2.8977027679097699e+01 2.3780832037490519e+01 -3.5230538205716657e+00
223 3.1004288999332001e+01 2.5444562406474120e+01 -2.7381226500165701e+00
224 3.0913848315023227e+01 2.5370339655033877e+01 -2.4618773499834292e+00
225 7.3245648891465960e+00 7.3245648891465942e+00 -1.5338122650016571e+01
226 7.2418348032962854e+00 7.2418348032962845e+00 -1.5061877349983428e+01
227 8.5973570952823817e+00 8.5973570952823799e+00 -1.4575769708840101e+01
228 8.5146270094320720e+00 8.5146270094320702e+00 -1.4299524408806958e+01
229 9.8701493014181665e+00 9.8701493014181647e+00 -1.3813416767663629e+01
230 9.7874192155678568e+00 9.7874192155678550e+00 -1.3537171467630486e+01
231 1.1142941507553951e+01 1.1142941507553950e+01 -1.3051063826487159e+01
232 1.1060211421703642e+01 1.1060211421703640e+01 -1.2774818526454016e+01
233 1.2415733713689738e+01 1.2415733713689736e+01 -1.2288710885310689e+01
234 1.2333003627839428e+01 1.2333003627839425e+01 -1.2012465585277546e+01
235 1.4187429037662699e+01 1.4187429037662698e+01 -1.1227534414722452e+01
236 1.4104698951812388e+01 1.4104698951812386e+01 -1.0951289114689310e+01
237 1.5959124361635658e+01 1.5959124361635656e+01 -1.0166357944134218e+01
238 1.5876394275785348e+01 1.5876394275785346e+01 -9.8901126441010749e+00
239 1.7730819685608619e+01 1.7730819685608616e+01 -9.1051814735459811e+00
240 1.7648089599758308e+01 1.7648089599758308e+01 -8.8289361735128384e+00
241 1.9502515009581579e+01 1.9502515009581575e+01 -8.0440050029577481e+00
242 1.9419784923731267e+01 1.9419784923731264e+01 -7.7677597029246064e+00
243 2.1274210333554539e+01 2.1274210333554535e+01 -6.9828285323695107e+00
244 2.1191480247704231e+01 2.1191480247704227e+01 -6.7065832323363699e+00
245 2.3045905657527502e+01 2.3045905657527499e+01 -5.9216520617812760e+00
246 2.2963175571677191e+01 2.2963175571677187e+01 -5.6454067617481352e+00
247 2.4817600981500462e+01 2.4817600981500458e+01 -4.8604755911930413e+00
248 2.4734870895650150e+01 2.4734870895650147e+01 -4.5842302911599004e+00
249 2.6589296305473418e+01 2.6589296305473415e+01 -3.7992991206048066e+00
250 2.6506566219623110e+01 2.6506566219623107e+01 -3.5230538205716657e+00
251 2.8360991629446385e+01 2.8360991629446378e+01 -2.7381226500165701e+00
252 2.8278261543596074e+01 2.8278261543596070e+01 -2.4618773499834292e+00
253 6.5713622026056697e+00 8.0072280117905787e+00 -1.5338122650016571e+01
254 6.4971394511654283e+00 7.9167873274818037e+00 -1.5061877349983428e+01
255 7.7132701141002320e+00 9.3986468278435069e+00 -1.4575769708840101e+01
256 7.6390473626599906e+00 9.3082061435347310e+00 -1.4299524408806958e+01
257 8.8551780255947943e+00 1.0790065643896432e+01 -1.3813416767663629e+01
258 8.7809552741545520e+00 1.0699624959587657e+01 -1.3537171467630486e+01
259 9.9970859370893539e+00 1.2181484459949358e+01 -1.3051063826487159e+01
260 9.9228631856491134e+00 1.2091043775640582e+01 -1.2774818526454016e+01
261 1.1138993848583917e+01 1.3572903276002284e+01 -1.2288710885310689e+01
262 1.1064771097143675e+01 1.3482462591693510e+01 -1.2012465585277546e+01
263 1.2728501466127273e+01 1.5509723911927811e+01 -1.1227534414722452e+01
264 1.2654278714687031e+01 1.5419283227619035e+01 -1.0951289114689310e+01
265 1.4318009083670628e+01 1.7446544547853332e+01 -1.0166357944134218e+01
266 1.4243786332230385e+01 1.7356103863544558e+01 -9.8901126441010749e+00
267 1.5907516701213986e+01 1.9383365183778857e+01 -9.1051814735459811e+00
268 1.5833293949773743e+01 1.9292924499470082e+01 -8.8289361735128384e+00
269 1.7497024318757340e+01 2.1320185819704381e+01 -8.0440050029577481e+00
270 1.7422801567317098e+01 2.1229745135395603e+01 -7.7677597029246064e+00
271 1.9086531936300695e+01 2.3257006455629906e+01 -6.9828285323695107e+00
272 1.9012309184860456e+01 2.3166565771321128e+01 -6.7065832323363699e+00
273 2.0676039553844053e+01 2.5193827091555431e+01 -5.9216520617812760e+00
274 2.0601816802403810e+01 2.5103386407246653e+01 -5.6454067617481352e+00
275 2.2265547171387407e+01 2.7130647727480952e+01 -4.8604755911930413e+00
276 2.2191324419947165e+01 2.7040207043172177e+01 -4.5842302911599004e+00
277 2.3855054788930762e+01 2.9067468363406473e+01 -3.7992991206048066e+00
278 2.3780832037490519e+01 2.8977027679097699e+01 -3.5230538205716657e+00
279 2.5444562406474120e+01 3.1004288999332001e+01 -2.7381226500165701e+00
280 2.5370339655033877e+01 3.0913848315023227e+01 -2.4618773499834292e+00
281 5.7548737057816641e+00 8.6127771514849361e+00 -1.5338122650016571e+01
282 5.6898730944221434e+00 8.5154968619474971e+00 -1.5061877349983428e+01
283 6.7549001252169489e+00 1.0109422453629518e+01 -1.4575769708840101e+01
284 6.6898995138574282e+00 1.0012142164092079e+01 -1.4299524408806958e+01
285 7.7549265446522329e+00 1.1606067755774099e+01 -1.3813416767663629e+01
286 7.6899259332927112e+00 1.1508787466236660e+01 -1.3537171467630486e+01
287 8.7549529640875168e+00 1.3102713057918679e+01 -1.3051063826487159e+01
288 8.6899523527279943e+00 1.3005432768381240e+01 -1.2774818526454016e+01
289 9.7549793835227998e+00 1.4599358360063261e+01 -1.2288710885310689e+01
290 9.6899787721632791e+00 1.4502078070525823e+01 -1.2012465585277546e+01
291 1.1146991467366361e+01 1.6682651666443530e+01 -1.1227534414722452e+01
292 1.1081990856006840e+01 1.6585371376906089e+01 -1.0951289114689310e+01
293 1.2539003551209918e+01 1.8765944972823792e+01 -1.0166357944134218e+01
294 1.2474002939850397e+01 1.8668664683286352e+01 -9.8901126441010749e+00
295 1.3931015635053477e+01 2.0849238279204059e+01 -9.1051814735459811e+00
296 1.3866015023693956e+01 2.0751957989666618e+01 -8.8289361735128384e+00
297 1.5323027718897034e+01 2.2932531585584321e+01 -8.0440050029577481e+00
298 1.5258027107537513e+01 2.2835251296046884e+01 -7.7677597029246064e+00
299 1.6715039802740595e+01 2.5015824891964588e+01 -6.9828285323695107e+00
300 1.6650039191381072e+01 2.4918544602427151e+01 -6.7065832323363699e+00
301 1.8107051886584156e+01 2.7099118198344858e+01 -5.9216520617812760e+00
302 1.8042051275224633e+01 2.7001837908807417e+01 -5.6454067617481352e+00
303 1.9499063970427713e+01 2.9182411504725120e+01 -4.8604755911930413e+00
304 1.9434063359068190e+01 2.9085131215187680e+01 -4.5842302911599004e+00
305 2.0891076054271270e+01 3.1265704811105383e+01 -3.7992991206048066e+00
306 2.0826075442911748e+01 3.1168424521567946e+01 -3.5230538205716657e+00
307 2.2283088138114831e+01 3.3348998117485657e+01 -2.7381226500165701e+00
308 2.2218087526755308e+01 3.3251717827948212e+01 -2.4618773499834292e+00
309 4.8829626292370074e+00 9.1353805389875777e+00 -1.5338122650016571e+01
310 4.8278101493785481e+00 9.0321975065885365e+00 -1.5061877349983428e+01
311 5.7314767555238033e+00 1.0722838814814617e+01 -1.4575769708840101e+01
312 5.6763242756653449e+00 1.0619655782415576e+01 -1.4299524408806958e+01
313 6.5799908818105992e+00 1.2310297090641654e+01 -1.3813416767663629e+01
314 6.5248384019521399e+00 1.2207114058242613e+01 -1.3537171467630486e+01
315 7.4285050080973951e+00 1.3897755366468692e+01 -1.3051063826487159e+01
316 7.3733525282389358e+00 1.3794572334069651e+01 -1.2774818526454016e+01
317 8.2770191343841919e+00 1.5485213642295733e+01 -1.2288710885310689e+01
318 8.2218666545257317e+00 1.5382030609896690e+01 -1.2012465585277546e+01
319 9.4581298472093298e+00 1.7694916365746334e+01 -1.1227534414722452e+01
320 9.4029773673508714e+00 1.7591733333347293e+01 -1.0951289114689310e+01
321 1.0639240560034468e+01 1.9904619089196931e+01 -1.0166357944134218e+01
322 1.0584088080176009e+01 1.9801436056797890e+01 -9.8901126441010749e+00
323 1.1820351272859607e+01 2.2114321812647532e+01 -9.1051814735459811e+00
324 1.1765198793001149e+01 2.2011138780248491e+01 -8.8289361735128384e+00
325 1.3001461985684745e+01 2.4324024536098129e+01 -8.0440050029577481e+00
326 1.2946309505826287e+01 2.4220841503699088e+01 -7.7677597029246064e+00
327 1.4182572698509885e+01 2.6533727259548733e+01 -6.9828285323695107e+00
328 1.4127420218651425e+01 2.6430544227149689e+01 -6.7065832323363699e+00
329 1.5363683411335025e+01 2.8743429982999334e+01 -5.9216520617812760e+00
330 1.5308530931476565e+01 2.8640246950600293e+01 -5.6454067617481352e+00
331 1.6544794124160163e+01 3.0953132706449932e+01 -4.8604755911930413e+00
332 1.6489641644301702e+01 3.0849949674050890e+01 -4.5842302911599004e+00
333 1.7725904836985301e+01 3.3162835429900532e+01 -3.7992991206048066e+00
334 1.7670752357126840e+01 3.3059652397501488e+01 -3.5230538205716657e+00
335 1.8907015549810442e+01 3.5372538153351137e+01 -2.7381226500165701e+00
336 1.8851863069951982e+01 3.5269355120952092e+01 -2.4618773499834292e+00
337 3.9640259532738997e+00 9.5700052179927830e+00 -1.5338122650016571e+01
338 3.9192527534469517e+00 9.4619131517397239e+00 -1.5061877349983428e+01
339 4.6528561315310615e+00 1.1232988376513100e+01 -1.4575769708840101e+01
340 4.6080829317041134e+00 1.1124896310260041e+01 -1.4299524408806958e+01
341 5.3416863097882228e+00 1.2895971535033416e+01 -1.3813416767663629e+01
342 5.2969131099612747e+00 1.2787879468780357e+01 -1.3537171467630486e+01
343 6.0305164880453841e+00 1.4558954693553730e+01 -1.3051063826487159e+01
344 5.9857432882184360e+00 1.4450862627300673e+01 -1.2774818526454016e+01
345 6.7193466663025463e+00 1.6221937852074046e+01 -1.2288710885310689e+01
346 6.6745734664755982e+00 1.6113845785820988e+01 -1.2012465585277546e+01
347 7.6781812662839659e+00 1.8536769347421771e+01 -1.1227534414722452e+01
348 7.6334080664570179e+00 1.8428677281168714e+01 -1.0951289114689310e+01
349 8.6370158662653846e+00 2.0851600842769493e+01 -1.0166357944134218e+01
350 8.5922426664384357e+00 2.0743508776516435e+01 -9.8901126441010749e+00
351 9.5958504662468052e+00 2.3166432338117218e+01 -9.1051814735459811e+00
352 9.5510772664198562e+00 2.3058340271864161e+01 -8.8289361735128384e+00
353 1.0554685066228222e+01 2.5481263833464940e+01 -8.0440050029577481e+00
354 1.0509911866401275e+01 2.5373171767211883e+01 -7.7677597029246064e+00
355 1.1513519666209643e+01 2.7796095328812665e+01 -6.9828285323695107e+00
356 1.1468746466382695e+01 2.7688003262559604e+01 -6.7065832323363699e+00
357 1.2472354266191063e+01 3.0110926824160391e+01 -5.9216520617812760e+00
358 1.2427581066364114e+01 3.0002834757907330e+01 -5.6454067617481352e+00
359 1.3431188866172482e+01 3.2425758319508112e+01 -4.8604755911930413e+00
360 1.3386415666345533e+01 3.2317666253255055e+01 -4.5842302911599004e+00
361 1.4390023466153899e+01 3.4740589814855831e+01 -3.7992991206048066e+00
362 1.4345250266326952e+01 3.4632497748602773e+01 -3.5230538205716657e+00
363 1.5348858066135321e+01 3.7055421310203563e+01 -2.7381226500165701e+00
364 1.5304084866308372e+01 3.6947329243950499e+01 -2.4618773499834292e+00
365 3.0069135404237537e+00 9.9124655152517143e+00 -1.5338122650016571e+01
366 2.9729508110181708e+00 9.8005054008317902e+00 -1.5061877349983428e+01
367 3.5294259594817858e+00 1.1634958119569692e+01 -1.4575769708840101e+01
368 3.4954632300762034e+00 1.1522998005149768e+01 -1.4299524408806958e+01
369 4.0519383785398180e+00 1.3357450723887666e+01 -1.3813416767663629e+01
370 4.0179756491342351e+00 1.3245490609467742e+01 -1.3537171467630486e+01
371 4.5744507975978497e+00 1.5079943328205642e+01 -1.3051063826487159e+01
372 4.5404880681922668e+00 1.4967983213785717e+01 -1.2774818526454016e+01
373 5.0969632166558823e+00 1.6802435932523618e+01 -1.2288710885310689e+01
374 5.0630004872502994e+00 1.6690475818103693e+01 -1.2012465585277546e+01
375 5.8242876024434516e+00 1.9200103107052655e+01 -1.1227534414722452e+01
376 5.7903248730378696e+00 1.9088142992632729e+01 -1.0951289114689310e+01
377 6.5516119882310209e+00 2.1597770281581685e+01 -1.0166357944134218e+01
378 6.5176492588254380e+00 2.1485810167161763e+01 -9.8901126441010749e+00
379 7.2789363740185902e+00 2.3995437456110722e+01 -9.1051814735459811e+00
380 7.2449736446130073e+00 2.3883477341690796e+01 -8.8289361735128384e+00
381 8.0062607598061586e+00 2.6393104630639755e+01 -8.0440050029577481e+00
382 7.9722980304005766e+00 2.6281144516219829e+01 -7.7677597029246064e+00
383 8.7335851455937288e+00 2.8790771805168788e+01 -6.9828285323695107e+00
384 8.6996224161881468e+00 2.8678811690748866e+01 -6.7065832323363699e+00
385 9.4609095313812990e+00 3.1188438979697825e+01 -5.9216520617812760e+00
386 9.4269468019757152e+00 3.1076478865277899e+01 -5.6454067617481352e+00
387 1.0188233917168867e+01 3.3586106154226854e+01 -4.8604755911930413e+00
388 1.0154271187763285e+01 3.3474146039806932e+01 -4.5842302911599004e+00
389 1.0915558302956436e+01 3.5983773328755888e+01 -3.7992991206048066e+00
390 1.0881595573550854e+01 3.5871813214335965e+01 -3.5230538205716657e+00
391 1.1642882688744008e+01 3.8381440503284928e+01 -2.7381226500165701e+00
392 1.1608919959338424e+01 3.8269480388865006e+01 -2.4618773499834292e+00
393 2.0208429064331845e+00 1.0159463350893926e+01 -1.5338122650016571e+01
394 1.9980177270990593e+00 1.0044713425412622e+01 -1.5061877349983428e+01
395 2.3720054860622155e+00 1.1924876855619742e+01 -1.4575769708840101e+01
396 2.3491803067280905e+00 1.1810126930138438e+01 -1.4299524408806958e+01
397 2.7231680656912465e+00 1.3690290360345555e+01 -1.3813416767663629e+01
398 2.7003428863571211e+00 1.3575540434864251e+01 -1.3537171467630486e+01
399 3.0743306453202774e+00 1.5455703865071369e+01 -1.3051063826487159e+01
400 3.0515054659861520e+00 1.5340953939590065e+01 -1.2774818526454016e+01
401 3.4254932249493084e+00 1.7221117369797184e+01 -1.2288710885310689e+01
402 3.4026680456151830e+00 1.7106367444315882e+01 -1.2012465585277546e+01
403 3.9143028651119414e+00 1.9678529377918611e+01 -1.1227534414722452e+01
404 3.8914776857778159e+00 1.9563779452437309e+01 -1.0951289114689310e+01
405 4.4031125052745734e+00 2.2135941386040038e+01 -1.0166357944134218e+01
406 4.3802873259404480e+00 2.2021191460558736e+01 -9.8901126441010749e+00
407 4.8919221454372064e+00 2.4593353394161465e+01 -9.1051814735459811e+00
408 4.8690969661030810e+00 2.4478603468680163e+01 -8.8289361735128384e+00
409 5.3807317855998384e+00 2.7050765402282888e+01 -8.0440050029577481e+00
410 5.3579066062657130e+00 2.6936015476801586e+01 -7.7677597029246064e+00
411 5.8695414257624714e+00 2.9508177410404318e+01 -6.9828285323695107e+00
412 5.8467162464283460e+00 2.9393427484923016e+01 -6.7065832323363699e+00
413 6.3583510659251044e+00 3.1965589418525745e+01 -5.9216520617812760e+00
414 6.3355258865909789e+00 3.1850839493044443e+01 -5.6454067617481352e+00
415 6.8471607060877364e+00 3.4423001426647168e+01 -4.8604755911930413e+00
416 6.8243355267536110e+00 3.4308251501165870e+01 -4.5842302911599004e+00
417 7.3359703462503685e+00 3.6880413434768599e+01 -3.7992991206048066e+00
418 7.3131451669162431e+00 3.6765663509287293e+01 -3.5230538205716657e+00
419 7.8247799864130014e+00 3.9337825442890029e+01 -2.7381226500165701e+00
420 7.8019548070788769e+00 3.9223075517408724e+01 -2.4618773499834292e+00
421 1.0153104505485600e+00 1.0308620000739431e+01 -1.5338122650016571e+01
422 1.0038426402403922e+00 1.0192185368707825e+01 -1.5061877349983428e+01
423 1.1917413031417694e+00 1.2099952508749386e+01 -1.4575769708840101e+01
424 1.1802734928336016e+00 1.1983517876717780e+01 -1.4299524408806958e+01
425 1.3681721557349786e+00 1.3891285016759339e+01 -1.3813416767663629e+01
426 1.3567043454268108e+00 1.3774850384727733e+01 -1.3537171467630486e+01
427 1.5446030083281879e+00 1.5682617524769292e+01 -1.3051063826487159e+01
428 1.5331351980200201e+00 1.5566182892737686e+01 -1.2774818526454016e+01
429 1.7210338609213973e+00 1.7473950032779246e+01 -1.2288710885310689e+01
430 1.7095660506132295e+00 1.7357515400747641e+01 -1.2012465585277546e+01
431 1.9666212514137971e+00 1.9967440653496809e+01 -1.1227534414722452e+01
432 1.9551534411056291e+00 1.9851006021465203e+01 -1.0951289114689310e+01
433 2.2122086419061961e+00 2.2460931274214364e+01 -1.0166357944134218e+01
434 2.2007408315980284e+00 2.2344496642182758e+01 -9.8901126441010749e+00
435 2.4577960323985959e+00 2.4954421894931926e+01 -9.1051814735459811e+00
436 2.4463282220904281e+00 2.4837987262900320e+01 -8.8289361735128384e+00
437 2.7033834228909952e+00 2.7447912515649481e+01 -8.0440050029577481e+00
438 2.6919156125828270e+00 2.7331477883617879e+01 -7.7677597029246064e+00
439 2.9489708133833945e+00 2.9941403136367043e+01 -6.9828285323695107e+00
440 2.9375030030752267e+00 2.9824968504335438e+01 -6.7065832323363699e+00
441 3.1945582038757943e+00 3.2434893757084602e+01 -5.9216520617812760e+00
442 3.1830903935676265e+00 3.2318459125052996e+01 -5.6454067617481352e+00
443 3.4401455943681936e+00 3.4928384377802161e+01 -4.8604755911930413e+00
444 3.4286777840600253e+00 3.4811949745770555e+01 -4.5842302911599004e+00
445 3.6857329848605924e+00 3.7421874998519719e+01 -3.7992991206048066e+00
446 3.6742651745524246e+00 3.7305440366488114e+01 -3.5230538205716657e+00
447 3.9313203753529926e+00 3.9915365619237285e+01 -2.7381226500165701e+00
448 3.9198525650448248e+00 3.9798930987205679e+01 -2.4618773499834292e+00
449 6.3427513250463487e-16 1.0358499004712900e+01 -1.5338122650016571e+01
450 6.2711107061713905e-16 1.0241500995287101e+01 -1.5061877349983428e+01
451 7.4449334442789666e-16 1.2158499004712901e+01 -1.4575769708840101e+01
452 7.3732928254040084e-16 1.2041500995287102e+01 -1.4299524408806958e+01
453 8.5471155635115845e-16 1.3958499004712900e+01 -1.3813416767663629e+01
454 8.4754749446366254e-16 1.3841500995287101e+01 -1.3537171467630486e+01
455 9.6492976827442014e-16 1.5758499004712899e+01 -1.3051063826487159e+01
456 9.5776570638692433e-16 1.5641500995287100e+01 -1.2774818526454016e+01
457 1.0751479801976819e-15 1.7558499004712900e+01 -1.2288710885310689e+01
458 1.0679839183101861e-15 1.7441500995287100e+01 -1.2012465585277546e+01
459 1.2285690097575309e-15 2.0064054560268456e+01 -1.1227534414722452e+01
460 1.2214049478700351e-15 1.9947056550842657e+01 -1.0951289114689310e+01
461 1.3819900393173797e-15 2.2569610115824009e+01 -1.0166357944134218e+01
462 1.3748259774298839e-15 2.2452612106398210e+01 -9.8901126441010749e+00
463 1.5354110688772289e-15 2.5075165671379565e+01 -9.1051814735459811e+00
464 1.5282470069897329e-15 2.4958167661953766e+01 -8.8289361735128384e+00
465 1.6888320984370777e-15 2.7580721226935118e+01 -8.0440050029577481e+00
466 1.6816680365495819e-15 2.7463723217509319e+01 -7.7677597029246064e+00
467 1.8422531279969265e-15 3.0086276782490675e+01 -6.9828285323695107e+00
468 1.8350890661094309e-15 2.9969278773064875e+01 -6.7065832323363699e+00
469 1.9956741575567759e-15 3.2591832338046231e+01 -5.9216520617812760e+00
470 1.9885100956692799e-15 3.2474834328620432e+01 -5.6454067617481352e+00
471 2.1490951871166245e-15 3.5097387893601784e+01 -4.8604755911930413e+00
472 2.1419311252291285e-15 3.4980389884175985e+01 -4.5842302911599004e+00
473 2.3025162166764735e-15 3.7602943449157337e+01 -3.7992991206048066e+00
474 2.2953521547889775e-15 3.7485945439731537e+01 -3.5230538205716657e+00
475 2.4559372462363225e-15 4.0108499004712897e+01 -2.7381226500165701e+00
476 2.4487731843488268e-15 3.9991500995287097e+01 -2.4618773499834292e+00
$EndNodes
$Elements
1248
1 4 2 0 0 1 29 31 32
2 4 2 0 0 1 31 3 32
3 4 2 0 0 1 3 4 32
4 4 2 0 0 1 4 2 32
5 4 2 0 0 1 2 30 32
6 4 2 0 0 1 30 29 32
7 4 2 0 0 3 31 33 34
8 4 2 0 0 3 33 5 34
9 4 2 0 0 3 5 6 34
10 4 2 0 0 3 6 4 34
11 4 2 0 0 3 4 32 34
12 4 2 0 0 3 32 31 34
13 4 2 0 0 5 33 35 36
14 4 2 0 0 5 35 7 36
15 4 2 0 0 5 7 8 36
16 4 2 0 0 5 8 6 36
17 4 2 0 0 5 6 34 36
18 4 2 0 0 5 34 33 36
19 4 2 0 0 7 35 37 38
20 4 2 0 0 7 37 9 38
21 4 2 0 0 7 9 10 38
22 4 2 0 0 7 10 8 38
23 4 2 0 0 7 8 36 38
24 4 2 0 0 7 36 35 38
25 4 2 0 0 9 37 39 40
26 4 2 0 0 9 39 11 40
27 4 2 0 0 9 11 12 40
28 4 2 0 0 9 12 10 40
29 4 2 0 0 9 10 38 40
30 4 2 0 0 9 38 37 40
31 4 2 0 0 11 39 41 42
32 4 2 0 0 11 41 13 42
33 4 2 0 0 11 13 14 42
34 4 2 0 0 11 14 12 42
35 4 2 0 0 11 12 40 42
36 4 2 0 0 11 40 39 42
37 4 2 0 0 13 41 43 44
38 4 2 0 0 13 43 15 44
39 4 2 0 0 13 15 16 44
40 4 2 0 0 13 16 14 44
41 4 2 0 0 13 14 42 44
42 4 2 0 0 13 42 41 44
43 4 2 0 0 15 43 45 46
44 4 2 0 0 15 45 17 46
45 4 2 0 0 15 17 18 46
46 4 2 0 0 15 18 16 46
47 4 2 0 0 15 16 44 46
48 4 2 0 0 15 44 43 46
49 4 2 0 0 17 45 47 48
50 4 2 0 0 17 47 19 48
51 4 2 0 0 17 19 20 48
52 4 2 0 0 17 20 18 48
53 4 2 0 0 17 18 46 48
54 4 2 0 0 17 46 45 48
55 4 2 0 0 19 47 49 50
56 4 2 0 0 19 49 21 50
57 4 2 0 0 19 21 22 50
58 4 2 0 0 19 22 20 50
59 4 2 0 0 19 20 48 50
60 4 2 0 0 19 48 47 50
61 4 2 0 0 21 49 51 52
62 4 2 0 0 21 51 23 52
63 4 2 0 0 21 23 24 52
64 4 2 0 0 21 24 22 52
65 4 2 0 0 21 22 50 52
66 4 2 0 0 21 50 49 52
67 4 2 0 0 23 51 53 54
68 4 2 0 0 23 53 25 54
69 4 2 0 0 23 25 26 54
70 4 2 0 0 23 26 24 54
71 4 2 0 0 23 24 52 54
72 4 2 0 0 23 52 51 54
73 4 2 0 0 25 53 55 56
74 4 2 0 0 25 55 27 56
75 4 2 0 0 25 27 28 56
76 4 2 0 0 25 28 26 56
77 4 2 0 0 25 26 54 56
78 4 2 0 0 25 54 53 56
79 4 2 0 0 29 57 59 60
80 4 2 0 0 29 59 31 60
81 4 2 0 0 29 31 32 60
82 4 2 0 0 29 32 30 60
83 4 2 0 0 29 30 58 60
84 4 2 0 0 29 58 57 60
85 4 2 0 0 31 59 61 62
86 4 2 0 0 31 61 33 62
87 4 2 0 0 31 33 34 62
88 4 2 0 0 31 34 32 62
89 4 2 0 0 31 32 60 62
90 4 2 0 0 31 60 59 62
91 4 2 0 0 33 61 63 64
92 4 2 0 0 33 63 35 64
93 4 2 0 0 33 35 36 64
94 4 2 0 0 33 36 34 64
95 4 2 0 0 33 34 62 64
96 4 2 0 0 33 62 61 64
97 4 2 0 0 35 63 65 66
98 4 2 0 0 35 65 37 66
99 4 2 0 0 35 37 38 66
100 4 2 0 0 35 38 36 66
101 4 2 0 0 35 36 64 66
102 4 2 0 0 35 64 63 66
103 4 2 0 0 37 65 67 68
104 4 2 0 0 37 67 39 68
105 4 2 0 0 37 39 40 68
106 4 2 0 0 37 40 38 68
107 4 2 0 0 37 38 66 68
108 4 2 0 0 37 66 65 68
109 4 2 0 0 39 67 69 70
110 4 2 0 0 39 69 41 70
111 4 2 0 0 39 41 42 70
112 4 2 0 0 39 42 40 70
113 4 2 0 0 39 40 68 70
114 4 2 0 0 39 68 67 70
115 4 2 0 0 41 69 71 72
116 4 2 0 0 41 71 43 72
117 4 2 0 0 41 43 44 72
118 4 2 0 0 41 44 42 72
119 4 2 0 0 41 42 70 72
120 4 2 0 0 41 70 69 72
121 4 2 0 0 43 71 73 74
122 4 2 0 0 43 73 45 74
123 4 2 0 0 43 45 46 74
124 4 2 0 0 43 46 44 74
125 4 2 0 0 43 44 72 74
126 4 2 0 0 43 72 71 74
127 4 2 0 0 45 73 75 76
128 4 2 0 0 45 75 47 76
129 4 2 0 0 45 47 48 76
130 4 2 0 0 45 48 46 76
131 4 2 0 0 45 46 74 76
132 4 2 0 0 45 74 73 76
133 4 2 0 0 47 75 77 78
134 4 2 0 0 47 77 49 78
135 4 2 0 0 47 49 50 78
136 4 2 0 0 47 50 48 78
137 4 2 0 0 47 48 76 78
138 4 2 0 0 47 76 75 78
139 4 2 0 0 49 77 79 80
140 4 2 0 0 49 79 51 80
141 4 2 0 0 49 51 52 80
142 4 2 0 0 49 52 50 80
143 4 2 0 0 49 50 78 80
144 4 2 0 0 49 78 77 80
145 4 2 0 0 51 79 81 82
146 4 2 0 0 51 81 53 82
147 4 2 0 0 51 53 54 82
148 4 2 0 0 51 54 52 82
149 4 2 0 0 51 52 80 82
150 4 2 0 0 51 80 79 82
151 4 2 0 0 53 81 83 84
152 4 2 0 0 53 83 55 84
153 4 2 0 0 53 55 56 84
154 4 2 0 0 53 56 54 84
155 4 2 0 0 53 54 82 84
156 4 2 0 0 53 82 81 84
157 4 2 0 0 57 85 87 88
158 4 2 0 0 57 87 59 88
159 4 2 0 0 57 59 60 88
160 4 2 0 0 57 60 58 88
161 4 2 0 0 57 58 86 88
162 4 2 0 0 57 86 85 88
163 4 2 0 0 59 87 89 90
164 4 2 0 0 59 89 61 90
165 4 2 0 0 59 61 62 90
166 4 2 0 0 59 62 60 90
167 4 2 0 0 59 60 88 90
168 4 2 0 0 59 88 87 90
169 4 2 0 0 61 89 91 92
170 4 2 0 0 61 91 63 92
171 4 2 0 0 61 63 64 92
172 4 2 0 0 61 64 62 92
173 4 2 0 0 61 62 90 92
174 4 2 0 0 61 90 89 92
175 4 2 0 0 63 91 93 94
176 4 2 0 0 63 93 65 94
177 4 2 0 0 63 65 66 94
178 4 2 0 0 63 66 64 94
179 4 2 0 0 63 64 92 94
180 4 2 0 0 63 92 91 94
181 4 2 0 0 65 93 95 96
182 4 2 0 0 65 95 67 96
183 4 2 0 0 65 67 68 96
184 4 2 0 0 65 68 66 96
185 4 2 0 0 65 66 94 96
186 4 2 0 0 65 94 93 96
187 4 2 0 0 67 95 97 98
188 4 2 0 0 67 97 69 98
189 4 2 0 0 67 69 70 98
190 4 2 0 0 67 70 68 98
191 4 2 0 0 67 68 96 98
192 4 2 0 0 67 96 95 98
193 4 2 0 0 69 97 99 100
194 4 2 0 0 69 99 71 100
195 4 2 0 0 69 71 72 100
196 4 2 0 0 69 72 70 100
197 4 2 0 0 69 70 98 100
198 4 2 0 0 69 98 97 100
199 4 2 0 0 71 99 101 102
200 4 2 0 0 71 101 73 102
201 4 2 0 0 71 73 74 102
202 4 2 0 0 71 74 72 102
203 4 2 0 0 71 72 100 102
204 4 2 0 0 71 100 99 102
205 4 2 0 0 73 101 103 104
206 4 2 0 0 73 103 75 104
207 4 2 0 0 73 75 76 104
208 4 2 0 0 73 76 74 104
209 4 2 0 0 73 74 102 104
210 4 2 0 0 73 102 101 104
211 4 2 0 0 75 103 105 106
212 4 2 0 0 75 105 77 106
213 4 2 0 0 75 77 78 106
214 4 2 0 0 75 78 76 106
215 4 2 0 0 75 76 104 106
216 4 2 0 0 75 104 103 106
217 4 2 0 0 77 105 107 108
218 4 2 0 0 77 107 79 108
219 4 2 0 0 77 79 80 108
220 4 2 0 0 77 80 78 108
221 4 2 0 0 77 78 106 108
222 4 2 0 0 77 106 105 108
223 4 2 0 0 79 107 109 110
224 4 2 0 0 79 109 81 110
225 4 2 0 0 79 81 82 110
226 4 2 0 0 79 82 80 110
227 4 2 0 0 79 80 108 110
228 4 2 0 0 79 108 107 110
229 4 2 0 0 81 109 111 112
230 4 2 0 0 81 111 83 112
231 4 2 0 0 81 83 84 112
232 4 2 0 0 81 84 82 112
233 4 2 0 0 81 82 110 112
234 4 2 0 0 81 110 109 112
235 4 2 0 0 85 113 115 116
236 4 2 0 0 85 115 87 116
237 4 2 0 0 85 87 88 116
238 4 2 0 0 85 88 86 116
239 4 2 0 0 85 86 114 116
240 4 2 0 0 85 114 113 116
241 4 2 0 0 87 115 117 118
242 4 2 0 0 87 117 89 118
243 4 2 0 0 87 89 90 118
244 4 2 0 0 87 90 88 118
245 4 2 0 0 87 88 116 118
246 4 2 0 0 87 116 115 118
247 4 2 0 0 89 117 119 120
248 4 2 0 0 89 119 91 120
249 4 2 0 0 89 91 92 120
250 4 2 0 0 89 92 90 120
251 4 2 0 0 89 90 118 120
252 4 2 0 0 89 118 117 120
253 4 2 0 0 91 119 121 122
254 4 2 0 0 91 121 93 122
255 4 2 0 0 91 93 94 122
256 4 2 0 0 91 94 92 122
257 4 2 0 0 91 92 120 122
258 4 2 0 0 91 120 119 122
259 4 2 0 0 93 121 123 124
260 4 2 0 0 93 123 95 124
261 4 2 0 0 93 95 96 124
262 4 2 0 0 93 96 94 124
263 4 2 0 0 93 94 122 124
264 4 2 0 0 93 122 121 124
265 4 2 0 0 95 123 125 126
266 4 2 0 0 95 125 97 126
267 4 2 0 0 95 97 98 126
268 4 2 0 0 95 98 96 126
269 4 2 0 0 95 96 124 126
270 4 2 0 0 95 124 123 126
271 4 2 0 0 97 125 127 128
272 4 2 0 0 97 127 99 128
273 4 2 0 0 97 99 100 128
274 4 2 0 0 97 100 98 128
275 4 2 0 0 97 98 126 128
276 4 2 0 0 97 126 125 128
277 4 2 0 0 99 127 129 130
278 4 2 0 0 99 129 101 130
279 4 2 0 0 99 101 102 130
280 4 2 0 0 99 102 100 130
281 4 2 0 0 99 100 128 130
282 4 2 0 0 99 128 127 130
283 4 2 0 0 101 129 131 132
284 4 2 0 0 101 131 103 132
285 4 2 0 0 101 103 104 132
286 4 2 0 0 101 104 102 132
287 4 2 0 0 101 102 130 132
288 4 2 0 0 101 130 129 132
289 4 2 0 0 103 131 133 134
290 4 2 0 0 103 133 105 134
291 4 2 0 0 103 105 106 134
292 4 2 0 0 103 106 104 134
293 4 2 0 0 103 104 132 134
294 4 2 0 0 103 132 131 134
295 4 2 0 0 105 133 135 136
296 4 2 0 0 105 135 107 136
297 4 2 0 0 105 107 108 136
298 4 2 0 0 105 108 106 136
299 4 2 0 0 105 106 134 136
300 4 2 0 0 105 134 133 136
301 4 2 0 0 107 135 137 138
302 4 2 0 0 107 137 109 138
303 4 2 0 0 107 109 110 138
304 4 2 0 0 107 110 108 138
305 4 2 0 0 107 108 136 138
306 4 2 0 0 107 136 135 138
307 4 2 0 0 109 137 139 140
308 4 2 0 0 109 139 111 140
309 4 2 0 0 109 111 112 140
310 4 2 0 0 109 112 110 140
311 4 2 0 0 109 110 138 140
312 4 2 0 0 109 138 137 140
313 4 2 0 0 113 141 143 144
314 4 2 0 0 113 143 115 144
315 4 2 0 0 113 115 116 144
316 4 2 0 0 113 116 114 144
317 4 2 0 0 113 114 142 144
318 4 2 0 0 113 142 141 144
319 4 2 0 0 115 143 145 146
320 4 2 0 0 115 145 117 146
321 4 2 0 0 115 117 118 146
322 4 2 0 0 115 118 116 146
323 4 2 0 0 115 116 144 146
324 4 2 0 0 115 144 143 146
325 4 2 0 0 117 145 147 148
326 4 2 0 0 117 147 119 148
327 4 2 0 0 117 119 120 148
328 4 2 0 0 117 120 118 148
329 4 2 0 0 117 118 146 148
330 4 2 0 0 117 146 145 148
331 4 2 0 0 119 147 149 150
332 4 2 0 0 119 149 121 150
333 4 2 0 0 119 121 122 150
334 4 2 0 0 119 122 120 150
335 4 2 0 0 119 120 148 150
336 4 2 0 0 119 148 147 150
337 4 2 0 0 121 149 151 152
338 4 2 0 0 121 151 123 152
339 4 2 0 0 121 123 124 152
340 4 2 0 0 121 124 122 152
341 4 2 0 0 121 122 150 152
342 4 2 0 0 121 150 149 152
343 4 2 0 0 123 151 153 154
344 4 2 0 0 123 153 125 154
345 4 2 0 0 123 125 126 154
346 4 2 0 0 123 126 124 154
347 4 2 0 0 123 124 152 154
348 4 2 0 0 123 152 151 154
349 4 2 0 0 125 153 155 156
350 4 2 0 0 125 155 127 156
351 4 2 0 0 125 127 128 156
352 4 2 0 0 125 128 126 156
353 4 2 0 0 125 126 154 156
354 4 2 0 0 125 154 153 156
355 4 2 0 0 127 155 157 158
356 4 2 0 0 127 157 129 158
357 4 2 0 0 127 129 130 158
358 4 2 0 0 127 130 128 158
359 4 2 0 0 127 128 156 158
360 4 2 0 0 127 156 155 158
361 4 2 0 0 129 157 159 160
362 4 2 0 0 129 159 131 160
363 4 2 0 0 129 131 132 160
364 4 2 0 0 129 132 130 160
365 4 2 0 0 129 130 158 160
366 4 2 0 0 129 158 157 160
367 4 2 0 0 131 159 161 162
368 4 2 0 0 131 161 133 162
369 4 2 0 0 131 133 134 162
370 4 2 0 0 131 134 132 162
371 4 2 0 0 131 132 160 162
372 4 2 0 0 131 160 159 162
373 4 2 0 0 133 161 163 164
374 4 2 0 0 133 163 135 164
375 4 2 0 0 133 135 136 164
376 4 2 0 0 133 136 134 164
377 4 2 0 0 133 134 162 164
378 4 2 0 0 133 162 161 164
379 4 2 0 0 135 163 165 166
380 4 2 0 0 135 165 137 166
381 4 2 0 0 135 137 138 166
382 4 2 0 0 135 138 136 166
383 4 2 0 0 135 136 164 166
384 4 2 0 0 135 164 163 166
385 4 2 0 0 137 165 167 168
386 4 2 0 0 137 167 139 168
387 4 2 0 0 137 139 140 168
388 4 2 0 0 137 140 138 168
389 4 2 0 0 137 138 166 168
390 4 2 0 0 137 166 165 168
391 4 2 0 0 141 169 171 172
392 4 2 0 0 141 171 143 172
393 4 2 0 0 141 143 144 172
394 4 2 0 0 141 144 142 172
395 4 2 0 0 141 142 170 172
396 4 2 0 0 141 170 169 172
397 4 2 0 0 143 171 173 174
398 4 2 0 0 143 173 145 174
399 4 2 0 0 143 145 146 174
400 4 2 0 0 143 146 144 174
401 4 2 0 0 143 144 172 174
402 4 2 0 0 143 172 171 174
403 4 2 0 0 145 173 175 176
404 4 2 0 0 145 175 147 176
405 4 2 0 0 145 147 148 176
406 4 2 0 0 145 148 146 176
407 4 2 0 0 145 146 174 176
408 4 2 0 0 145 174 173 176
409 4 2 0 0 147 175 177 178
410 4 2 0 0 147 177 149 178
411 4 2 0 0 147 149 150 178
412 4 2 0 0 147 150 148 178
413 4 2 0 0 147 148 176 178
414 4 2 0 0 147 176 175 178
415 4 2 0 0 149 177 179 180
416 4 2 0 0 149 179 151 180
417 4 2 0 0 149 151 152 180
418 4 2 0 0 149 152 150 180
419 4 2 0 0 149 150 178 180
420 4 2 0 0 149 178 177 180
421 4 2 0 0 151 179 181 182
422 4 2 0 0 151 181 153 182
423 4 2 0 0 151 153 154 182
424 4 2 0 0 151 154 152 182
425 4 2 0 0 151 152 180 182
426 4 2 0 0 151 180 179 182
427 4 2 0 0 153 181 183 184
428 4 2 0 0 153 183 155 184
429 4 2 0 0 153 155 156 184
430 4 2 0 0 153 156 154 184
431 4 2 0 0 153 154 182 184
432 4 2 0 0 153 182 181 184
433 4 2 0 0 155 183 185 186
434 4 2 0 0 155 185 157 186
435 4 2 0 0 155 157 158 186
436 4 2 0 0 155 158 156 186
437 4 2 0 0 155 156 184 186
438 4 2 0 0 155 184 183 186
439 4 2 0 0 157 185 187 188
440 4 2 0 0 157 187 159 188
441 4 2 0 0 157 159 160 188
442 4 2 0 0 157 160 158 188
443 4 2 0 0 157 158 186 188
444 4 2 0 0 157 186 185 188
445 4 2 0 0 159 187 189 190
446 4 2 0 0 159 189 161 190
447 4 2 0 0 159 161 162 190
448 4 2 0 0 159 162 160 190
449 4 2 0 0 159 160 188 190
450 4 2 0 0 159 188 187 190
451 4 2 0 0 161 189 191 192
452 4 2 0 0 161 191 163 192
453 4 2 0 0 161 163 164 192
454 4 2 0 0 161 164 162 192
455 4 2 0 0 161 162 190 192
456 4 2 0 0 161 190 189 192
457 4 2 0 0 163 191 193 194
458 4 2 0 0 163 193 165 194
459 4 2 0 0 163 165 166 194
460 4 2 0 0 163 166 164 194
461 4 2 0 0 163 164 192 194
462 4 2 0 0 163 192 191 194
463 4 2 0 0 165 193 195 196
464 4 2 0 0 165 195 167 196
465 4 2 0 0 165 167 168 196
466 4 2 0 0 165 168 166 196
467 4 2 0 0 165 166 194 196
468 4 2 0 0 165 194 193 196
469 4 2 0 0 169 197 199 200
470 4 2 0 0 169 199 171 200
471 4 2 0 0 169 171 172 200
472 4 2 0 0 169 172 170 200
473 4 2 0 0 169 170 198 200
474 4 2 0 0 169 198 197 200
475 4 2 0 0 171 199 201 202
476 4 2 0 0 171 201 173 202
477 4 2 0 0 171 173 174 202
478 4 2 0 0 171 174 172 202
479 4 2 0 0 171 172 200 202
480 4 2 0 0 171 200 199 202
481 4 2 0 0 173 201 203 204
482 4 2 0 0 173 203 175 204
483 4 2 0 0 173 175 176 204
484 4 2 0 0 173 176 174 204
485 4 2 0 0 173 174 202 204
486 4 2 0 0 173 202 201 204
487 4 2 0 0 175 203 205 206
488 4 2 0 0 175 205 177 206
489 4 2 0 0 175 177 178 206
490 4 2 0 0 175 178 176 206
491 4 2 0 0 175 176 204 206
492 4 2 0 0 175 204 203 206
493 4 2 0 0 177 205 207 208
494 4 2 0 0 177 207 179 208
495 4 2 0 0 177 179 180 208
496 4 2 0 0 177 180 178 208
497 4 2 0 0 177 178 206 208
498 4 2 0 0 177 206 205 208
499 4 2 0 0 179 207 209 210
500 4 2 0 0 179 209 181 210
501 4 2 0 0 179 181 182 210
502 4 2 0 0 179 182 180 210
503 4 2 0 0 179 180 208 210
504 4 2 0 0 179 208 207 210
505 4 2 0 0 181 209 211 212
506 4 2 0 0 181 211 183 212
507 4 2 0 0 181 183 184 212
508 4 2 0 0 181 184 182 212
509 4 2 0 0 181 182 210 212
510 4 2 0 0 181 210 209 212
511 4 2 0 0 183 211 213 214
512 4 2 0 0 183 213 185 214
513 4 2 0 0 183 185 186 214
514 4 2 0 0 183 186 184 214
515 4 2 0 0 183 184 212 214
516 4 2 0 0 183 212 211 214
517 4 2 0 0 185 213 215 216
518 4 2 0 0 185 215 187 216
519 4 2 0 0 185 187 188 216
520 4 2 0 0 185 188 186 216
521 4 2 0 0 185 186 214 216
522 4 2 0 0 185 214 213 216
523 4 2 0 0 187 215 217 218
524 4 2 0 0 187 217 189 218
525 4 2 0 0 187 189 190 218
526 4 2 0 0 187 190 188 218
527 4 2 0 0 187 188 216 218
528 4 2 0 0 187 216 215 218
529 4 2 0 0 189 217 219 220
530 4 2 0 0 189 219 191 220
531 4 2 0 0 189 191 192 220
532 4 2 0 0 189 192 190 220
533 4 2 0 0 189 190 218 220
534 4 2 0 0 189 218 217 220
535 4 2 0 0 191 219 221 222
536 4 2 0 0 191 221 193 222
537 4 2 0 0 191 193 194 222
538 4 2 0 0 191 194 192 222
539 4 2 0 0 191 192 220 222
540 4 2 0 0 191 220 219 222
541 4 2 0 0 193 221 223 224
542 4 2 0 0 193 223 195 224
543 4 2 0 0 193 195 196 224
544 4 2 0 0 193 196 194 224
545 4 2 0 0 193 194 222 224
546 4 2 0 0 193 222 221 224
547 4 2 0 0 197 225 227 228
548 4 2 0 0 197 227 199 228
549 4 2 0 0 197 199 200 228
550 4 2 0 0 197 200 198 228
551 4 2 0 0 197 198 226 228
552 4 2 0 0 197 226 225 228
553 4 2 0 0 199 227 229 230
554 4 2 0 0 199 229 201 230
555 4 2 0 0 199 201 202 230
556 4 2 0 0 199 202 200 230
557 4 2 0 0 199 200 228 230
558 4 2 0 0 199 228 227 230
559 4 2 0 0 201 229 231 232
560 4 2 0 0 201 231 203 232
561 4 2 0 0 201 203 204 232
562 4 2 0 0 201 204 202 232
563 4 2 0 0 201 202 230 232
564 4 2 0 0 201 230 229 232
565 4 2 0 0 203 231 233 234
566 4 2 0 0 203 233 205 234
567 4 2 0 0 203 205 206 234
568 4 2 0 0 203 206 204 234
569 4 2 0 0 203 204 232 234
570 4 2 0 0 203 232 231 234
571 4 2 0 0 205 233 235 236
572 4 2 0 0 205 235 207 236
573 4 2 0 0 205 207 208 236
574 4 2 0 0 205 208 206 236
575 4 2 0 0 205 206 234 236
576 4 2 0 0 205 234 233 236
577 4 2 0 0 207 235 237 238
578 4 2 0 0 207 237 209 238
579 4 2 0 0 207 209 210 238
580 4 2 0 0 207 210 208 238
581 4 2 0 0 207 208 236 238
582 4 2 0 0 207 236 235 238
583 4 2 0 0 209 237 239 240
584 4 2 0 0 209 239 211 240
585 4 2 0 0 209 211 212 240
586 4 2 0 0 209 212 210 240
587 4 2 0 0 209 210 238 240
588 4 2 0 0 209 238 237 240
589 4 2 0 0 211 239 241 242
590 4 2 0 0 211 241 213 242
591 4 2 0 0 211 213 214 242
592 4 2 0 0 211 214 212 242
593 4 2 0 0 211 212 240 242
594 4 2 0 0 211 240 239 242
595 4 2 0 0 213 241 243 244
596 4 2 0 0 213 243 215 244
597 4 2 0 0 213 215 216 244
598 4 2 0 0 213 216 214 244
599 4 2 0 0 213 214 242 244
600 4 2 0 0 213 242 241 244
601 4 2 0 0 215 243 245 246
602 4 2 0 0 215 245 217 246
603 4 2 0 0 215 217 218 246
604 4 2 0 0 215 218 216 246
605 4 2 0 0 215 216 244 246
606 4 2 0 0 215 244 243 246
607 4 2 0 0 217 245 247 248
608 4 2 0 0 217 247 219 248
609 4 2 0 0 217 219 220 248
610 4 2 0 0 217 220 218 248
611 4 2 0 0 217 218 246 248
612 4 2 0 0 217 246 245 248
613 4 2 0 0 219 247 249 250
614 4 2 0 0 219 249 221 250
615 4 2 0 0 219 221 222 250
616 4 2 0 0 219 222 220 250
617 4 2 0 0 219 220 248 250
618 4 2 0 0 219 248 247 250
619 4 2 0 0 221 249 251 252
620 4 2 0 0 221 251 223 252
621 4 2 0 0 221 223 224 252
622 4 2 0 0 221 224 222 252
623 4 2 0 0 221 222 250 252
624 4 2 0 0 221 250 249 252
625 4 2 0 0 225 253 255 256
626 4 2 0 0 225 255 227 256
627 4 2 0 0 225 227 228 256
628 4 2 0 0 225 228 226 256
629 4 2 0 0 225 226 254 256
630 4 2 0 0 225 254 253 256
631 4 2 0 0 227 255 257 258
632 4 2 0 0 227 257 229 258
633 4 2 0 0 227 229 230 258
634 4 2 0 0 227 230 228 258
635 4 2 0 0 227 228 256 258
636 4 2 0 0 227 256 255 258
637 4 2 0 0 229 257 259 260
638 4 2 0 0 229 259 231 260
639 4 2 0 0 229 231 232 260
640 4 2 0 0 229 232 230 260
641 4 2 0 0 229 230 258 260
642 4 2 0 0 229 258 257 260
643 4 2 0 0 231 259 261 262
644 4 2 0 0 231 261 233 262
645 4 2 0 0 231 233 234 262
646 4 2 0 0 231 234 232 262
647 4 2 0 0 231 232 260 262
648 4 2 0 0 231 260 259 262
649 4 2 0 0 233 261 263 264
650 4 2 0 0 233 263 235 264
651 4 2 0 0 233 235 236 264
652 4 2 0 0 233 236 234 264
653 4 2 0 0 233 234 262 264
654 4 2 0 0 233 262 261 264
655 4 2 0 0 235 263 265 266
656 4 2 0 0 235 265 237 266
657 4 2 0 0 235 237 238 266
658 4 2 0 0 235 238 236 266
659 4 2 0 0 235 236 264 266
660 4 2 0 0 235 264 263 266
661 4 2 0 0 237 265 267 268
662 4 2 0 0 237 267 239 268
663 4 2 0 0 237 239 240 268
664 4 2 0 0 237 240 238 268
665 4 2 0 0 237 238 266 268
666 4 2 0 0 237 266 265 268
667 4 2 0 0 239 267 269 270
668 4 2 0 0 239 269 241 270
669 4 2 0 0 239 241 242 270
670 4 2 0 0 239 242 240 270
671 4 2 0 0 239 240 268 270
672 4 2 0 0 239 268 267 270
673 4 2 0 0 241 269 271 272
674 4 2 0 0 241 271 243 272
675 4 2 0 0 241 243 244 272
676 4 2 0 0 241 244 242 272
677 4 2 0 0 241 242 270 272
678 4 2 0 0 241 270 269 272
679 4 2 0 0 243 271 273 274
680 4 2 0 0 243 273 245 274
681 4 2 0 0 243 245 246 274
682 4 2 0 0 243 246 244 274
683 4 2 0 0 243 244 272 274
684 4 2 0 0 243 272 271 274
685 4 2 0 0 245 273 275 276
686 4 2 0 0 245 275 247 276
687 4 2 0 0 245 247 248 276
688 4 2 0 0 245 248 246 276
689 4 2 0 0 245 246 274 276
690 4 2 0 0 245 274 273 276
691 4 2 0 0 247 275 277 278
692 4 2 0 0 247 277 249 278
693 4 2 0 0 247 249 250 278
694 4 2 0 0 247 250 248 278
695 4 2 0 0 247 248 276 278
696 4 2 0 0 247 276 275 278
697 4 2 0 0 249 277 279 280
698 4 2 0 0 249 279 251 280
699 4 2 0 0 249 251 252 280
700 4 2 0 0 249 252 250 280
701 4 2 0 0 249 250 278 280
702 4 2 0 0 249 278 277 280
703 4 2 0 0 253 281 283 284
704 4 2 0 0 253 283 255 284
705 4 2 0 0 253 255 256 284
706 4 2 0 0 253 256 254 284
707 4 2 0 0 253 254 282 284
708 4 2 0 0 253 282 281 284
709 4 2 0 0 255 283 285 286
710 4 2 0 0 255 285 257 286
711 4 2 0 0 255 257 258 286
712 4 2 0 0 255 258 256 286
713 4 2 0 0 255 256 284 286
714 4 2 0 0 255 284 283 286
715 4 2 0 0 257 285 287 288
716 4 2 0 0 257 287 259 288
717 4 2 0 0 257 259 260 288
718 4 2 0 0 257 260 258 288
719 4 2 0 0 257 258 286 288
720 4 2 0 0 257 286 285 288
721 4 2 0 0 259 287 289 290
722 4 2 0 0 259 289 261 290
723 4 2 0 0 259 261 262 290
724 4 2 0 0 259 262 260 290
725 4 2 0 0 259 260 288 290
726 4 2 0 0 259 288 287 290
727 4 2 0 0 261 289 291 292
728 4 2 0 0 261 291 263 292
729 4 2 0 0 261 263 264 292
730 4 2 0 0 261 264 262 292
731 4 2 0 0 261 262 290 292
732 4 2 0 0 261 290 289 292
733 4 2 0 0 263 291 293 294
734 4 2 0 0 263 293 265 294
735 4 2 0 0 263 265 266 294
736 4 2 0 0 263 266 264 294
737 4 2 0 0 263 264 292 294
738 4 2 0 0 263 292 291 294
739 4 2 0 0 265 293 295 296
740 4 2 0 0 265 295 267 296
741 4 2 0 0 265 267 268 296
742 4 2 0 0 265 268 266 296
743 4 2 0 0 265 266 294 296
744 4 2 0 0 265 294 293 296
745 4 2 0 0 267 295 297 298
746 4 2 0 0 267 297 269 298
747 4 2 0 0 267 269 270 298
748 4 2 0 0 267 270 268 298
749 4 2 0 0 267 268 296 298
750 4 2 0 0 267 296 295 298
751 4 2 0 0 269 297 299 300
752 4 2 0 0 269 299 271 300
753 4 2 0 0 269 271 272 300
754 4 2 0 0 269 272 270 300
755 4 2 0 0 269 270 298 300
756 4 2 0 0 269 298 297 300
757 4 2 0 0 271 299 301 302
758 4 2 0 0 271 301 273 302
759 4 2 0 0 271 273 274 302
760 4 2 0 0 271 274 272 302
761 4 2 0 0 271 272 300 302
762 4 2 0 0 271 300 299 302
763 4 2 0 0 273 301 303 304
764 4 2 0 0 273 303 275 304
765 4 2 0 0 273 275 276 304
766 4 2 0 0 273 276 274 304
767 4 2 0 0 273 274 302 304
768 4 2 0 0 273 302 301 304
769 4 2 0 0 275 303 305 306
770 4 2 0 0 275 305 277 306
771 4 2 0 0 275 277 278 306
772 4 2 0 0 275 278 276 306
773 4 2 0 0 275 276 304 306
774 4 2 0 0 275 304 303 306
775 4 2 0 0 277 305 307 308
776 4 2 0 0 277 307 279 308
777 4 2 0 0 277 279 280 308
778 4 2 0 0 277 280 278 308
779 4 2 0 0 277 278 306 308
780 4 2 0 0 277 306 305 308
781 4 2 0 0 281 309 311 312
782 4 2 0 0 281 311 283 312
783 4 2 0 0 281 283 284 312
784 4 2 0 0 281 284 282 312
785 4 2 0 0 281 282 310 312
786 4 2 0 0 281 310 309 312
787 4 2 0 0 283 311 313 314
788 4 2 0 0 283 313 285 314
789 4 2 0 0 283 285 286 314
790 4 2 0 0 283 286 284 314
791 4 2 0 0 283 284 312 314
792 4 2 0 0 283 312 311 314
793 4 2 0 0 285 313 315 316
794 4 2 0 0 285 315 287 316
795 4 2 0 0 285 287 288 316
796 4 2 0 0 285 288 286 316
797 4 2 0 0 285 286 314 316
798 4 2 0 0 285 314 313 316
799 4 2 0 0 287 315 317 318
800 4 2 0 0 287 317 289 318
801 4 2 0 0 287 289 290 318
802 4 2 0 0 287 290 288 318
803 4 2 0 0 287 288 316 318
804 4 2 0 0 287 316 315 318
805 4 2 0 0 289 317 319 320
806 4 2 0 0 289 319 291 320
807 4 2 0 0 289 291 292 320
808 4 2 0 0 289 292 290 320
809 4 2 0 0 289 290 318 320
810 4 2 0 0 289 318 317 320
811 4 2 0 0 291 319 321 322
812 4 2 0 0 291 321 293 322
813 4 2 0 0 291 293 294 322
814 4 2 0 0 291 294 292 322
815 4 2 0 0 291 292 320 322
816 4 2 0 0 291 320 319 322
817 4 2 0 0 293 321 323 324
818 4 2 0 0 293 323 295 324
819 4 2 0 0 293 295 296 324
820 4 2 0 0 293 296 294 324
821 4 2 0 0 293 294 322 324
822 4 2 0 0 293 322 321 324
823 4 2 0 0 295 323 325 326
824 4 2 0 0 295 325 297 326
825 4 2 0 0 295 297 298 326
826 4 2 0 0 295 298 296 326
827 4 2 0 0 295 296 324 326
828 4 2 0 0 295 324 323 326
829 4 2 0 0 297 325 327 328
830 4 2 0 0 297 327 299 328
831 4 2 0 0 297 299 300 328
832 4 2 0 0 297 300 298 328
833 4 2 0 0 297 298 326 328
834 4 2 0 0 297 326 325 328
835 4 2 0 0 299 327 329 330
836 4 2 0 0 299 329 301 330
837 4 2 0 0 299 301 302 330
838 4 2 0 0 299 302 300 330
839 4 2 0 0 299 300 328 330
840 4 2 0 0 299 328 327 330
841 4 2 0 0 301 329 331 332
842 4 2 0 0 301 331 303 332
843 4 2 0 0 301 303 304 332
844 4 2 0 0 301 304 302 332
845 4 2 0 0 301 302 330 332
846 4 2 0 0 301 330 329 332
847 4 2 0 0 303 331 333 334
848 4 2 0 0 303 333 305 334
849 4 2 0 0 303 305 306 334
850 4 2 0 0 303 306 304 334
851 4 2 0 0 303 304 332 334
852 4 2 0 0 303 332 331 334
853 4 2 0 0 305 333 335 336
854 4 2 0 0 305 335 307 336
855 4 2 0 0 305 307 308 336
856 4 2 0 0 305 308 306 336
857 4 2 0 0 305 306 334 336
858 4 2 0 0 305 334 333 336
859 4 2 0 0 309 337 339 340
860 4 2 0 0 309 339 311 340
861 4 2 0 0 309 311 312 340
862 4 2 0 0 309 312 310 340
863 4 2 0 0 309 310 338 340
864 4 2 0 0 309 338 337 340
865 4 2 0 0 311 339 341 342
866 4 2 0 0 311 341 313 342
867 4 2 0 0 311 313 314 342
868 4 2 0 0 311 314 312 342
869 4 2 0 0 311 312 340 342
870 4 2 0 0 311 340 339 342
871 4 2 0 0 313 341 343 344
872 4 2 0 0 313 343 315 344
873 4 2 0 0 313 315 316 344
874 4 2 0 0 313 316 314 344
875 4 2 0 0 313 314 342 344
876 4 2 0 0 313 342 341 344
877 4 2 0 0 315 343 345 346
878 4 2 0 0 315 345 317 346
879 4 2 0 0 315 317 318 346
880 4 2 0 0 315 318 316 346
881 4 2 0 0 315 316 344 346
882 4 2 0 0 315 344 343 346
883 4 2 0 0 317 345 347 348
884 4 2 0 0 317 347 319 348
885 4 2 0 0 317 319 320 348
886 4 2 0 0 317 320 318 348
887 4 2 0 0 317 318 346 348
888 4 2 0 0 317 346 345 348
889 4 2 0 0 319 347 349 350
890 4 2 0 0 319 349 321 350
891 4 2 0 0 319 321 322 350
892 4 2 0 0 319 322 320 350
893 4 2 0 0 319 320 348 350
894 4 2 0 0 319 348 347 350
895 4 2 0 0 321 349 351 352
896 4 2 0 0 321 351 323 352
897 4 2 0 0 321 323 324 352
898 4 2 0 0 321 324 322 352
899 4 2 0 0 321 322 350 352
900 4 2 0 0 321 350 349 352
901 4 2 0 0 323 351 353 354
902 4 2 0 0 323 353 325 354
903 4 2 0 0 323 325 326 354
904 4 2 0 0 323 326 324 354
905 4 2 0 0 323 324 352 354
906 4 2 0 0 323 352 351 354
907 4 2 0 0 325 353 355 356
908 4 2 0 0 325 355 327 356
909 4 2 0 0 325 327 328 356
910 4 2 0 0 325 328 326 356
911 4 2 0 0 325 326 354 356
912 4 2 0 0 325 354 353 356
913 4 2 0 0 327 355 357 358
914 4 2 0 0 327 357 329 358
915 4 2 0 0 327 329 330 358
916 4 2 0 0 327 330 328 358
917 4 2 0 0 327 328 356 358
918 4 2 0 0 327 356 355 358
919 4 2 0 0 329 357 359 360
920 4 2 0 0 329 359 331 360
921 4 2 0 0 329 331 332 360
922 4 2 0 0 329 332 330 360
923 4 2 0 0 329 330 358 360
924 4 2 0 0 329 358 357 360
925 4 2 0 0 331 359 361 362
926 4 2 0 0 331 361 333 362
927 4 2 0 0 331 333 334 362
928 4 2 0 0 331 334 332 362
929 4 2 0 0 331 332 360 362
930 4 2 0 0 331 360 359 362
931 4 2 0 0 333 361 363 364
932 4 2 0 0 333 363 335 364
933 4 2 0 0 333 335 336 364
934 4 2 0 0 333 336 334 364
935 4 2 0 0 333 334 362 364
936 4 2 0 0 333 362 361 364
937 4 2 0 0 337 365 367 368
938 4 2 0 0 337 367 339 368
939 4 2 0 0 337 339 340 368
940 4 2 0 0 337 340 338 368
941 4 2 0 0 337 338 366 368
942 4 2 0 0 337 366 365 368
943 4 2 0 0 339 367 369 370
944 4 2 0 0 339 369 341 370
945 4 2 0 0 339 341 342 370
946 4 2 0 0 339 342 340 370
947 4 2 0 0 339 340 368 370
948 4 2 0 0 339 368 367 370
949 4 2 0 0 341 369 371 372
950 4 2 0 0 341 371 343 372
951 4 2 0 0 341 343 344 372
952 4 2 0 0 341 344 342 372
953 4 2 0 0 341 342 370 372
954 4 2 0 0 341 370 369 372
955 4 2 0 0 343 371 373 374
956 4 2 0 0 343 373 345 374
957 4 2 0 0 343 345 346 374
958 4 2 0 0 343 346 344 374
959 4 2 0 0 343 344 372 374
960 4 2 0 0 343 372 371 374
961 4 2 0 0 345 373 375 376
962 4 2 0 0 345 375 347 376
963 4 2 0 0 345 347 348 376
964 4 2 0 0 345 348 346 376
965 4 2 0 0 345 346 374 376
966 4 2 0 0 345 374 373 376
967 4 2 0 0 347 375 377 378
968 4 2 0 0 347 377 349 378
969 4 2 0 0 347 349 350 378
970 4 2 0 0 347 350 348 378
971 4 2 0 0 347 348 376 378
972 4 2 0 0 347 376 375 378
973 4 2 0 0 349 377 379 380
974 4 2 0 0 349 379 351 380
975 4 2 0 0 349 351 352 380
976 4 2 0 0 349 352 350 380
977 4 2 0 0 349 350 378 380
978 4 2 0 0 349 378 377 380
979 4 2 0 0 351 379 381 382
980 4 2 0 0 351 381 353 382
981 4 2 0 0 351 353 354 382
982 4 2 0 0 351 354 352 382
983 4 2 0 0 351 352 380 382
984 4 2 0 0 351 380 379 382
985 4 2 0 0 353 381 383 384
986 4 2 0 0 353 383 355 384
987 4 2 0 0 353 355 356 384
988 4 2 0 0 353 356 354 384
989 4 2 0 0 353 354 382 384
990 4 2 0 0 353 382 381 384
991 4 2 0 0 355 383 385 386
992 4 2 0 0 355 385 357 386
993 4 2 0 0 355 357 358 386
994 4 2 0 0 355 358 356 386
995 4 2 0 0 355 356 384 386
996 4 2 0 0 355 384 383 386
997 4 2 0 0 357 385 387 388
998 4 2 0 0 357 387 359 388
999 4 2 0 0 357 359 360 388
1000 4 2 0 0 357 360 358 388
1001 4 2 0 0 357 358 386 388
1002 4 2 0 0 357 386 385 388
1003 4 2 0 0 359 387 389 390
1004 4 2 0 0 359 389 361 390
1005 4 2 0 0 359 361 362 390
1006 4 2 0 0 359 362 360 390
1007 4 2 0 0 359 360 388 390
1008 4 2 0 0 359 388 387 390
1009 4 2 0 0 361 389 391 392
1010 4 2 0 0 361 391 363 392
1011 4 2 0 0 361 363 364 392
1012 4 2 0 0 361 364 362 392
1013 4 2 0 0 361 362 390 392
1014 4 2 0 0 361 390 389 392
1015 4 2 0 0 365 393 395 396
1016 4 2 0 0 365 395 367 396
1017 4 2 0 0 365 367 368 396
1018 4 2 0 0 365 368 366 396
1019 4 2 0 0 365 366 394 396
1020 4 2 0 0 365 394 393 396
1021 4 2 0 0 367 395 397 398
1022 4 2 0 0 367 397 369 398
1023 4 2 0 0 367 369 370 398
1024 4 2 0 0 367 370 368 398
1025 4 2 0 0 367 368 396 398
1026 4 2 0 0 367 396 395 398
1027 4 2 0 0 369 397 399 400
1028 4 2 0 0 369 399 371 400
1029 4 2 0 0 369 371 372 400
1030 4 2 0 0 369 372 370 400
1031 4 2 0 0 369 370 398 400
1032 4 2 0 0 369 398 397 400
1033 4 2 0 0 371 399 401 402
1034 4 2 0 0 371 401 373 402
1035 4 2 0 0 371 373 374 402
1036 4 2 0 0 371 374 372 402
1037 4 2 0 0 371 372 400 402
1038 4 2 0 0 371 400 399 402
1039 4 2 0 0 373 401 403 404
1040 4 2 0 0 373 403 375 404
1041 4 2 0 0 373 375 376 404
1042 4 2 0 0 373 376 374 404
1043 4 2 0 0 373 374 402 404
1044 4 2 0 0 373 402 401 404
1045 4 2 0 0 375 403 405 406
1046 4 2 0 0 375 405 377 406
1047 4 2 0 0 375 377 378 406
1048 4 2 0 0 375 378 376 406
1049 4 2 0 0 375 376 404 406
1050 4 2 0 0 375 404 403 406
1051 4 2 0 0 377 405 407 408
1052 4 2 0 0 377 407 379 408
1053 4 2 0 0 377 379 380 408
1054 4 2 0 0 377 380 378 408
1055 4 2 0 0 377 378 406 408
1056 4 2 0 0 377 406 405 408
1057 4 2 0 0 379 407 409 410
1058 4 2 0 0 379 409 381 410
1059 4 2 0 0 379 381 382 410
1060 4 2 0 0 379 382 380 410
1061 4 2 0 0 379 380 408 410
1062 4 2 0 0 379 408 407 410
1063 4 2 0 0 381 409 411 412
1064 4 2 0 0 381 411 383 412
1065 4 2 0 0 381 383 384 412
1066 4 2 0 0 381 384 382 412
1067 4 2 0 0 381 382 410 412
1068 4 2 0 0 381 410 409 412
1069 4 2 0 0 383 411 413 414
1070 4 2 0 0 383 413 385 414
1071 4 2 0 0 383 385 386 414
1072 4 2 0 0 383 386 384 414
1073 4 2 0 0 383 384 412 414
1074 4 2 0 0 383 412 411 414
1075 4 2 0 0 385 413 415 416
1076 4 2 0 0 385 415 387 416
1077 4 2 0 0 385 387 388 416
1078 4 2 0 0 385 388 386 416
1079 4 2 0 0 385 386 414 416
1080 4 2 0 0 385 414 413 416
1081 4 2 0 0 387 415 417 418
1082 4 2 0 0 387 417 389 418
1083 4 2 0 0 387 389 390 418
1084 4 2 0 0 387 390 388 418
1085 4 2 0 0 387 388 416 418
1086 4 2 0 0 387 416 415 418
1087 4 2 0 0 389 417 419 420
1088 4 2 0 0 389 419 391 420
1089 4 2 0 0 389 391 392 420
1090 4 2 0 0 389 392 390 420
1091 4 2 0 0 389 390 418 420
1092 4 2 0 0 389 418 417 420
1093 4 2 0 0 393 421 423 424
1094 4 2 0 0 393 423 395 424
1095 4 2 0 0 393 395 396 424
1096 4 2 0 0 393 396 394 424
1097 4 2 0 0 393 394 422 424
1098 4 2 0 0 393 422 421 424
1099 4 2 0 0 395 423 425 426
1100 4 2 0 0 395 425 397 426
1101 4 2 0 0 395 397 398 426
1102 4 2 0 0 395 398 396 426
1103 4 2 0 0 395 396 424 426
1104 4 2 0 0 395 424 423 426
1105 4 2 0 0 397 425 427 428
1106 4 2 0 0 397 427 399 428
1107 4 2 0 0 397 399 400 428
1108 4 2 0 0 397 400 398 428
1109 4 2 0 0 397 398 426 428
1110 4 2 0 0 397 426 425 428
1111 4 2 0 0 399 427 429 430
1112 4 2 0 0 399 429 401 430
1113 4 2 0 0 399 401 402 430
1114 4 2 0 0 399 402 400 430
1115 4 2 0 0 399 400 428 430
1116 4 2 0 0 399 428 427 430
1117 4 2 0 0 401 429 431 432
1118 4 2 0 0 401 431 403 432
1119 4 2 0 0 401 403 404 432
1120 4 2 0 0 401 404 402 432
1121 4 2 0 0 401 402 430 432
1122 4 2 0 0 401 430 429 432
1123 4 2 0 0 403 431 433 434
1124 4 2 0 0 403 433 405 434
1125 4 2 0 0 403 405 406 434
1126 4 2 0 0 403 406 404 434
1127 4 2 0 0 403 404 432 434
1128 4 2 0 0 403 432 431 434
1129 4 2 0 0 405 433 435 436
1130 4 2 0 0 405 435 407 436
1131 4 2 0 0 405 407 408 436
1132 4 2 0 0 405 408 406 436
1133 4 2 0 0 405 406 434 436
1134 4 2 0 0 405 434 433 436
1135 4 2 0 0 407 435 437 438
1136 4 2 0 0 407 437 409 438
1137 4 2 0 0 407 409 410 438
1138 4 2 0 0 407 410 408 438
1139 4 2 0 0 407 408 436 438
1140 4 2 0 0 407 436 435 438
1141 4 2 0 0 409 437 439 440
1142 4 2 0 0 409 439 411 440
1143 4 2 0 0 409 411 412 440
1144 4 2 0 0 409 412 410 440
1145 4 2 0 0 409 410 438 440
1146 4 2 0 0 409 438 437 440
1147 4 2 0 0 411 439 441 442
1148 4 2 0 0 411 441 413 442
1149 4 2 0 0 411 413 414 442
1150 4 2 0 0 411 414 412 442
1151 4 2 0 0 411 412 440 442
1152 4 2 0 0 411 440 439 442
1153 4 2 0 0 413 441 443 444
1154 4 2 0 0 413 443 415 444
1155 4 2 0 0 413 415 416 444
1156 4 2 0 0 413 416 414 444
1157 4 2 0 0 413 414 442 444
1158 4 2 0 0 413 442 441 444
1159 4 2 0 0 415 443 445 446
1160 4 2 0 0 415 445 417 446
1161 4 2 0 0 415 417 418 446
1162 4 2 0 0 415 418 416 446
1163 4 2 0 0 415 416 444 446
1164 4 2 0 0 415 444 443 446
1165 4 2 0 0 417 445 447 448
1166 4 2 0 0 417 447 419 448
1167 4 2 0 0 417 419 420 448
1168 4 2 0 0 417 420 418 448
1169 4 2 0 0 417 418 446 448
1170 4 2 0 0 417 446 445 448
1171 4 2 0 0 421 449 451 452
1172 4 2 0 0 421 451 423 452
1173 4 2 0 0 421 423 424 452
1174 4 2 0 0 421 424 422 452
1175 4 2 0 0 421 422 450 452
1176 4 2 0 0 421 450 449 452
1177 4 2 0 0 423 451 453 454
1178 4 2 0 0 423 453 425 454
1179 4 2 0 0 423 425 426 454
1180 4 2 0 0 423 426 424 454
1181 4 2 0 0 423 424 452 454
1182 4 2 0 0 423 452 451 454
1183 4 2 0 0 425 453 455 456
1184 4 2 0 0 425 455 427 456
1185 4 2 0 0 425 427 428 456
1186 4 2 0 0 425 428 426 456
1187 4 2 0 0 425 426 454 456
1188 4 2 0 0 425 454 453 456
1189 4 2 0 0 427 455 457 458
1190 4 2 0 0 427 457 429 458
1191 4 2 0 0 427 429 430 458
1192 4 2 0 0 427 430 428 458
1193 4 2 0 0 427 428 456 458
1194 4 2 0 0 427 456 455 458
1195 4 2 0 0 429 457 459 460
1196 4 2 0 0 429 459 431 460
1197 4 2 0 0 429 431 432 460
1198 4 2 0 0 429 432 430 460
1199 4 2 0 0 429 430 458 460
1200 4 2 0 0 429 458 457 460
1201 4 2 0 0 431 459 461 462
1202 4 2 0 0 431 461 433 462
1203 4 2 0 0 431 433 434 462
1204 4 2 0 0 431 434 432 462
1205 4 2 0 0 431 432 460 462
1206 4 2 0 0 431 460 459 462
1207 4 2 0 0 433 461 463 464
1208 4 2 0 0 433 463 435 464
1209 4 2 0 0 433 435 436 464
1210 4 2 0 0 433 436 434 464
1211 4 2 0 0 433 434 462 464
1212 4 2 0 0 433 462 461 464
1213 4 2 0 0 435 463 465 466
1214 4 2 0 0 435 465 437 466
1215 4 2 0 0 435 437 438 466
1216 4 2 0 0 435 438 436 466
1217 4 2 0 0 435 436 464 466
1218 4 2 0 0 435 464 463 466
1219 4 2 0 0 437 465 467 468
1220 4 2 0 0 437 467 439 468
1221 4 2 0 0 437 439 440 468
1222 4 2 0 0 437 440 438 468
1223 4 2 0 0 437 438 466 468
1224 4 2 0 0 437 466 465 468
1225 4 2 0 0 439 467 469 470
1226 4 2 0 0 439 469 441 470
1227 4 2 0 0 439 441 442 470
1228 4 2 0 0 439 442 440 470
1229 4 2 0 0 439 440 468 470
1230 4 2 0 0 439 468 467 470
1231 4 2 0 0 441 469 471 472
1232 4 2 0 0 441 471 443 472
1233 4 2 0 0 441 443 444 472
1234 4 2 0 0 441 444 442 472
1235 4 2 0 0 441 442 470 472
1236 4 2 0 0 441 470 469 472
1237 4 2 0 0 443 471 473 474
1238 4 2 0 0 443 473 445 474
1239 4 2 0 0 443 445 446 474
1240 4 2 0 0 443 446 444 474
1241 4 2 0 0 443 444 472 474
1242 4 2 0 0 443 472 471 474
1243 4 2 0 0 445 473 475 476
1244 4 2 0 0 445 475 447 476
1245 4 2 0 0 445 447 448 476
1246 4 2 0 0 445 448 446 476
1247 4 2 0 0 445 446 474 476
1248 4 2 0 0 445 474 473 476
$EndElements
