$MeshFormat
2.2 0 8
$EndMeshFormat
$Nodes
306
1 1.1581904378692125e+00 0.0000000000000000e+00 -7.1836112289982834e+00
2 1.2418095621307874e+00 0.0000000000000000e+00 -6.9163887710017162e+00
3 3.1956904378692124e+00 0.0000000000000000e+00 -7.8211847584100482e+00
4 3.2793095621307873e+00 0.0000000000000000e+00 -7.5539623004134810e+00
5 5.2331904378692133e+00 0.0000000000000000e+00 -8.4587582878218122e+00
6 5.3168095621307874e+00 0.0000000000000000e+00 -8.1915358298252450e+00
7 7.2706904378692139e+00 0.0000000000000000e+00 -9.0963318172335779e+00
8 7.3543095621307879e+00 0.0000000000000000e+00 -8.8291093592370107e+00
9 9.3081904378692126e+00 0.0000000000000000e+00 -9.7339053466453418e+00
10 9.3918095621307867e+00 0.0000000000000000e+00 -9.4666828886487746e+00
11 1.1345690437869212e+01 0.0000000000000000e+00 -1.0371478876057107e+01
12 1.1429309562130786e+01 0.0000000000000000e+00 -1.0104256418060540e+01
13 1.3383190437869214e+01 0.0000000000000000e+00 -1.1009052405468871e+01
14 1.3466809562130788e+01 0.0000000000000000e+00 -1.0741829947472304e+01
15 1.5420690437869213e+01 0.0000000000000000e+00 -1.1646625934880635e+01
16 1.5504309562130787e+01 0.0000000000000000e+00 -1.1379403476884068e+01
17 1.7458190437869213e+01 0.0000000000000000e+00 -1.2284199464292401e+01
18 1.7541809562130787e+01 0.0000000000000000e+00 -1.2016977006295834e+01
19 1.1526134343452243e+00 1.1352251467698184e-01 -7.1836112289982834e+00
20 1.2358299096680483e+00 1.2171862211396360e-01 -6.9163887710017162e+00
21 3.1803023149398255e+00 3.1323243809846157e-01 -7.8211847584100482e+00
22 3.2635187902626495e+00 3.2142854553544331e-01 -7.5539623004134810e+00
23 5.2079911955344276e+00 5.1294236151994144e-01 -8.4587582878218122e+00
24 5.2912076708572506e+00 5.2113846895692306e-01 -8.1915358298252450e+00
25 7.2356800761290296e+00 7.1265228494142119e-01 -9.0963318172335779e+00
26 7.3188965514518527e+00 7.2084839237840281e-01 -8.8291093592370107e+00
27 9.2633689567236299e+00 9.1236220836290083e-01 -9.7339053466453418e+00
28 9.3465854320464530e+00 9.2055831579988245e-01 -9.4666828886487746e+00
29 1.1291057837318231e+01 1.1120721317843805e+00 -1.0371478876057107e+01
30 1.1374274312641054e+01 1.1202682392213621e+00 -1.0104256418060540e+01
31 1.3318746717912832e+01 1.3117820552058603e+00 -1.1009052405468871e+01
32 1.3401963193235655e+01 1.3199781626428420e+00 -1.0741829947472304e+01
33 1.5346435598507433e+01 1.5114919786273400e+00 -1.1646625934880635e+01
34 1.5429652073830256e+01 1.5196880860643216e+00 -1.1379403476884068e+01
35 1.7374124479102036e+01 1.7112019020488198e+00 -1.2284199464292401e+01
36 1.7457340954424858e+01 1.7193980094858015e+00 -1.2016977006295834e+01
37 1.1359361333658957e+00 2.2595174547990524e-01 -7.1836112289982834e+00
38 1.2179485396018572e+00 2.4226502735880254e-01 -6.9163887710017162e+00
39 3.1342861421874777e+00 6.2344827658776647e-01 -7.8211847584100482e+00
40 3.2162985484234392e+00 6.3976155846666383e-01 -7.5539623004134810e+00
41 5.1326361510090610e+00 1.0209448076956280e+00 -8.4587582878218122e+00
42 5.2146485572450212e+00 1.0372580895745251e+00 -8.1915358298252450e+00
43 7.1309861598306430e+00 1.4184413388034893e+00 -9.0963318172335779e+00
44 7.2129985660666041e+00 1.4347546206823865e+00 -8.8291093592370107e+00
45 9.1293361686522232e+00 1.8159378699113504e+00 -9.7339053466453418e+00
46 9.2113485748881843e+00 1.8322511517902476e+00 -9.4666828886487746e+00
47 1.1127686177473805e+01 2.2134344010192115e+00 -1.0371478876057107e+01
48 1.1209698583709766e+01 2.2297476828981089e+00 -1.0104256418060540e+01
49 1.3126036186295389e+01 2.6109309321270735e+00 -1.1009052405468871e+01
50 1.3208048592531350e+01 2.6272442140059704e+00 -1.0741829947472304e+01
51 1.5124386195116971e+01 3.0084274632349346e+00 -1.1646625934880635e+01
52 1.5206398601352932e+01 3.0247407451138315e+00 -1.1379403476884068e+01
53 1.7122736203938551e+01 3.4059239943427957e+00 -1.2284199464292401e+01
54 1.7204748610174512e+01 3.4222372762216930e+00 -1.2016977006295834e+01
55 1.1083191464563982e+00 3.3620493745606878e-01 -7.1836112289982834e+00
56 1.1883376593009030e+00 3.6047828795464082e-01 -6.9163887710017162e+00
57 3.0580850805107733e+00 9.2765996736203571e-01 -7.8211847584100482e+00
58 3.1381035933552783e+00 9.5193331786060775e-01 -7.5539623004134810e+00
59 5.0078510145651496e+00 1.5191149972680029e+00 -8.4587582878218122e+00
60 5.0878695274096541e+00 1.5433883477665749e+00 -8.1915358298252450e+00
61 6.9576169486195258e+00 2.1105700271739702e+00 -9.0963318172335779e+00
62 7.0376354614640295e+00 2.1348433776725417e+00 -8.8291093592370107e+00
63 8.9073828826739003e+00 2.7020250570799367e+00 -9.7339053466453418e+00
64 8.9874013955184040e+00 2.7262984075785086e+00 -9.4666828886487746e+00
65 1.0857148816728275e+01 3.2934800869859036e+00 -1.0371478876057107e+01
66 1.0937167329572778e+01 3.3177534374844755e+00 -1.0104256418060540e+01
67 1.2806914750782653e+01 3.8849351168918713e+00 -1.1009052405468871e+01
68 1.2886933263627157e+01 3.9092084673904428e+00 -1.0741829947472304e+01
69 1.4756680684837027e+01 4.4763901467978382e+00 -1.1646625934880635e+01
70 1.4836699197681531e+01 4.5006634972964097e+00 -1.1379403476884068e+01
71 1.6706446618891402e+01 5.0678451767038046e+00 -1.2284199464292401e+01
72 1.6786465131735905e+01 5.0921185272023770e+00 -1.2016977006295834e+01
73 1.0700284402976505e+00 4.4322029209621649e-01 -7.1836112289982834e+00
74 1.1472824377294375e+00 4.7521994557999897e-01 -6.9163887710017162e+00
75 2.9524329877893973e+00 1.2229377855400869e+00 -7.8211847584100482e+00
76 3.0296869852211841e+00 1.2549374390238692e+00 -7.5539623004134810e+00
77 4.8348375352811450e+00 2.0026552789839576e+00 -8.4587582878218122e+00
78 4.9120915327129309e+00 2.0346549324677397e+00 -8.1915358298252450e+00
79 6.7172420827728923e+00 2.7823727724278284e+00 -9.0963318172335779e+00
80 6.7944960802046781e+00 2.8143724259116105e+00 -8.8291093592370107e+00
81 8.5996466302646368e+00 3.5620902658716984e+00 -9.7339053466453418e+00
82 8.6769006276964245e+00 3.5940899193554805e+00 -9.4666828886487746e+00
83 1.0482051177756384e+01 4.3418077593155688e+00 -1.0371478876057107e+01
84 1.0559305175188170e+01 4.3738074127993505e+00 -1.0104256418060540e+01
85 1.2364455725248131e+01 5.1215252527594393e+00 -1.1009052405468871e+01
86 1.2441709722679919e+01 5.1535249062432218e+00 -1.0741829947472304e+01
87 1.4246860272739879e+01 5.9012427462033097e+00 -1.1646625934880635e+01
88 1.4324114270171664e+01 5.9332423996870922e+00 -1.1379403476884068e+01
89 1.6129264820231626e+01 6.6809602396471801e+00 -1.2284199464292401e+01
90 1.6206518817663412e+01 6.7129598931309626e+00 -1.2016977006295834e+01
91 1.0214327753217909e+00 5.4596719303462016e-01 -7.1836112289982834e+00
92 1.0951782591142611e+00 5.8538497534777412e-01 -6.9163887710017162e+00
93 2.8183473514315640e+00 1.5064380443175902e+00 -7.8211847584100482e+00
94 2.8920928352240347e+00 1.5458558266307443e+00 -7.5539623004134810e+00
95 4.6152619275413382e+00 2.4669088956005609e+00 -8.4587582878218122e+00
96 4.6890074113338081e+00 2.5063266779137146e+00 -8.1915358298252450e+00
97 6.4121765036511125e+00 3.4273797468835312e+00 -9.0963318172335779e+00
98 6.4859219874435823e+00 3.4667975291966848e+00 -8.8291093592370107e+00
99 8.2090910797608849e+00 4.3878505981665006e+00 -9.7339053466453418e+00
100 8.2828365635533547e+00 4.4272683804796547e+00 -9.4666828886487746e+00
101 1.0006005655870657e+01 5.3483214494494709e+00 -1.0371478876057107e+01
102 1.0079751139663127e+01 5.3877392317626249e+00 -1.0104256418060540e+01
103 1.1802920231980432e+01 6.3087923007324420e+00 -1.1009052405468871e+01
104 1.1876665715772901e+01 6.3482100830455952e+00 -1.0741829947472304e+01
105 1.3599834808090206e+01 7.2692631520154123e+00 -1.1646625934880635e+01
106 1.3673580291882676e+01 7.3086809343285655e+00 -1.1379403476884068e+01
107 1.5396749384199978e+01 8.2297340032983826e+00 -1.2284199464292401e+01
108 1.5470494867992448e+01 8.2691517856115357e+00 -1.2016977006295834e+01
109 9.6300015434762920e-01 6.4345613144807345e-01 -7.1836112289982834e+00
110 1.0325269151784793e+00 6.8991242779897166e-01 -6.9163887710017162e+00
111 2.6571194894140651e+00 1.7754304812255128e+00 -7.8211847584100482e+00
112 2.7266462502449151e+00 1.8218867775764112e+00 -7.5539623004134810e+00
113 4.3512388244805020e+00 2.9074048310029528e+00 -8.4587582878218122e+00
114 4.4207655853113508e+00 2.9538611273538504e+00 -8.1915358298252450e+00
115 6.0453581595469386e+00 4.0393791807803927e+00 -9.0963318172335779e+00
116 6.1148849203777873e+00 4.0858354771312904e+00 -8.8291093592370107e+00
117 7.7394774946133733e+00 5.1713535305578313e+00 -9.7339053466453418e+00
118 7.8090042554442221e+00 5.2178098269087290e+00 -9.4666828886487746e+00
119 9.4335968296798089e+00 6.3033278803352708e+00 -1.0371478876057107e+01
120 9.5031235905106577e+00 6.3497841766861685e+00 -1.0104256418060540e+01
121 1.1127716164746246e+01 7.4353022301127112e+00 -1.1009052405468871e+01
122 1.1197242925577095e+01 7.4817585264636088e+00 -1.0741829947472304e+01
123 1.2821835499812682e+01 8.5672765798901498e+00 -1.1646625934880635e+01
124 1.2891362260643531e+01 8.6137328762410483e+00 -1.1379403476884068e+01
125 1.4515954834879118e+01 9.6992509296675884e+00 -1.2284199464292401e+01
126 1.4585481595709966e+01 9.7457072260184869e+00 -1.2016977006295834e+01
127 8.9529331545766677e-01 7.3474823556678037e-01 -7.1836112289982834e+00
128 9.5993177261290186e-01 7.8779564642596878e-01 -6.9163887710017162e+00
129 2.4703021141842432e+00 2.0273245520502079e+00 -7.8211847584100482e+00
130 2.5349405713394786e+00 2.0803719629093962e+00 -7.5539623004134810e+00
131 4.0453109129108205e+00 3.3199008685336362e+00 -8.4587582878218122e+00
132 4.1099493700660554e+00 3.3729482793928240e+00 -8.1915358298252450e+00
133 5.6203197116373982e+00 4.6124771850170641e+00 -9.0963318172335779e+00
134 5.6849581687926323e+00 4.6655245958762519e+00 -8.8291093592370107e+00
135 7.1953285103639733e+00 5.9050535015004915e+00 -9.7339053466453418e+00
136 7.2599669675192082e+00 5.9581009123596793e+00 -9.4666828886487746e+00
137 8.7703373090905501e+00 7.1976298179839189e+00 -1.0371478876057107e+01
138 8.8349757662457833e+00 7.2506772288431067e+00 -1.0104256418060540e+01
139 1.0345346107817127e+01 8.4902061344673463e+00 -1.1009052405468871e+01
140 1.0409984564972362e+01 8.5432535453265359e+00 -1.0741829947472304e+01
141 1.1920354906543704e+01 9.7827824509507746e+00 -1.1646625934880635e+01
142 1.1984993363698939e+01 9.8358298618099624e+00 -1.1379403476884068e+01
143 1.3495363705270281e+01 1.1075358767434203e+01 -1.2284199464292401e+01
144 1.3560002162425514e+01 1.1128406178293391e+01 -1.2016977006295834e+01
145 8.1896431252273694e-01 8.1896431252273683e-01 -7.1836112289982834e+00
146 8.7809196232497710e-01 8.7809196232497699e-01 -6.9163887710017162e+00
147 2.2596943791903277e+00 2.2596943791903272e+00 -7.8211847584100482e+00
148 2.3188220289925678e+00 2.3188220289925674e+00 -7.5539623004134810e+00
149 3.7004244458579190e+00 3.7004244458579185e+00 -8.4587582878218122e+00
150 3.7595520956601587e+00 3.7595520956601578e+00 -8.1915358298252450e+00
151 5.1411545125255103e+00 5.1411545125255094e+00 -9.0963318172335779e+00
152 5.2002821623277491e+00 5.2002821623277491e+00 -8.8291093592370107e+00
153 6.5818845791931002e+00 6.5818845791930984e+00 -9.7339053466453418e+00
154 6.6410122289953391e+00 6.6410122289953382e+00 -9.4666828886487746e+00
155 8.0226146458606902e+00 8.0226146458606884e+00 -1.0371478876057107e+01
156 8.0817422956629290e+00 8.0817422956629290e+00 -1.0104256418060540e+01
157 9.4633447125282810e+00 9.4633447125282810e+00 -1.1009052405468871e+01
158 9.5224723623305216e+00 9.5224723623305199e+00 -1.0741829947472304e+01
159 1.0904074779195872e+01 1.0904074779195870e+01 -1.1646625934880635e+01
160 1.0963202428998112e+01 1.0963202428998111e+01 -1.1379403476884068e+01
161 1.2344804845863463e+01 1.2344804845863461e+01 -1.2284199464292401e+01
162 1.2403932495665702e+01 1.2403932495665700e+01 -1.2016977006295834e+01
163 7.3474823556678037e-01 8.9529331545766677e-01 -7.1836112289982834e+00
164 7.8779564642596878e-01 9.5993177261290186e-01 -6.9163887710017162e+00
165 2.0273245520502079e+00 2.4703021141842432e+00 -7.8211847584100482e+00
166 2.0803719629093962e+00 2.5349405713394786e+00 -7.5539623004134810e+00
167 3.3199008685336362e+00 4.0453109129108205e+00 -8.4587582878218122e+00
168 3.3729482793928240e+00 4.1099493700660554e+00 -8.1915358298252450e+00
169 4.6124771850170641e+00 5.6203197116373982e+00 -9.0963318172335779e+00
170 4.6655245958762519e+00 5.6849581687926323e+00 -8.8291093592370107e+00
171 5.9050535015004915e+00 7.1953285103639733e+00 -9.7339053466453418e+00
172 5.9581009123596793e+00 7.2599669675192082e+00 -9.4666828886487746e+00
173 7.1976298179839189e+00 8.7703373090905501e+00 -1.0371478876057107e+01
174 7.2506772288431067e+00 8.8349757662457833e+00 -1.0104256418060540e+01
175 8.4902061344673463e+00 1.0345346107817127e+01 -1.1009052405468871e+01
176 8.5432535453265359e+00 1.0409984564972362e+01 -1.0741829947472304e+01
177 9.7827824509507746e+00 1.1920354906543704e+01 -1.1646625934880635e+01
178 9.8358298618099624e+00 1.1984993363698939e+01 -1.1379403476884068e+01
179 1.1075358767434203e+01 1.3495363705270281e+01 -1.2284199464292401e+01
180 1.1128406178293391e+01 1.3560002162425514e+01 -1.2016977006295834e+01
181 6.4345613144807356e-01 9.6300015434762920e-01 -7.1836112289982834e+00
182 6.8991242779897188e-01 1.0325269151784793e+00 -6.9163887710017162e+00
183 1.7754304812255133e+00 2.6571194894140651e+00 -7.8211847584100482e+00
184 1.8218867775764114e+00 2.7266462502449151e+00 -7.5539623004134810e+00
185 2.9074048310029532e+00 4.3512388244805020e+00 -8.4587582878218122e+00
186 2.9538611273538513e+00 4.4207655853113508e+00 -8.1915358298252450e+00
187 4.0393791807803936e+00 6.0453581595469386e+00 -9.0963318172335779e+00
188 4.0858354771312912e+00 6.1148849203777873e+00 -8.8291093592370107e+00
189 5.1713535305578322e+00 7.7394774946133733e+00 -9.7339053466453418e+00
190 5.2178098269087299e+00 7.8090042554442221e+00 -9.4666828886487746e+00
191 6.3033278803352717e+00 9.4335968296798089e+00 -1.0371478876057107e+01
192 6.3497841766861693e+00 9.5031235905106577e+00 -1.0104256418060540e+01
193 7.4353022301127121e+00 1.1127716164746246e+01 -1.1009052405468871e+01
194 7.4817585264636097e+00 1.1197242925577095e+01 -1.0741829947472304e+01
195 8.5672765798901516e+00 1.2821835499812682e+01 -1.1646625934880635e+01
196 8.6137328762410501e+00 1.2891362260643531e+01 -1.1379403476884068e+01
197 9.6992509296675919e+00 1.4515954834879118e+01 -1.2284199464292401e+01
198 9.7457072260184887e+00 1.4585481595709966e+01 -1.2016977006295834e+01
199 5.4596719303462038e-01 1.0214327753217907e+00 -7.1836112289982834e+00
200 5.8538497534777434e-01 1.0951782591142611e+00 -6.9163887710017162e+00
201 1.5064380443175909e+00 2.8183473514315636e+00 -7.8211847584100482e+00
202 1.5458558266307449e+00 2.8920928352240343e+00 -7.5539623004134810e+00
203 2.4669088956005618e+00 4.6152619275413382e+00 -8.4587582878218122e+00
204 2.5063266779137154e+00 4.6890074113338072e+00 -8.1915358298252450e+00
205 3.4273797468835325e+00 6.4121765036511116e+00 -9.0963318172335779e+00
206 3.4667975291966862e+00 6.4859219874435814e+00 -8.8291093592370107e+00
207 4.3878505981665024e+00 8.2090910797608831e+00 -9.7339053466453418e+00
208 4.4272683804796564e+00 8.2828365635533530e+00 -9.4666828886487746e+00
209 5.3483214494494726e+00 1.0006005655870656e+01 -1.0371478876057107e+01
210 5.3877392317626267e+00 1.0079751139663125e+01 -1.0104256418060540e+01
211 6.3087923007324438e+00 1.1802920231980432e+01 -1.1009052405468871e+01
212 6.3482100830455979e+00 1.1876665715772900e+01 -1.0741829947472304e+01
213 7.2692631520154141e+00 1.3599834808090204e+01 -1.1646625934880635e+01
214 7.3086809343285681e+00 1.3673580291882674e+01 -1.1379403476884068e+01
215 8.2297340032983843e+00 1.5396749384199977e+01 -1.2284199464292401e+01
216 8.2691517856115393e+00 1.5470494867992446e+01 -1.2016977006295834e+01
217 4.4322029209621655e-01 1.0700284402976505e+00 -7.1836112289982834e+00
218 4.7521994557999903e-01 1.1472824377294375e+00 -6.9163887710017162e+00
219 1.2229377855400871e+00 2.9524329877893973e+00 -7.8211847584100482e+00
220 1.2549374390238694e+00 3.0296869852211841e+00 -7.5539623004134810e+00
221 2.0026552789839580e+00 4.8348375352811450e+00 -8.4587582878218122e+00
222 2.0346549324677401e+00 4.9120915327129309e+00 -8.1915358298252450e+00
223 2.7823727724278289e+00 6.7172420827728923e+00 -9.0963318172335779e+00
224 2.8143724259116110e+00 6.7944960802046781e+00 -8.8291093592370107e+00
225 3.5620902658716989e+00 8.5996466302646368e+00 -9.7339053466453418e+00
226 3.5940899193554809e+00 8.6769006276964245e+00 -9.4666828886487746e+00
227 4.3418077593155688e+00 1.0482051177756384e+01 -1.0371478876057107e+01
228 4.3738074127993514e+00 1.0559305175188170e+01 -1.0104256418060540e+01
229 5.1215252527594401e+00 1.2364455725248131e+01 -1.1009052405468871e+01
230 5.1535249062432227e+00 1.2441709722679919e+01 -1.0741829947472304e+01
231 5.9012427462033106e+00 1.4246860272739879e+01 -1.1646625934880635e+01
232 5.9332423996870931e+00 1.4324114270171664e+01 -1.1379403476884068e+01
233 6.6809602396471810e+00 1.6129264820231626e+01 -1.2284199464292401e+01
234 6.7129598931309635e+00 1.6206518817663412e+01 -1.2016977006295834e+01
235 3.3620493745606878e-01 1.1083191464563982e+00 -7.1836112289982834e+00
236 3.6047828795464082e-01 1.1883376593009032e+00 -6.9163887710017162e+00
237 9.2765996736203571e-01 3.0580850805107738e+00 -7.8211847584100482e+00
238 9.5193331786060775e-01 3.1381035933552788e+00 -7.5539623004134810e+00
239 1.5191149972680029e+00 5.0078510145651505e+00 -8.4587582878218122e+00
240 1.5433883477665749e+00 5.0878695274096541e+00 -8.1915358298252450e+00
241 2.1105700271739702e+00 6.9576169486195267e+00 -9.0963318172335779e+00
242 2.1348433776725417e+00 7.0376354614640304e+00 -8.8291093592370107e+00
243 2.7020250570799367e+00 8.9073828826739021e+00 -9.7339053466453418e+00
244 2.7262984075785086e+00 8.9874013955184058e+00 -9.4666828886487746e+00
245 3.2934800869859036e+00 1.0857148816728277e+01 -1.0371478876057107e+01
246 3.3177534374844755e+00 1.0937167329572780e+01 -1.0104256418060540e+01
247 3.8849351168918713e+00 1.2806914750782653e+01 -1.1009052405468871e+01
248 3.9092084673904428e+00 1.2886933263627158e+01 -1.0741829947472304e+01
249 4.4763901467978382e+00 1.4756680684837029e+01 -1.1646625934880635e+01
250 4.5006634972964097e+00 1.4836699197681533e+01 -1.1379403476884068e+01
251 5.0678451767038046e+00 1.6706446618891405e+01 -1.2284199464292401e+01
252 5.0921185272023770e+00 1.6786465131735909e+01 -1.2016977006295834e+01
253 2.2595174547990535e-01 1.1359361333658957e+00 -7.1836112289982834e+00
254 2.4226502735880265e-01 1.2179485396018572e+00 -6.9163887710017162e+00
255 6.2344827658776680e-01 3.1342861421874777e+00 -7.8211847584100482e+00
256 6.3976155846666405e-01 3.2162985484234392e+00 -7.5539623004134810e+00
257 1.0209448076956285e+00 5.1326361510090610e+00 -8.4587582878218122e+00
258 1.0372580895745256e+00 5.2146485572450212e+00 -8.1915358298252450e+00
259 1.4184413388034900e+00 7.1309861598306430e+00 -9.0963318172335779e+00
260 1.4347546206823871e+00 7.2129985660666041e+00 -8.8291093592370107e+00
261 1.8159378699113513e+00 9.1293361686522232e+00 -9.7339053466453418e+00
262 1.8322511517902484e+00 9.2113485748881843e+00 -9.4666828886487746e+00
263 2.2134344010192128e+00 1.1127686177473805e+01 -1.0371478876057107e+01
264 2.2297476828981098e+00 1.1209698583709766e+01 -1.0104256418060540e+01
265 2.6109309321270744e+00 1.3126036186295389e+01 -1.1009052405468871e+01
266 2.6272442140059717e+00 1.3208048592531350e+01 -1.0741829947472304e+01
267 3.0084274632349359e+00 1.5124386195116971e+01 -1.1646625934880635e+01
268 3.0247407451138328e+00 1.5206398601352932e+01 -1.1379403476884068e+01
269 3.4059239943427970e+00 1.7122736203938551e+01 -1.2284199464292401e+01
270 3.4222372762216944e+00 1.7204748610174512e+01 -1.2016977006295834e+01
271 1.1352251467698203e-01 1.1526134343452241e+00 -7.1836112289982834e+00
272 1.2171862211396381e-01 1.2358299096680481e+00 -6.9163887710017162e+00
273 3.1323243809846207e-01 3.1803023149398251e+00 -7.8211847584100482e+00
274 3.2142854553544387e-01 3.2635187902626490e+00 -7.5539623004134810e+00
275 5.1294236151994221e-01 5.2079911955344267e+00 -8.4587582878218122e+00
276 5.2113846895692395e-01 5.2912076708572497e+00 -8.1915358298252450e+00
277 7.1265228494142241e-01 7.2356800761290287e+00 -9.0963318172335779e+00
278 7.2084839237840403e-01 7.3188965514518518e+00 -8.8291093592370107e+00
279 9.1236220836290227e-01 9.2633689567236281e+00 -9.7339053466453418e+00
280 9.2055831579988401e-01 9.3465854320464512e+00 -9.4666828886487746e+00
281 1.1120721317843825e+00 1.1291057837318229e+01 -1.0371478876057107e+01
282 1.1202682392213641e+00 1.1374274312641052e+01 -1.0104256418060540e+01
283 1.3117820552058626e+00 1.3318746717912832e+01 -1.1009052405468871e+01
284 1.3199781626428442e+00 1.3401963193235655e+01 -1.0741829947472304e+01
285 1.5114919786273426e+00 1.5346435598507432e+01 -1.1646625934880635e+01
286 1.5196880860643243e+00 1.5429652073830255e+01 -1.1379403476884068e+01
287 1.7112019020488227e+00 1.7374124479102033e+01 -1.2284199464292401e+01
288 1.7193980094858043e+00 1.7457340954424854e+01 -1.2016977006295834e+01
289 7.0918710626980127e-17 1.1581904378692125e+00 -7.1836112289982834e+00
290 7.6038905270702253e-17 1.2418095621307874e+00 -6.9163887710017162e+00
291 1.9567960329011673e-16 3.1956904378692124e+00 -7.8211847584100482e+00
292 2.0079979793383885e-16 3.2793095621307873e+00 -7.5539623004134810e+00
293 3.2044049595325340e-16 5.2331904378692133e+00 -8.4587582878218122e+00
294 3.2556069059697545e-16 5.3168095621307874e+00 -8.1915358298252450e+00
295 4.4520138861639000e-16 7.2706904378692139e+00 -9.0963318172335779e+00
296 4.5032158326011215e-16 7.3543095621307879e+00 -8.8291093592370107e+00
297 5.6996228127952655e-16 9.3081904378692126e+00 -9.7339053466453418e+00
298 5.7508247592324860e-16 9.3918095621307867e+00 -9.4666828886487746e+00
299 6.9472317394266320e-16 1.1345690437869212e+01 -1.0371478876057107e+01
300 6.9984336858638525e-16 1.1429309562130786e+01 -1.0104256418060540e+01
301 8.1948406660579985e-16 1.3383190437869214e+01 -1.1009052405468871e+01
302 8.2460426124952190e-16 1.3466809562130788e+01 -1.0741829947472304e+01
303 9.4424495926893640e-16 1.5420690437869213e+01 -1.1646625934880635e+01
304 9.4936515391265855e-16 1.5504309562130787e+01 -1.1379403476884068e+01
305 1.0690058519320729e-15 1.7458190437869213e+01 -1.2284199464292401e+01
306 1.0741260465757951e-15 1.7541809562130787e+01 -1.2016977006295834e+01
$EndNodes
$Elements
768
1 4 2 0 0 1 19 21 22
2 4 2 0 0 1 21 3 22
3 4 2 0 0 1 3 4 22
4 4 2 0 0 1 4 2 22
5 4 2 0 0 1 2 20 22
6 4 2 0 0 1 20 19 22
7 4 2 0 0 3 21 23 24
8 4 2 0 0 3 23 5 24
9 4 2 0 0 3 5 6 24
10 4 2 0 0 3 6 4 24
11 4 2 0 0 3 4 22 24
12 4 2 0 0 3 22 21 24
13 4 2 0 0 5 23 25 26
14 4 2 0 0 5 25 7 26
15 4 2 0 0 5 7 8 26
16 4 2 0 0 5 8 6 26
17 4 2 0 0 5 6 24 26
18 4 2 0 0 5 24 23 26
19 4 2 0 0 7 25 27 28
20 4 2 0 0 7 27 9 28
21 4 2 0 0 7 9 10 28
22 4 2 0 0 7 10 8 28
23 4 2 0 0 7 8 26 28
24 4 2 0 0 7 26 25 28
25 4 2 0 0 9 27 29 30
26 4 2 0 0 9 29 11 30
27 4 2 0 0 9 11 12 30
28 4 2 0 0 9 12 10 30
29 4 2 0 0 9 10 28 30
30 4 2 0 0 9 28 27 30
31 4 2 0 0 11 29 31 32
32 4 2 0 0 11 31 13 32
33 4 2 0 0 11 13 14 32
34 4 2 0 0 11 14 12 32
35 4 2 0 0 11 12 30 32
36 4 2 0 0 11 30 29 32
37 4 2 0 0 13 31 33 34
38 4 2 0 0 13 33 15 34
39 4 2 0 0 13 15 16 34
40 4 2 0 0 13 16 14 34
41 4 2 0 0 13 14 32 34
42 4 2 0 0 13 32 31 34
43 4 2 0 0 15 33 35 36
44 4 2 0 0 15 35 17 36
45 4 2 0 0 15 17 18 36
46 4 2 0 0 15 18 16 36
47 4 2 0 0 15 16 34 36
48 4 2 0 0 15 34 33 36
49 4 2 0 0 19 37 39 40
50 4 2 0 0 19 39 21 40
51 4 2 0 0 19 21 22 40
52 4 2 0 0 19 22 20 40
53 4 2 0 0 19 20 38 40
54 4 2 0 0 19 38 37 40
55 4 2 0 0 21 39 41 42
56 4 2 0 0 21 41 23 42
57 4 2 0 0 21 23 24 42
58 4 2 0 0 21 24 22 42
59 4 2 0 0 21 22 40 42
60 4 2 0 0 21 40 39 42
61 4 2 0 0 23 41 43 44
62 4 2 0 0 23 43 25 44
63 4 2 0 0 23 25 26 44
64 4 2 0 0 23 26 24 44
65 4 2 0 0 23 24 42 44
66 4 2 0 0 23 42 41 44
67 4 2 0 0 25 43 45 46
68 4 2 0 0 25 45 27 46
69 4 2 0 0 25 27 28 46
70 4 2 0 0 25 28 26 46
71 4 2 0 0 25 26 44 46
72 4 2 0 0 25 44 43 46
73 4 2 0 0 27 45 47 48
74 4 2 0 0 27 47 29 48
75 4 2 0 0 27 29 30 48
76 4 2 0 0 27 30 28 48
77 4 2 0 0 27 28 46 48
78 4 2 0 0 27 46 45 48
79 4 2 0 0 29 47 49 50
80 4 2 0 0 29 49 31 50
81 4 2 0 0 29 31 32 50
82 4 2 0 0 29 32 30 50
83 4 2 0 0 29 30 48 50
84 4 2 0 0 29 48 47 50
85 4 2 0 0 31 49 51 52
86 4 2 0 0 31 51 33 52
87 4 2 0 0 31 33 34 52
88 4 2 0 0 31 34 32 52
89 4 2 0 0 31 32 50 52
90 4 2 0 0 31 50 49 52
91 4 2 0 0 33 51 53 54
92 4 2 0 0 33 53 35 54
93 4 2 0 0 33 35 36 54
94 4 2 0 0 33 36 34 54
95 4 2 0 0 33 34 52 54
96 4 2 0 0 33 52 51 54
97 4 2 0 0 37 55 57 58
98 4 2 0 0 37 57 39 58
99 4 2 0 0 37 39 40 58
100 4 2 0 0 37 40 38 58
101 4 2 0 0 37 38 56 58
102 4 2 0 0 37 56 55 58
103 4 2 0 0 39 57 59 60
104 4 2 0 0 39 59 41 60
105 4 2 0 0 39 41 42 60
106 4 2 0 0 39 42 40 60
107 4 2 0 0 39 40 58 60
108 4 2 0 0 39 58 57 60
109 4 2 0 0 41 59 61 62
110 4 2 0 0 41 61 43 62
111 4 2 0 0 41 43 44 62
112 4 2 0 0 41 44 42 62
113 4 2 0 0 41 42 60 62
114 4 2 0 0 41 60 59 62
115 4 2 0 0 43 61 63 64
116 4 2 0 0 43 63 45 64
117 4 2 0 0 43 45 46 64
118 4 2 0 0 43 46 44 64
119 4 2 0 0 43 44 62 64
120 4 2 0 0 43 62 61 64
121 4 2 0 0 45 63 65 66
122 4 2 0 0 45 65 47 66
123 4 2 0 0 45 47 48 66
124 4 2 0 0 45 48 46 66
125 4 2 0 0 45 46 64 66
126 4 2 0 0 45 64 63 66
127 4 2 0 0 47 65 67 68
128 4 2 0 0 47 67 49 68
129 4 2 0 0 47 49 50 68
130 4 2 0 0 47 50 48 68
131 4 2 0 0 47 48 66 68
132 4 2 0 0 47 66 65 68
133 4 2 0 0 49 67 69 70
134 4 2 0 0 49 69 51 70
135 4 2 0 0 49 51 52 70
136 4 2 0 0 49 52 50 70
137 4 2 0 0 49 50 68 70
138 4 2 0 0 49 68 67 70
139 4 2 0 0 51 69 71 72
140 4 2 0 0 51 71 53 72
141 4 2 0 0 51 53 54 72
142 4 2 0 0 51 54 52 72
143 4 2 0 0 51 52 70 72
144 4 2 0 0 51 70 69 72
145 4 2 0 0 55 73 75 76
146 4 2 0 0 55 75 57 76
147 4 2 0 0 55 57 58 76
148 4 2 0 0 55 58 56 76
149 4 2 0 0 55 56 74 76
150 4 2 0 0 55 74 73 76
151 4 2 0 0 57 75 77 78
152 4 2 0 0 57 77 59 78
153 4 2 0 0 57 59 60 78
154 4 2 0 0 57 60 58 78
155 4 2 0 0 57 58 76 78
156 4 2 0 0 57 76 75 78
157 4 2 0 0 59 77 79 80
158 4 2 0 0 59 79 61 80
159 4 2 0 0 59 61 62 80
160 4 2 0 0 59 62 60 80
161 4 2 0 0 59 60 78 80
162 4 2 0 0 59 78 77 80
163 4 2 0 0 61 79 81 82
164 4 2 0 0 61 81 63 82
165 4 2 0 0 61 63 64 82
166 4 2 0 0 61 64 62 82
167 4 2 0 0 61 62 80 82
168 4 2 0 0 61 80 79 82
169 4 2 0 0 63 81 83 84
170 4 2 0 0 63 83 65 84
171 4 2 0 0 63 65 66 84
172 4 2 0 0 63 66 64 84
173 4 2 0 0 63 64 82 84
174 4 2 0 0 63 82 81 84
175 4 2 0 0 65 83 85 86
176 4 2 0 0 65 85 67 86
177 4 2 0 0 65 67 68 86
178 4 2 0 0 65 68 66 86
179 4 2 0 0 65 66 84 86
180 4 2 0 0 65 84 83 86
181 4 2 0 0 67 85 87 88
182 4 2 0 0 67 87 69 88
183 4 2 0 0 67 69 70 88
184 4 2 0 0 67 70 68 88
185 4 2 0 0 67 68 86 88
186 4 2 0 0 67 86 85 88
187 4 2 0 0 69 87 89 90
188 4 2 0 0 69 89 71 90
189 4 2 0 0 69 71 72 90
190 4 2 0 0 69 72 70 90
191 4 2 0 0 69 70 88 90
192 4 2 0 0 69 88 87 90
193 4 2 0 0 73 91 93 94
194 4 2 0 0 73 93 75 94
195 4 2 0 0 73 75 76 94
196 4 2 0 0 73 76 74 94
197 4 2 0 0 73 74 92 94
198 4 2 0 0 73 92 91 94
199 4 2 0 0 75 93 95 96
200 4 2 0 0 75 95 77 96
201 4 2 0 0 75 77 78 96
202 4 2 0 0 75 78 76 96
203 4 2 0 0 75 76 94 96
204 4 2 0 0 75 94 93 96
205 4 2 0 0 77 95 97 98
206 4 2 0 0 77 97 79 98
207 4 2 0 0 77 79 80 98
208 4 2 0 0 77 80 78 98
209 4 2 0 0 77 78 96 98
210 4 2 0 0 77 96 95 98
211 4 2 0 0 79 97 99 100
212 4 2 0 0 79 99 81 100
213 4 2 0 0 79 81 82 100
214 4 2 0 0 79 82 80 100
215 4 2 0 0 79 80 98 100
216 4 2 0 0 79 98 97 100
217 4 2 0 0 81 99 101 102
218 4 2 0 0 81 101 83 102
219 4 2 0 0 81 83 84 102
220 4 2 0 0 81 84 82 102
221 4 2 0 0 81 82 100 102
222 4 2 0 0 81 100 99 102
223 4 2 0 0 83 101 103 104
224 4 2 0 0 83 103 85 104
225 4 2 0 0 83 85 86 104
226 4 2 0 0 83 86 84 104
227 4 2 0 0 83 84 102 104
228 4 2 0 0 83 102 101 104
229 4 2 0 0 85 103 105 106
230 4 2 0 0 85 105 87 106
231 4 2 0 0 85 87 88 106
232 4 2 0 0 85 88 86 106
233 4 2 0 0 85 86 104 106
234 4 2 0 0 85 104 103 106
235 4 2 0 0 87 105 107 108
236 4 2 0 0 87 107 89 108
237 4 2 0 0 87 89 90 108
238 4 2 0 0 87 90 88 108
239 4 2 0 0 87 88 106 108
240 4 2 0 0 87 106 105 108
241 4 2 0 0 91 109 111 112
242 4 2 0 0 91 111 93 112
243 4 2 0 0 91 93 94 112
244 4 2 0 0 91 94 92 112
245 4 2 0 0 91 92 110 112
246 4 2 0 0 91 110 109 112
247 4 2 0 0 93 111 113 114
248 4 2 0 0 93 113 95 114
249 4 2 0 0 93 95 96 114
250 4 2 0 0 93 96 94 114
251 4 2 0 0 93 94 112 114
252 4 2 0 0 93 112 111 114
253 4 2 0 0 95 113 115 116
254 4 2 0 0 95 115 97 116
255 4 2 0 0 95 97 98 116
256 4 2 0 0 95 98 96 116
257 4 2 0 0 95 96 114 116
258 4 2 0 0 95 114 113 116
259 4 2 0 0 97 115 117 118
260 4 2 0 0 97 117 99 118
261 4 2 0 0 97 99 100 118
262 4 2 0 0 97 100 98 118
263 4 2 0 0 97 98 116 118
264 4 2 0 0 97 116 115 118
265 4 2 0 0 99 117 119 120
266 4 2 0 0 99 119 101 120
267 4 2 0 0 99 101 102 120
268 4 2 0 0 99 102 100 120
269 4 2 0 0 99 100 118 120
270 4 2 0 0 99 118 117 120
271 4 2 0 0 101 119 121 122
272 4 2 0 0 101 121 103 122
273 4 2 0 0 101 103 104 122
274 4 2 0 0 101 104 102 122
275 4 2 0 0 101 102 120 122
276 4 2 0 0 101 120 119 122
277 4 2 0 0 103 121 123 124
278 4 2 0 0 103 123 105 124
279 4 2 0 0 103 105 106 124
280 4 2 0 0 103 106 104 124
281 4 2 0 0 103 104 122 124
282 4 2 0 0 103 122 121 124
283 4 2 0 0 105 123 125 126
284 4 2 0 0 105 125 107 126
285 4 2 0 0 105 107 108 126
286 4 2 0 0 105 108 106 126
287 4 2 0 0 105 106 124 126
288 4 2 0 0 105 124 123 126
289 4 2 0 0 109 127 129 130
290 4 2 0 0 109 129 111 130
291 4 2 0 0 109 111 112 130
292 4 2 0 0 109 112 110 130
293 4 2 0 0 109 110 128 130
294 4 2 0 0 109 128 127 130
295 4 2 0 0 111 129 131 132
296 4 2 0 0 111 131 113 132
297 4 2 0 0 111 113 114 132
298 4 2 0 0 111 114 112 132
299 4 2 0 0 111 112 130 132
300 4 2 0 0 111 130 129 132
301 4 2 0 0 113 131 133 134
302 4 2 0 0 113 133 115 134
303 4 2 0 0 113 115 116 134
304 4 2 0 0 113 116 114 134
305 4 2 0 0 113 114 132 134
306 4 2 0 0 113 132 131 134
307 4 2 0 0 115 133 135 136
308 4 2 0 0 115 135 117 136
309 4 2 0 0 115 117 118 136
310 4 2 0 0 115 118 116 136
311 4 2 0 0 115 116 134 136
312 4 2 0 0 115 134 133 136
313 4 2 0 0 117 135 137 138
314 4 2 0 0 117 137 119 138
315 4 2 0 0 117 119 120 138
316 4 2 0 0 117 120 118 138
317 4 2 0 0 117 118 136 138
318 4 2 0 0 117 136 135 138
319 4 2 0 0 119 137 139 140
320 4 2 0 0 119 139 121 140
321 4 2 0 0 119 121 122 140
322 4 2 0 0 119 122 120 140
323 4 2 0 0 119 120 138 140
324 4 2 0 0 119 138 137 140
325 4 2 0 0 121 139 141 142
326 4 2 0 0 121 141 123 142
327 4 2 0 0 121 123 124 142
328 4 2 0 0 121 124 122 142
329 4 2 0 0 121 122 140 142
330 4 2 0 0 121 140 139 142
331 4 2 0 0 123 141 143 144
332 4 2 0 0 123 143 125 144
333 4 2 0 0 123 125 126 144
334 4 2 0 0 123 126 124 144
335 4 2 0 0 123 124 142 144
336 4 2 0 0 123 142 141 144
337 4 2 0 0 127 145 147 148
338 4 2 0 0 127 147 129 148
339 4 2 0 0 127 129 130 148
340 4 2 0 0 127 130 128 148
341 4 2 0 0 127 128 146 148
342 4 2 0 0 127 146 145 148
343 4 2 0 0 129 147 149 150
344 4 2 0 0 129 149 131 150
345 4 2 0 0 129 131 132 150
346 4 2 0 0 129 132 130 150
347 4 2 0 0 129 130 148 150
348 4 2 0 0 129 148 147 150
349 4 2 0 0 131 149 151 152
350 4 2 0 0 131 151 133 152
351 4 2 0 0 131 133 134 152
352 4 2 0 0 131 134 132 152
353 4 2 0 0 131 132 150 152
354 4 2 0 0 131 150 149 152
355 4 2 0 0 133 151 153 154
356 4 2 0 0 133 153 135 154
357 4 2 0 0 133 135 136 154
358 4 2 0 0 133 136 134 154
359 4 2 0 0 133 134 152 154
360 4 2 0 0 133 152 151 154
361 4 2 0 0 135 153 155 156
362 4 2 0 0 135 155 137 156
363 4 2 0 0 135 137 138 156
364 4 2 0 0 135 138 136 156
365 4 2 0 0 135 136 154 156
366 4 2 0 0 135 154 153 156
367 4 2 0 0 137 155 157 158
368 4 2 0 0 137 157 139 158
369 4 2 0 0 137 139 140 158
370 4 2 0 0 137 140 138 158
371 4 2 0 0 137 138 156 158
372 4 2 0 0 137 156 155 158
373 4 2 0 0 139 157 159 160
374 4 2 0 0 139 159 141 160
375 4 2 0 0 139 141 142 160
376 4 2 0 0 139 142 140 160
377 4 2 0 0 139 140 158 160
378 4 2 0 0 139 158 157 160
379 4 2 0 0 141 159 161 162
380 4 2 0 0 141 161 143 162
381 4 2 0 0 141 143 144 162
382 4 2 0 0 141 144 142 162
383 4 2 0 0 141 142 160 162
384 4 2 0 0 141 160 159 162
385 4 2 0 0 145 163 165 166
386 4 2 0 0 145 165 147 166
387 4 2 0 0 145 147 148 166
388 4 2 0 0 145 148 146 166
389 4 2 0 0 145 146 164 166
390 4 2 0 0 145 164 163 166
391 4 2 0 0 147 165 167 168
392 4 2 0 0 147 167 149 168
393 4 2 0 0 147 149 150 168
394 4 2 0 0 147 150 148 168
395 4 2 0 0 147 148 166 168
396 4 2 0 0 147 166 165 168
397 4 2 0 0 149 167 169 170
398 4 2 0 0 149 169 151 170
399 4 2 0 0 149 151 152 170
400 4 2 0 0 149 152 150 170
401 4 2 0 0 149 150 168 170
402 4 2 0 0 149 168 167 170
403 4 2 0 0 151 169 171 172
404 4 2 0 0 151 171 153 172
405 4 2 0 0 151 153 154 172
406 4 2 0 0 151 154 152 172
407 4 2 0 0 151 152 170 172
408 4 2 0 0 151 170 169 172
409 4 2 0 0 153 171 173 174
410 4 2 0 0 153 173 155 174
411 4 2 0 0 153 155 156 174
412 4 2 0 0 153 156 154 174
413 4 2 0 0 153 154 172 174
414 4 2 0 0 153 172 171 174
415 4 2 0 0 155 173 175 176
416 4 2 0 0 155 175 157 176
417 4 2 0 0 155 157 158 176
418 4 2 0 0 155 158 156 176
419 4 2 0 0 155 156 174 176
420 4 2 0 0 155 174 173 176
421 4 2 0 0 157 175 177 178
422 4 2 0 0 157 177 159 178
423 4 2 0 0 157 159 160 178
424 4 2 0 0 157 160 158 178
425 4 2 0 0 157 158 176 178
426 4 2 0 0 157 176 175 178
427 4 2 0 0 159 177 179 180
428 4 2 0 0 159 179 161 180
429 4 2 0 0 159 161 162 180
430 4 2 0 0 159 162 160 180
431 4 2 0 0 159 160 178 180
432 4 2 0 0 159 178 177 180
433 4 2 0 0 163 181 183 184
434 4 2 0 0 163 183 165 184
435 4 2 0 0 163 165 166 184
436 4 2 0 0 163 166 164 184
437 4 2 0 0 163 164 182 184
438 4 2 0 0 163 182 181 184
439 4 2 0 0 165 183 185 186
440 4 2 0 0 165 185 167 186
441 4 2 0 0 165 167 168 186
442 4 2 0 0 165 168 166 186
443 4 2 0 0 165 166 184 186
444 4 2 0 0 165 184 183 186
445 4 2 0 0 167 185 187 188
446 4 2 0 0 167 187 169 188
447 4 2 0 0 167 169 170 188
448 4 2 0 0 167 170 168 188
449 4 2 0 0 167 168 186 188
450 4 2 0 0 167 186 185 188
451 4 2 0 0 169 187 189 190
452 4 2 0 0 169 189 171 190
453 4 2 0 0 169 171 172 190
454 4 2 0 0 169 172 170 190
455 4 2 0 0 169 170 188 190
456 4 2 0 0 169 188 187 190
457 4 2 0 0 171 189 191 192
458 4 2 0 0 171 191 173 192
459 4 2 0 0 171 173 174 192
460 4 2 0 0 171 174 172 192
461 4 2 0 0 171 172 190 192
462 4 2 0 0 171 190 189 192
463 4 2 0 0 173 191 193 194
464 4 2 0 0 173 193 175 194
465 4 2 0 0 173 175 176 194
466 4 2 0 0 173 176 174 194
467 4 2 0 0 173 174 192 194
468 4 2 0 0 173 192 191 194
469 4 2 0 0 175 193 195 196
470 4 2 0 0 175 195 177 196
471 4 2 0 0 175 177 178 196
472 4 2 0 0 175 178 176 196
473 4 2 0 0 175 176 194 196
474 4 2 0 0 175 194 193 196
475 4 2 0 0 177 195 197 198
476 4 2 0 0 177 197 179 198
477 4 2 0 0 177 179 180 198
478 4 2 0 0 177 180 178 198
479 4 2 0 0 177 178 196 198
480 4 2 0 0 177 196 195 198
481 4 2 0 0 181 199 201 202
482 4 2 0 0 181 201 183 202
483 4 2 0 0 181 183 184 202
484 4 2 0 0 181 184 182 202
485 4 2 0 0 181 182 200 202
486 4 2 0 0 181 200 199 202
487 4 2 0 0 183 201 203 204
488 4 2 0 0 183 203 185 204
489 4 2 0 0 183 185 186 204
490 4 2 0 0 183 186 184 204
491 4 2 0 0 183 184 202 204
492 4 2 0 0 183 202 201 204
493 4 2 0 0 185 203 205 206
494 4 2 0 0 185 205 187 206
495 4 2 0 0 185 187 188 206
496 4 2 0 0 185 188 186 206
497 4 2 0 0 185 186 204 206
498 4 2 0 0 185 204 203 206
499 4 2 0 0 187 205 207 208
500 4 2 0 0 187 207 189 208
501 4 2 0 0 187 189 190 208
502 4 2 0 0 187 190 188 208
503 4 2 0 0 187 188 206 208
504 4 2 0 0 187 206 205 208
505 4 2 0 0 189 207 209 210
506 4 2 0 0 189 209 191 210
507 4 2 0 0 189 191 192 210
508 4 2 0 0 189 192 190 210
509 4 2 0 0 189 190 208 210
510 4 2 0 0 189 208 207 210
511 4 2 0 0 191 209 211 212
512 4 2 0 0 191 211 193 212
513 4 2 0 0 191 193 194 212
514 4 2 0 0 191 194 192 212
515 4 2 0 0 191 192 210 212
516 4 2 0 0 191 210 209 212
517 4 2 0 0 193 211 213 214
518 4 2 0 0 193 213 195 214
519 4 2 0 0 193 195 196 214
520 4 2 0 0 193 196 194 214
521 4 2 0 0 193 194 212 214
522 4 2 0 0 193 212 211 214
523 4 2 0 0 195 213 215 216
524 4 2 0 0 195 215 197 216
525 4 2 0 0 195 197 198 216
526 4 2 0 0 195 198 196 216
527 4 2 0 0 195 196 214 216
528 4 2 0 0 195 214 213 216
529 4 2 0 0 199 217 219 220
530 4 2 0 0 199 219 201 220
531 4 2 0 0 199 201 202 220
532 4 2 0 0 199 202 200 220
533 4 2 0 0 199 200 218 220
534 4 2 0 0 199 218 217 220
535 4 2 0 0 201 219 221 222
536 4 2 0 0 201 221 203 222
537 4 2 0 0 201 203 204 222
538 4 2 0 0 201 204 202 222
539 4 2 0 0 201 202 220 222
540 4 2 0 0 201 220 219 222
541 4 2 0 0 203 221 223 224
542 4 2 0 0 203 223 205 224
543 4 2 0 0 203 205 206 224
544 4 2 0 0 203 206 204 224
545 4 2 0 0 203 204 222 224
546 4 2 0 0 203 222 221 224
547 4 2 0 0 205 223 225 226
548 4 2 0 0 205 225 207 226
549 4 2 0 0 205 207 208 226
550 4 2 0 0 205 208 206 226
551 4 2 0 0 205 206 224 226
552 4 2 0 0 205 224 223 226
553 4 2 0 0 207 225 227 228
554 4 2 0 0 207 227 209 228
555 4 2 0 0 207 209 210 228
556 4 2 0 0 207 210 208 228
557 4 2 0 0 207 208 226 228
558 4 2 0 0 207 226 225 228
559 4 2 0 0 209 227 229 230
560 4 2 0 0 209 229 211 230
561 4 2 0 0 209 211 212 230
562 4 2 0 0 209 212 210 230
563 4 2 0 0 209 210 228 230
564 4 2 0 0 209 228 227 230
565 4 2 0 0 211 229 231 232
566 4 2 0 0 211 231 213 232
567 4 2 0 0 211 213 214 232
568 4 2 0 0 211 214 212 232
569 4 2 0 0 211 212 230 232
570 4 2 0 0 211 230 229 232
571 4 2 0 0 213 231 233 234
572 4 2 0 0 213 233 215 234
573 4 2 0 0 213 215 216 234
574 4 2 0 0 213 216 214 234
575 4 2 0 0 213 214 232 234
576 4 2 0 0 213 232 231 234
577 4 2 0 0 217 235 237 238
578 4 2 0 0 217 237 219 238
579 4 2 0 0 217 219 220 238
580 4 2 0 0 217 220 218 238
581 4 2 0 0 217 218 236 238
582 4 2 0 0 217 236 235 238
583 4 2 0 0 219 237 239 240
584 4 2 0 0 219 239 221 240
585 4 2 0 0 219 221 222 240
586 4 2 0 0 219 222 220 240
587 4 2 0 0 219 220 238 240
588 4 2 0 0 219 238 237 240
589 4 2 0 0 221 239 241 242
590 4 2 0 0 221 241 223 242
591 4 2 0 0 221 223 224 242
592 4 2 0 0 221 224 222 242
593 4 2 0 0 221 222 240 242
594 4 2 0 0 221 240 239 242
595 4 2 0 0 223 241 243 244
596 4 2 0 0 223 243 225 244
597 4 2 0 0 223 225 226 244
598 4 2 0 0 223 226 224 244
599 4 2 0 0 223 224 242 244
600 4 2 0 0 223 242 241 244
601 4 2 0 0 225 243 245 246
602 4 2 0 0 225 245 227 246
603 4 2 0 0 225 227 228 246
604 4 2 0 0 225 228 226 246
605 4 2 0 0 225 226 244 246
606 4 2 0 0 225 244 243 246
607 4 2 0 0 227 245 247 248
608 4 2 0 0 227 247 229 248
609 4 2 0 0 227 229 230 248
610 4 2 0 0 227 230 228 248
611 4 2 0 0 227 228 246 248
612 4 2 0 0 227 246 245 248
613 4 2 0 0 229 247 249 250
614 4 2 0 0 229 249 231 250
615 4 2 0 0 229 231 232 250
616 4 2 0 0 229 232 230 250
617 4 2 0 0 229 230 248 250
618 4 2 0 0 229 248 247 250
619 4 2 0 0 231 249 251 252
620 4 2 0 0 231 251 233 252
621 4 2 0 0 231 233 234 252
622 4 2 0 0 231 234 232 252
623 4 2 0 0 231 232 250 252
624 4 2 0 0 231 250 249 252
625 4 2 0 0 235 253 255 256
626 4 2 0 0 235 255 237 256
627 4 2 0 0 235 237 238 256
628 4 2 0 0 235 238 236 256
629 4 2 0 0 235 236 254 256
630 4 2 0 0 235 254 253 256
631 4 2 0 0 237 255 257 258
632 4 2 0 0 237 257 239 258
633 4 2 0 0 237 239 240 258
634 4 2 0 0 237 240 238 258
635 4 2 0 0 237 238 256 258
636 4 2 0 0 237 256 255 258
637 4 2 0 0 239 257 259 260
638 4 2 0 0 239 259 241 260
639 4 2 0 0 239 241 242 260
640 4 2 0 0 239 242 240 260
641 4 2 0 0 239 240 258 260
642 4 2 0 0 239 258 257 260
643 4 2 0 0 241 259 261 262
644 4 2 0 0 241 261 243 262
645 4 2 0 0 241 243 244 262
646 4 2 0 0 241 244 242 262
647 4 2 0 0 241 242 260 262
648 4 2 0 0 241 260 259 262
649 4 2 0 0 243 261 263 264
650 4 2 0 0 243 263 245 264
651 4 2 0 0 243 245 246 264
652 4 2 0 0 243 246 244 264
653 4 2 0 0 243 244 262 264
654 4 2 0 0 243 262 261 264
655 4 2 0 0 245 263 265 266
656 4 2 0 0 245 265 247 266
657 4 2 0 0 245 247 248 266
658 4 2 0 0 245 248 246 266
659 4 2 0 0 245 246 264 266
660 4 2 0 0 245 264 263 266
661 4 2 0 0 247 265 267 268
662 4 2 0 0 247 267 249 268
663 4 2 0 0 247 249 250 268
664 4 2 0 0 247 250 248 268
665 4 2 0 0 247 248 266 268
666 4 2 0 0 247 266 265 268
667 4 2 0 0 249 267 269 270
668 4 2 0 0 249 269 251 270
669 4 2 0 0 249 251 252 270
670 4 2 0 0 249 252 250 270
671 4 2 0 0 249 250 268 270
672 4 2 0 0 249 268 267 270
673 4 2 0 0 253 271 273 274
674 4 2 0 0 253 273 255 274
675 4 2 0 0 253 255 256 274
676 4 2 0 0 253 256 254 274
677 4 2 0 0 253 254 272 274
678 4 2 0 0 253 272 271 274
679 4 2 0 0 255 273 275 276
680 4 2 0 0 255 275 257 276
681 4 2 0 0 255 257 258 276
682 4 2 0 0 255 258 256 276
683 4 2 0 0 255 256 274 276
684 4 2 0 0 255 274 273 276
685 4 2 0 0 257 275 277 278
686 4 2 0 0 257 277 259 278
687 4 2 0 0 257 259 260 278
688 4 2 0 0 257 260 258 278
689 4 2 0 0 257 258 276 278
690 4 2 0 0 257 276 275 278
691 4 2 0 0 259 277 279 280
692 4 2 0 0 259 279 261 280
693 4 2 0 0 259 261 262 280
694 4 2 0 0 259 262 260 280
695 4 2 0 0 259 260 278 280
696 4 2 0 0 259 278 277 280
697 4 2 0 0 261 279 281 282
698 4 2 0 0 261 281 263 282
699 4 2 0 0 261 263 264 282
700 4 2 0 0 261 264 262 282
701 4 2 0 0 261 262 280 282
702 4 2 0 0 261 280 279 282
703 4 2 0 0 263 281 283 284
704 4 2 0 0 263 283 265 284
705 4 2 0 0 263 265 266 284
706 4 2 0 0 263 266 264 284
707 4 2 0 0 263 264 282 284
708 4 2 0 0 263 282 281 284
709 4 2 0 0 265 283 285 286
710 4 2 0 0 265 285 267 286
711 4 2 0 0 265 267 268 286
712 4 2 0 0 265 268 266 286
713 4 2 0 0 265 266 284 286
714 4 2 0 0 265 284 283 286
715 4 2 0 0 267 285 287 288
716 4 2 0 0 267 287 269 288
717 4 2 0 0 267 269 270 288
718 4 2 0 0 267 270 268 288
719 4 2 0 0 267 268 286 288
720 4 2 0 0 267 286 285 288
721 4 2 0 0 271 289 291 292
722 4 2 0 0 271 291 273 292
723 4 2 0 0 271 273 274 292
724 4 2 0 0 271 274 272 292
725 4 2 0 0 271 272 290 292
726 4 2 0 0 271 290 289 292
727 4 2 0 0 273 291 293 294
728 4 2 0 0 273 293 275 294
729 4 2 0 0 273 275 276 294
730 4 2 0 0 273 276 274 294
731 4 2 0 0 273 274 292 294
732 4 2 0 0 273 292 291 294
733 4 2 0 0 275 293 295 296
734 4 2 0 0 275 295 277 296
735 4 2 0 0 275 277 278 296
736 4 2 0 0 275 278 276 296
737 4 2 0 0 275 276 294 296
738 4 2 0 0 275 294 293 296
739 4 2 0 0 277 295 297 298
740 4 2 0 0 277 297 279 298
741 4 2 0 0 277 279 280 298
742 4 2 0 0 277 280 278 298
743 4 2 0 0 277 278 296 298
744 4 2 0 0 277 296 295 298
745 4 2 0 0 279 297 299 300
746 4 2 0 0 279 299 281 300
747 4 2 0 0 279 281 282 300
748 4 2 0 0 279 282 280 300
749 4 2 0 0 279 280 298 300
750 4 2 0 0 279 298 297 300
751 4 2 0 0 281 299 301 302
752 4 2 0 0 281 301 283 302
753 4 2 0 0 281 283 284 302
754 4 2 0 0 281 284 282 302
755 4 2 0 0 281 282 300 302
756 4 2 0 0 281 300 299 302
757 4 2 0 0 283 301 303 304
758 4 2 0 0 283 303 285 304
759 4 2 0 0 283 285 286 304
760 4 2 0 0 283 286 284 304
761 4 2 0 0 283 284 302 304
762 4 2 0 0 283 302 301 304
763 4 2 0 0 285 303 305 306
764 4 2 0 0 285 305 287 306
765 4 2 0 0 285 287 288 306
766 4 2 0 0 285 288 286 306
767 4 2 0 0 285 286 304 306
768 4 2 0 0 285 304 303 306
$EndElements
