$MeshFormat
2.2 0 8
$EndMeshFormat
$Nodes
442
1 9.8800000000000008e+00 0.0000000000000000e+00 -3.1500000000000000e+01
2 9.8800000000000008e+00 0.0000000000000000e+00 -3.0750000000000000e+01
3 9.8800000000000008e+00 0.0000000000000000e+00 -2.9250000000000000e+01
4 9.8800000000000008e+00 0.0000000000000000e+00 -2.7750000000000000e+01
5 9.8800000000000008e+00 0.0000000000000000e+00 -2.6250000000000000e+01
6 9.8800000000000008e+00 0.0000000000000000e+00 -2.4750000000000000e+01
7 9.8800000000000008e+00 0.0000000000000000e+00 -2.3125000000000000e+01
8 9.8800000000000008e+00 0.0000000000000000e+00 -2.1500000000000000e+01
9 9.8800000000000008e+00 0.0000000000000000e+00 -1.9925000000000001e+01
10 9.8800000000000008e+00 0.0000000000000000e+00 -1.8350000000000001e+01
11 9.8800000000000008e+00 0.0000000000000000e+00 -1.6774999999999999e+01
12 9.8800000000000008e+00 0.0000000000000000e+00 -1.5199999999999999e+01
13 9.8800000000000008e+00 0.0000000000000000e+00 -1.4750000000000000e+01
14 1.0000000000000000e+01 0.0000000000000000e+00 -3.1500000000000000e+01
15 1.0000000000000000e+01 0.0000000000000000e+00 -3.0750000000000000e+01
16 1.0000000000000000e+01 0.0000000000000000e+00 -2.9250000000000000e+01
17 1.0000000000000000e+01 0.0000000000000000e+00 -2.7750000000000000e+01
18 1.0000000000000000e+01 0.0000000000000000e+00 -2.6250000000000000e+01
19 1.0000000000000000e+01 0.0000000000000000e+00 -2.4750000000000000e+01
20 1.0000000000000000e+01 0.0000000000000000e+00 -2.3125000000000000e+01
21 1.0000000000000000e+01 0.0000000000000000e+00 -2.1500000000000000e+01
22 1.0000000000000000e+01 0.0000000000000000e+00 -1.9925000000000001e+01
23 1.0000000000000000e+01 0.0000000000000000e+00 -1.8350000000000001e+01
24 1.0000000000000000e+01 0.0000000000000000e+00 -1.6774999999999999e+01
25 1.0000000000000000e+01 0.0000000000000000e+00 -1.5199999999999999e+01
26 1.0000000000000000e+01 0.0000000000000000e+00 -1.4750000000000000e+01
27 9.8324250995213056e+00 9.6840934645605881e-01 -3.1500000000000000e+01
28 9.8324250995213056e+00 9.6840934645605881e-01 -3.0750000000000000e+01
29 9.8324250995213056e+00 9.6840934645605881e-01 -2.9250000000000000e+01
30 9.8324250995213056e+00 9.6840934645605881e-01 -2.7750000000000000e+01
31 9.8324250995213056e+00 9.6840934645605881e-01 -2.6250000000000000e+01
32 9.8324250995213056e+00 9.6840934645605881e-01 -2.4750000000000000e+01
33 9.8324250995213056e+00 9.6840934645605881e-01 -2.3125000000000000e+01
34 9.8324250995213056e+00 9.6840934645605881e-01 -2.1500000000000000e+01
35 9.8324250995213056e+00 9.6840934645605881e-01 -1.9925000000000001e+01
36 9.8324250995213056e+00 9.6840934645605881e-01 -1.8350000000000001e+01
37 9.8324250995213056e+00 9.6840934645605881e-01 -1.6774999999999999e+01
38 9.8324250995213056e+00 9.6840934645605881e-01 -1.5199999999999999e+01
39 9.8324250995213056e+00 9.6840934645605881e-01 -1.4750000000000000e+01
40 9.9518472667219697e+00 9.8017140329560604e-01 -3.1500000000000000e+01
41 9.9518472667219697e+00 9.8017140329560604e-01 -3.0750000000000000e+01
42 9.9518472667219697e+00 9.8017140329560604e-01 -2.9250000000000000e+01
43 9.9518472667219697e+00 9.8017140329560604e-01 -2.7750000000000000e+01
44 9.9518472667219697e+00 9.8017140329560604e-01 -2.6250000000000000e+01
45 9.9518472667219697e+00 9.8017140329560604e-01 -2.4750000000000000e+01
46 9.9518472667219697e+00 9.8017140329560604e-01 -2.3125000000000000e+01
47 9.9518472667219697e+00 9.8017140329560604e-01 -2.1500000000000000e+01
48 9.9518472667219697e+00 9.8017140329560604e-01 -1.9925000000000001e+01
49 9.9518472667219697e+00 9.8017140329560604e-01 -1.8350000000000001e+01
50 9.9518472667219697e+00 9.8017140329560604e-01 -1.6774999999999999e+01
51 9.9518472667219697e+00 9.8017140329560604e-01 -1.5199999999999999e+01
52 9.9518472667219697e+00 9.8017140329560604e-01 -1.4750000000000000e+01
53 9.6901585703839181e+00 1.9274923815193472e+00 -3.1500000000000000e+01
54 9.6901585703839181e+00 1.9274923815193472e+00 -3.0750000000000000e+01
55 9.6901585703839181e+00 1.9274923815193472e+00 -2.9250000000000000e+01
56 9.6901585703839181e+00 1.9274923815193472e+00 -2.7750000000000000e+01
57 9.6901585703839181e+00 1.9274923815193472e+00 -2.6250000000000000e+01
58 9.6901585703839181e+00 1.9274923815193472e+00 -2.4750000000000000e+01
59 9.6901585703839181e+00 1.9274923815193472e+00 -2.3125000000000000e+01
60 9.6901585703839181e+00 1.9274923815193472e+00 -2.1500000000000000e+01
61 9.6901585703839181e+00 1.9274923815193472e+00 -1.9925000000000001e+01
62 9.6901585703839181e+00 1.9274923815193472e+00 -1.8350000000000001e+01
63 9.6901585703839181e+00 1.9274923815193472e+00 -1.6774999999999999e+01
64 9.6901585703839181e+00 1.9274923815193472e+00 -1.5199999999999999e+01
65 9.6901585703839181e+00 1.9274923815193472e+00 -1.4750000000000000e+01
66 9.8078528040323043e+00 1.9509032201612824e+00 -3.1500000000000000e+01
67 9.8078528040323043e+00 1.9509032201612824e+00 -3.0750000000000000e+01
68 9.8078528040323043e+00 1.9509032201612824e+00 -2.9250000000000000e+01
69 9.8078528040323043e+00 1.9509032201612824e+00 -2.7750000000000000e+01
70 9.8078528040323043e+00 1.9509032201612824e+00 -2.6250000000000000e+01
71 9.8078528040323043e+00 1.9509032201612824e+00 -2.4750000000000000e+01
72 9.8078528040323043e+00 1.9509032201612824e+00 -2.3125000000000000e+01
73 9.8078528040323043e+00 1.9509032201612824e+00 -2.1500000000000000e+01
74 9.8078528040323043e+00 1.9509032201612824e+00 -1.9925000000000001e+01
75 9.8078528040323043e+00 1.9509032201612824e+00 -1.8350000000000001e+01
76 9.8078528040323043e+00 1.9509032201612824e+00 -1.6774999999999999e+01
77 9.8078528040323043e+00 1.9509032201612824e+00 -1.5199999999999999e+01
78 9.8078528040323043e+00 1.9509032201612824e+00 -1.4750000000000000e+01
79 9.4545705170342238e+00 2.8680126112740880e+00 -3.1500000000000000e+01
80 9.4545705170342238e+00 2.8680126112740880e+00 -3.0750000000000000e+01
81 9.4545705170342238e+00 2.8680126112740880e+00 -2.9250000000000000e+01
82 9.4545705170342238e+00 2.8680126112740880e+00 -2.7750000000000000e+01
83 9.4545705170342238e+00 2.8680126112740880e+00 -2.6250000000000000e+01
84 9.4545705170342238e+00 2.8680126112740880e+00 -2.4750000000000000e+01
85 9.4545705170342238e+00 2.8680126112740880e+00 -2.3125000000000000e+01
86 9.4545705170342238e+00 2.8680126112740880e+00 -2.1500000000000000e+01
87 9.4545705170342238e+00 2.8680126112740880e+00 -1.9925000000000001e+01
88 9.4545705170342238e+00 2.8680126112740880e+00 -1.8350000000000001e+01
89 9.4545705170342238e+00 2.8680126112740880e+00 -1.6774999999999999e+01
90 9.4545705170342238e+00 2.8680126112740880e+00 -1.5199999999999999e+01
91 9.4545705170342238e+00 2.8680126112740880e+00 -1.4750000000000000e+01
92 9.5694033573220878e+00 2.9028467725446232e+00 -3.1500000000000000e+01
93 9.5694033573220878e+00 2.9028467725446232e+00 -3.0750000000000000e+01
94 9.5694033573220878e+00 2.9028467725446232e+00 -2.9250000000000000e+01
95 9.5694033573220878e+00 2.9028467725446232e+00 -2.7750000000000000e+01
96 9.5694033573220878e+00 2.9028467725446232e+00 -2.6250000000000000e+01
97 9.5694033573220878e+00 2.9028467725446232e+00 -2.4750000000000000e+01
98 9.5694033573220878e+00 2.9028467725446232e+00 -2.3125000000000000e+01
99 9.5694033573220878e+00 2.9028467725446232e+00 -2.1500000000000000e+01
100 9.5694033573220878e+00 2.9028467725446232e+00 -1.9925000000000001e+01
101 9.5694033573220878e+00 2.9028467725446232e+00 -1.8350000000000001e+01
102 9.5694033573220878e+00 2.9028467725446232e+00 -1.6774999999999999e+01
103 9.5694033573220878e+00 2.9028467725446232e+00 -1.5199999999999999e+01
104 9.5694033573220878e+00 2.9028467725446232e+00 -1.4750000000000000e+01
105 9.1279297812115132e+00 3.7809123117670875e+00 -3.1500000000000000e+01
106 9.1279297812115132e+00 3.7809123117670875e+00 -3.0750000000000000e+01
107 9.1279297812115132e+00 3.7809123117670875e+00 -2.9250000000000000e+01
108 9.1279297812115132e+00 3.7809123117670875e+00 -2.7750000000000000e+01
109 9.1279297812115132e+00 3.7809123117670875e+00 -2.6250000000000000e+01
110 9.1279297812115132e+00 3.7809123117670875e+00 -2.4750000000000000e+01
111 9.1279297812115132e+00 3.7809123117670875e+00 -2.3125000000000000e+01
112 9.1279297812115132e+00 3.7809123117670875e+00 -2.1500000000000000e+01
113 9.1279297812115132e+00 3.7809123117670875e+00 -1.9925000000000001e+01
114 9.1279297812115132e+00 3.7809123117670875e+00 -1.8350000000000001e+01
115 9.1279297812115132e+00 3.7809123117670875e+00 -1.6774999999999999e+01
116 9.1279297812115132e+00 3.7809123117670875e+00 -1.5199999999999999e+01
117 9.1279297812115132e+00 3.7809123117670875e+00 -1.4750000000000000e+01
118 9.2387953251128678e+00 3.8268343236508979e+00 -3.1500000000000000e+01
119 9.2387953251128678e+00 3.8268343236508979e+00 -3.0750000000000000e+01
120 9.2387953251128678e+00 3.8268343236508979e+00 -2.9250000000000000e+01
121 9.2387953251128678e+00 3.8268343236508979e+00 -2.7750000000000000e+01
122 9.2387953251128678e+00 3.8268343236508979e+00 -2.6250000000000000e+01
123 9.2387953251128678e+00 3.8268343236508979e+00 -2.4750000000000000e+01
124 9.2387953251128678e+00 3.8268343236508979e+00 -2.3125000000000000e+01
125 9.2387953251128678e+00 3.8268343236508979e+00 -2.1500000000000000e+01
126 9.2387953251128678e+00 3.8268343236508979e+00 -1.9925000000000001e+01
127 9.2387953251128678e+00 3.8268343236508979e+00 -1.8350000000000001e+01
128 9.2387953251128678e+00 3.8268343236508979e+00 -1.6774999999999999e+01
129 9.2387953251128678e+00 3.8268343236508979e+00 -1.5199999999999999e+01
130 9.2387953251128678e+00 3.8268343236508979e+00 -1.4750000000000000e+01
131 8.7133820917617477e+00 4.6573997598408567e+00 -3.1500000000000000e+01
132 8.7133820917617477e+00 4.6573997598408567e+00 -3.0750000000000000e+01
133 8.7133820917617477e+00 4.6573997598408567e+00 -2.9250000000000000e+01
134 8.7133820917617477e+00 4.6573997598408567e+00 -2.7750000000000000e+01
135 8.7133820917617477e+00 4.6573997598408567e+00 -2.6250000000000000e+01
136 8.7133820917617477e+00 4.6573997598408567e+00 -2.4750000000000000e+01
137 8.7133820917617477e+00 4.6573997598408567e+00 -2.3125000000000000e+01
138 8.7133820917617477e+00 4.6573997598408567e+00 -2.1500000000000000e+01
139 8.7133820917617477e+00 4.6573997598408567e+00 -1.9925000000000001e+01
140 8.7133820917617477e+00 4.6573997598408567e+00 -1.8350000000000001e+01
141 8.7133820917617477e+00 4.6573997598408567e+00 -1.6774999999999999e+01
142 8.7133820917617477e+00 4.6573997598408567e+00 -1.5199999999999999e+01
143 8.7133820917617477e+00 4.6573997598408567e+00 -1.4750000000000000e+01
144 8.8192126434835512e+00 4.7139673682599765e+00 -3.1500000000000000e+01
145 8.8192126434835512e+00 4.7139673682599765e+00 -3.0750000000000000e+01
146 8.8192126434835512e+00 4.7139673682599765e+00 -2.9250000000000000e+01
147 8.8192126434835512e+00 4.7139673682599765e+00 -2.7750000000000000e+01
148 8.8192126434835512e+00 4.7139673682599765e+00 -2.6250000000000000e+01
149 8.8192126434835512e+00 4.7139673682599765e+00 -2.4750000000000000e+01
150 8.8192126434835512e+00 4.7139673682599765e+00 -2.3125000000000000e+01
151 8.8192126434835512e+00 4.7139673682599765e+00 -2.1500000000000000e+01
152 8.8192126434835512e+00 4.7139673682599765e+00 -1.9925000000000001e+01
153 8.8192126434835512e+00 4.7139673682599765e+00 -1.8350000000000001e+01
154 8.8192126434835512e+00 4.7139673682599765e+00 -1.6774999999999999e+01
155 8.8192126434835512e+00 4.7139673682599765e+00 -1.5199999999999999e+01
156 8.8192126434835512e+00 4.7139673682599765e+00 -1.4750000000000000e+01
157 8.2149197695491480e+00 5.4890339022336700e+00 -3.1500000000000000e+01
158 8.2149197695491480e+00 5.4890339022336700e+00 -3.0750000000000000e+01
159 8.2149197695491480e+00 5.4890339022336700e+00 -2.9250000000000000e+01
160 8.2149197695491480e+00 5.4890339022336700e+00 -2.7750000000000000e+01
161 8.2149197695491480e+00 5.4890339022336700e+00 -2.6250000000000000e+01
162 8.2149197695491480e+00 5.4890339022336700e+00 -2.4750000000000000e+01
163 8.2149197695491480e+00 5.4890339022336700e+00 -2.3125000000000000e+01
164 8.2149197695491480e+00 5.4890339022336700e+00 -2.1500000000000000e+01
165 8.2149197695491480e+00 5.4890339022336700e+00 -1.9925000000000001e+01
166 8.2149197695491480e+00 5.4890339022336700e+00 -1.8350000000000001e+01
167 8.2149197695491480e+00 5.4890339022336700e+00 -1.6774999999999999e+01
168 8.2149197695491480e+00 5.4890339022336700e+00 -1.5199999999999999e+01
169 8.2149197695491480e+00 5.4890339022336700e+00 -1.4750000000000000e+01
170 8.3146961230254526e+00 5.5557023301960218e+00 -3.1500000000000000e+01
171 8.3146961230254526e+00 5.5557023301960218e+00 -3.0750000000000000e+01
172 8.3146961230254526e+00 5.5557023301960218e+00 -2.9250000000000000e+01
173 8.3146961230254526e+00 5.5557023301960218e+00 -2.7750000000000000e+01
174 8.3146961230254526e+00 5.5557023301960218e+00 -2.6250000000000000e+01
175 8.3146961230254526e+00 5.5557023301960218e+00 -2.4750000000000000e+01
176 8.3146961230254526e+00 5.5557023301960218e+00 -2.3125000000000000e+01
177 8.3146961230254526e+00 5.5557023301960218e+00 -2.1500000000000000e+01
178 8.3146961230254526e+00 5.5557023301960218e+00 -1.9925000000000001e+01
179 8.3146961230254526e+00 5.5557023301960218e+00 -1.8350000000000001e+01
180 8.3146961230254526e+00 5.5557023301960218e+00 -1.6774999999999999e+01
181 8.3146961230254526e+00 5.5557023301960218e+00 -1.5199999999999999e+01
182 8.3146961230254526e+00 5.5557023301960218e+00 -1.4750000000000000e+01
183 7.6373432792238418e+00 6.2678056475368180e+00 -3.1500000000000000e+01
184 7.6373432792238418e+00 6.2678056475368180e+00 -3.0750000000000000e+01
185 7.6373432792238418e+00 6.2678056475368180e+00 -2.9250000000000000e+01
186 7.6373432792238418e+00 6.2678056475368180e+00 -2.7750000000000000e+01
187 7.6373432792238418e+00 6.2678056475368180e+00 -2.6250000000000000e+01
188 7.6373432792238418e+00 6.2678056475368180e+00 -2.4750000000000000e+01
189 7.6373432792238418e+00 6.2678056475368180e+00 -2.3125000000000000e+01
190 7.6373432792238418e+00 6.2678056475368180e+00 -2.1500000000000000e+01
191 7.6373432792238418e+00 6.2678056475368180e+00 -1.9925000000000001e+01
192 7.6373432792238418e+00 6.2678056475368180e+00 -1.8350000000000001e+01
193 7.6373432792238418e+00 6.2678056475368180e+00 -1.6774999999999999e+01
194 7.6373432792238418e+00 6.2678056475368180e+00 -1.5199999999999999e+01
195 7.6373432792238418e+00 6.2678056475368180e+00 -1.4750000000000000e+01
196 7.7301045336273697e+00 6.3439328416364553e+00 -3.1500000000000000e+01
197 7.7301045336273697e+00 6.3439328416364553e+00 -3.0750000000000000e+01
198 7.7301045336273697e+00 6.3439328416364553e+00 -2.9250000000000000e+01
199 7.7301045336273697e+00 6.3439328416364553e+00 -2.7750000000000000e+01
200 7.7301045336273697e+00 6.3439328416364553e+00 -2.6250000000000000e+01
201 7.7301045336273697e+00 6.3439328416364553e+00 -2.4750000000000000e+01
202 7.7301045336273697e+00 6.3439328416364553e+00 -2.3125000000000000e+01
203 7.7301045336273697e+00 6.3439328416364553e+00 -2.1500000000000000e+01
204 7.7301045336273697e+00 6.3439328416364553e+00 -1.9925000000000001e+01
205 7.7301045336273697e+00 6.3439328416364553e+00 -1.8350000000000001e+01
206 7.7301045336273697e+00 6.3439328416364553e+00 -1.6774999999999999e+01
207 7.7301045336273697e+00 6.3439328416364553e+00 -1.5199999999999999e+01
208 7.7301045336273697e+00 6.3439328416364553e+00 -1.4750000000000000e+01
209 6.9862149981230903e+00 6.9862149981230894e+00 -3.1500000000000000e+01
210 6.9862149981230903e+00 6.9862149981230894e+00 -3.0750000000000000e+01
211 6.9862149981230903e+00 6.9862149981230894e+00 -2.9250000000000000e+01
212 6.9862149981230903e+00 6.9862149981230894e+00 -2.7750000000000000e+01
213 6.9862149981230903e+00 6.9862149981230894e+00 -2.6250000000000000e+01
214 6.9862149981230903e+00 6.9862149981230894e+00 -2.4750000000000000e+01
215 6.9862149981230903e+00 6.9862149981230894e+00 -2.3125000000000000e+01
216 6.9862149981230903e+00 6.9862149981230894e+00 -2.1500000000000000e+01
217 6.9862149981230903e+00 6.9862149981230894e+00 -1.9925000000000001e+01
218 6.9862149981230903e+00 6.9862149981230894e+00 -1.8350000000000001e+01
219 6.9862149981230903e+00 6.9862149981230894e+00 -1.6774999999999999e+01
220 6.9862149981230903e+00 6.9862149981230894e+00 -1.5199999999999999e+01
221 6.9862149981230903e+00 6.9862149981230894e+00 -1.4750000000000000e+01
222 7.0710678118654755e+00 7.0710678118654746e+00 -3.1500000000000000e+01
223 7.0710678118654755e+00 7.0710678118654746e+00 -3.0750000000000000e+01
224 7.0710678118654755e+00 7.0710678118654746e+00 -2.9250000000000000e+01
225 7.0710678118654755e+00 7.0710678118654746e+00 -2.7750000000000000e+01
226 7.0710678118654755e+00 7.0710678118654746e+00 -2.6250000000000000e+01
227 7.0710678118654755e+00 7.0710678118654746e+00 -2.4750000000000000e+01
228 7.0710678118654755e+00 7.0710678118654746e+00 -2.3125000000000000e+01
229 7.0710678118654755e+00 7.0710678118654746e+00 -2.1500000000000000e+01
230 7.0710678118654755e+00 7.0710678118654746e+00 -1.9925000000000001e+01
231 7.0710678118654755e+00 7.0710678118654746e+00 -1.8350000000000001e+01
232 7.0710678118654755e+00 7.0710678118654746e+00 -1.6774999999999999e+01
233 7.0710678118654755e+00 7.0710678118654746e+00 -1.5199999999999999e+01
234 7.0710678118654755e+00 7.0710678118654746e+00 -1.4750000000000000e+01
235 6.2678056475368180e+00 7.6373432792238418e+00 -3.1500000000000000e+01
236 6.2678056475368180e+00 7.6373432792238418e+00 -3.0750000000000000e+01
237 6.2678056475368180e+00 7.6373432792238418e+00 -2.9250000000000000e+01
238 6.2678056475368180e+00 7.6373432792238418e+00 -2.7750000000000000e+01
239 6.2678056475368180e+00 7.6373432792238418e+00 -2.6250000000000000e+01
240 6.2678056475368180e+00 7.6373432792238418e+00 -2.4750000000000000e+01
241 6.2678056475368180e+00 7.6373432792238418e+00 -2.3125000000000000e+01
242 6.2678056475368180e+00 7.6373432792238418e+00 -2.1500000000000000e+01
243 6.2678056475368180e+00 7.6373432792238418e+00 -1.9925000000000001e+01
244 6.2678056475368180e+00 7.6373432792238418e+00 -1.8350000000000001e+01
245 6.2678056475368180e+00 7.6373432792238418e+00 -1.6774999999999999e+01
246 6.2678056475368180e+00 7.6373432792238418e+00 -1.5199999999999999e+01
247 6.2678056475368180e+00 7.6373432792238418e+00 -1.4750000000000000e+01
248 6.3439328416364553e+00 7.7301045336273697e+00 -3.1500000000000000e+01
249 6.3439328416364553e+00 7.7301045336273697e+00 -3.0750000000000000e+01
250 6.3439328416364553e+00 7.7301045336273697e+00 -2.9250000000000000e+01
251 6.3439328416364553e+00 7.7301045336273697e+00 -2.7750000000000000e+01
252 6.3439328416364553e+00 7.7301045336273697e+00 -2.6250000000000000e+01
253 6.3439328416364553e+00 7.7301045336273697e+00 -2.4750000000000000e+01
254 6.3439328416364553e+00 7.7301045336273697e+00 -2.3125000000000000e+01
255 6.3439328416364553e+00 7.7301045336273697e+00 -2.1500000000000000e+01
256 6.3439328416364553e+00 7.7301045336273697e+00 -1.9925000000000001e+01
257 6.3439328416364553e+00 7.7301045336273697e+00 -1.8350000000000001e+01
258 6.3439328416364553e+00 7.7301045336273697e+00 -1.6774999999999999e+01
259 6.3439328416364553e+00 7.7301045336273697e+00 -1.5199999999999999e+01
260 6.3439328416364553e+00 7.7301045336273697e+00 -1.4750000000000000e+01
261 5.4890339022336709e+00 8.2149197695491480e+00 -3.1500000000000000e+01
262 5.4890339022336709e+00 8.2149197695491480e+00 -3.0750000000000000e+01
263 5.4890339022336709e+00 8.2149197695491480e+00 -2.9250000000000000e+01
264 5.4890339022336709e+00 8.2149197695491480e+00 -2.7750000000000000e+01
265 5.4890339022336709e+00 8.2149197695491480e+00 -2.6250000000000000e+01
266 5.4890339022336709e+00 8.2149197695491480e+00 -2.4750000000000000e+01
267 5.4890339022336709e+00 8.2149197695491480e+00 -2.3125000000000000e+01
268 5.4890339022336709e+00 8.2149197695491480e+00 -2.1500000000000000e+01
269 5.4890339022336709e+00 8.2149197695491480e+00 -1.9925000000000001e+01
270 5.4890339022336709e+00 8.2149197695491480e+00 -1.8350000000000001e+01
271 5.4890339022336709e+00 8.2149197695491480e+00 -1.6774999999999999e+01
272 5.4890339022336709e+00 8.2149197695491480e+00 -1.5199999999999999e+01
273 5.4890339022336709e+00 8.2149197695491480e+00 -1.4750000000000000e+01
274 5.5557023301960227e+00 8.3146961230254526e+00 -3.1500000000000000e+01
275 5.5557023301960227e+00 8.3146961230254526e+00 -3.0750000000000000e+01
276 5.5557023301960227e+00 8.3146961230254526e+00 -2.9250000000000000e+01
277 5.5557023301960227e+00 8.3146961230254526e+00 -2.7750000000000000e+01
278 5.5557023301960227e+00 8.3146961230254526e+00 -2.6250000000000000e+01
279 5.5557023301960227e+00 8.3146961230254526e+00 -2.4750000000000000e+01
280 5.5557023301960227e+00 8.3146961230254526e+00 -2.3125000000000000e+01
281 5.5557023301960227e+00 8.3146961230254526e+00 -2.1500000000000000e+01
282 5.5557023301960227e+00 8.3146961230254526e+00 -1.9925000000000001e+01
283 5.5557023301960227e+00 8.3146961230254526e+00 -1.8350000000000001e+01
284 5.5557023301960227e+00 8.3146961230254526e+00 -1.6774999999999999e+01
285 5.5557023301960227e+00 8.3146961230254526e+00 -1.5199999999999999e+01
286 5.5557023301960227e+00 8.3146961230254526e+00 -1.4750000000000000e+01
287 4.6573997598408585e+00 8.7133820917617477e+00 -3.1500000000000000e+01
288 4.6573997598408585e+00 8.7133820917617477e+00 -3.0750000000000000e+01
289 4.6573997598408585e+00 8.7133820917617477e+00 -2.9250000000000000e+01
290 4.6573997598408585e+00 8.7133820917617477e+00 -2.7750000000000000e+01
291 4.6573997598408585e+00 8.7133820917617477e+00 -2.6250000000000000e+01
292 4.6573997598408585e+00 8.7133820917617477e+00 -2.4750000000000000e+01
293 4.6573997598408585e+00 8.7133820917617477e+00 -2.3125000000000000e+01
294 4.6573997598408585e+00 8.7133820917617477e+00 -2.1500000000000000e+01
295 4.6573997598408585e+00 8.7133820917617477e+00 -1.9925000000000001e+01
296 4.6573997598408585e+00 8.7133820917617477e+00 -1.8350000000000001e+01
297 4.6573997598408585e+00 8.7133820917617477e+00 -1.6774999999999999e+01
298 4.6573997598408585e+00 8.7133820917617477e+00 -1.5199999999999999e+01
299 4.6573997598408585e+00 8.7133820917617477e+00 -1.4750000000000000e+01
300 4.7139673682599783e+00 8.8192126434835494e+00 -3.1500000000000000e+01
301 4.7139673682599783e+00 8.8192126434835494e+00 -3.0750000000000000e+01
302 4.7139673682599783e+00 8.8192126434835494e+00 -2.9250000000000000e+01
303 4.7139673682599783e+00 8.8192126434835494e+00 -2.7750000000000000e+01
304 4.7139673682599783e+00 8.8192126434835494e+00 -2.6250000000000000e+01
305 4.7139673682599783e+00 8.8192126434835494e+00 -2.4750000000000000e+01
306 4.7139673682599783e+00 8.8192126434835494e+00 -2.3125000000000000e+01
307 4.7139673682599783e+00 8.8192126434835494e+00 -2.1500000000000000e+01
308 4.7139673682599783e+00 8.8192126434835494e+00 -1.9925000000000001e+01
309 4.7139673682599783e+00 8.8192126434835494e+00 -1.8350000000000001e+01
310 4.7139673682599783e+00 8.8192126434835494e+00 -1.6774999999999999e+01
311 4.7139673682599783e+00 8.8192126434835494e+00 -1.5199999999999999e+01
312 4.7139673682599783e+00 8.8192126434835494e+00 -1.4750000000000000e+01
313 3.7809123117670880e+00 9.1279297812115132e+00 -3.1500000000000000e+01
314 3.7809123117670880e+00 9.1279297812115132e+00 -3.0750000000000000e+01
315 3.7809123117670880e+00 9.1279297812115132e+00 -2.9250000000000000e+01
316 3.7809123117670880e+00 9.1279297812115132e+00 -2.7750000000000000e+01
317 3.7809123117670880e+00 9.1279297812115132e+00 -2.6250000000000000e+01
318 3.7809123117670880e+00 9.1279297812115132e+00 -2.4750000000000000e+01
319 3.7809123117670880e+00 9.1279297812115132e+00 -2.3125000000000000e+01
320 3.7809123117670880e+00 9.1279297812115132e+00 -2.1500000000000000e+01
321 3.7809123117670880e+00 9.1279297812115132e+00 -1.9925000000000001e+01
322 3.7809123117670880e+00 9.1279297812115132e+00 -1.8350000000000001e+01
323 3.7809123117670880e+00 9.1279297812115132e+00 -1.6774999999999999e+01
324 3.7809123117670880e+00 9.1279297812115132e+00 -1.5199999999999999e+01
325 3.7809123117670880e+00 9.1279297812115132e+00 -1.4750000000000000e+01
326 3.8268343236508984e+00 9.2387953251128678e+00 -3.1500000000000000e+01
327 3.8268343236508984e+00 9.2387953251128678e+00 -3.0750000000000000e+01
328 3.8268343236508984e+00 9.2387953251128678e+00 -2.9250000000000000e+01
329 3.8268343236508984e+00 9.2387953251128678e+00 -2.7750000000000000e+01
330 3.8268343236508984e+00 9.2387953251128678e+00 -2.6250000000000000e+01
331 3.8268343236508984e+00 9.2387953251128678e+00 -2.4750000000000000e+01
332 3.8268343236508984e+00 9.2387953251128678e+00 -2.3125000000000000e+01
333 3.8268343236508984e+00 9.2387953251128678e+00 -2.1500000000000000e+01
334 3.8268343236508984e+00 9.2387953251128678e+00 -1.9925000000000001e+01
335 3.8268343236508984e+00 9.2387953251128678e+00 -1.8350000000000001e+01
336 3.8268343236508984e+00 9.2387953251128678e+00 -1.6774999999999999e+01
337 3.8268343236508984e+00 9.2387953251128678e+00 -1.5199999999999999e+01
338 3.8268343236508984e+00 9.2387953251128678e+00 -1.4750000000000000e+01
339 2.8680126112740880e+00 9.4545705170342256e+00 -3.1500000000000000e+01
340 2.8680126112740880e+00 9.4545705170342256e+00 -3.0750000000000000e+01
341 2.8680126112740880e+00 9.4545705170342256e+00 -2.9250000000000000e+01
342 2.8680126112740880e+00 9.4545705170342256e+00 -2.7750000000000000e+01
343 2.8680126112740880e+00 9.4545705170342256e+00 -2.6250000000000000e+01
344 2.8680126112740880e+00 9.4545705170342256e+00 -2.4750000000000000e+01
345 2.8680126112740880e+00 9.4545705170342256e+00 -2.3125000000000000e+01
346 2.8680126112740880e+00 9.4545705170342256e+00 -2.1500000000000000e+01
347 2.8680126112740880e+00 9.4545705170342256e+00 -1.9925000000000001e+01
348 2.8680126112740880e+00 9.4545705170342256e+00 -1.8350000000000001e+01
349 2.8680126112740880e+00 9.4545705170342256e+00 -1.6774999999999999e+01
350 2.8680126112740880e+00 9.4545705170342256e+00 -1.5199999999999999e+01
351 2.8680126112740880e+00 9.4545705170342256e+00 -1.4750000000000000e+01
352 2.9028467725446232e+00 9.5694033573220896e+00 -3.1500000000000000e+01
353 2.9028467725446232e+00 9.5694033573220896e+00 -3.0750000000000000e+01
354 2.9028467725446232e+00 9.5694033573220896e+00 -2.9250000000000000e+01
355 2.9028467725446232e+00 9.5694033573220896e+00 -2.7750000000000000e+01
356 2.9028467725446232e+00 9.5694033573220896e+00 -2.6250000000000000e+01
357 2.9028467725446232e+00 9.5694033573220896e+00 -2.4750000000000000e+01
358 2.9028467725446232e+00 9.5694033573220896e+00 -2.3125000000000000e+01
359 2.9028467725446232e+00 9.5694033573220896e+00 -2.1500000000000000e+01
360 2.9028467725446232e+00 9.5694033573220896e+00 -1.9925000000000001e+01
361 2.9028467725446232e+00 9.5694033573220896e+00 -1.8350000000000001e+01
362 2.9028467725446232e+00 9.5694033573220896e+00 -1.6774999999999999e+01
363 2.9028467725446232e+00 9.5694033573220896e+00 -1.5199999999999999e+01
364 2.9028467725446232e+00 9.5694033573220896e+00 -1.4750000000000000e+01
365 1.9274923815193481e+00 9.6901585703839181e+00 -3.1500000000000000e+01
366 1.9274923815193481e+00 9.6901585703839181e+00 -3.0750000000000000e+01
367 1.9274923815193481e+00 9.6901585703839181e+00 -2.9250000000000000e+01
368 1.9274923815193481e+00 9.6901585703839181e+00 -2.7750000000000000e+01
369 1.9274923815193481e+00 9.6901585703839181e+00 -2.6250000000000000e+01
370 1.9274923815193481e+00 9.6901585703839181e+00 -2.4750000000000000e+01
371 1.9274923815193481e+00 9.6901585703839181e+00 -2.3125000000000000e+01
372 1.9274923815193481e+00 9.6901585703839181e+00 -2.1500000000000000e+01
373 1.9274923815193481e+00 9.6901585703839181e+00 -1.9925000000000001e+01
374 1.9274923815193481e+00 9.6901585703839181e+00 -1.8350000000000001e+01
375 1.9274923815193481e+00 9.6901585703839181e+00 -1.6774999999999999e+01
376 1.9274923815193481e+00 9.6901585703839181e+00 -1.5199999999999999e+01
377 1.9274923815193481e+00 9.6901585703839181e+00 -1.4750000000000000e+01
378 1.9509032201612833e+00 9.8078528040323043e+00 -3.1500000000000000e+01
379 1.9509032201612833e+00 9.8078528040323043e+00 -3.0750000000000000e+01
380 1.9509032201612833e+00 9.8078528040323043e+00 -2.9250000000000000e+01
381 1.9509032201612833e+00 9.8078528040323043e+00 -2.7750000000000000e+01
382 1.9509032201612833e+00 9.8078528040323043e+00 -2.6250000000000000e+01
383 1.9509032201612833e+00 9.8078528040323043e+00 -2.4750000000000000e+01
384 1.9509032201612833e+00 9.8078528040323043e+00 -2.3125000000000000e+01
385 1.9509032201612833e+00 9.8078528040323043e+00 -2.1500000000000000e+01
386 1.9509032201612833e+00 9.8078528040323043e+00 -1.9925000000000001e+01
387 1.9509032201612833e+00 9.8078528040323043e+00 -1.8350000000000001e+01
388 1.9509032201612833e+00 9.8078528040323043e+00 -1.6774999999999999e+01
389 1.9509032201612833e+00 9.8078528040323043e+00 -1.5199999999999999e+01
390 1.9509032201612833e+00 9.8078528040323043e+00 -1.4750000000000000e+01
391 9.6840934645606047e-01 9.8324250995213056e+00 -3.1500000000000000e+01
392 9.6840934645606047e-01 9.8324250995213056e+00 -3.0750000000000000e+01
393 9.6840934645606047e-01 9.8324250995213056e+00 -2.9250000000000000e+01
394 9.6840934645606047e-01 9.8324250995213056e+00 -2.7750000000000000e+01
395 9.6840934645606047e-01 9.8324250995213056e+00 -2.6250000000000000e+01
396 9.6840934645606047e-01 9.8324250995213056e+00 -2.4750000000000000e+01
397 9.6840934645606047e-01 9.8324250995213056e+00 -2.3125000000000000e+01
398 9.6840934645606047e-01 9.8324250995213056e+00 -2.1500000000000000e+01
399 9.6840934645606047e-01 9.8324250995213056e+00 -1.9925000000000001e+01
400 9.6840934645606047e-01 9.8324250995213056e+00 -1.8350000000000001e+01
401 9.6840934645606047e-01 9.8324250995213056e+00 -1.6774999999999999e+01
402 9.6840934645606047e-01 9.8324250995213056e+00 -1.5199999999999999e+01
403 9.6840934645606047e-01 9.8324250995213056e+00 -1.4750000000000000e+01
404 9.8017140329560770e-01 9.9518472667219680e+00 -3.1500000000000000e+01
405 9.8017140329560770e-01 9.9518472667219680e+00 -3.0750000000000000e+01
406 9.8017140329560770e-01 9.9518472667219680e+00 -2.9250000000000000e+01
407 9.8017140329560770e-01 9.9518472667219680e+00 -2.7750000000000000e+01
408 9.8017140329560770e-01 9.9518472667219680e+00 -2.6250000000000000e+01
409 9.8017140329560770e-01 9.9518472667219680e+00 -2.4750000000000000e+01
410 9.8017140329560770e-01 9.9518472667219680e+00 -2.3125000000000000e+01
411 9.8017140329560770e-01 9.9518472667219680e+00 -2.1500000000000000e+01
412 9.8017140329560770e-01 9.9518472667219680e+00 -1.9925000000000001e+01
413 9.8017140329560770e-01 9.9518472667219680e+00 -1.8350000000000001e+01
414 9.8017140329560770e-01 9.9518472667219680e+00 -1.6774999999999999e+01
415 9.8017140329560770e-01 9.9518472667219680e+00 -1.5199999999999999e+01
416 9.8017140329560770e-01 9.9518472667219680e+00 -1.4750000000000000e+01
417 6.0497551877879257e-16 9.8800000000000008e+00 -3.1500000000000000e+01
418 6.0497551877879257e-16 9.8800000000000008e+00 -3.0750000000000000e+01
419 6.0497551877879257e-16 9.8800000000000008e+00 -2.9250000000000000e+01
420 6.0497551877879257e-16 9.8800000000000008e+00 -2.7750000000000000e+01
421 6.0497551877879257e-16 9.8800000000000008e+00 -2.6250000000000000e+01
422 6.0497551877879257e-16 9.8800000000000008e+00 -2.4750000000000000e+01
423 6.0497551877879257e-16 9.8800000000000008e+00 -2.3125000000000000e+01
424 6.0497551877879257e-16 9.8800000000000008e+00 -2.1500000000000000e+01
425 6.0497551877879257e-16 9.8800000000000008e+00 -1.9925000000000001e+01
426 6.0497551877879257e-16 9.8800000000000008e+00 -1.8350000000000001e+01
427 6.0497551877879257e-16 9.8800000000000008e+00 -1.6774999999999999e+01
428 6.0497551877879257e-16 9.8800000000000008e+00 -1.5199999999999999e+01
429 6.0497551877879257e-16 9.8800000000000008e+00 -1.4750000000000000e+01
430 6.1232339957367663e-16 1.0000000000000000e+01 -3.1500000000000000e+01
431 6.1232339957367663e-16 1.0000000000000000e+01 -3.0750000000000000e+01
432 6.1232339957367663e-16 1.0000000000000000e+01 -2.9250000000000000e+01
433 6.1232339957367663e-16 1.0000000000000000e+01 -2.7750000000000000e+01
434 6.1232339957367663e-16 1.0000000000000000e+01 -2.6250000000000000e+01
435 6.1232339957367663e-16 1.0000000000000000e+01 -2.4750000000000000e+01
436 6.1232339957367663e-16 1.0000000000000000e+01 -2.3125000000000000e+01
437 6.1232339957367663e-16 1.0000000000000000e+01 -2.1500000000000000e+01
438 6.1232339957367663e-16 1.0000000000000000e+01 -1.9925000000000001e+01
439 6.1232339957367663e-16 1.0000000000000000e+01 -1.8350000000000001e+01
440 6.1232339957367663e-16 1.0000000000000000e+01 -1.6774999999999999e+01
441 6.1232339957367663e-16 1.0000000000000000e+01 -1.5199999999999999e+01
442 6.1232339957367663e-16 1.0000000000000000e+01 -1.4750000000000000e+01
$EndNodes
$Elements
1152
1 4 2 0 0 1 27 40 41
2 4 2 0 0 1 40 14 41
3 4 2 0 0 1 14 15 41
4 4 2 0 0 1 15 2 41
5 4 2 0 0 1 2 28 41
6 4 2 0 0 1 28 27 41
7 4 2 0 0 2 28 41 42
8 4 2 0 0 2 41 15 42
9 4 2 0 0 2 15 16 42
10 4 2 0 0 2 16 3 42
11 4 2 0 0 2 3 29 42
12 4 2 0 0 2 29 28 42
13 4 2 0 0 3 29 42 43
14 4 2 0 0 3 42 16 43
15 4 2 0 0 3 16 17 43
16 4 2 0 0 3 17 4 43
17 4 2 0 0 3 4 30 43
18 4 2 0 0 3 30 29 43
19 4 2 0 0 4 30 43 44
20 4 2 0 0 4 43 17 44
21 4 2 0 0 4 17 18 44
22 4 2 0 0 4 18 5 44
23 4 2 0 0 4 5 31 44
24 4 2 0 0 4 31 30 44
25 4 2 0 0 5 31 44 45
26 4 2 0 0 5 44 18 45
27 4 2 0 0 5 18 19 45
28 4 2 0 0 5 19 6 45
29 4 2 0 0 5 6 32 45
30 4 2 0 0 5 32 31 45
31 4 2 0 0 6 32 45 46
32 4 2 0 0 6 45 19 46
33 4 2 0 0 6 19 20 46
34 4 2 0 0 6 20 7 46
35 4 2 0 0 6 7 33 46
36 4 2 0 0 6 33 32 46
37 4 2 0 0 7 33 46 47
38 4 2 0 0 7 46 20 47
39 4 2 0 0 7 20 21 47
40 4 2 0 0 7 21 8 47
41 4 2 0 0 7 8 34 47
42 4 2 0 0 7 34 33 47
43 4 2 0 0 8 34 47 48
44 4 2 0 0 8 47 21 48
45 4 2 0 0 8 21 22 48
46 4 2 0 0 8 22 9 48
47 4 2 0 0 8 9 35 48
48 4 2 0 0 8 35 34 48
49 4 2 0 0 9 35 48 49
50 4 2 0 0 9 48 22 49
51 4 2 0 0 9 22 23 49
52 4 2 0 0 9 23 10 49
53 4 2 0 0 9 10 36 49
54 4 2 0 0 9 36 35 49
55 4 2 0 0 10 36 49 50
56 4 2 0 0 10 49 23 50
57 4 2 0 0 10 23 24 50
58 4 2 0 0 10 24 11 50
59 4 2 0 0 10 11 37 50
60 4 2 0 0 10 37 36 50
61 4 2 0 0 11 37 50 51
62 4 2 0 0 11 50 24 51
63 4 2 0 0 11 24 25 51
64 4 2 0 0 11 25 12 51
65 4 2 0 0 11 12 38 51
66 4 2 0 0 11 38 37 51
67 4 2 0 0 12 38 51 52
68 4 2 0 0 12 51 25 52
69 4 2 0 0 12 25 26 52
70 4 2 0 0 12 26 13 52
71 4 2 0 0 12 13 39 52
72 4 2 0 0 12 39 38 52
73 4 2 0 0 27 53 66 67
74 4 2 0 0 27 66 40 67
75 4 2 0 0 27 40 41 67
76 4 2 0 0 27 41 28 67
77 4 2 0 0 27 28 54 67
78 4 2 0 0 27 54 53 67
79 4 2 0 0 28 54 67 68
80 4 2 0 0 28 67 41 68
81 4 2 0 0 28 41 42 68
82 4 2 0 0 28 42 29 68
83 4 2 0 0 28 29 55 68
84 4 2 0 0 28 55 54 68
85 4 2 0 0 29 55 68 69
86 4 2 0 0 29 68 42 69
87 4 2 0 0 29 42 43 69
88 4 2 0 0 29 43 30 69
89 4 2 0 0 29 30 56 69
90 4 2 0 0 29 56 55 69
91 4 2 0 0 30 56 69 70
92 4 2 0 0 30 69 43 70
93 4 2 0 0 30 43 44 70
94 4 2 0 0 30 44 31 70
95 4 2 0 0 30 31 57 70
96 4 2 0 0 30 57 56 70
97 4 2 0 0 31 57 70 71
98 4 2 0 0 31 70 44 71
99 4 2 0 0 31 44 45 71
100 4 2 0 0 31 45 32 71
101 4 2 0 0 31 32 58 71
102 4 2 0 0 31 58 57 71
103 4 2 0 0 32 58 71 72
104 4 2 0 0 32 71 45 72
105 4 2 0 0 32 45 46 72
106 4 2 0 0 32 46 33 72
107 4 2 0 0 32 33 59 72
108 4 2 0 0 32 59 58 72
109 4 2 0 0 33 59 72 73
110 4 2 0 0 33 72 46 73
111 4 2 0 0 33 46 47 73
112 4 2 0 0 33 47 34 73
113 4 2 0 0 33 34 60 73
114 4 2 0 0 33 60 59 73
115 4 2 0 0 34 60 73 74
116 4 2 0 0 34 73 47 74
117 4 2 0 0 34 47 48 74
118 4 2 0 0 34 48 35 74
119 4 2 0 0 34 35 61 74
120 4 2 0 0 34 61 60 74
121 4 2 0 0 35 61 74 75
122 4 2 0 0 35 74 48 75
123 4 2 0 0 35 48 49 75
124 4 2 0 0 35 49 36 75
125 4 2 0 0 35 36 62 75
126 4 2 0 0 35 62 61 75
127 4 2 0 0 36 62 75 76
128 4 2 0 0 36 75 49 76
129 4 2 0 0 36 49 50 76
130 4 2 0 0 36 50 37 76
131 4 2 0 0 36 37 63 76
132 4 2 0 0 36 63 62 76
133 4 2 0 0 37 63 76 77
134 4 2 0 0 37 76 50 77
135 4 2 0 0 37 50 51 77
136 4 2 0 0 37 51 38 77
137 4 2 0 0 37 38 64 77
138 4 2 0 0 37 64 63 77
139 4 2 0 0 38 64 77 78
140 4 2 0 0 38 77 51 78
141 4 2 0 0 38 51 52 78
142 4 2 0 0 38 52 39 78
143 4 2 0 0 38 39 65 78
144 4 2 0 0 38 65 64 78
145 4 2 0 0 53 79 92 93
146 4 2 0 0 53 92 66 93
147 4 2 0 0 53 66 67 93
148 4 2 0 0 53 67 54 93
149 4 2 0 0 53 54 80 93
150 4 2 0 0 53 80 79 93
151 4 2 0 0 54 80 93 94
152 4 2 0 0 54 93 67 94
153 4 2 0 0 54 67 68 94
154 4 2 0 0 54 68 55 94
155 4 2 0 0 54 55 81 94
156 4 2 0 0 54 81 80 94
157 4 2 0 0 55 81 94 95
158 4 2 0 0 55 94 68 95
159 4 2 0 0 55 68 69 95
160 4 2 0 0 55 69 56 95
161 4 2 0 0 55 56 82 95
162 4 2 0 0 55 82 81 95
163 4 2 0 0 56 82 95 96
164 4 2 0 0 56 95 69 96
165 4 2 0 0 56 69 70 96
166 4 2 0 0 56 70 57 96
167 4 2 0 0 56 57 83 96
168 4 2 0 0 56 83 82 96
169 4 2 0 0 57 83 96 97
170 4 2 0 0 57 96 70 97
171 4 2 0 0 57 70 71 97
172 4 2 0 0 57 71 58 97
173 4 2 0 0 57 58 84 97
174 4 2 0 0 57 84 83 97
175 4 2 0 0 58 84 97 98
176 4 2 0 0 58 97 71 98
177 4 2 0 0 58 71 72 98
178 4 2 0 0 58 72 59 98
179 4 2 0 0 58 59 85 98
180 4 2 0 0 58 85 84 98
181 4 2 0 0 59 85 98 99
182 4 2 0 0 59 98 72 99
183 4 2 0 0 59 72 73 99
184 4 2 0 0 59 73 60 99
185 4 2 0 0 59 60 86 99
186 4 2 0 0 59 86 85 99
187 4 2 0 0 60 86 99 100
188 4 2 0 0 60 99 73 100
189 4 2 0 0 60 73 74 100
190 4 2 0 0 60 74 61 100
191 4 2 0 0 60 61 87 100
192 4 2 0 0 60 87 86 100
193 4 2 0 0 61 87 100 101
194 4 2 0 0 61 100 74 101
195 4 2 0 0 61 74 75 101
196 4 2 0 0 61 75 62 101
197 4 2 0 0 61 62 88 101
198 4 2 0 0 61 88 87 101
199 4 2 0 0 62 88 101 102
200 4 2 0 0 62 101 75 102
201 4 2 0 0 62 75 76 102
202 4 2 0 0 62 76 63 102
203 4 2 0 0 62 63 89 102
204 4 2 0 0 62 89 88 102
205 4 2 0 0 63 89 102 103
206 4 2 0 0 63 102 76 103
207 4 2 0 0 63 76 77 103
208 4 2 0 0 63 77 64 103
209 4 2 0 0 63 64 90 103
210 4 2 0 0 63 90 89 103
211 4 2 0 0 64 90 103 104
212 4 2 0 0 64 103 77 104
213 4 2 0 0 64 77 78 104
214 4 2 0 0 64 78 65 104
215 4 2 0 0 64 65 91 104
216 4 2 0 0 64 91 90 104
217 4 2 0 0 79 105 118 119
218 4 2 0 0 79 118 92 119
219 4 2 0 0 79 92 93 119
220 4 2 0 0 79 93 80 119
221 4 2 0 0 79 80 106 119
222 4 2 0 0 79 106 105 119
223 4 2 0 0 80 106 119 120
224 4 2 0 0 80 119 93 120
225 4 2 0 0 80 93 94 120
226 4 2 0 0 80 94 81 120
227 4 2 0 0 80 81 107 120
228 4 2 0 0 80 107 106 120
229 4 2 0 0 81 107 120 121
230 4 2 0 0 81 120 94 121
231 4 2 0 0 81 94 95 121
232 4 2 0 0 81 95 82 121
233 4 2 0 0 81 82 108 121
234 4 2 0 0 81 108 107 121
235 4 2 0 0 82 108 121 122
236 4 2 0 0 82 121 95 122
237 4 2 0 0 82 95 96 122
238 4 2 0 0 82 96 83 122
239 4 2 0 0 82 83 109 122
240 4 2 0 0 82 109 108 122
241 4 2 0 0 83 109 122 123
242 4 2 0 0 83 122 96 123
243 4 2 0 0 83 96 97 123
244 4 2 0 0 83 97 84 123
245 4 2 0 0 83 84 110 123
246 4 2 0 0 83 110 109 123
247 4 2 0 0 84 110 123 124
248 4 2 0 0 84 123 97 124
249 4 2 0 0 84 97 98 124
250 4 2 0 0 84 98 85 124
251 4 2 0 0 84 85 111 124
252 4 2 0 0 84 111 110 124
253 4 2 0 0 85 111 124 125
254 4 2 0 0 85 124 98 125
255 4 2 0 0 85 98 99 125
256 4 2 0 0 85 99 86 125
257 4 2 0 0 85 86 112 125
258 4 2 0 0 85 112 111 125
259 4 2 0 0 86 112 125 126
260 4 2 0 0 86 125 99 126
261 4 2 0 0 86 99 100 126
262 4 2 0 0 86 100 87 126
263 4 2 0 0 86 87 113 126
264 4 2 0 0 86 113 112 126
265 4 2 0 0 87 113 126 127
266 4 2 0 0 87 126 100 127
267 4 2 0 0 87 100 101 127
268 4 2 0 0 87 101 88 127
269 4 2 0 0 87 88 114 127
270 4 2 0 0 87 114 113 127
271 4 2 0 0 88 114 127 128
272 4 2 0 0 88 127 101 128
273 4 2 0 0 88 101 102 128
274 4 2 0 0 88 102 89 128
275 4 2 0 0 88 89 115 128
276 4 2 0 0 88 115 114 128
277 4 2 0 0 89 115 128 129
278 4 2 0 0 89 128 102 129
279 4 2 0 0 89 102 103 129
280 4 2 0 0 89 103 90 129
281 4 2 0 0 89 90 116 129
282 4 2 0 0 89 116 115 129
283 4 2 0 0 90 116 129 130
284 4 2 0 0 90 129 103 130
285 4 2 0 0 90 103 104 130
286 4 2 0 0 90 104 91 130
287 4 2 0 0 90 91 117 130
288 4 2 0 0 90 117 116 130
289 4 2 0 0 105 131 144 145
290 4 2 0 0 105 144 118 145
291 4 2 0 0 105 118 119 145
292 4 2 0 0 105 119 106 145
293 4 2 0 0 105 106 132 145
294 4 2 0 0 105 132 131 145
295 4 2 0 0 106 132 145 146
296 4 2 0 0 106 145 119 146
297 4 2 0 0 106 119 120 146
298 4 2 0 0 106 120 107 146
299 4 2 0 0 106 107 133 146
300 4 2 0 0 106 133 132 146
301 4 2 0 0 107 133 146 147
302 4 2 0 0 107 146 120 147
303 4 2 0 0 107 120 121 147
304 4 2 0 0 107 121 108 147
305 4 2 0 0 107 108 134 147
306 4 2 0 0 107 134 133 147
307 4 2 0 0 108 134 147 148
308 4 2 0 0 108 147 121 148
309 4 2 0 0 108 121 122 148
310 4 2 0 0 108 122 109 148
311 4 2 0 0 108 109 135 148
312 4 2 0 0 108 135 134 148
313 4 2 0 0 109 135 148 149
314 4 2 0 0 109 148 122 149
315 4 2 0 0 109 122 123 149
316 4 2 0 0 109 123 110 149
317 4 2 0 0 109 110 136 149
318 4 2 0 0 109 136 135 149
319 4 2 0 0 110 136 149 150
320 4 2 0 0 110 149 123 150
321 4 2 0 0 110 123 124 150
322 4 2 0 0 110 124 111 150
323 4 2 0 0 110 111 137 150
324 4 2 0 0 110 137 136 150
325 4 2 0 0 111 137 150 151
326 4 2 0 0 111 150 124 151
327 4 2 0 0 111 124 125 151
328 4 2 0 0 111 125 112 151
329 4 2 0 0 111 112 138 151
330 4 2 0 0 111 138 137 151
331 4 2 0 0 112 138 151 152
332 4 2 0 0 112 151 125 152
333 4 2 0 0 112 125 126 152
334 4 2 0 0 112 126 113 152
335 4 2 0 0 112 113 139 152
336 4 2 0 0 112 139 138 152
337 4 2 0 0 113 139 152 153
338 4 2 0 0 113 152 126 153
339 4 2 0 0 113 126 127 153
340 4 2 0 0 113 127 114 153
341 4 2 0 0 113 114 140 153
342 4 2 0 0 113 140 139 153
343 4 2 0 0 114 140 153 154
344 4 2 0 0 114 153 127 154
345 4 2 0 0 114 127 128 154
346 4 2 0 0 114 128 115 154
347 4 2 0 0 114 115 141 154
348 4 2 0 0 114 141 140 154
349 4 2 0 0 115 141 154 155
350 4 2 0 0 115 154 128 155
351 4 2 0 0 115 128 129 155
352 4 2 0 0 115 129 116 155
353 4 2 0 0 115 116 142 155
354 4 2 0 0 115 142 141 155
355 4 2 0 0 116 142 155 156
356 4 2 0 0 116 155 129 156
357 4 2 0 0 116 129 130 156
358 4 2 0 0 116 130 117 156
359 4 2 0 0 116 117 143 156
360 4 2 0 0 116 143 142 156
361 4 2 0 0 131 157 170 171
362 4 2 0 0 131 170 144 171
363 4 2 0 0 131 144 145 171
364 4 2 0 0 131 145 132 171
365 4 2 0 0 131 132 158 171
366 4 2 0 0 131 158 157 171
367 4 2 0 0 132 158 171 172
368 4 2 0 0 132 171 145 172
369 4 2 0 0 132 145 146 172
370 4 2 0 0 132 146 133 172
371 4 2 0 0 132 133 159 172
372 4 2 0 0 132 159 158 172
373 4 2 0 0 133 159 172 173
374 4 2 0 0 133 172 146 173
375 4 2 0 0 133 146 147 173
376 4 2 0 0 133 147 134 173
377 4 2 0 0 133 134 160 173
378 4 2 0 0 133 160 159 173
379 4 2 0 0 134 160 173 174
380 4 2 0 0 134 173 147 174
381 4 2 0 0 134 147 148 174
382 4 2 0 0 134 148 135 174
383 4 2 0 0 134 135 161 174
384 4 2 0 0 134 161 160 174
385 4 2 0 0 135 161 174 175
386 4 2 0 0 135 174 148 175
387 4 2 0 0 135 148 149 175
388 4 2 0 0 135 149 136 175
389 4 2 0 0 135 136 162 175
390 4 2 0 0 135 162 161 175
391 4 2 0 0 136 162 175 176
392 4 2 0 0 136 175 149 176
393 4 2 0 0 136 149 150 176
394 4 2 0 0 136 150 137 176
395 4 2 0 0 136 137 163 176
396 4 2 0 0 136 163 162 176
397 4 2 0 0 137 163 176 177
398 4 2 0 0 137 176 150 177
399 4 2 0 0 137 150 151 177
400 4 2 0 0 137 151 138 177
401 4 2 0 0 137 138 164 177
402 4 2 0 0 137 164 163 177
403 4 2 0 0 138 164 177 178
404 4 2 0 0 138 177 151 178
405 4 2 0 0 138 151 152 178
406 4 2 0 0 138 152 139 178
407 4 2 0 0 138 139 165 178
408 4 2 0 0 138 165 164 178
409 4 2 0 0 139 165 178 179
410 4 2 0 0 139 178 152 179
411 4 2 0 0 139 152 153 179
412 4 2 0 0 139 153 140 179
413 4 2 0 0 139 140 166 179
414 4 2 0 0 139 166 165 179
415 4 2 0 0 140 166 179 180
416 4 2 0 0 140 179 153 180
417 4 2 0 0 140 153 154 180
418 4 2 0 0 140 154 141 180
419 4 2 0 0 140 141 167 180
420 4 2 0 0 140 167 166 180
421 4 2 0 0 141 167 180 181
422 4 2 0 0 141 180 154 181
423 4 2 0 0 141 154 155 181
424 4 2 0 0 141 155 142 181
425 4 2 0 0 141 142 168 181
426 4 2 0 0 141 168 167 181
427 4 2 0 0 142 168 181 182
428 4 2 0 0 142 181 155 182
429 4 2 0 0 142 155 156 182
430 4 2 0 0 142 156 143 182
431 4 2 0 0 142 143 169 182
432 4 2 0 0 142 169 168 182
433 4 2 0 0 157 183 196 197
434 4 2 0 0 157 196 170 197
435 4 2 0 0 157 170 171 197
436 4 2 0 0 157 171 158 197
437 4 2 0 0 157 158 184 197
438 4 2 0 0 157 184 183 197
439 4 2 0 0 158 184 197 198
440 4 2 0 0 158 197 171 198
441 4 2 0 0 158 171 172 198
442 4 2 0 0 158 172 159 198
443 4 2 0 0 158 159 185 198
444 4 2 0 0 158 185 184 198
445 4 2 0 0 159 185 198 199
446 4 2 0 0 159 198 172 199
447 4 2 0 0 159 172 173 199
448 4 2 0 0 159 173 160 199
449 4 2 0 0 159 160 186 199
450 4 2 0 0 159 186 185 199
451 4 2 0 0 160 186 199 200
452 4 2 0 0 160 199 173 200
453 4 2 0 0 160 173 174 200
454 4 2 0 0 160 174 161 200
455 4 2 0 0 160 161 187 200
456 4 2 0 0 160 187 186 200
457 4 2 0 0 161 187 200 201
458 4 2 0 0 161 200 174 201
459 4 2 0 0 161 174 175 201
460 4 2 0 0 161 175 162 201
461 4 2 0 0 161 162 188 201
462 4 2 0 0 161 188 187 201
463 4 2 0 0 162 188 201 202
464 4 2 0 0 162 201 175 202
465 4 2 0 0 162 175 176 202
466 4 2 0 0 162 176 163 202
467 4 2 0 0 162 163 189 202
468 4 2 0 0 162 189 188 202
469 4 2 0 0 163 189 202 203
470 4 2 0 0 163 202 176 203
471 4 2 0 0 163 176 177 203
472 4 2 0 0 163 177 164 203
473 4 2 0 0 163 164 190 203
474 4 2 0 0 163 190 189 203
475 4 2 0 0 164 190 203 204
476 4 2 0 0 164 203 177 204
477 4 2 0 0 164 177 178 204
478 4 2 0 0 164 178 165 204
479 4 2 0 0 164 165 191 204
480 4 2 0 0 164 191 190 204
481 4 2 0 0 165 191 204 205
482 4 2 0 0 165 204 178 205
483 4 2 0 0 165 178 179 205
484 4 2 0 0 165 179 166 205
485 4 2 0 0 165 166 192 205
486 4 2 0 0 165 192 191 205
487 4 2 0 0 166 192 205 206
488 4 2 0 0 166 205 179 206
489 4 2 0 0 166 179 180 206
490 4 2 0 0 166 180 167 206
491 4 2 0 0 166 167 193 206
492 4 2 0 0 166 193 192 206
493 4 2 0 0 167 193 206 207
494 4 2 0 0 167 206 180 207
495 4 2 0 0 167 180 181 207
496 4 2 0 0 167 181 168 207
497 4 2 0 0 167 168 194 207
498 4 2 0 0 167 194 193 207
499 4 2 0 0 168 194 207 208
500 4 2 0 0 168 207 181 208
501 4 2 0 0 168 181 182 208
502 4 2 0 0 168 182 169 208
503 4 2 0 0 168 169 195 208
504 4 2 0 0 168 195 194 208
505 4 2 0 0 183 209 222 223
506 4 2 0 0 183 222 196 223
507 4 2 0 0 183 196 197 223
508 4 2 0 0 183 197 184 223
509 4 2 0 0 183 184 210 223
510 4 2 0 0 183 210 209 223
511 4 2 0 0 184 210 223 224
512 4 2 0 0 184 223 197 224
513 4 2 0 0 184 197 198 224
514 4 2 0 0 184 198 185 224
515 4 2 0 0 184 185 211 224
516 4 2 0 0 184 211 210 224
517 4 2 0 0 185 211 224 225
518 4 2 0 0 185 224 198 225
519 4 2 0 0 185 198 199 225
520 4 2 0 0 185 199 186 225
521 4 2 0 0 185 186 212 225
522 4 2 0 0 185 212 211 225
523 4 2 0 0 186 212 225 226
524 4 2 0 0 186 225 199 226
525 4 2 0 0 186 199 200 226
526 4 2 0 0 186 200 187 226
527 4 2 0 0 186 187 213 226
528 4 2 0 0 186 213 212 226
529 4 2 0 0 187 213 226 227
530 4 2 0 0 187 226 200 227
531 4 2 0 0 187 200 201 227
532 4 2 0 0 187 201 188 227
533 4 2 0 0 187 188 214 227
534 4 2 0 0 187 214 213 227
535 4 2 0 0 188 214 227 228
536 4 2 0 0 188 227 201 228
537 4 2 0 0 188 201 202 228
538 4 2 0 0 188 202 189 228
539 4 2 0 0 188 189 215 228
540 4 2 0 0 188 215 214 228
541 4 2 0 0 189 215 228 229
542 4 2 0 0 189 228 202 229
543 4 2 0 0 189 202 203 229
544 4 2 0 0 189 203 190 229
545 4 2 0 0 189 190 216 229
546 4 2 0 0 189 216 215 229
547 4 2 0 0 190 216 229 230
548 4 2 0 0 190 229 203 230
549 4 2 0 0 190 203 204 230
550 4 2 0 0 190 204 191 230
551 4 2 0 0 190 191 217 230
552 4 2 0 0 190 217 216 230
553 4 2 0 0 191 217 230 231
554 4 2 0 0 191 230 204 231
555 4 2 0 0 191 204 205 231
556 4 2 0 0 191 205 192 231
557 4 2 0 0 191 192 218 231
558 4 2 0 0 191 218 217 231
559 4 2 0 0 192 218 231 232
560 4 2 0 0 192 231 205 232
561 4 2 0 0 192 205 206 232
562 4 2 0 0 192 206 193 232
563 4 2 0 0 192 193 219 232
564 4 2 0 0 192 219 218 232
565 4 2 0 0 193 219 232 233
566 4 2 0 0 193 232 206 233
567 4 2 0 0 193 206 207 233
568 4 2 0 0 193 207 194 233
569 4 2 0 0 193 194 220 233
570 4 2 0 0 193 220 219 233
571 4 2 0 0 194 220 233 234
572 4 2 0 0 194 233 207 234
573 4 2 0 0 194 207 208 234
574 4 2 0 0 194 208 195 234
575 4 2 0 0 194 195 221 234
576 4 2 0 0 194 221 220 234
577 4 2 0 0 209 235 248 249
578 4 2 0 0 209 248 222 249
579 4 2 0 0 209 222 223 249
580 4 2 0 0 209 223 210 249
581 4 2 0 0 209 210 236 249
582 4 2 0 0 209 236 235 249
583 4 2 0 0 210 236 249 250
584 4 2 0 0 210 249 223 250
585 4 2 0 0 210 223 224 250
586 4 2 0 0 210 224 211 250
587 4 2 0 0 210 211 237 250
588 4 2 0 0 210 237 236 250
589 4 2 0 0 211 237 250 251
590 4 2 0 0 211 250 224 251
591 4 2 0 0 211 224 225 251
592 4 2 0 0 211 225 212 251
593 4 2 0 0 211 212 238 251
594 4 2 0 0 211 238 237 251
595 4 2 0 0 212 238 251 252
596 4 2 0 0 212 251 225 252
597 4 2 0 0 212 225 226 252
598 4 2 0 0 212 226 213 252
599 4 2 0 0 212 213 239 252
600 4 2 0 0 212 239 238 252
601 4 2 0 0 213 239 252 253
602 4 2 0 0 213 252 226 253
603 4 2 0 0 213 226 227 253
604 4 2 0 0 213 227 214 253
605 4 2 0 0 213 214 240 253
606 4 2 0 0 213 240 239 253
607 4 2 0 0 214 240 253 254
608 4 2 0 0 214 253 227 254
609 4 2 0 0 214 227 228 254
610 4 2 0 0 214 228 215 254
611 4 2 0 0 214 215 241 254
612 4 2 0 0 214 241 240 254
613 4 2 0 0 215 241 254 255
614 4 2 0 0 215 254 228 255
615 4 2 0 0 215 228 229 255
616 4 2 0 0 215 229 216 255
617 4 2 0 0 215 216 242 255
618 4 2 0 0 215 242 241 255
619 4 2 0 0 216 242 255 256
620 4 2 0 0 216 255 229 256
621 4 2 0 0 216 229 230 256
622 4 2 0 0 216 230 217 256
623 4 2 0 0 216 217 243 256
624 4 2 0 0 216 243 242 256
625 4 2 0 0 217 243 256 257
626 4 2 0 0 217 256 230 257
627 4 2 0 0 217 230 231 257
628 4 2 0 0 217 231 218 257
629 4 2 0 0 217 218 244 257
630 4 2 0 0 217 244 243 257
631 4 2 0 0 218 244 257 258
632 4 2 0 0 218 257 231 258
633 4 2 0 0 218 231 232 258
634 4 2 0 0 218 232 219 258
635 4 2 0 0 218 219 245 258
636 4 2 0 0 218 245 244 258
637 4 2 0 0 219 245 258 259
638 4 2 0 0 219 258 232 259
639 4 2 0 0 219 232 233 259
640 4 2 0 0 219 233 220 259
641 4 2 0 0 219 220 246 259
642 4 2 0 0 219 246 245 259
643 4 2 0 0 220 246 259 260
644 4 2 0 0 220 259 233 260
645 4 2 0 0 220 233 234 260
646 4 2 0 0 220 234 221 260
647 4 2 0 0 220 221 247 260
648 4 2 0 0 220 247 246 260
649 4 2 0 0 235 261 274 275
650 4 2 0 0 235 274 248 275
651 4 2 0 0 235 248 249 275
652 4 2 0 0 235 249 236 275
653 4 2 0 0 235 236 262 275
654 4 2 0 0 235 262 261 275
655 4 2 0 0 236 262 275 276
656 4 2 0 0 236 275 249 276
657 4 2 0 0 236 249 250 276
658 4 2 0 0 236 250 237 276
659 4 2 0 0 236 237 263 276
660 4 2 0 0 236 263 262 276
661 4 2 0 0 237 263 276 277
662 4 2 0 0 237 276 250 277
663 4 2 0 0 237 250 251 277
664 4 2 0 0 237 251 238 277
665 4 2 0 0 237 238 264 277
666 4 2 0 0 237 264 263 277
667 4 2 0 0 238 264 277 278
668 4 2 0 0 238 277 251 278
669 4 2 0 0 238 251 252 278
670 4 2 0 0 238 252 239 278
671 4 2 0 0 238 239 265 278
672 4 2 0 0 238 265 264 278
673 4 2 0 0 239 265 278 279
674 4 2 0 0 239 278 252 279
675 4 2 0 0 239 252 253 279
676 4 2 0 0 239 253 240 279
677 4 2 0 0 239 240 266 279
678 4 2 0 0 239 266 265 279
679 4 2 0 0 240 266 279 280
680 4 2 0 0 240 279 253 280
681 4 2 0 0 240 253 254 280
682 4 2 0 0 240 254 241 280
683 4 2 0 0 240 241 267 280
684 4 2 0 0 240 267 266 280
685 4 2 0 0 241 267 280 281
686 4 2 0 0 241 280 254 281
687 4 2 0 0 241 254 255 281
688 4 2 0 0 241 255 242 281
689 4 2 0 0 241 242 268 281
690 4 2 0 0 241 268 267 281
691 4 2 0 0 242 268 281 282
692 4 2 0 0 242 281 255 282
693 4 2 0 0 242 255 256 282
694 4 2 0 0 242 256 243 282
695 4 2 0 0 242 243 269 282
696 4 2 0 0 242 269 268 282
697 4 2 0 0 243 269 282 283
698 4 2 0 0 243 282 256 283
699 4 2 0 0 243 256 257 283
700 4 2 0 0 243 257 244 283
701 4 2 0 0 243 244 270 283
702 4 2 0 0 243 270 269 283
703 4 2 0 0 244 270 283 284
704 4 2 0 0 244 283 257 284
705 4 2 0 0 244 257 258 284
706 4 2 0 0 244 258 245 284
707 4 2 0 0 244 245 271 284
708 4 2 0 0 244 271 270 284
709 4 2 0 0 245 271 284 285
710 4 2 0 0 245 284 258 285
711 4 2 0 0 245 258 259 285
712 4 2 0 0 245 259 246 285
713 4 2 0 0 245 246 272 285
714 4 2 0 0 245 272 271 285
715 4 2 0 0 246 272 285 286
716 4 2 0 0 246 285 259 286
717 4 2 0 0 246 259 260 286
718 4 2 0 0 246 260 247 286
719 4 2 0 0 246 247 273 286
720 4 2 0 0 246 273 272 286
721 4 2 0 0 261 287 300 301
722 4 2 0 0 261 300 274 301
723 4 2 0 0 261 274 275 301
724 4 2 0 0 261 275 262 301
725 4 2 0 0 261 262 288 301
726 4 2 0 0 261 288 287 301
727 4 2 0 0 262 288 301 302
728 4 2 0 0 262 301 275 302
729 4 2 0 0 262 275 276 302
730 4 2 0 0 262 276 263 302
731 4 2 0 0 262 263 289 302
732 4 2 0 0 262 289 288 302
733 4 2 0 0 263 289 302 303
734 4 2 0 0 263 302 276 303
735 4 2 0 0 263 276 277 303
736 4 2 0 0 263 277 264 303
737 4 2 0 0 263 264 290 303
738 4 2 0 0 263 290 289 303
739 4 2 0 0 264 290 303 304
740 4 2 0 0 264 303 277 304
741 4 2 0 0 264 277 278 304
742 4 2 0 0 264 278 265 304
743 4 2 0 0 264 265 291 304
744 4 2 0 0 264 291 290 304
745 4 2 0 0 265 291 304 305
746 4 2 0 0 265 304 278 305
747 4 2 0 0 265 278 279 305
748 4 2 0 0 265 279 266 305
749 4 2 0 0 265 266 292 305
750 4 2 0 0 265 292 291 305
751 4 2 0 0 266 292 305 306
752 4 2 0 0 266 305 279 306
753 4 2 0 0 266 279 280 306
754 4 2 0 0 266 280 267 306
755 4 2 0 0 266 267 293 306
756 4 2 0 0 266 293 292 306
757 4 2 0 0 267 293 306 307
758 4 2 0 0 267 306 280 307
759 4 2 0 0 267 280 281 307
760 4 2 0 0 267 281 268 307
761 4 2 0 0 267 268 294 307
762 4 2 0 0 267 294 293 307
763 4 2 0 0 268 294 307 308
764 4 2 0 0 268 307 281 308
765 4 2 0 0 268 281 282 308
766 4 2 0 0 268 282 269 308
767 4 2 0 0 268 269 295 308
768 4 2 0 0 268 295 294 308
769 4 2 0 0 269 295 308 309
770 4 2 0 0 269 308 282 309
771 4 2 0 0 269 282 283 309
772 4 2 0 0 269 283 270 309
773 4 2 0 0 269 270 296 309
774 4 2 0 0 269 296 295 309
775 4 2 0 0 270 296 309 310
776 4 2 0 0 270 309 283 310
777 4 2 0 0 270 283 284 310
778 4 2 0 0 270 284 271 310
779 4 2 0 0 270 271 297 310
780 4 2 0 0 270 297 296 310
781 4 2 0 0 271 297 310 311
782 4 2 0 0 271 310 284 311
783 4 2 0 0 271 284 285 311
784 4 2 0 0 271 285 272 311
785 4 2 0 0 271 272 298 311
786 4 2 0 0 271 298 297 311
787 4 2 0 0 272 298 311 312
788 4 2 0 0 272 311 285 312
789 4 2 0 0 272 285 286 312
790 4 2 0 0 272 286 273 312
791 4 2 0 0 272 273 299 312
792 4 2 0 0 272 299 298 312
793 4 2 0 0 287 313 326 327
794 4 2 0 0 287 326 300 327
795 4 2 0 0 287 300 301 327
796 4 2 0 0 287 301 288 327
797 4 2 0 0 287 288 314 327
798 4 2 0 0 287 314 313 327
799 4 2 0 0 288 314 327 328
800 4 2 0 0 288 327 301 328
801 4 2 0 0 288 301 302 328
802 4 2 0 0 288 302 289 328
803 4 2 0 0 288 289 315 328
804 4 2 0 0 288 315 314 328
805 4 2 0 0 289 315 328 329
806 4 2 0 0 289 328 302 329
807 4 2 0 0 289 302 303 329
808 4 2 0 0 289 303 290 329
809 4 2 0 0 289 290 316 329
810 4 2 0 0 289 316 315 329
811 4 2 0 0 290 316 329 330
812 4 2 0 0 290 329 303 330
813 4 2 0 0 290 303 304 330
814 4 2 0 0 290 304 291 330
815 4 2 0 0 290 291 317 330
816 4 2 0 0 290 317 316 330
817 4 2 0 0 291 317 330 331
818 4 2 0 0 291 330 304 331
819 4 2 0 0 291 304 305 331
820 4 2 0 0 291 305 292 331
821 4 2 0 0 291 292 318 331
822 4 2 0 0 291 318 317 331
823 4 2 0 0 292 318 331 332
824 4 2 0 0 292 331 305 332
825 4 2 0 0 292 305 306 332
826 4 2 0 0 292 306 293 332
827 4 2 0 0 292 293 319 332
828 4 2 0 0 292 319 318 332
829 4 2 0 0 293 319 332 333
830 4 2 0 0 293 332 306 333
831 4 2 0 0 293 306 307 333
832 4 2 0 0 293 307 294 333
833 4 2 0 0 293 294 320 333
834 4 2 0 0 293 320 319 333
835 4 2 0 0 294 320 333 334
836 4 2 0 0 294 333 307 334
837 4 2 0 0 294 307 308 334
838 4 2 0 0 294 308 295 334
839 4 2 0 0 294 295 321 334
840 4 2 0 0 294 321 320 334
841 4 2 0 0 295 321 334 335
842 4 2 0 0 295 334 308 335
843 4 2 0 0 295 308 309 335
844 4 2 0 0 295 309 296 335
845 4 2 0 0 295 296 322 335
846 4 2 0 0 295 322 321 335
847 4 2 0 0 296 322 335 336
848 4 2 0 0 296 335 309 336
849 4 2 0 0 296 309 310 336
850 4 2 0 0 296 310 297 336
851 4 2 0 0 296 297 323 336
852 4 2 0 0 296 323 322 336
853 4 2 0 0 297 323 336 337
854 4 2 0 0 297 336 310 337
855 4 2 0 0 297 310 311 337
856 4 2 0 0 297 311 298 337
857 4 2 0 0 297 298 324 337
858 4 2 0 0 297 324 323 337
859 4 2 0 0 298 324 337 338
860 4 2 0 0 298 337 311 338
861 4 2 0 0 298 311 312 338
862 4 2 0 0 298 312 299 338
863 4 2 0 0 298 299 325 338
864 4 2 0 0 298 325 324 338
865 4 2 0 0 313 339 352 353
866 4 2 0 0 313 352 326 353
867 4 2 0 0 313 326 327 353
868 4 2 0 0 313 327 314 353
869 4 2 0 0 313 314 340 353
870 4 2 0 0 313 340 339 353
871 4 2 0 0 314 340 353 354
872 4 2 0 0 314 353 327 354
873 4 2 0 0 314 327 328 354
874 4 2 0 0 314 328 315 354
875 4 2 0 0 314 315 341 354
876 4 2 0 0 314 341 340 354
877 4 2 0 0 315 341 354 355
878 4 2 0 0 315 354 328 355
879 4 2 0 0 315 328 329 355
880 4 2 0 0 315 329 316 355
881 4 2 0 0 315 316 342 355
882 4 2 0 0 315 342 341 355
883 4 2 0 0 316 342 355 356
884 4 2 0 0 316 355 329 356
885 4 2 0 0 316 329 330 356
886 4 2 0 0 316 330 317 356
887 4 2 0 0 316 317 343 356
888 4 2 0 0 316 343 342 356
889 4 2 0 0 317 343 356 357
890 4 2 0 0 317 356 330 357
891 4 2 0 0 317 330 331 357
892 4 2 0 0 317 331 318 357
893 4 2 0 0 317 318 344 357
894 4 2 0 0 317 344 343 357
895 4 2 0 0 318 344 357 358
896 4 2 0 0 318 357 331 358
897 4 2 0 0 318 331 332 358
898 4 2 0 0 318 332 319 358
899 4 2 0 0 318 319 345 358
900 4 2 0 0 318 345 344 358
901 4 2 0 0 319 345 358 359
902 4 2 0 0 319 358 332 359
903 4 2 0 0 319 332 333 359
904 4 2 0 0 319 333 320 359
905 4 2 0 0 319 320 346 359
906 4 2 0 0 319 346 345 359
907 4 2 0 0 320 346 359 360
908 4 2 0 0 320 359 333 360
909 4 2 0 0 320 333 334 360
910 4 2 0 0 320 334 321 360
911 4 2 0 0 320 321 347 360
912 4 2 0 0 320 347 346 360
913 4 2 0 0 321 347 360 361
914 4 2 0 0 321 360 334 361
915 4 2 0 0 321 334 335 361
916 4 2 0 0 321 335 322 361
917 4 2 0 0 321 322 348 361
918 4 2 0 0 321 348 347 361
919 4 2 0 0 322 348 361 362
920 4 2 0 0 322 361 335 362
921 4 2 0 0 322 335 336 362
922 4 2 0 0 322 336 323 362
923 4 2 0 0 322 323 349 362
924 4 2 0 0 322 349 348 362
925 4 2 0 0 323 349 362 363
926 4 2 0 0 323 362 336 363
927 4 2 0 0 323 336 337 363
928 4 2 0 0 323 337 324 363
929 4 2 0 0 323 324 350 363
930 4 2 0 0 323 350 349 363
931 4 2 0 0 324 350 363 364
932 4 2 0 0 324 363 337 364
933 4 2 0 0 324 337 338 364
934 4 2 0 0 324 338 325 364
935 4 2 0 0 324 325 351 364
936 4 2 0 0 324 351 350 364
937 4 2 0 0 339 365 378 379
938 4 2 0 0 339 378 352 379
939 4 2 0 0 339 352 353 379
940 4 2 0 0 339 353 340 379
941 4 2 0 0 339 340 366 379
942 4 2 0 0 339 366 365 379
943 4 2 0 0 340 366 379 380
944 4 2 0 0 340 379 353 380
945 4 2 0 0 340 353 354 380
946 4 2 0 0 340 354 341 380
947 4 2 0 0 340 341 367 380
948 4 2 0 0 340 367 366 380
949 4 2 0 0 341 367 380 381
950 4 2 0 0 341 380 354 381
951 4 2 0 0 341 354 355 381
952 4 2 0 0 341 355 342 381
953 4 2 0 0 341 342 368 381
954 4 2 0 0 341 368 367 381
955 4 2 0 0 342 368 381 382
956 4 2 0 0 342 381 355 382
957 4 2 0 0 342 355 356 382
958 4 2 0 0 342 356 343 382
959 4 2 0 0 342 343 369 382
960 4 2 0 0 342 369 368 382
961 4 2 0 0 343 369 382 383
962 4 2 0 0 343 382 356 383
963 4 2 0 0 343 356 357 383
964 4 2 0 0 343 357 344 383
965 4 2 0 0 343 344 370 383
966 4 2 0 0 343 370 369 383
967 4 2 0 0 344 370 383 384
968 4 2 0 0 344 383 357 384
969 4 2 0 0 344 357 358 384
970 4 2 0 0 344 358 345 384
971 4 2 0 0 344 345 371 384
972 4 2 0 0 344 371 370 384
973 4 2 0 0 345 371 384 385
974 4 2 0 0 345 384 358 385
975 4 2 0 0 345 358 359 385
976 4 2 0 0 345 359 346 385
977 4 2 0 0 345 346 372 385
978 4 2 0 0 345 372 371 385
979 4 2 0 0 346 372 385 386
980 4 2 0 0 346 385 359 386
981 4 2 0 0 346 359 360 386
982 4 2 0 0 346 360 347 386
983 4 2 0 0 346 347 373 386
984 4 2 0 0 346 373 372 386
985 4 2 0 0 347 373 386 387
986 4 2 0 0 347 386 360 387
987 4 2 0 0 347 360 361 387
988 4 2 0 0 347 361 348 387
989 4 2 0 0 347 348 374 387
990 4 2 0 0 347 374 373 387
991 4 2 0 0 348 374 387 388
992 4 2 0 0 348 387 361 388
993 4 2 0 0 348 361 362 388
994 4 2 0 0 348 362 349 388
995 4 2 0 0 348 349 375 388
996 4 2 0 0 348 375 374 388
997 4 2 0 0 349 375 388 389
998 4 2 0 0 349 388 362 389
999 4 2 0 0 349 362 363 389
1000 4 2 0 0 349 363 350 389
1001 4 2 0 0 349 350 376 389
1002 4 2 0 0 349 376 375 389
1003 4 2 0 0 350 376 389 390
1004 4 2 0 0 350 389 363 390
1005 4 2 0 0 350 363 364 390
1006 4 2 0 0 350 364 351 390
1007 4 2 0 0 350 351 377 390
1008 4 2 0 0 350 377 376 390
1009 4 2 0 0 365 391 404 405
1010 4 2 0 0 365 404 378 405
1011 4 2 0 0 365 378 379 405
1012 4 2 0 0 365 379 366 405
1013 4 2 0 0 365 366 392 405
1014 4 2 0 0 365 392 391 405
1015 4 2 0 0 366 392 405 406
1016 4 2 0 0 366 405 379 406
1017 4 2 0 0 366 379 380 406
1018 4 2 0 0 366 380 367 406
1019 4 2 0 0 366 367 393 406
1020 4 2 0 0 366 393 392 406
1021 4 2 0 0 367 393 406 407
1022 4 2 0 0 367 406 380 407
1023 4 2 0 0 367 380 381 407
1024 4 2 0 0 367 381 368 407
1025 4 2 0 0 367 368 394 407
1026 4 2 0 0 367 394 393 407
1027 4 2 0 0 368 394 407 408
1028 4 2 0 0 368 407 381 408
1029 4 2 0 0 368 381 382 408
1030 4 2 0 0 368 382 369 408
1031 4 2 0 0 368 369 395 408
1032 4 2 0 0 368 395 394 408
1033 4 2 0 0 369 395 408 409
1034 4 2 0 0 369 408 382 409
1035 4 2 0 0 369 382 383 409
1036 4 2 0 0 369 383 370 409
1037 4 2 0 0 369 370 396 409
1038 4 2 0 0 369 396 395 409
1039 4 2 0 0 370 396 409 410
1040 4 2 0 0 370 409 383 410
1041 4 2 0 0 370 383 384 410
1042 4 2 0 0 370 384 371 410
1043 4 2 0 0 370 371 397 410
1044 4 2 0 0 370 397 396 410
1045 4 2 0 0 371 397 410 411
1046 4 2 0 0 371 410 384 411
1047 4 2 0 0 371 384 385 411
1048 4 2 0 0 371 385 372 411
1049 4 2 0 0 371 372 398 411
1050 4 2 0 0 371 398 397 411
1051 4 2 0 0 372 398 411 412
1052 4 2 0 0 372 411 385 412
1053 4 2 0 0 372 385 386 412
1054 4 2 0 0 372 386 373 412
1055 4 2 0 0 372 373 399 412
1056 4 2 0 0 372 399 398 412
1057 4 2 0 0 373 399 412 413
1058 4 2 0 0 373 412 386 413
1059 4 2 0 0 373 386 387 413
1060 4 2 0 0 373 387 374 413
1061 4 2 0 0 373 374 400 413
1062 4 2 0 0 373 400 399 413
1063 4 2 0 0 374 400 413 414
1064 4 2 0 0 374 413 387 414
1065 4 2 0 0 374 387 388 414
1066 4 2 0 0 374 388 375 414
1067 4 2 0 0 374 375 401 414
1068 4 2 0 0 374 401 400 414
1069 4 2 0 0 375 401 414 415
1070 4 2 0 0 375 414 388 415
1071 4 2 0 0 375 388 389 415
1072 4 2 0 0 375 389 376 415
1073 4 2 0 0 375 376 402 415
1074 4 2 0 0 375 402 401 415
1075 4 2 0 0 376 402 415 416
1076 4 2 0 0 376 415 389 416
1077 4 2 0 0 376 389 390 416
1078 4 2 0 0 376 390 377 416
1079 4 2 0 0 376 377 403 416
1080 4 2 0 0 376 403 402 416
1081 4 2 0 0 391 417 430 431
1082 4 2 0 0 391 430 404 431
1083 4 2 0 0 391 404 405 431
1084 4 2 0 0 391 405 392 431
1085 4 2 0 0 391 392 418 431
1086 4 2 0 0 391 418 417 431
1087 4 2 0 0 392 418 431 432
1088 4 2 0 0 392 431 405 432
1089 4 2 0 0 392 405 406 432
1090 4 2 0 0 392 406 393 432
1091 4 2 0 0 392 393 419 432
1092 4 2 0 0 392 419 418 432
1093 4 2 0 0 393 419 432 433
1094 4 2 0 0 393 432 406 433
1095 4 2 0 0 393 406 407 433
1096 4 2 0 0 393 407 394 433
1097 4 2 0 0 393 394 420 433
1098 4 2 0 0 393 420 419 433
1099 4 2 0 0 394 420 433 434
1100 4 2 0 0 394 433 407 434
1101 4 2 0 0 394 407 408 434
1102 4 2 0 0 394 408 395 434
1103 4 2 0 0 394 395 421 434
1104 4 2 0 0 394 421 420 434
1105 4 2 0 0 395 421 434 435
1106 4 2 0 0 395 434 408 435
1107 4 2 0 0 395 408 409 435
1108 4 2 0 0 395 409 396 435
1109 4 2 0 0 395 396 422 435
1110 4 2 0 0 395 422 421 435
1111 4 2 0 0 396 422 435 436
1112 4 2 0 0 396 435 409 436
1113 4 2 0 0 396 409 410 436
1114 4 2 0 0 396 410 397 436
1115 4 2 0 0 396 397 423 436
1116 4 2 0 0 396 423 422 436
1117 4 2 0 0 397 423 436 437
1118 4 2 0 0 397 436 410 437
1119 4 2 0 0 397 410 411 437
1120 4 2 0 0 397 411 398 437
1121 4 2 0 0 397 398 424 437
1122 4 2 0 0 397 424 423 437
1123 4 2 0 0 398 424 437 438
1124 4 2 0 0 398 437 411 438
1125 4 2 0 0 398 411 412 438
1126 4 2 0 0 398 412 399 438
1127 4 2 0 0 398 399 425 438
1128 4 2 0 0 398 425 424 438
1129 4 2 0 0 399 425 438 439
1130 4 2 0 0 399 438 412 439
1131 4 2 0 0 399 412 413 439
1132 4 2 0 0 399 413 400 439
1133 4 2 0 0 399 400 426 439
1134 4 2 0 0 399 426 425 439
1135 4 2 0 0 400 426 439 440
1136 4 2 0 0 400 439 413 440
1137 4 2 0 0 400 413 414 440
1138 4 2 0 0 400 414 401 440
1139 4 2 0 0 400 401 427 440
1140 4 2 0 0 400 427 426 440
1141 4 2 0 0 401 427 440 441
1142 4 2 0 0 401 440 414 441
1143 4 2 0 0 401 414 415 441
1144 4 2 0 0 401 415 402 441
1145 4 2 0 0 401 402 428 441
1146 4 2 0 0 401 428 427 441
1147 4 2 0 0 402 428 441 442
1148 4 2 0 0 402 441 415 442
1149 4 2 0 0 402 415 416 442
1150 4 2 0 0 402 416 403 442
1151 4 2 0 0 402 403 429 442
1152 4 2 0 0 402 429 428 442
$EndElements
