$MeshFormat
2.2 0 8
$EndMeshFormat
$Nodes
136
1 1.0000000000000000e+01 0.0000000000000000e+00 -1.5250000000000000e+01
2 1.0000000000000000e+01 0.0000000000000000e+00 -1.5199999999999999e+01
3 1.0000000000000000e+01 0.0000000000000000e+00 -1.4750000000000000e+01
4 1.0000000000000000e+01 0.0000000000000000e+00 -1.4699999999999999e+01
5 1.0300000000000001e+01 0.0000000000000000e+00 -1.5250000000000000e+01
6 1.0300000000000001e+01 0.0000000000000000e+00 -1.5199999999999999e+01
7 1.0300000000000001e+01 0.0000000000000000e+00 -1.4750000000000000e+01
8 1.0300000000000001e+01 0.0000000000000000e+00 -1.4699999999999999e+01
9 9.9518472667219697e+00 9.8017140329560604e-01 -1.5250000000000000e+01
10 9.9518472667219697e+00 9.8017140329560604e-01 -1.5199999999999999e+01
11 9.9518472667219697e+00 9.8017140329560604e-01 -1.4750000000000000e+01
12 9.9518472667219697e+00 9.8017140329560604e-01 -1.4699999999999999e+01
13 1.0250402684723628e+01 1.0095765453944743e+00 -1.5250000000000000e+01
14 1.0250402684723628e+01 1.0095765453944743e+00 -1.5199999999999999e+01
15 1.0250402684723628e+01 1.0095765453944743e+00 -1.4750000000000000e+01
16 1.0250402684723628e+01 1.0095765453944743e+00 -1.4699999999999999e+01
17 9.8078528040323043e+00 1.9509032201612824e+00 -1.5250000000000000e+01
18 9.8078528040323043e+00 1.9509032201612824e+00 -1.5199999999999999e+01
19 9.8078528040323043e+00 1.9509032201612824e+00 -1.4750000000000000e+01
20 9.8078528040323043e+00 1.9509032201612824e+00 -1.4699999999999999e+01
21 1.0102088388153273e+01 2.0094303167661209e+00 -1.5250000000000000e+01
22 1.0102088388153273e+01 2.0094303167661209e+00 -1.5199999999999999e+01
23 1.0102088388153273e+01 2.0094303167661209e+00 -1.4750000000000000e+01
24 1.0102088388153273e+01 2.0094303167661209e+00 -1.4699999999999999e+01
25 9.5694033573220878e+00 2.9028467725446232e+00 -1.5250000000000000e+01
26 9.5694033573220878e+00 2.9028467725446232e+00 -1.5199999999999999e+01
27 9.5694033573220878e+00 2.9028467725446232e+00 -1.4750000000000000e+01
28 9.5694033573220878e+00 2.9028467725446232e+00 -1.4699999999999999e+01
29 9.8564854580417514e+00 2.9899321757209623e+00 -1.5250000000000000e+01
30 9.8564854580417514e+00 2.9899321757209623e+00 -1.5199999999999999e+01
31 9.8564854580417514e+00 2.9899321757209623e+00 -1.4750000000000000e+01
32 9.8564854580417514e+00 2.9899321757209623e+00 -1.4699999999999999e+01
33 9.2387953251128678e+00 3.8268343236508979e+00 -1.5250000000000000e+01
34 9.2387953251128678e+00 3.8268343236508979e+00 -1.5199999999999999e+01
35 9.2387953251128678e+00 3.8268343236508979e+00 -1.4750000000000000e+01
36 9.2387953251128678e+00 3.8268343236508979e+00 -1.4699999999999999e+01
37 9.5159591848662544e+00 3.9416393533604248e+00 -1.5250000000000000e+01
38 9.5159591848662544e+00 3.9416393533604248e+00 -1.5199999999999999e+01
39 9.5159591848662544e+00 3.9416393533604248e+00 -1.4750000000000000e+01
40 9.5159591848662544e+00 3.9416393533604248e+00 -1.4699999999999999e+01
41 8.8192126434835512e+00 4.7139673682599765e+00 -1.5250000000000000e+01
42 8.8192126434835512e+00 4.7139673682599765e+00 -1.5199999999999999e+01
43 8.8192126434835512e+00 4.7139673682599765e+00 -1.4750000000000000e+01
44 8.8192126434835512e+00 4.7139673682599765e+00 -1.4699999999999999e+01
45 9.0837890227880571e+00 4.8553863893077764e+00 -1.5250000000000000e+01
46 9.0837890227880571e+00 4.8553863893077764e+00 -1.5199999999999999e+01
47 9.0837890227880571e+00 4.8553863893077764e+00 -1.4750000000000000e+01
48 9.0837890227880571e+00 4.8553863893077764e+00 -1.4699999999999999e+01
49 8.3146961230254526e+00 5.5557023301960218e+00 -1.5250000000000000e+01
50 8.3146961230254526e+00 5.5557023301960218e+00 -1.5199999999999999e+01
51 8.3146961230254526e+00 5.5557023301960218e+00 -1.4750000000000000e+01
52 8.3146961230254526e+00 5.5557023301960218e+00 -1.4699999999999999e+01
53 8.5641370067162157e+00 5.7223734001019029e+00 -1.5250000000000000e+01
54 8.5641370067162157e+00 5.7223734001019029e+00 -1.5199999999999999e+01
55 8.5641370067162157e+00 5.7223734001019029e+00 -1.4750000000000000e+01
56 8.5641370067162157e+00 5.7223734001019029e+00 -1.4699999999999999e+01
57 7.7301045336273697e+00 6.3439328416364553e+00 -1.5250000000000000e+01
58 7.7301045336273697e+00 6.3439328416364553e+00 -1.5199999999999999e+01
59 7.7301045336273697e+00 6.3439328416364553e+00 -1.4750000000000000e+01
60 7.7301045336273697e+00 6.3439328416364553e+00 -1.4699999999999999e+01
61 7.9620076696361917e+00 6.5342508268855486e+00 -1.5250000000000000e+01
62 7.9620076696361917e+00 6.5342508268855486e+00 -1.5199999999999999e+01
63 7.9620076696361917e+00 6.5342508268855486e+00 -1.4750000000000000e+01
64 7.9620076696361917e+00 6.5342508268855486e+00 -1.4699999999999999e+01
65 7.0710678118654755e+00 7.0710678118654746e+00 -1.5250000000000000e+01
66 7.0710678118654755e+00 7.0710678118654746e+00 -1.5199999999999999e+01
67 7.0710678118654755e+00 7.0710678118654746e+00 -1.4750000000000000e+01
68 7.0710678118654755e+00 7.0710678118654746e+00 -1.4699999999999999e+01
69 7.2831998462214402e+00 7.2831998462214393e+00 -1.5250000000000000e+01
70 7.2831998462214402e+00 7.2831998462214393e+00 -1.5199999999999999e+01
71 7.2831998462214402e+00 7.2831998462214393e+00 -1.4750000000000000e+01
72 7.2831998462214402e+00 7.2831998462214393e+00 -1.4699999999999999e+01
73 6.3439328416364553e+00 7.7301045336273697e+00 -1.5250000000000000e+01
74 6.3439328416364553e+00 7.7301045336273697e+00 -1.5199999999999999e+01
75 6.3439328416364553e+00 7.7301045336273697e+00 -1.4750000000000000e+01
76 6.3439328416364553e+00 7.7301045336273697e+00 -1.4699999999999999e+01
77 6.5342508268855486e+00 7.9620076696361917e+00 -1.5250000000000000e+01
78 6.5342508268855486e+00 7.9620076696361917e+00 -1.5199999999999999e+01
79 6.5342508268855486e+00 7.9620076696361917e+00 -1.4750000000000000e+01
80 6.5342508268855486e+00 7.9620076696361917e+00 -1.4699999999999999e+01
81 5.5557023301960227e+00 8.3146961230254526e+00 -1.5250000000000000e+01
82 5.5557023301960227e+00 8.3146961230254526e+00 -1.5199999999999999e+01
83 5.5557023301960227e+00 8.3146961230254526e+00 -1.4750000000000000e+01
84 5.5557023301960227e+00 8.3146961230254526e+00 -1.4699999999999999e+01
85 5.7223734001019038e+00 8.5641370067162157e+00 -1.5250000000000000e+01
86 5.7223734001019038e+00 8.5641370067162157e+00 -1.5199999999999999e+01
87 5.7223734001019038e+00 8.5641370067162157e+00 -1.4750000000000000e+01
88 5.7223734001019038e+00 8.5641370067162157e+00 -1.4699999999999999e+01
89 4.7139673682599783e+00 8.8192126434835494e+00 -1.5250000000000000e+01
90 4.7139673682599783e+00 8.8192126434835494e+00 -1.5199999999999999e+01
91 4.7139673682599783e+00 8.8192126434835494e+00 -1.4750000000000000e+01
92 4.7139673682599783e+00 8.8192126434835494e+00 -1.4699999999999999e+01
93 4.8553863893077773e+00 9.0837890227880571e+00 -1.5250000000000000e+01
94 4.8553863893077773e+00 9.0837890227880571e+00 -1.5199999999999999e+01
95 4.8553863893077773e+00 9.0837890227880571e+00 -1.4750000000000000e+01
96 4.8553863893077773e+00 9.0837890227880571e+00 -1.4699999999999999e+01
97 3.8268343236508984e+00 9.2387953251128678e+00 -1.5250000000000000e+01
98 3.8268343236508984e+00 9.2387953251128678e+00 -1.5199999999999999e+01
99 3.8268343236508984e+00 9.2387953251128678e+00 -1.4750000000000000e+01
100 3.8268343236508984e+00 9.2387953251128678e+00 -1.4699999999999999e+01
101 3.9416393533604257e+00 9.5159591848662544e+00 -1.5250000000000000e+01
102 3.9416393533604257e+00 9.5159591848662544e+00 -1.5199999999999999e+01
103 3.9416393533604257e+00 9.5159591848662544e+00 -1.4750000000000000e+01
104 3.9416393533604257e+00 9.5159591848662544e+00 -1.4699999999999999e+01
105 2.9028467725446232e+00 9.5694033573220896e+00 -1.5250000000000000e+01
106 2.9028467725446232e+00 9.5694033573220896e+00 -1.5199999999999999e+01
107 2.9028467725446232e+00 9.5694033573220896e+00 -1.4750000000000000e+01
108 2.9028467725446232e+00 9.5694033573220896e+00 -1.4699999999999999e+01
109 2.9899321757209623e+00 9.8564854580417531e+00 -1.5250000000000000e+01
110 2.9899321757209623e+00 9.8564854580417531e+00 -1.5199999999999999e+01
111 2.9899321757209623e+00 9.8564854580417531e+00 -1.4750000000000000e+01
112 2.9899321757209623e+00 9.8564854580417531e+00 -1.4699999999999999e+01
113 1.9509032201612833e+00 9.8078528040323043e+00 -1.5250000000000000e+01
114 1.9509032201612833e+00 9.8078528040323043e+00 -1.5199999999999999e+01
115 1.9509032201612833e+00 9.8078528040323043e+00 -1.4750000000000000e+01
116 1.9509032201612833e+00 9.8078528040323043e+00 -1.4699999999999999e+01
117 2.0094303167661218e+00 1.0102088388153273e+01 -1.5250000000000000e+01
118 2.0094303167661218e+00 1.0102088388153273e+01 -1.5199999999999999e+01
119 2.0094303167661218e+00 1.0102088388153273e+01 -1.4750000000000000e+01
120 2.0094303167661218e+00 1.0102088388153273e+01 -1.4699999999999999e+01
121 9.8017140329560770e-01 9.9518472667219680e+00 -1.5250000000000000e+01
122 9.8017140329560770e-01 9.9518472667219680e+00 -1.5199999999999999e+01
123 9.8017140329560770e-01 9.9518472667219680e+00 -1.4750000000000000e+01
124 9.8017140329560770e-01 9.9518472667219680e+00 -1.4699999999999999e+01
125 1.0095765453944761e+00 1.0250402684723628e+01 -1.5250000000000000e+01
126 1.0095765453944761e+00 1.0250402684723628e+01 -1.5199999999999999e+01
127 1.0095765453944761e+00 1.0250402684723628e+01 -1.4750000000000000e+01
128 1.0095765453944761e+00 1.0250402684723628e+01 -1.4699999999999999e+01
129 6.1232339957367663e-16 1.0000000000000000e+01 -1.5250000000000000e+01
130 6.1232339957367663e-16 1.0000000000000000e+01 -1.5199999999999999e+01
131 6.1232339957367663e-16 1.0000000000000000e+01 -1.4750000000000000e+01
132 6.1232339957367663e-16 1.0000000000000000e+01 -1.4699999999999999e+01
133 6.3069310156088696e-16 1.0300000000000001e+01 -1.5250000000000000e+01
134 6.3069310156088696e-16 1.0300000000000001e+01 -1.5199999999999999e+01
135 6.3069310156088696e-16 1.0300000000000001e+01 -1.4750000000000000e+01
136 6.3069310156088696e-16 1.0300000000000001e+01 -1.4699999999999999e+01
$EndNodes
$Elements
288
1 4 2 0 0 1 9 13 14
2 4 2 0 0 1 13 5 14
3 4 2 0 0 1 5 6 14
4 4 2 0 0 1 6 2 14
5 4 2 0 0 1 2 10 14
6 4 2 0 0 1 10 9 14
7 4 2 0 0 2 10 14 15
8 4 2 0 0 2 14 6 15
9 4 2 0 0 2 6 7 15
10 4 2 0 0 2 7 3 15
11 4 2 0 0 2 3 11 15
12 4 2 0 0 2 11 10 15
13 4 2 0 0 3 11 15 16
14 4 2 0 0 3 15 7 16
15 4 2 0 0 3 7 8 16
16 4 2 0 0 3 8 4 16
17 4 2 0 0 3 4 12 16
18 4 2 0 0 3 12 11 16
19 4 2 0 0 9 17 21 22
20 4 2 0 0 9 21 13 22
21 4 2 0 0 9 13 14 22
22 4 2 0 0 9 14 10 22
23 4 2 0 0 9 10 18 22
24 4 2 0 0 9 18 17 22
25 4 2 0 0 10 18 22 23
26 4 2 0 0 10 22 14 23
27 4 2 0 0 10 14 15 23
28 4 2 0 0 10 15 11 23
29 4 2 0 0 10 11 19 23
30 4 2 0 0 10 19 18 23
31 4 2 0 0 11 19 23 24
32 4 2 0 0 11 23 15 24
33 4 2 0 0 11 15 16 24
34 4 2 0 0 11 16 12 24
35 4 2 0 0 11 12 20 24
36 4 2 0 0 11 20 19 24
37 4 2 0 0 17 25 29 30
38 4 2 0 0 17 29 21 30
39 4 2 0 0 17 21 22 30
40 4 2 0 0 17 22 18 30
41 4 2 0 0 17 18 26 30
42 4 2 0 0 17 26 25 30
43 4 2 0 0 18 26 30 31
44 4 2 0 0 18 30 22 31
45 4 2 0 0 18 22 23 31
46 4 2 0 0 18 23 19 31
47 4 2 0 0 18 19 27 31
48 4 2 0 0 18 27 26 31
49 4 2 0 0 19 27 31 32
50 4 2 0 0 19 31 23 32
51 4 2 0 0 19 23 24 32
52 4 2 0 0 19 24 20 32
53 4 2 0 0 19 20 28 32
54 4 2 0 0 19 28 27 32
55 4 2 0 0 25 33 37 38
56 4 2 0 0 25 37 29 38
57 4 2 0 0 25 29 30 38
58 4 2 0 0 25 30 26 38
59 4 2 0 0 25 26 34 38
60 4 2 0 0 25 34 33 38
61 4 2 0 0 26 34 38 39
62 4 2 0 0 26 38 30 39
63 4 2 0 0 26 30 31 39
64 4 2 0 0 26 31 27 39
65 4 2 0 0 26 27 35 39
66 4 2 0 0 26 35 34 39
67 4 2 0 0 27 35 39 40
68 4 2 0 0 27 39 31 40
69 4 2 0 0 27 31 32 40
70 4 2 0 0 27 32 28 40
71 4 2 0 0 27 28 36 40
72 4 2 0 0 27 36 35 40
73 4 2 0 0 33 41 45 46
74 4 2 0 0 33 45 37 46
75 4 2 0 0 33 37 38 46
76 4 2 0 0 33 38 34 46
77 4 2 0 0 33 34 42 46
78 4 2 0 0 33 42 41 46
79 4 2 0 0 34 42 46 47
80 4 2 0 0 34 46 38 47
81 4 2 0 0 34 38 39 47
82 4 2 0 0 34 39 35 47
83 4 2 0 0 34 35 43 47
84 4 2 0 0 34 43 42 47
85 4 2 0 0 35 43 47 48
86 4 2 0 0 35 47 39 48
87 4 2 0 0 35 39 40 48
88 4 2 0 0 35 40 36 48
89 4 2 0 0 35 36 44 48
90 4 2 0 0 35 44 43 48
91 4 2 0 0 41 49 53 54
92 4 2 0 0 41 53 45 54
93 4 2 0 0 41 45 46 54
94 4 2 0 0 41 46 42 54
95 4 2 0 0 41 42 50 54
96 4 2 0 0 41 50 49 54
97 4 2 0 0 42 50 54 55
98 4 2 0 0 42 54 46 55
99 4 2 0 0 42 46 47 55
100 4 2 0 0 42 47 43 55
101 4 2 0 0 42 43 51 55
102 4 2 0 0 42 51 50 55
103 4 2 0 0 43 51 55 56
104 4 2 0 0 43 55 47 56
105 4 2 0 0 43 47 48 56
106 4 2 0 0 43 48 44 56
107 4 2 0 0 43 44 52 56
108 4 2 0 0 43 52 51 56
109 4 2 0 0 49 57 61 62
110 4 2 0 0 49 61 53 62
111 4 2 0 0 49 53 54 62
112 4 2 0 0 49 54 50 62
113 4 2 0 0 49 50 58 62
114 4 2 0 0 49 58 57 62
115 4 2 0 0 50 58 62 63
116 4 2 0 0 50 62 54 63
117 4 2 0 0 50 54 55 63
118 4 2 0 0 50 55 51 63
119 4 2 0 0 50 51 59 63
120 4 2 0 0 50 59 58 63
121 4 2 0 0 51 59 63 64
122 4 2 0 0 51 63 55 64
123 4 2 0 0 51 55 56 64
124 4 2 0 0 51 56 52 64
125 4 2 0 0 51 52 60 64
126 4 2 0 0 51 60 59 64
127 4 2 0 0 57 65 69 70
128 4 2 0 0 57 69 61 70
129 4 2 0 0 57 61 62 70
130 4 2 0 0 57 62 58 70
131 4 2 0 0 57 58 66 70
132 4 2 0 0 57 66 65 70
133 4 2 0 0 58 66 70 71
134 4 2 0 0 58 70 62 71
135 4 2 0 0 58 62 63 71
136 4 2 0 0 58 63 59 71
137 4 2 0 0 58 59 67 71
138 4 2 0 0 58 67 66 71
139 4 2 0 0 59 67 71 72
140 4 2 0 0 59 71 63 72
141 4 2 0 0 59 63 64 72
142 4 2 0 0 59 64 60 72
143 4 2 0 0 59 60 68 72
144 4 2 0 0 59 68 67 72
145 4 2 0 0 65 73 77 78
146 4 2 0 0 65 77 69 78
147 4 2 0 0 65 69 70 78
148 4 2 0 0 65 70 66 78
149 4 2 0 0 65 66 74 78
150 4 2 0 0 65 74 73 78
151 4 2 0 0 66 74 78 79
152 4 2 0 0 66 78 70 79
153 4 2 0 0 66 70 71 79
154 4 2 0 0 66 71 67 79
155 4 2 0 0 66 67 75 79
156 4 2 0 0 66 75 74 79
157 4 2 0 0 67 75 79 80
158 4 2 0 0 67 79 71 80
159 4 2 0 0 67 71 72 80
160 4 2 0 0 67 72 68 80
161 4 2 0 0 67 68 76 80
162 4 2 0 0 67 76 75 80
163 4 2 0 0 73 81 85 86
164 4 2 0 0 73 85 77 86
165 4 2 0 0 73 77 78 86
166 4 2 0 0 73 78 74 86
167 4 2 0 0 73 74 82 86
168 4 2 0 0 73 82 81 86
169 4 2 0 0 74 82 86 87
170 4 2 0 0 74 86 78 87
171 4 2 0 0 74 78 79 87
172 4 2 0 0 74 79 75 87
173 4 2 0 0 74 75 83 87
174 4 2 0 0 74 83 82 87
175 4 2 0 0 75 83 87 88
176 4 2 0 0 75 87 79 88
177 4 2 0 0 75 79 80 88
178 4 2 0 0 75 80 76 88
179 4 2 0 0 75 76 84 88
180 4 2 0 0 75 84 83 88
181 4 2 0 0 81 89 93 94
182 4 2 0 0 81 93 85 94
183 4 2 0 0 81 85 86 94
184 4 2 0 0 81 86 82 94
185 4 2 0 0 81 82 90 94
186 4 2 0 0 81 90 89 94
187 4 2 0 0 82 90 94 95
188 4 2 0 0 82 94 86 95
189 4 2 0 0 82 86 87 95
190 4 2 0 0 82 87 83 95
191 4 2 0 0 82 83 91 95
192 4 2 0 0 82 91 90 95
193 4 2 0 0 83 91 95 96
194 4 2 0 0 83 95 87 96
195 4 2 0 0 83 87 88 96
196 4 2 0 0 83 88 84 96
197 4 2 0 0 83 84 92 96
198 4 2 0 0 83 92 91 96
199 4 2 0 0 89 97 101 102
200 4 2 0 0 89 101 93 102
201 4 2 0 0 89 93 94 102
202 4 2 0 0 89 94 90 102
203 4 2 0 0 89 90 98 102
204 4 2 0 0 89 98 97 102
205 4 2 0 0 90 98 102 103
206 4 2 0 0 90 102 94 103
207 4 2 0 0 90 94 95 103
208 4 2 0 0 90 95 91 103
209 4 2 0 0 90 91 99 103
210 4 2 0 0 90 99 98 103
211 4 2 0 0 91 99 103 104
212 4 2 0 0 91 103 95 104
213 4 2 0 0 91 95 96 104
214 4 2 0 0 91 96 92 104
215 4 2 0 0 91 92 100 104
216 4 2 0 0 91 100 99 104
217 4 2 0 0 97 105 109 110
218 4 2 0 0 97 109 101 110
219 4 2 0 0 97 101 102 110
220 4 2 0 0 97 102 98 110
221 4 2 0 0 97 98 106 110
222 4 2 0 0 97 106 105 110
223 4 2 0 0 98 106 110 111
224 4 2 0 0 98 110 102 111
225 4 2 0 0 98 102 103 111
226 4 2 0 0 98 103 99 111
227 4 2 0 0 98 99 107 111
228 4 2 0 0 98 107 106 111
229 4 2 0 0 99 107 111 112
230 4 2 0 0 99 111 103 112
231 4 2 0 0 99 103 104 112
232 4 2 0 0 99 104 100 112
233 4 2 0 0 99 100 108 112
234 4 2 0 0 99 108 107 112
235 4 2 0 0 105 113 117 118
236 4 2 0 0 105 117 109 118
237 4 2 0 0 105 109 110 118
238 4 2 0 0 105 110 106 118
239 4 2 0 0 105 106 114 118
240 4 2 0 0 105 114 113 118
241 4 2 0 0 106 114 118 119
242 4 2 0 0 106 118 110 119
243 4 2 0 0 106 110 111 119
244 4 2 0 0 106 111 107 119
245 4 2 0 0 106 107 115 119
246 4 2 0 0 106 115 114 119
247 4 2 0 0 107 115 119 120
248 4 2 0 0 107 119 111 120
249 4 2 0 0 107 111 112 120
250 4 2 0 0 107 112 108 120
251 4 2 0 0 107 108 116 120
252 4 2 0 0 107 116 115 120
253 4 2 0 0 113 121 125 126
254 4 2 0 0 113 125 117 126
255 4 2 0 0 113 117 118 126
256 4 2 0 0 113 118 114 126
257 4 2 0 0 113 114 122 126
258 4 2 0 0 113 122 121 126
259 4 2 0 0 114 122 126 127
260 4 2 0 0 114 126 118 127
261 4 2 0 0 114 118 119 127
262 4 2 0 0 114 119 115 127
263 4 2 0 0 114 115 123 127
264 4 2 0 0 114 123 122 127
265 4 2 0 0 115 123 127 128
266 4 2 0 0 115 127 119 128
267 4 2 0 0 115 119 120 128
268 4 2 0 0 115 120 116 128
269 4 2 0 0 115 116 124 128
270 4 2 0 0 115 124 123 128
271 4 2 0 0 121 129 133 134
272 4 2 0 0 121 133 125 134
273 4 2 0 0 121 125 126 134
274 4 2 0 0 121 126 122 134
275 4 2 0 0 121 122 130 134
276 4 2 0 0 121 130 129 134
277 4 2 0 0 122 130 134 135
278 4 2 0 0 122 134 126 135
279 4 2 0 0 122 126 127 135
280 4 2 0 0 122 127 123 135
281 4 2 0 0 122 123 131 135
282 4 2 0 0 122 131 130 135
283 4 2 0 0 123 131 135 136
284 4 2 0 0 123 135 127 136
285 4 2 0 0 123 127 128 136
286 4 2 0 0 123 128 124 136
287 4 2 0 0 123 124 132 136
288 4 2 0 0 123 132 131 136
$EndElements
