$MeshFormat
2.2 0 8
$EndMeshFormat
$Nodes
374
1 1.0016487681741745e+01 0.0000000000000000e+00 -2.1649091100843687e+01
2 9.9835123182582546e+00 0.0000000000000000e+00 -2.1350908899156313e+01
3 1.2144876956378036e+01 0.0000000000000000e+00 -2.1412148360145913e+01
4 1.2155123043621964e+01 0.0000000000000000e+00 -2.1112323381706510e+01
5 1.4286633258322064e+01 0.0000000000000000e+00 -2.1796349560082398e+01
6 1.4313366741677937e+01 0.0000000000000000e+00 -2.1497543066063841e+01
7 1.6463366741677934e+01 0.0000000000000000e+00 -2.1796349560082398e+01
8 1.6436633258322065e+01 0.0000000000000000e+00 -2.1497543066063841e+01
9 1.8605123043621965e+01 0.0000000000000000e+00 -2.1412148360145913e+01
10 1.8594876956378037e+01 0.0000000000000000e+00 -2.1112323381706510e+01
11 2.0733512318258256e+01 0.0000000000000000e+00 -2.1649091100843687e+01
12 2.0766487681741744e+01 0.0000000000000000e+00 -2.1350908899156313e+01
13 2.2905123043621963e+01 0.0000000000000000e+00 -2.1887676618293490e+01
14 2.2894876956378035e+01 0.0000000000000000e+00 -2.1587851639854087e+01
15 2.5063366741677932e+01 0.0000000000000000e+00 -2.1502456933936163e+01
16 2.5036633258322063e+01 0.0000000000000000e+00 -2.1203650439917606e+01
17 2.7186633258322065e+01 0.0000000000000000e+00 -2.1502456933936159e+01
18 2.7213366741677934e+01 0.0000000000000000e+00 -2.1203650439917602e+01
19 2.9344876956378034e+01 0.0000000000000000e+00 -2.1887676618293490e+01
20 2.9355123043621962e+01 0.0000000000000000e+00 -2.1587851639854087e+01
21 3.1516487681741744e+01 0.0000000000000000e+00 -2.1649091100843687e+01
22 3.1483512318258256e+01 0.0000000000000000e+00 -2.1350908899156313e+01
23 9.9682555557695860e+00 9.8178747871059580e-01 -2.1649091100843687e+01
24 9.9354389776743517e+00 9.7855532788061628e-01 -2.1350908899156313e+01
25 1.2086396054300540e+01 1.1904061089185529e+00 -2.1412148360145913e+01
26 1.2096592803833847e+01 1.1914104010897699e+00 -2.1112323381706510e+01
27 1.4217839214249162e+01 1.4003349369179214e+00 -2.1796349560082398e+01
28 1.4244443968575672e+01 1.4029552765075120e+00 -2.1497543066063841e+01
29 1.6384091130920893e+01 1.6136921282160670e+00 -2.1796349560082398e+01
30 1.6357486376594384e+01 1.6110717886264767e+00 -2.1497543066063841e+01
31 1.8515534290869518e+01 1.8236209562154360e+00 -2.1412148360145913e+01
32 1.8505337541336210e+01 1.8226166640442190e+00 -2.1112323381706510e+01
33 2.0633674789400470e+01 2.0322395864233931e+00 -2.1649091100843687e+01
34 2.0666491367495702e+01 2.0354717372533719e+00 -2.1350908899156313e+01
35 2.2794828615559961e+01 2.2450946596325463e+00 -2.1887676618293490e+01
36 2.2784631866026654e+01 2.2440903674613293e+00 -2.1587851639854087e+01
37 2.4942679780301784e+01 2.4566395350502881e+00 -2.1502456933936163e+01
38 2.4916075025975278e+01 2.4540191954606976e+00 -2.1203650439917606e+01
39 2.7055722188320502e+01 2.6647560471692531e+00 -2.1502456933936159e+01
40 2.7082326942647008e+01 2.6673763867588436e+00 -2.1203650439917602e+01
41 2.9203573353062325e+01 2.8763009225869949e+00 -2.1887676618293490e+01
42 2.9213770102595632e+01 2.8773052147582119e+00 -2.1587851639854087e+01
43 3.1364727179221820e+01 3.0891559957961485e+00 -2.1649091100843687e+01
44 3.1331910601126587e+01 3.0859238449661692e+00 -2.1350908899156313e+01
45 9.8240236795925817e+00 1.9541198073015791e+00 -2.1649091100843687e+01
46 9.7916819284720269e+00 1.9476866330209859e+00 -2.1350908899156313e+01
47 1.1911516551123965e+01 2.3693479562660467e+00 -2.1412148360145913e+01
48 1.1921565762674536e+01 2.3713468687258699e+00 -2.1112323381706510e+01
49 1.4012119606281523e+01 2.7871838828923789e+00 -2.1796349560082398e+01
50 1.4038339413250869e+01 2.7923993267688889e+00 -2.1497543066063841e+01
51 1.6147027766117809e+01 3.2118435191035641e+00 -2.1796349560082398e+01
52 1.6120807959148468e+01 3.2066280752270551e+00 -2.1497543066063841e+01
53 1.8247630821275372e+01 3.6296794457298973e+00 -2.1412148360145913e+01
54 1.8237581609724803e+01 3.6276805332700741e+00 -2.1112323381706510e+01
55 2.0335123692806757e+01 4.0449075946943651e+00 -2.1649091100843687e+01
56 2.0367465443927308e+01 4.0513407689749572e+00 -2.1350908899156313e+01
57 2.2465007527009263e+01 4.4685678303992482e+00 -2.1887676618293490e+01
58 2.2454958315458690e+01 4.4665689179394246e+00 -2.1587851639854087e+01
59 2.4581781177585590e+01 4.8896202884422664e+00 -2.1502456933936163e+01
60 2.4555561370616250e+01 4.8844048445657577e+00 -2.1203650439917606e+01
61 2.6664249723483195e+01 5.3038490369004334e+00 -2.1502456933936159e+01
62 2.6690469530452539e+01 5.3090644807769429e+00 -2.1203650439917602e+01
63 2.8781023374059526e+01 5.7249014949434525e+00 -2.1887676618293490e+01
64 2.8791072585610095e+01 5.7269004074032752e+00 -2.1587851639854087e+01
65 3.0910907208262035e+01 6.1485617306483364e+00 -2.1649091100843687e+01
66 3.0878565457141484e+01 6.1421285563677435e+00 -2.1350908899156313e+01
67 9.5851810850234802e+00 2.9076328939177003e+00 -2.1649091100843687e+01
68 9.5536256296206972e+00 2.8980606511715465e+00 -2.1350908899156313e+01
69 1.1621922632062764e+01 3.5254716875773551e+00 -2.1412148360145913e+01
70 1.1631727526229911e+01 3.5284459697060799e+00 -2.1112323381706510e+01
71 1.3671455626701658e+01 4.1471907244448882e+00 -2.1796349560082398e+01
72 1.3697037975239517e+01 4.1549510450327354e+00 -2.1497543066063841e+01
73 1.5754459697063764e+01 4.7790631011298279e+00 -2.1796349560082398e+01
74 1.5728877348525906e+01 4.7713027805419825e+00 -2.1497543066063841e+01
75 1.7803992691702657e+01 5.4007821379973624e+00 -2.1412148360145913e+01
76 1.7794187797535514e+01 5.3978078558686375e+00 -2.1112323381706510e+01
77 1.9840734238741945e+01 6.0186209316570167e+00 -2.1649091100843687e+01
78 1.9872289694144722e+01 6.0281931744031700e+00 -2.1350908899156313e+01
79 2.1918836135351153e+01 6.6490062501915492e+00 -2.1887676618293490e+01
80 2.1909031241184007e+01 6.6460319680628244e+00 -2.1587851639854087e+01
81 2.3984146584360758e+01 7.2755113255182033e+00 -2.1502456933936163e+01
82 2.3958564235822902e+01 7.2677510049303580e+00 -2.1203650439917606e+01
83 2.6015985957647150e+01 7.8918630610274523e+00 -2.1502456933936159e+01
84 2.6041568306185006e+01 7.8996233816152985e+00 -2.1203650439917602e+01
85 2.8081296406656755e+01 8.5183681363541073e+00 -2.1887676618293490e+01
86 2.8091101300823901e+01 8.5213424184828312e+00 -2.1587851639854087e+01
87 3.0159398303265966e+01 9.1487534548886398e+00 -2.1649091100843687e+01
88 3.0127842847863189e+01 9.1391812121424874e+00 -2.1350908899156313e+01
89 9.2540279568126262e+00 3.8331438862915723e+00 -2.1649091100843687e+01
90 9.2235626934131094e+00 3.8205247610102235e+00 -2.1350908899156313e+01
91 1.1220403244865640e+01 4.6476431993184315e+00 -2.1412148360145913e+01
92 1.1229869395158630e+01 4.6515642071532506e+00 -2.1112323381706510e+01
93 1.3199128055858790e+01 5.4672578522359343e+00 -2.1796349560082398e+01
94 1.3223826573964011e+01 5.4774883134056340e+00 -2.1497543066063841e+01
95 1.5210167568863275e+01 6.3002576929905763e+00 -2.1796349560082398e+01
96 1.5185469050758057e+01 6.2900272318208774e+00 -2.1497543066063841e+01
97 1.7188892379856430e+01 7.1198723459080799e+00 -2.1412148360145913e+01
98 1.7179426229563440e+01 7.1159513380732609e+00 -2.1112323381706510e+01
99 1.9155267667909442e+01 7.9343716589349391e+00 -2.1649091100843687e+01
100 1.9185732931308955e+01 7.9469907842162870e+00 -2.1350908899156313e+01
101 2.1161574369654961e+01 8.7654111050779644e+00 -2.1887676618293490e+01
102 2.1152108219361970e+01 8.7614900972431453e+00 -2.1587851639854087e+01
103 2.3155531548460338e+01 9.5913352113303478e+00 -2.1502456933936163e+01
104 2.3130833030355120e+01 9.5811047501606481e+00 -2.1203650439917606e+01
105 2.5117174025254389e+01 1.0403874129745592e+01 -2.1502456933936159e+01
106 2.5141872543359607e+01 1.0414104590915292e+01 -2.1203650439917602e+01
107 2.7111131204059770e+01 1.1229798235997976e+01 -2.1887676618293490e+01
108 2.7120597354352761e+01 1.1233719243832793e+01 -2.1587851639854087e+01
109 2.9117437905805289e+01 1.2060837682141003e+01 -2.1649091100843687e+01
110 2.9086972642405776e+01 1.2048218556859654e+01 -2.1350908899156313e+01
111 8.8337534806114046e+00 4.7217396076308606e+00 -2.1649091100843687e+01
112 8.8046718063556977e+00 4.7061951288890924e+00 -2.1350908899156313e+01
113 1.0710825240724120e+01 5.7250553663898600e+00 -2.1412148360145913e+01
114 1.0719861482940908e+01 5.7298853384818829e+00 -2.1112323381706510e+01
115 1.2599685666460655e+01 6.7346722982027911e+00 -2.1796349560082398e+01
116 1.2623262493902301e+01 6.7472743750207416e+00 -2.1497543066063841e+01
117 1.4519393212251261e+01 7.7607773591966351e+00 -2.1796349560082398e+01
118 1.4495816384809618e+01 7.7481752823786865e+00 -2.1497543066063841e+01
119 1.6408253637987798e+01 8.7703942910095680e+00 -2.1412148360145913e+01
120 1.6399217395771011e+01 8.7655643189175461e+00 -2.1112323381706510e+01
121 1.8285325398100515e+01 9.7737100497685674e+00 -2.1649091100843687e+01
122 1.8314407072356218e+01 9.7892545285103338e+00 -2.1350908899156313e+01
123 2.0200515074685725e+01 1.0797400259361357e+01 -2.1887676618293490e+01
124 2.0191478832468935e+01 1.0792570287269335e+01 -2.1587851639854087e+01
125 2.2103916085647114e+01 1.1814789295900214e+01 -2.1502456933936163e+01
126 2.2080339258205470e+01 1.1802187219082265e+01 -2.1203650439917606e+01
127 2.3976469976554434e+01 1.2815690203258161e+01 -2.1502456933936159e+01
128 2.4000046803996078e+01 1.2828292280076109e+01 -2.1203650439917602e+01
129 2.5879870987515826e+01 1.3833079239797019e+01 -2.1887676618293490e+01
130 2.5888907229732613e+01 1.3837909211889041e+01 -2.1587851639854087e+01
131 2.7795060664101037e+01 1.4856769449389809e+01 -2.1649091100843687e+01
132 2.7765978989845333e+01 1.4841224970648042e+01 -2.1350908899156313e+01
133 8.3284051293710295e+00 5.5648623953832361e+00 -2.1649091100843687e+01
134 8.3009871166798757e+00 5.5465422650088074e+00 -2.1350908899156313e+01
135 1.0098096134381761e+01 6.7473321206493422e+00 -2.1412148360145913e+01
136 1.0106615444570089e+01 6.7530245417269912e+00 -2.1112323381706510e+01
137 1.1878901416405695e+01 7.9372281683915880e+00 -2.1796349560082398e+01
138 1.1901129495447099e+01 7.9520804959690352e+00 -2.1497543066063841e+01
139 1.3688789161897569e+01 9.1465564969611783e+00 -2.1796349560082398e+01
140 1.3666561082856168e+01 9.1317041693837329e+00 -2.1497543066063841e+01
141 1.5469594443921507e+01 1.0336452544703425e+01 -2.1412148360145913e+01
142 1.5461075133733178e+01 1.0330760123625778e+01 -2.1112323381706510e+01
143 1.7239285448932240e+01 1.1518922269969531e+01 -2.1649091100843687e+01
144 1.7266703461623390e+01 1.1537242400343958e+01 -2.1350908899156313e+01
145 1.9044913776822447e+01 1.2725404546687713e+01 -2.1887676618293490e+01
146 1.9036394466634121e+01 1.2719712125610066e+01 -2.1587851639854087e+01
147 2.0839427827699456e+01 1.3924460500929756e+01 -2.1502456933936163e+01
148 2.0817199748658055e+01 1.3909608173352311e+01 -2.1203650439917606e+01
149 2.2604859415108528e+01 1.5104084174344456e+01 -2.1502456933936159e+01
150 2.2627087494149929e+01 1.5118936501921901e+01 -2.1203650439917602e+01
151 2.4399373465985537e+01 1.6303140128586499e+01 -2.1887676618293490e+01
152 2.4407892776173863e+01 1.6308832549664146e+01 -2.1587851639854087e+01
153 2.6205001793875752e+01 1.7509622405304683e+01 -2.1649091100843687e+01
154 2.6177583781184598e+01 1.7491302274930256e+01 -2.1350908899156313e+01
155 7.7428496839654573e+00 6.3543925162048458e+00 -2.1649091100843687e+01
156 7.7173593832892831e+00 6.3334731670680640e+00 -2.1350908899156313e+01
157 9.3881168420844432e+00 7.7046283781200415e+00 -2.1412148360145913e+01
158 9.3960371746300666e+00 7.7111284270565443e+00 -2.1112323381706510e+01
159 1.1043716852042696e+01 9.0633441923884970e+00 -2.1796349560082398e+01
160 1.1064382114131584e+01 9.0803037346917641e+00 -2.1497543066063841e+01
161 1.2726354588861465e+01 1.0444249295643599e+01 -2.1796349560082398e+01
162 1.2705689326772580e+01 1.0427289753340336e+01 -2.1497543066063841e+01
163 1.4381954598819721e+01 1.1802965109912058e+01 -2.1412148360145913e+01
164 1.4374034266274098e+01 1.1796465060975555e+01 -2.1112323381706510e+01
165 1.6027221756938708e+01 1.3153200971827253e+01 -2.1649091100843687e+01
166 1.6052712057614880e+01 1.3174120320964034e+01 -2.1350908899156313e+01
167 1.7705899548279486e+01 1.4530856231815733e+01 -2.1887676618293490e+01
168 1.7697979215733863e+01 1.4524356182879229e+01 -2.1587851639854087e+01
169 1.9374244487781002e+01 1.5900031539450950e+01 -2.1502456933936163e+01
170 1.9353579225692116e+01 1.5883071997147686e+01 -2.1203650439917606e+01
171 2.1015551700422002e+01 1.7247017558099525e+01 -2.1502456933936159e+01
172 2.1036216962510888e+01 1.7263977100402787e+01 -2.1203650439917602e+01
173 2.2683896639923518e+01 1.8616192865734742e+01 -2.1887676618293490e+01
174 2.2691816972469141e+01 1.8622692914671244e+01 -2.1587851639854087e+01
175 2.4362574431264299e+01 1.9993848125723222e+01 -2.1649091100843687e+01
176 2.4337084130588128e+01 1.9972928776586443e+01 -2.1350908899156313e+01
177 7.0827263634311093e+00 7.0827263634311084e+00 -2.1649091100843687e+01
178 7.0594092602998417e+00 7.0594092602998408e+00 -2.1350908899156313e+01
179 8.5877248525311476e+00 8.5877248525311458e+00 -2.1412148360145913e+01
180 8.5949699303019589e+00 8.5949699303019571e+00 -2.1112323381706510e+01
181 1.0102175257284793e+01 1.0102175257284792e+01 -2.1796349560082398e+01
182 1.0121078684650469e+01 1.0121078684650467e+01 -2.1497543066063841e+01
183 1.1641358264201543e+01 1.1641358264201541e+01 -2.1796349560082398e+01
184 1.1622454836835871e+01 1.1622454836835869e+01 -2.1497543066063841e+01
185 1.3155808668955190e+01 1.3155808668955189e+01 -2.1412148360145913e+01
186 1.3148563591184381e+01 1.3148563591184379e+01 -2.1112323381706510e+01
187 1.4660807158055229e+01 1.4660807158055228e+01 -2.1649091100843687e+01
188 1.4684124261186495e+01 1.4684124261186492e+01 -2.1350908899156313e+01
189 1.6196367828057344e+01 1.6196367828057340e+01 -2.1887676618293490e+01
190 1.6189122750286533e+01 1.6189122750286529e+01 -2.1587851639854087e+01
191 1.7722476582405850e+01 1.7722476582405847e+01 -2.1502456933936163e+01
192 1.7703573155040178e+01 1.7703573155040175e+01 -2.1203650439917606e+01
193 1.9223852734591258e+01 1.9223852734591254e+01 -2.1502456933936159e+01
194 1.9242756161956930e+01 1.9242756161956926e+01 -2.1203650439917602e+01
195 2.0749961488939764e+01 2.0749961488939761e+01 -2.1887676618293490e+01
196 2.0757206566710575e+01 2.0757206566710572e+01 -2.1587851639854087e+01
197 2.2285522158941880e+01 2.2285522158941877e+01 -2.1649091100843687e+01
198 2.2262205055810615e+01 2.2262205055810611e+01 -2.1350908899156313e+01
199 6.3543925162048458e+00 7.7428496839654573e+00 -2.1649091100843687e+01
200 6.3334731670680640e+00 7.7173593832892831e+00 -2.1350908899156313e+01
201 7.7046283781200415e+00 9.3881168420844432e+00 -2.1412148360145913e+01
202 7.7111284270565443e+00 9.3960371746300666e+00 -2.1112323381706510e+01
203 9.0633441923884970e+00 1.1043716852042696e+01 -2.1796349560082398e+01
204 9.0803037346917641e+00 1.1064382114131584e+01 -2.1497543066063841e+01
205 1.0444249295643599e+01 1.2726354588861465e+01 -2.1796349560082398e+01
206 1.0427289753340336e+01 1.2705689326772580e+01 -2.1497543066063841e+01
207 1.1802965109912058e+01 1.4381954598819721e+01 -2.1412148360145913e+01
208 1.1796465060975555e+01 1.4374034266274098e+01 -2.1112323381706510e+01
209 1.3153200971827253e+01 1.6027221756938708e+01 -2.1649091100843687e+01
210 1.3174120320964034e+01 1.6052712057614880e+01 -2.1350908899156313e+01
211 1.4530856231815733e+01 1.7705899548279486e+01 -2.1887676618293490e+01
212 1.4524356182879229e+01 1.7697979215733863e+01 -2.1587851639854087e+01
213 1.5900031539450950e+01 1.9374244487781002e+01 -2.1502456933936163e+01
214 1.5883071997147686e+01 1.9353579225692116e+01 -2.1203650439917606e+01
215 1.7247017558099525e+01 2.1015551700422002e+01 -2.1502456933936159e+01
216 1.7263977100402787e+01 2.1036216962510888e+01 -2.1203650439917602e+01
217 1.8616192865734742e+01 2.2683896639923518e+01 -2.1887676618293490e+01
218 1.8622692914671244e+01 2.2691816972469141e+01 -2.1587851639854087e+01
219 1.9993848125723222e+01 2.4362574431264299e+01 -2.1649091100843687e+01
220 1.9972928776586443e+01 2.4337084130588128e+01 -2.1350908899156313e+01
221 5.5648623953832370e+00 8.3284051293710295e+00 -2.1649091100843687e+01
222 5.5465422650088083e+00 8.3009871166798757e+00 -2.1350908899156313e+01
223 6.7473321206493440e+00 1.0098096134381761e+01 -2.1412148360145913e+01
224 6.7530245417269921e+00 1.0106615444570089e+01 -2.1112323381706510e+01
225 7.9372281683915888e+00 1.1878901416405695e+01 -2.1796349560082398e+01
226 7.9520804959690370e+00 1.1901129495447099e+01 -2.1497543066063841e+01
227 9.1465564969611801e+00 1.3688789161897569e+01 -2.1796349560082398e+01
228 9.1317041693837346e+00 1.3666561082856168e+01 -2.1497543066063841e+01
229 1.0336452544703427e+01 1.5469594443921507e+01 -2.1412148360145913e+01
230 1.0330760123625780e+01 1.5461075133733178e+01 -2.1112323381706510e+01
231 1.1518922269969535e+01 1.7239285448932240e+01 -2.1649091100843687e+01
232 1.1537242400343962e+01 1.7266703461623390e+01 -2.1350908899156313e+01
233 1.2725404546687717e+01 1.9044913776822447e+01 -2.1887676618293490e+01
234 1.2719712125610068e+01 1.9036394466634121e+01 -2.1587851639854087e+01
235 1.3924460500929758e+01 2.0839427827699456e+01 -2.1502456933936163e+01
236 1.3909608173352312e+01 2.0817199748658055e+01 -2.1203650439917606e+01
237 1.5104084174344459e+01 2.2604859415108528e+01 -2.1502456933936159e+01
238 1.5118936501921905e+01 2.2627087494149929e+01 -2.1203650439917602e+01
239 1.6303140128586502e+01 2.4399373465985537e+01 -2.1887676618293490e+01
240 1.6308832549664150e+01 2.4407892776173863e+01 -2.1587851639854087e+01
241 1.7509622405304686e+01 2.6205001793875752e+01 -2.1649091100843687e+01
242 1.7491302274930259e+01 2.6177583781184598e+01 -2.1350908899156313e+01
243 4.7217396076308624e+00 8.8337534806114029e+00 -2.1649091100843687e+01
244 4.7061951288890933e+00 8.8046718063556959e+00 -2.1350908899156313e+01
245 5.7250553663898627e+00 1.0710825240724118e+01 -2.1412148360145913e+01
246 5.7298853384818846e+00 1.0719861482940907e+01 -2.1112323381706510e+01
247 6.7346722982027938e+00 1.2599685666460653e+01 -2.1796349560082398e+01
248 6.7472743750207442e+00 1.2623262493902299e+01 -2.1497543066063841e+01
249 7.7607773591966378e+00 1.4519393212251259e+01 -2.1796349560082398e+01
250 7.7481752823786891e+00 1.4495816384809617e+01 -2.1497543066063841e+01
251 8.7703942910095716e+00 1.6408253637987798e+01 -2.1412148360145913e+01
252 8.7655643189175496e+00 1.6399217395771007e+01 -2.1112323381706510e+01
253 9.7737100497685709e+00 1.8285325398100515e+01 -2.1649091100843687e+01
254 9.7892545285103374e+00 1.8314407072356218e+01 -2.1350908899156313e+01
255 1.0797400259361360e+01 2.0200515074685722e+01 -2.1887676618293490e+01
256 1.0792570287269339e+01 2.0191478832468931e+01 -2.1587851639854087e+01
257 1.1814789295900217e+01 2.2103916085647111e+01 -2.1502456933936163e+01
258 1.1802187219082269e+01 2.2080339258205466e+01 -2.1203650439917606e+01
259 1.2815690203258166e+01 2.3976469976554430e+01 -2.1502456933936159e+01
260 1.2828292280076115e+01 2.4000046803996074e+01 -2.1203650439917602e+01
261 1.3833079239797023e+01 2.5879870987515822e+01 -2.1887676618293490e+01
262 1.3837909211889047e+01 2.5888907229732609e+01 -2.1587851639854087e+01
263 1.4856769449389814e+01 2.7795060664101033e+01 -2.1649091100843687e+01
264 1.4841224970648048e+01 2.7765978989845330e+01 -2.1350908899156313e+01
265 3.8331438862915728e+00 9.2540279568126262e+00 -2.1649091100843687e+01
266 3.8205247610102240e+00 9.2235626934131094e+00 -2.1350908899156313e+01
267 4.6476431993184324e+00 1.1220403244865640e+01 -2.1412148360145913e+01
268 4.6515642071532506e+00 1.1229869395158630e+01 -2.1112323381706510e+01
269 5.4672578522359352e+00 1.3199128055858790e+01 -2.1796349560082398e+01
270 5.4774883134056349e+00 1.3223826573964011e+01 -2.1497543066063841e+01
271 6.3002576929905771e+00 1.5210167568863275e+01 -2.1796349560082398e+01
272 6.2900272318208783e+00 1.5185469050758057e+01 -2.1497543066063841e+01
273 7.1198723459080808e+00 1.7188892379856430e+01 -2.1412148360145913e+01
274 7.1159513380732626e+00 1.7179426229563440e+01 -2.1112323381706510e+01
275 7.9343716589349400e+00 1.9155267667909442e+01 -2.1649091100843687e+01
276 7.9469907842162879e+00 1.9185732931308955e+01 -2.1350908899156313e+01
277 8.7654111050779662e+00 2.1161574369654961e+01 -2.1887676618293490e+01
278 8.7614900972431471e+00 2.1152108219361970e+01 -2.1587851639854087e+01
279 9.5913352113303496e+00 2.3155531548460338e+01 -2.1502456933936163e+01
280 9.5811047501606499e+00 2.3130833030355120e+01 -2.1203650439917606e+01
281 1.0403874129745594e+01 2.5117174025254389e+01 -2.1502456933936159e+01
282 1.0414104590915294e+01 2.5141872543359607e+01 -2.1203650439917602e+01
283 1.1229798235997977e+01 2.7111131204059770e+01 -2.1887676618293490e+01
284 1.1233719243832795e+01 2.7120597354352761e+01 -2.1587851639854087e+01
285 1.2060837682141004e+01 2.9117437905805289e+01 -2.1649091100843687e+01
286 1.2048218556859656e+01 2.9086972642405776e+01 -2.1350908899156313e+01
287 2.9076328939177003e+00 9.5851810850234802e+00 -2.1649091100843687e+01
288 2.8980606511715465e+00 9.5536256296206972e+00 -2.1350908899156313e+01
289 3.5254716875773551e+00 1.1621922632062766e+01 -2.1412148360145913e+01
290 3.5284459697060799e+00 1.1631727526229913e+01 -2.1112323381706510e+01
291 4.1471907244448882e+00 1.3671455626701658e+01 -2.1796349560082398e+01
292 4.1549510450327354e+00 1.3697037975239519e+01 -2.1497543066063841e+01
293 4.7790631011298279e+00 1.5754459697063766e+01 -2.1796349560082398e+01
294 4.7713027805419825e+00 1.5728877348525907e+01 -2.1497543066063841e+01
295 5.4007821379973624e+00 1.7803992691702661e+01 -2.1412148360145913e+01
296 5.3978078558686375e+00 1.7794187797535514e+01 -2.1112323381706510e+01
297 6.0186209316570167e+00 1.9840734238741945e+01 -2.1649091100843687e+01
298 6.0281931744031700e+00 1.9872289694144726e+01 -2.1350908899156313e+01
299 6.6490062501915492e+00 2.1918836135351157e+01 -2.1887676618293490e+01
300 6.6460319680628244e+00 2.1909031241184010e+01 -2.1587851639854087e+01
301 7.2755113255182033e+00 2.3984146584360758e+01 -2.1502456933936163e+01
302 7.2677510049303580e+00 2.3958564235822902e+01 -2.1203650439917606e+01
303 7.8918630610274523e+00 2.6015985957647153e+01 -2.1502456933936159e+01
304 7.8996233816152985e+00 2.6041568306185010e+01 -2.1203650439917602e+01
305 8.5183681363541073e+00 2.8081296406656758e+01 -2.1887676618293490e+01
306 8.5213424184828312e+00 2.8091101300823905e+01 -2.1587851639854087e+01
307 9.1487534548886398e+00 3.0159398303265970e+01 -2.1649091100843687e+01
308 9.1391812121424874e+00 3.0127842847863192e+01 -2.1350908899156313e+01
309 1.9541198073015800e+00 9.8240236795925817e+00 -2.1649091100843687e+01
310 1.9476866330209868e+00 9.7916819284720269e+00 -2.1350908899156313e+01
311 2.3693479562660476e+00 1.1911516551123965e+01 -2.1412148360145913e+01
312 2.3713468687258707e+00 1.1921565762674536e+01 -2.1112323381706510e+01
313 2.7871838828923803e+00 1.4012119606281523e+01 -2.1796349560082398e+01
314 2.7923993267688902e+00 1.4038339413250869e+01 -2.1497543066063841e+01
315 3.2118435191035655e+00 1.6147027766117809e+01 -2.1796349560082398e+01
316 3.2066280752270564e+00 1.6120807959148468e+01 -2.1497543066063841e+01
317 3.6296794457298991e+00 1.8247630821275372e+01 -2.1412148360145913e+01
318 3.6276805332700754e+00 1.8237581609724803e+01 -2.1112323381706510e+01
319 4.0449075946943669e+00 2.0335123692806757e+01 -2.1649091100843687e+01
320 4.0513407689749590e+00 2.0367465443927308e+01 -2.1350908899156313e+01
321 4.4685678303992500e+00 2.2465007527009263e+01 -2.1887676618293490e+01
322 4.4665689179394272e+00 2.2454958315458690e+01 -2.1587851639854087e+01
323 4.8896202884422690e+00 2.4581781177585590e+01 -2.1502456933936163e+01
324 4.8844048445657595e+00 2.4555561370616250e+01 -2.1203650439917606e+01
325 5.3038490369004361e+00 2.6664249723483195e+01 -2.1502456933936159e+01
326 5.3090644807769447e+00 2.6690469530452539e+01 -2.1203650439917602e+01
327 5.7249014949434542e+00 2.8781023374059526e+01 -2.1887676618293490e+01
328 5.7269004074032779e+00 2.8791072585610095e+01 -2.1587851639854087e+01
329 6.1485617306483382e+00 3.0910907208262035e+01 -2.1649091100843687e+01
330 6.1421285563677461e+00 3.0878565457141484e+01 -2.1350908899156313e+01
331 9.8178747871059746e-01 9.9682555557695860e+00 -2.1649091100843687e+01
332 9.7855532788061794e-01 9.9354389776743517e+00 -2.1350908899156313e+01
333 1.1904061089185549e+00 1.2086396054300538e+01 -2.1412148360145913e+01
334 1.1914104010897719e+00 1.2096592803833845e+01 -2.1112323381706510e+01
335 1.4003349369179239e+00 1.4217839214249160e+01 -2.1796349560082398e+01
336 1.4029552765075144e+00 1.4244443968575670e+01 -2.1497543066063841e+01
337 1.6136921282160697e+00 1.6384091130920890e+01 -2.1796349560082398e+01
338 1.6110717886264796e+00 1.6357486376594384e+01 -2.1497543066063841e+01
339 1.8236209562154391e+00 1.8515534290869518e+01 -2.1412148360145913e+01
340 1.8226166640442218e+00 1.8505337541336207e+01 -2.1112323381706510e+01
341 2.0322395864233962e+00 2.0633674789400470e+01 -2.1649091100843687e+01
342 2.0354717372533755e+00 2.0666491367495698e+01 -2.1350908899156313e+01
343 2.2450946596325498e+00 2.2794828615559961e+01 -2.1887676618293490e+01
344 2.2440903674613328e+00 2.2784631866026650e+01 -2.1587851639854087e+01
345 2.4566395350502921e+00 2.4942679780301781e+01 -2.1502456933936163e+01
346 2.4540191954607020e+00 2.4916075025975275e+01 -2.1203650439917606e+01
347 2.6647560471692580e+00 2.7055722188320498e+01 -2.1502456933936159e+01
348 2.6673763867588480e+00 2.7082326942647008e+01 -2.1203650439917602e+01
349 2.8763009225869998e+00 2.9203573353062321e+01 -2.1887676618293490e+01
350 2.8773052147582168e+00 2.9213770102595628e+01 -2.1587851639854087e+01
351 3.0891559957961539e+00 3.1364727179221816e+01 -2.1649091100843687e+01
352 3.0859238449661746e+00 3.1331910601126584e+01 -2.1350908899156313e+01
353 6.1333297890719602e-16 1.0016487681741745e+01 -2.1649091100843687e+01
354 6.1131382024015714e-16 9.9835123182582546e+00 -2.1350908899156313e+01
355 7.4365923453334053e-16 1.2144876956378036e+01 -2.1412148360145913e+01
356 7.4428662643069365e-16 1.2155123043621964e+01 -2.1112323381706510e+01
357 8.7480398451981189e-16 1.4286633258322064e+01 -2.1796349560082398e+01
358 8.7644093826090331e-16 1.4313366741677937e+01 -2.1497543066063841e+01
359 1.0080904691692436e-15 1.6463366741677934e+01 -2.1796349560082398e+01
360 1.0064535154281525e-15 1.6436633258322065e+01 -2.1497543066063841e+01
361 1.1392352191557151e-15 1.8605123043621965e+01 -2.1412148360145913e+01
362 1.1386078272583620e-15 1.8594876956378037e+01 -2.1112323381706510e+01
363 1.2695614747818596e-15 2.0733512318258256e+01 -2.1649091100843687e+01
364 1.2715806334488982e-15 2.0766487681741744e+01 -2.1350908899156313e+01
365 1.4025342809723959e-15 2.2905123043621963e+01 -2.1887676618293490e+01
366 1.4019068890750427e-15 2.2894876956378035e+01 -2.1587851639854087e+01
367 1.5346885928026054e-15 2.5063366741677932e+01 -2.1502456933936163e+01
368 1.5330516390615141e-15 2.5036633258322063e+01 -2.1203650439917606e+01
369 1.6647011699698547e-15 2.7186633258322065e+01 -2.1502456933936159e+01
370 1.6663381237109460e-15 2.7213366741677934e+01 -2.1203650439917602e+01
371 1.7968554818000640e-15 2.9344876956378034e+01 -2.1887676618293490e+01
372 1.7974828736974171e-15 2.9355123043621962e+01 -2.1587851639854087e+01
373 1.9298282879906004e-15 3.1516487681741744e+01 -2.1649091100843687e+01
374 1.9278091293235619e-15 3.1483512318258256e+01 -2.1350908899156313e+01
$EndNodes
$Elements
960
1 4 2 0 0 1 23 25 26
2 4 2 0 0 1 25 3 26
3 4 2 0 0 1 3 4 26
4 4 2 0 0 1 4 2 26
5 4 2 0 0 1 2 24 26
6 4 2 0 0 1 24 23 26
7 4 2 0 0 3 25 27 28
8 4 2 0 0 3 27 5 28
9 4 2 0 0 3 5 6 28
10 4 2 0 0 3 6 4 28
11 4 2 0 0 3 4 26 28
12 4 2 0 0 3 26 25 28
13 4 2 0 0 5 27 29 30
14 4 2 0 0 5 29 7 30
15 4 2 0 0 5 7 8 30
16 4 2 0 0 5 8 6 30
17 4 2 0 0 5 6 28 30
18 4 2 0 0 5 28 27 30
19 4 2 0 0 7 29 31 32
20 4 2 0 0 7 31 9 32
21 4 2 0 0 7 9 10 32
22 4 2 0 0 7 10 8 32
23 4 2 0 0 7 8 30 32
24 4 2 0 0 7 30 29 32
25 4 2 0 0 9 31 33 34
26 4 2 0 0 9 33 11 34
27 4 2 0 0 9 11 12 34
28 4 2 0 0 9 12 10 34
29 4 2 0 0 9 10 32 34
30 4 2 0 0 9 32 31 34
31 4 2 0 0 11 33 35 36
32 4 2 0 0 11 35 13 36
33 4 2 0 0 11 13 14 36
34 4 2 0 0 11 14 12 36
35 4 2 0 0 11 12 34 36
36 4 2 0 0 11 34 33 36
37 4 2 0 0 13 35 37 38
38 4 2 0 0 13 37 15 38
39 4 2 0 0 13 15 16 38
40 4 2 0 0 13 16 14 38
41 4 2 0 0 13 14 36 38
42 4 2 0 0 13 36 35 38
43 4 2 0 0 15 37 39 40
44 4 2 0 0 15 39 17 40
45 4 2 0 0 15 17 18 40
46 4 2 0 0 15 18 16 40
47 4 2 0 0 15 16 38 40
48 4 2 0 0 15 38 37 40
49 4 2 0 0 17 39 41 42
50 4 2 0 0 17 41 19 42
51 4 2 0 0 17 19 20 42
52 4 2 0 0 17 20 18 42
53 4 2 0 0 17 18 40 42
54 4 2 0 0 17 40 39 42
55 4 2 0 0 19 41 43 44
56 4 2 0 0 19 43 21 44
57 4 2 0 0 19 21 22 44
58 4 2 0 0 19 22 20 44
59 4 2 0 0 19 20 42 44
60 4 2 0 0 19 42 41 44
61 4 2 0 0 23 45 47 48
62 4 2 0 0 23 47 25 48
63 4 2 0 0 23 25 26 48
64 4 2 0 0 23 26 24 48
65 4 2 0 0 23 24 46 48
66 4 2 0 0 23 46 45 48
67 4 2 0 0 25 47 49 50
68 4 2 0 0 25 49 27 50
69 4 2 0 0 25 27 28 50
70 4 2 0 0 25 28 26 50
71 4 2 0 0 25 26 48 50
72 4 2 0 0 25 48 47 50
73 4 2 0 0 27 49 51 52
74 4 2 0 0 27 51 29 52
75 4 2 0 0 27 29 30 52
76 4 2 0 0 27 30 28 52
77 4 2 0 0 27 28 50 52
78 4 2 0 0 27 50 49 52
79 4 2 0 0 29 51 53 54
80 4 2 0 0 29 53 31 54
81 4 2 0 0 29 31 32 54
82 4 2 0 0 29 32 30 54
83 4 2 0 0 29 30 52 54
84 4 2 0 0 29 52 51 54
85 4 2 0 0 31 53 55 56
86 4 2 0 0 31 55 33 56
87 4 2 0 0 31 33 34 56
88 4 2 0 0 31 34 32 56
89 4 2 0 0 31 32 54 56
90 4 2 0 0 31 54 53 56
91 4 2 0 0 33 55 57 58
92 4 2 0 0 33 57 35 58
93 4 2 0 0 33 35 36 58
94 4 2 0 0 33 36 34 58
95 4 2 0 0 33 34 56 58
96 4 2 0 0 33 56 55 58
97 4 2 0 0 35 57 59 60
98 4 2 0 0 35 59 37 60
99 4 2 0 0 35 37 38 60
100 4 2 0 0 35 38 36 60
101 4 2 0 0 35 36 58 60
102 4 2 0 0 35 58 57 60
103 4 2 0 0 37 59 61 62
104 4 2 0 0 37 61 39 62
105 4 2 0 0 37 39 40 62
106 4 2 0 0 37 40 38 62
107 4 2 0 0 37 38 60 62
108 4 2 0 0 37 60 59 62
109 4 2 0 0 39 61 63 64
110 4 2 0 0 39 63 41 64
111 4 2 0 0 39 41 42 64
112 4 2 0 0 39 42 40 64
113 4 2 0 0 39 40 62 64
114 4 2 0 0 39 62 61 64
115 4 2 0 0 41 63 65 66
116 4 2 0 0 41 65 43 66
117 4 2 0 0 41 43 44 66
118 4 2 0 0 41 44 42 66
119 4 2 0 0 41 42 64 66
120 4 2 0 0 41 64 63 66
121 4 2 0 0 45 67 69 70
122 4 2 0 0 45 69 47 70
123 4 2 0 0 45 47 48 70
124 4 2 0 0 45 48 46 70
125 4 2 0 0 45 46 68 70
126 4 2 0 0 45 68 67 70
127 4 2 0 0 47 69 71 72
128 4 2 0 0 47 71 49 72
129 4 2 0 0 47 49 50 72
130 4 2 0 0 47 50 48 72
131 4 2 0 0 47 48 70 72
132 4 2 0 0 47 70 69 72
133 4 2 0 0 49 71 73 74
134 4 2 0 0 49 73 51 74
135 4 2 0 0 49 51 52 74
136 4 2 0 0 49 52 50 74
137 4 2 0 0 49 50 72 74
138 4 2 0 0 49 72 71 74
139 4 2 0 0 51 73 75 76
140 4 2 0 0 51 75 53 76
141 4 2 0 0 51 53 54 76
142 4 2 0 0 51 54 52 76
143 4 2 0 0 51 52 74 76
144 4 2 0 0 51 74 73 76
145 4 2 0 0 53 75 77 78
146 4 2 0 0 53 77 55 78
147 4 2 0 0 53 55 56 78
148 4 2 0 0 53 56 54 78
149 4 2 0 0 53 54 76 78
150 4 2 0 0 53 76 75 78
151 4 2 0 0 55 77 79 80
152 4 2 0 0 55 79 57 80
153 4 2 0 0 55 57 58 80
154 4 2 0 0 55 58 56 80
155 4 2 0 0 55 56 78 80
156 4 2 0 0 55 78 77 80
157 4 2 0 0 57 79 81 82
158 4 2 0 0 57 81 59 82
159 4 2 0 0 57 59 60 82
160 4 2 0 0 57 60 58 82
161 4 2 0 0 57 58 80 82
162 4 2 0 0 57 80 79 82
163 4 2 0 0 59 81 83 84
164 4 2 0 0 59 83 61 84
165 4 2 0 0 59 61 62 84
166 4 2 0 0 59 62 60 84
167 4 2 0 0 59 60 82 84
168 4 2 0 0 59 82 81 84
169 4 2 0 0 61 83 85 86
170 4 2 0 0 61 85 63 86
171 4 2 0 0 61 63 64 86
172 4 2 0 0 61 64 62 86
173 4 2 0 0 61 62 84 86
174 4 2 0 0 61 84 83 86
175 4 2 0 0 63 85 87 88
176 4 2 0 0 63 87 65 88
177 4 2 0 0 63 65 66 88
178 4 2 0 0 63 66 64 88
179 4 2 0 0 63 64 86 88
180 4 2 0 0 63 86 85 88
181 4 2 0 0 67 89 91 92
182 4 2 0 0 67 91 69 92
183 4 2 0 0 67 69 70 92
184 4 2 0 0 67 70 68 92
185 4 2 0 0 67 68 90 92
186 4 2 0 0 67 90 89 92
187 4 2 0 0 69 91 93 94
188 4 2 0 0 69 93 71 94
189 4 2 0 0 69 71 72 94
190 4 2 0 0 69 72 70 94
191 4 2 0 0 69 70 92 94
192 4 2 0 0 69 92 91 94
193 4 2 0 0 71 93 95 96
194 4 2 0 0 71 95 73 96
195 4 2 0 0 71 73 74 96
196 4 2 0 0 71 74 72 96
197 4 2 0 0 71 72 94 96
198 4 2 0 0 71 94 93 96
199 4 2 0 0 73 95 97 98
200 4 2 0 0 73 97 75 98
201 4 2 0 0 73 75 76 98
202 4 2 0 0 73 76 74 98
203 4 2 0 0 73 74 96 98
204 4 2 0 0 73 96 95 98
205 4 2 0 0 75 97 99 100
206 4 2 0 0 75 99 77 100
207 4 2 0 0 75 77 78 100
208 4 2 0 0 75 78 76 100
209 4 2 0 0 75 76 98 100
210 4 2 0 0 75 98 97 100
211 4 2 0 0 77 99 101 102
212 4 2 0 0 77 101 79 102
213 4 2 0 0 77 79 80 102
214 4 2 0 0 77 80 78 102
215 4 2 0 0 77 78 100 102
216 4 2 0 0 77 100 99 102
217 4 2 0 0 79 101 103 104
218 4 2 0 0 79 103 81 104
219 4 2 0 0 79 81 82 104
220 4 2 0 0 79 82 80 104
221 4 2 0 0 79 80 102 104
222 4 2 0 0 79 102 101 104
223 4 2 0 0 81 103 105 106
224 4 2 0 0 81 105 83 106
225 4 2 0 0 81 83 84 106
226 4 2 0 0 81 84 82 106
227 4 2 0 0 81 82 104 106
228 4 2 0 0 81 104 103 106
229 4 2 0 0 83 105 107 108
230 4 2 0 0 83 107 85 108
231 4 2 0 0 83 85 86 108
232 4 2 0 0 83 86 84 108
233 4 2 0 0 83 84 106 108
234 4 2 0 0 83 106 105 108
235 4 2 0 0 85 107 109 110
236 4 2 0 0 85 109 87 110
237 4 2 0 0 85 87 88 110
238 4 2 0 0 85 88 86 110
239 4 2 0 0 85 86 108 110
240 4 2 0 0 85 108 107 110
241 4 2 0 0 89 111 113 114
242 4 2 0 0 89 113 91 114
243 4 2 0 0 89 91 92 114
244 4 2 0 0 89 92 90 114
245 4 2 0 0 89 90 112 114
246 4 2 0 0 89 112 111 114
247 4 2 0 0 91 113 115 116
248 4 2 0 0 91 115 93 116
249 4 2 0 0 91 93 94 116
250 4 2 0 0 91 94 92 116
251 4 2 0 0 91 92 114 116
252 4 2 0 0 91 114 113 116
253 4 2 0 0 93 115 117 118
254 4 2 0 0 93 117 95 118
255 4 2 0 0 93 95 96 118
256 4 2 0 0 93 96 94 118
257 4 2 0 0 93 94 116 118
258 4 2 0 0 93 116 115 118
259 4 2 0 0 95 117 119 120
260 4 2 0 0 95 119 97 120
261 4 2 0 0 95 97 98 120
262 4 2 0 0 95 98 96 120
263 4 2 0 0 95 96 118 120
264 4 2 0 0 95 118 117 120
265 4 2 0 0 97 119 121 122
266 4 2 0 0 97 121 99 122
267 4 2 0 0 97 99 100 122
268 4 2 0 0 97 100 98 122
269 4 2 0 0 97 98 120 122
270 4 2 0 0 97 120 119 122
271 4 2 0 0 99 121 123 124
272 4 2 0 0 99 123 101 124
273 4 2 0 0 99 101 102 124
274 4 2 0 0 99 102 100 124
275 4 2 0 0 99 100 122 124
276 4 2 0 0 99 122 121 124
277 4 2 0 0 101 123 125 126
278 4 2 0 0 101 125 103 126
279 4 2 0 0 101 103 104 126
280 4 2 0 0 101 104 102 126
281 4 2 0 0 101 102 124 126
282 4 2 0 0 101 124 123 126
283 4 2 0 0 103 125 127 128
284 4 2 0 0 103 127 105 128
285 4 2 0 0 103 105 106 128
286 4 2 0 0 103 106 104 128
287 4 2 0 0 103 104 126 128
288 4 2 0 0 103 126 125 128
289 4 2 0 0 105 127 129 130
290 4 2 0 0 105 129 107 130
291 4 2 0 0 105 107 108 130
292 4 2 0 0 105 108 106 130
293 4 2 0 0 105 106 128 130
294 4 2 0 0 105 128 127 130
295 4 2 0 0 107 129 131 132
296 4 2 0 0 107 131 109 132
297 4 2 0 0 107 109 110 132
298 4 2 0 0 107 110 108 132
299 4 2 0 0 107 108 130 132
300 4 2 0 0 107 130 129 132
301 4 2 0 0 111 133 135 136
302 4 2 0 0 111 135 113 136
303 4 2 0 0 111 113 114 136
304 4 2 0 0 111 114 112 136
305 4 2 0 0 111 112 134 136
306 4 2 0 0 111 134 133 136
307 4 2 0 0 113 135 137 138
308 4 2 0 0 113 137 115 138
309 4 2 0 0 113 115 116 138
310 4 2 0 0 113 116 114 138
311 4 2 0 0 113 114 136 138
312 4 2 0 0 113 136 135 138
313 4 2 0 0 115 137 139 140
314 4 2 0 0 115 139 117 140
315 4 2 0 0 115 117 118 140
316 4 2 0 0 115 118 116 140
317 4 2 0 0 115 116 138 140
318 4 2 0 0 115 138 137 140
319 4 2 0 0 117 139 141 142
320 4 2 0 0 117 141 119 142
321 4 2 0 0 117 119 120 142
322 4 2 0 0 117 120 118 142
323 4 2 0 0 117 118 140 142
324 4 2 0 0 117 140 139 142
325 4 2 0 0 119 141 143 144
326 4 2 0 0 119 143 121 144
327 4 2 0 0 119 121 122 144
328 4 2 0 0 119 122 120 144
329 4 2 0 0 119 120 142 144
330 4 2 0 0 119 142 141 144
331 4 2 0 0 121 143 145 146
332 4 2 0 0 121 145 123 146
333 4 2 0 0 121 123 124 146
334 4 2 0 0 121 124 122 146
335 4 2 0 0 121 122 144 146
336 4 2 0 0 121 144 143 146
337 4 2 0 0 123 145 147 148
338 4 2 0 0 123 147 125 148
339 4 2 0 0 123 125 126 148
340 4 2 0 0 123 126 124 148
341 4 2 0 0 123 124 146 148
342 4 2 0 0 123 146 145 148
343 4 2 0 0 125 147 149 150
344 4 2 0 0 125 149 127 150
345 4 2 0 0 125 127 128 150
346 4 2 0 0 125 128 126 150
347 4 2 0 0 125 126 148 150
348 4 2 0 0 125 148 147 150
349 4 2 0 0 127 149 151 152
350 4 2 0 0 127 151 129 152
351 4 2 0 0 127 129 130 152
352 4 2 0 0 127 130 128 152
353 4 2 0 0 127 128 150 152
354 4 2 0 0 127 150 149 152
355 4 2 0 0 129 151 153 154
356 4 2 0 0 129 153 131 154
357 4 2 0 0 129 131 132 154
358 4 2 0 0 129 132 130 154
359 4 2 0 0 129 130 152 154
360 4 2 0 0 129 152 151 154
361 4 2 0 0 133 155 157 158
362 4 2 0 0 133 157 135 158
363 4 2 0 0 133 135 136 158
364 4 2 0 0 133 136 134 158
365 4 2 0 0 133 134 156 158
366 4 2 0 0 133 156 155 158
367 4 2 0 0 135 157 159 160
368 4 2 0 0 135 159 137 160
369 4 2 0 0 135 137 138 160
370 4 2 0 0 135 138 136 160
371 4 2 0 0 135 136 158 160
372 4 2 0 0 135 158 157 160
373 4 2 0 0 137 159 161 162
374 4 2 0 0 137 161 139 162
375 4 2 0 0 137 139 140 162
376 4 2 0 0 137 140 138 162
377 4 2 0 0 137 138 160 162
378 4 2 0 0 137 160 159 162
379 4 2 0 0 139 161 163 164
380 4 2 0 0 139 163 141 164
381 4 2 0 0 139 141 142 164
382 4 2 0 0 139 142 140 164
383 4 2 0 0 139 140 162 164
384 4 2 0 0 139 162 161 164
385 4 2 0 0 141 163 165 166
386 4 2 0 0 141 165 143 166
387 4 2 0 0 141 143 144 166
388 4 2 0 0 141 144 142 166
389 4 2 0 0 141 142 164 166
390 4 2 0 0 141 164 163 166
391 4 2 0 0 143 165 167 168
392 4 2 0 0 143 167 145 168
393 4 2 0 0 143 145 146 168
394 4 2 0 0 143 146 144 168
395 4 2 0 0 143 144 166 168
396 4 2 0 0 143 166 165 168
397 4 2 0 0 145 167 169 170
398 4 2 0 0 145 169 147 170
399 4 2 0 0 145 147 148 170
400 4 2 0 0 145 148 146 170
401 4 2 0 0 145 146 168 170
402 4 2 0 0 145 168 167 170
403 4 2 0 0 147 169 171 172
404 4 2 0 0 147 171 149 172
405 4 2 0 0 147 149 150 172
406 4 2 0 0 147 150 148 172
407 4 2 0 0 147 148 170 172
408 4 2 0 0 147 170 169 172
409 4 2 0 0 149 171 173 174
410 4 2 0 0 149 173 151 174
411 4 2 0 0 149 151 152 174
412 4 2 0 0 149 152 150 174
413 4 2 0 0 149 150 172 174
414 4 2 0 0 149 172 171 174
415 4 2 0 0 151 173 175 176
416 4 2 0 0 151 175 153 176
417 4 2 0 0 151 153 154 176
418 4 2 0 0 151 154 152 176
419 4 2 0 0 151 152 174 176
420 4 2 0 0 151 174 173 176
421 4 2 0 0 155 177 179 180
422 4 2 0 0 155 179 157 180
423 4 2 0 0 155 157 158 180
424 4 2 0 0 155 158 156 180
425 4 2 0 0 155 156 178 180
426 4 2 0 0 155 178 177 180
427 4 2 0 0 157 179 181 182
428 4 2 0 0 157 181 159 182
429 4 2 0 0 157 159 160 182
430 4 2 0 0 157 160 158 182
431 4 2 0 0 157 158 180 182
432 4 2 0 0 157 180 179 182
433 4 2 0 0 159 181 183 184
434 4 2 0 0 159 183 161 184
435 4 2 0 0 159 161 162 184
436 4 2 0 0 159 162 160 184
437 4 2 0 0 159 160 182 184
438 4 2 0 0 159 182 181 184
439 4 2 0 0 161 183 185 186
440 4 2 0 0 161 185 163 186
441 4 2 0 0 161 163 164 186
442 4 2 0 0 161 164 162 186
443 4 2 0 0 161 162 184 186
444 4 2 0 0 161 184 183 186
445 4 2 0 0 163 185 187 188
446 4 2 0 0 163 187 165 188
447 4 2 0 0 163 165 166 188
448 4 2 0 0 163 166 164 188
449 4 2 0 0 163 164 186 188
450 4 2 0 0 163 186 185 188
451 4 2 0 0 165 187 189 190
452 4 2 0 0 165 189 167 190
453 4 2 0 0 165 167 168 190
454 4 2 0 0 165 168 166 190
455 4 2 0 0 165 166 188 190
456 4 2 0 0 165 188 187 190
457 4 2 0 0 167 189 191 192
458 4 2 0 0 167 191 169 192
459 4 2 0 0 167 169 170 192
460 4 2 0 0 167 170 168 192
461 4 2 0 0 167 168 190 192
462 4 2 0 0 167 190 189 192
463 4 2 0 0 169 191 193 194
464 4 2 0 0 169 193 171 194
465 4 2 0 0 169 171 172 194
466 4 2 0 0 169 172 170 194
467 4 2 0 0 169 170 192 194
468 4 2 0 0 169 192 191 194
469 4 2 0 0 171 193 195 196
470 4 2 0 0 171 195 173 196
471 4 2 0 0 171 173 174 196
472 4 2 0 0 171 174 172 196
473 4 2 0 0 171 172 194 196
474 4 2 0 0 171 194 193 196
475 4 2 0 0 173 195 197 198
476 4 2 0 0 173 197 175 198
477 4 2 0 0 173 175 176 198
478 4 2 0 0 173 176 174 198
479 4 2 0 0 173 174 196 198
480 4 2 0 0 173 196 195 198
481 4 2 0 0 177 199 201 202
482 4 2 0 0 177 201 179 202
483 4 2 0 0 177 179 180 202
484 4 2 0 0 177 180 178 202
485 4 2 0 0 177 178 200 202
486 4 2 0 0 177 200 199 202
487 4 2 0 0 179 201 203 204
488 4 2 0 0 179 203 181 204
489 4 2 0 0 179 181 182 204
490 4 2 0 0 179 182 180 204
491 4 2 0 0 179 180 202 204
492 4 2 0 0 179 202 201 204
493 4 2 0 0 181 203 205 206
494 4 2 0 0 181 205 183 206
495 4 2 0 0 181 183 184 206
496 4 2 0 0 181 184 182 206
497 4 2 0 0 181 182 204 206
498 4 2 0 0 181 204 203 206
499 4 2 0 0 183 205 207 208
500 4 2 0 0 183 207 185 208
501 4 2 0 0 183 185 186 208
502 4 2 0 0 183 186 184 208
503 4 2 0 0 183 184 206 208
504 4 2 0 0 183 206 205 208
505 4 2 0 0 185 207 209 210
506 4 2 0 0 185 209 187 210
507 4 2 0 0 185 187 188 210
508 4 2 0 0 185 188 186 210
509 4 2 0 0 185 186 208 210
510 4 2 0 0 185 208 207 210
511 4 2 0 0 187 209 211 212
512 4 2 0 0 187 211 189 212
513 4 2 0 0 187 189 190 212
514 4 2 0 0 187 190 188 212
515 4 2 0 0 187 188 210 212
516 4 2 0 0 187 210 209 212
517 4 2 0 0 189 211 213 214
518 4 2 0 0 189 213 191 214
519 4 2 0 0 189 191 192 214
520 4 2 0 0 189 192 190 214
521 4 2 0 0 189 190 212 214
522 4 2 0 0 189 212 211 214
523 4 2 0 0 191 213 215 216
524 4 2 0 0 191 215 193 216
525 4 2 0 0 191 193 194 216
526 4 2 0 0 191 194 192 216
527 4 2 0 0 191 192 214 216
528 4 2 0 0 191 214 213 216
529 4 2 0 0 193 215 217 218
530 4 2 0 0 193 217 195 218
531 4 2 0 0 193 195 196 218
532 4 2 0 0 193 196 194 218
533 4 2 0 0 193 194 216 218
534 4 2 0 0 193 216 215 218
535 4 2 0 0 195 217 219 220
536 4 2 0 0 195 219 197 220
537 4 2 0 0 195 197 198 220
538 4 2 0 0 195 198 196 220
539 4 2 0 0 195 196 218 220
540 4 2 0 0 195 218 217 220
541 4 2 0 0 199 221 223 224
542 4 2 0 0 199 223 201 224
543 4 2 0 0 199 201 202 224
544 4 2 0 0 199 202 200 224
545 4 2 0 0 199 200 222 224
546 4 2 0 0 199 222 221 224
547 4 2 0 0 201 223 225 226
548 4 2 0 0 201 225 203 226
549 4 2 0 0 201 203 204 226
550 4 2 0 0 201 204 202 226
551 4 2 0 0 201 202 224 226
552 4 2 0 0 201 224 223 226
553 4 2 0 0 203 225 227 228
554 4 2 0 0 203 227 205 228
555 4 2 0 0 203 205 206 228
556 4 2 0 0 203 206 204 228
557 4 2 0 0 203 204 226 228
558 4 2 0 0 203 226 225 228
559 4 2 0 0 205 227 229 230
560 4 2 0 0 205 229 207 230
561 4 2 0 0 205 207 208 230
562 4 2 0 0 205 208 206 230
563 4 2 0 0 205 206 228 230
564 4 2 0 0 205 228 227 230
565 4 2 0 0 207 229 231 232
566 4 2 0 0 207 231 209 232
567 4 2 0 0 207 209 210 232
568 4 2 0 0 207 210 208 232
569 4 2 0 0 207 208 230 232
570 4 2 0 0 207 230 229 232
571 4 2 0 0 209 231 233 234
572 4 2 0 0 209 233 211 234
573 4 2 0 0 209 211 212 234
574 4 2 0 0 209 212 210 234
575 4 2 0 0 209 210 232 234
576 4 2 0 0 209 232 231 234
577 4 2 0 0 211 233 235 236
578 4 2 0 0 211 235 213 236
579 4 2 0 0 211 213 214 236
580 4 2 0 0 211 214 212 236
581 4 2 0 0 211 212 234 236
582 4 2 0 0 211 234 233 236
583 4 2 0 0 213 235 237 238
584 4 2 0 0 213 237 215 238
585 4 2 0 0 213 215 216 238
586 4 2 0 0 213 216 214 238
587 4 2 0 0 213 214 236 238
588 4 2 0 0 213 236 235 238
589 4 2 0 0 215 237 239 240
590 4 2 0 0 215 239 217 240
591 4 2 0 0 215 217 218 240
592 4 2 0 0 215 218 216 240
593 4 2 0 0 215 216 238 240
594 4 2 0 0 215 238 237 240
595 4 2 0 0 217 239 241 242
596 4 2 0 0 217 241 219 242
597 4 2 0 0 217 219 220 242
598 4 2 0 0 217 220 218 242
599 4 2 0 0 217 218 240 242
600 4 2 0 0 217 240 239 242
601 4 2 0 0 221 243 245 246
602 4 2 0 0 221 245 223 246
603 4 2 0 0 221 223 224 246
604 4 2 0 0 221 224 222 246
605 4 2 0 0 221 222 244 246
606 4 2 0 0 221 244 243 246
607 4 2 0 0 223 245 247 248
608 4 2 0 0 223 247 225 248
609 4 2 0 0 223 225 226 248
610 4 2 0 0 223 226 224 248
611 4 2 0 0 223 224 246 248
612 4 2 0 0 223 246 245 248
613 4 2 0 0 225 247 249 250
614 4 2 0 0 225 249 227 250
615 4 2 0 0 225 227 228 250
616 4 2 0 0 225 228 226 250
617 4 2 0 0 225 226 248 250
618 4 2 0 0 225 248 247 250
619 4 2 0 0 227 249 251 252
620 4 2 0 0 227 251 229 252
621 4 2 0 0 227 229 230 252
622 4 2 0 0 227 230 228 252
623 4 2 0 0 227 228 250 252
624 4 2 0 0 227 250 249 252
625 4 2 0 0 229 251 253 254
626 4 2 0 0 229 253 231 254
627 4 2 0 0 229 231 232 254
628 4 2 0 0 229 232 230 254
629 4 2 0 0 229 230 252 254
630 4 2 0 0 229 252 251 254
631 4 2 0 0 231 253 255 256
632 4 2 0 0 231 255 233 256
633 4 2 0 0 231 233 234 256
634 4 2 0 0 231 234 232 256
635 4 2 0 0 231 232 254 256
636 4 2 0 0 231 254 253 256
637 4 2 0 0 233 255 257 258
638 4 2 0 0 233 257 235 258
639 4 2 0 0 233 235 236 258
640 4 2 0 0 233 236 234 258
641 4 2 0 0 233 234 256 258
642 4 2 0 0 233 256 255 258
643 4 2 0 0 235 257 259 260
644 4 2 0 0 235 259 237 260
645 4 2 0 0 235 237 238 260
646 4 2 0 0 235 238 236 260
647 4 2 0 0 235 236 258 260
648 4 2 0 0 235 258 257 260
649 4 2 0 0 237 259 261 262
650 4 2 0 0 237 261 239 262
651 4 2 0 0 237 239 240 262
652 4 2 0 0 237 240 238 262
653 4 2 0 0 237 238 260 262
654 4 2 0 0 237 260 259 262
655 4 2 0 0 239 261 263 264
656 4 2 0 0 239 263 241 264
657 4 2 0 0 239 241 242 264
658 4 2 0 0 239 242 240 264
659 4 2 0 0 239 240 262 264
660 4 2 0 0 239 262 261 264
661 4 2 0 0 243 265 267 268
662 4 2 0 0 243 267 245 268
663 4 2 0 0 243 245 246 268
664 4 2 0 0 243 246 244 268
665 4 2 0 0 243 244 266 268
666 4 2 0 0 243 266 265 268
667 4 2 0 0 245 267 269 270
668 4 2 0 0 245 269 247 270
669 4 2 0 0 245 247 248 270
670 4 2 0 0 245 248 246 270
671 4 2 0 0 245 246 268 270
672 4 2 0 0 245 268 267 270
673 4 2 0 0 247 269 271 272
674 4 2 0 0 247 271 249 272
675 4 2 0 0 247 249 250 272
676 4 2 0 0 247 250 248 272
677 4 2 0 0 247 248 270 272
678 4 2 0 0 247 270 269 272
679 4 2 0 0 249 271 273 274
680 4 2 0 0 249 273 251 274
681 4 2 0 0 249 251 252 274
682 4 2 0 0 249 252 250 274
683 4 2 0 0 249 250 272 274
684 4 2 0 0 249 272 271 274
685 4 2 0 0 251 273 275 276
686 4 2 0 0 251 275 253 276
687 4 2 0 0 251 253 254 276
688 4 2 0 0 251 254 252 276
689 4 2 0 0 251 252 274 276
690 4 2 0 0 251 274 273 276
691 4 2 0 0 253 275 277 278
692 4 2 0 0 253 277 255 278
693 4 2 0 0 253 255 256 278
694 4 2 0 0 253 256 254 278
695 4 2 0 0 253 254 276 278
696 4 2 0 0 253 276 275 278
697 4 2 0 0 255 277 279 280
698 4 2 0 0 255 279 257 280
699 4 2 0 0 255 257 258 280
700 4 2 0 0 255 258 256 280
701 4 2 0 0 255 256 278 280
702 4 2 0 0 255 278 277 280
703 4 2 0 0 257 279 281 282
704 4 2 0 0 257 281 259 282
705 4 2 0 0 257 259 260 282
706 4 2 0 0 257 260 258 282
707 4 2 0 0 257 258 280 282
708 4 2 0 0 257 280 279 282
709 4 2 0 0 259 281 283 284
710 4 2 0 0 259 283 261 284
711 4 2 0 0 259 261 262 284
712 4 2 0 0 259 262 260 284
713 4 2 0 0 259 260 282 284
714 4 2 0 0 259 282 281 284
715 4 2 0 0 261 283 285 286
716 4 2 0 0 261 285 263 286
717 4 2 0 0 261 263 264 286
718 4 2 0 0 261 264 262 286
719 4 2 0 0 261 262 284 286
720 4 2 0 0 261 284 283 286
721 4 2 0 0 265 287 289 290
722 4 2 0 0 265 289 267 290
723 4 2 0 0 265 267 268 290
724 4 2 0 0 265 268 266 290
725 4 2 0 0 265 266 288 290
726 4 2 0 0 265 288 287 290
727 4 2 0 0 267 289 291 292
728 4 2 0 0 267 291 269 292
729 4 2 0 0 267 269 270 292
730 4 2 0 0 267 270 268 292
731 4 2 0 0 267 268 290 292
732 4 2 0 0 267 290 289 292
733 4 2 0 0 269 291 293 294
734 4 2 0 0 269 293 271 294
735 4 2 0 0 269 271 272 294
736 4 2 0 0 269 272 270 294
737 4 2 0 0 269 270 292 294
738 4 2 0 0 269 292 291 294
739 4 2 0 0 271 293 295 296
740 4 2 0 0 271 295 273 296
741 4 2 0 0 271 273 274 296
742 4 2 0 0 271 274 272 296
743 4 2 0 0 271 272 294 296
744 4 2 0 0 271 294 293 296
745 4 2 0 0 273 295 297 298
746 4 2 0 0 273 297 275 298
747 4 2 0 0 273 275 276 298
748 4 2 0 0 273 276 274 298
749 4 2 0 0 273 274 296 298
750 4 2 0 0 273 296 295 298
751 4 2 0 0 275 297 299 300
752 4 2 0 0 275 299 277 300
753 4 2 0 0 275 277 278 300
754 4 2 0 0 275 278 276 300
755 4 2 0 0 275 276 298 300
756 4 2 0 0 275 298 297 300
757 4 2 0 0 277 299 301 302
758 4 2 0 0 277 301 279 302
759 4 2 0 0 277 279 280 302
760 4 2 0 0 277 280 278 302
761 4 2 0 0 277 278 300 302
762 4 2 0 0 277 300 299 302
763 4 2 0 0 279 301 303 304
764 4 2 0 0 279 303 281 304
765 4 2 0 0 279 281 282 304
766 4 2 0 0 279 282 280 304
767 4 2 0 0 279 280 302 304
768 4 2 0 0 279 302 301 304
769 4 2 0 0 281 303 305 306
770 4 2 0 0 281 305 283 306
771 4 2 0 0 281 283 284 306
772 4 2 0 0 281 284 282 306
773 4 2 0 0 281 282 304 306
774 4 2 0 0 281 304 303 306
775 4 2 0 0 283 305 307 308
776 4 2 0 0 283 307 285 308
777 4 2 0 0 283 285 286 308
778 4 2 0 0 283 286 284 308
779 4 2 0 0 283 284 306 308
780 4 2 0 0 283 306 305 308
781 4 2 0 0 287 309 311 312
782 4 2 0 0 287 311 289 312
783 4 2 0 0 287 289 290 312
784 4 2 0 0 287 290 288 312
785 4 2 0 0 287 288 310 312
786 4 2 0 0 287 310 309 312
787 4 2 0 0 289 311 313 314
788 4 2 0 0 289 313 291 314
789 4 2 0 0 289 291 292 314
790 4 2 0 0 289 292 290 314
791 4 2 0 0 289 290 312 314
792 4 2 0 0 289 312 311 314
793 4 2 0 0 291 313 315 316
794 4 2 0 0 291 315 293 316
795 4 2 0 0 291 293 294 316
796 4 2 0 0 291 294 292 316
797 4 2 0 0 291 292 314 316
798 4 2 0 0 291 314 313 316
799 4 2 0 0 293 315 317 318
800 4 2 0 0 293 317 295 318
801 4 2 0 0 293 295 296 318
802 4 2 0 0 293 296 294 318
803 4 2 0 0 293 294 316 318
804 4 2 0 0 293 316 315 318
805 4 2 0 0 295 317 319 320
806 4 2 0 0 295 319 297 320
807 4 2 0 0 295 297 298 320
808 4 2 0 0 295 298 296 320
809 4 2 0 0 295 296 318 320
810 4 2 0 0 295 318 317 320
811 4 2 0 0 297 319 321 322
812 4 2 0 0 297 321 299 322
813 4 2 0 0 297 299 300 322
814 4 2 0 0 297 300 298 322
815 4 2 0 0 297 298 320 322
816 4 2 0 0 297 320 319 322
817 4 2 0 0 299 321 323 324
818 4 2 0 0 299 323 301 324
819 4 2 0 0 299 301 302 324
820 4 2 0 0 299 302 300 324
821 4 2 0 0 299 300 322 324
822 4 2 0 0 299 322 321 324
823 4 2 0 0 301 323 325 326
824 4 2 0 0 301 325 303 326
825 4 2 0 0 301 303 304 326
826 4 2 0 0 301 304 302 326
827 4 2 0 0 301 302 324 326
828 4 2 0 0 301 324 323 326
829 4 2 0 0 303 325 327 328
830 4 2 0 0 303 327 305 328
831 4 2 0 0 303 305 306 328
832 4 2 0 0 303 306 304 328
833 4 2 0 0 303 304 326 328
834 4 2 0 0 303 326 325 328
835 4 2 0 0 305 327 329 330
836 4 2 0 0 305 329 307 330
837 4 2 0 0 305 307 308 330
838 4 2 0 0 305 308 306 330
839 4 2 0 0 305 306 328 330
840 4 2 0 0 305 328 327 330
841 4 2 0 0 309 331 333 334
842 4 2 0 0 309 333 311 334
843 4 2 0 0 309 311 312 334
844 4 2 0 0 309 312 310 334
845 4 2 0 0 309 310 332 334
846 4 2 0 0 309 332 331 334
847 4 2 0 0 311 333 335 336
848 4 2 0 0 311 335 313 336
849 4 2 0 0 311 313 314 336
850 4 2 0 0 311 314 312 336
851 4 2 0 0 311 312 334 336
852 4 2 0 0 311 334 333 336
853 4 2 0 0 313 335 337 338
854 4 2 0 0 313 337 315 338
855 4 2 0 0 313 315 316 338
856 4 2 0 0 313 316 314 338
857 4 2 0 0 313 314 336 338
858 4 2 0 0 313 336 335 338
859 4 2 0 0 315 337 339 340
860 4 2 0 0 315 339 317 340
861 4 2 0 0 315 317 318 340
862 4 2 0 0 315 318 316 340
863 4 2 0 0 315 316 338 340
864 4 2 0 0 315 338 337 340
865 4 2 0 0 317 339 341 342
866 4 2 0 0 317 341 319 342
867 4 2 0 0 317 319 320 342
868 4 2 0 0 317 320 318 342
869 4 2 0 0 317 318 340 342
870 4 2 0 0 317 340 339 342
871 4 2 0 0 319 341 343 344
872 4 2 0 0 319 343 321 344
873 4 2 0 0 319 321 322 344
874 4 2 0 0 319 322 320 344
875 4 2 0 0 319 320 342 344
876 4 2 0 0 319 342 341 344
877 4 2 0 0 321 343 345 346
878 4 2 0 0 321 345 323 346
879 4 2 0 0 321 323 324 346
880 4 2 0 0 321 324 322 346
881 4 2 0 0 321 322 344 346
882 4 2 0 0 321 344 343 346
883 4 2 0 0 323 345 347 348
884 4 2 0 0 323 347 325 348
885 4 2 0 0 323 325 326 348
886 4 2 0 0 323 326 324 348
887 4 2 0 0 323 324 346 348
888 4 2 0 0 323 346 345 348
889 4 2 0 0 325 347 349 350
890 4 2 0 0 325 349 327 350
891 4 2 0 0 325 327 328 350
892 4 2 0 0 325 328 326 350
893 4 2 0 0 325 326 348 350
894 4 2 0 0 325 348 347 350
895 4 2 0 0 327 349 351 352
896 4 2 0 0 327 351 329 352
897 4 2 0 0 327 329 330 352
898 4 2 0 0 327 330 328 352
899 4 2 0 0 327 328 350 352
900 4 2 0 0 327 350 349 352
901 4 2 0 0 331 353 355 356
902 4 2 0 0 331 355 333 356
903 4 2 0 0 331 333 334 356
904 4 2 0 0 331 334 332 356
905 4 2 0 0 331 332 354 356
906 4 2 0 0 331 354 353 356
907 4 2 0 0 333 355 357 358
908 4 2 0 0 333 357 335 358
909 4 2 0 0 333 335 336 358
910 4 2 0 0 333 336 334 358
911 4 2 0 0 333 334 356 358
912 4 2 0 0 333 356 355 358
913 4 2 0 0 335 357 359 360
914 4 2 0 0 335 359 337 360
915 4 2 0 0 335 337 338 360
916 4 2 0 0 335 338 336 360
917 4 2 0 0 335 336 358 360
918 4 2 0 0 335 358 357 360
919 4 2 0 0 337 359 361 362
920 4 2 0 0 337 361 339 362
921 4 2 0 0 337 339 340 362
922 4 2 0 0 337 340 338 362
923 4 2 0 0 337 338 360 362
924 4 2 0 0 337 360 359 362
925 4 2 0 0 339 361 363 364
926 4 2 0 0 339 363 341 364
927 4 2 0 0 339 341 342 364
928 4 2 0 0 339 342 340 364
929 4 2 0 0 339 340 362 364
930 4 2 0 0 339 362 361 364
931 4 2 0 0 341 363 365 366
932 4 2 0 0 341 365 343 366
933 4 2 0 0 341 343 344 366
934 4 2 0 0 341 344 342 366
935 4 2 0 0 341 342 364 366
936 4 2 0 0 341 364 363 366
937 4 2 0 0 343 365 367 368
938 4 2 0 0 343 367 345 368
939 4 2 0 0 343 345 346 368
940 4 2 0 0 343 346 344 368
941 4 2 0 0 343 344 366 368
942 4 2 0 0 343 366 365 368
943 4 2 0 0 345 367 369 370
944 4 2 0 0 345 369 347 370
945 4 2 0 0 345 347 348 370
946 4 2 0 0 345 348 346 370
947 4 2 0 0 345 346 368 370
948 4 2 0 0 345 368 367 370
949 4 2 0 0 347 369 371 372
950 4 2 0 0 347 371 349 372
951 4 2 0 0 347 349 350 372
952 4 2 0 0 347 350 348 372
953 4 2 0 0 347 348 370 372
954 4 2 0 0 347 370 369 372
955 4 2 0 0 349 371 373 374
956 4 2 0 0 349 373 351 374
957 4 2 0 0 349 351 352 374
958 4 2 0 0 349 352 350 374
959 4 2 0 0 349 350 372 374
960 4 2 0 0 349 372 371 374
$EndElements
