$MeshFormat
2.2 0 8
$EndMeshFormat
$Nodes
272
1 4.0190079208882217e+01 0.0000000000000000e+00 -2.7760761631764246e+00
2 3.9909920791117777e+01 0.0000000000000000e+00 -2.4239238368235756e+00
3 4.1569524297918719e+01 0.0000000000000000e+00 -1.6784670730857649e+00
4 4.1301904273509848e+01 0.0000000000000000e+00 -1.3166943232338828e+00
5 4.2934803214026985e+01 0.0000000000000000e+00 -7.4419430527394015e-01
6 4.2708053928830154e+01 0.0000000000000000e+00 -3.5549807212686696e-01
7 4.4282861585528487e+01 0.0000000000000000e+00 -9.2720597873723720e-02
8 4.4131424128757224e+01 0.0000000000000000e+00 3.3103251029971709e-01
9 4.5616694985469451e+01 0.0000000000000000e+00 2.1685085279669664e-01
10 4.5569019300244832e+01 0.0000000000000000e+00 6.6431820248643958e-01
11 4.6951886859073895e+01 0.0000000000000000e+00 1.9102749871403596e-01
12 4.7005255998068961e+01 0.0000000000000000e+00 6.3785155245658620e-01
13 4.8304458416679822e+01 0.0000000000000000e+00 -1.0733803571760892e-01
14 4.8424113011891606e+01 0.0000000000000000e+00 3.2646235368367515e-01
15 4.9679173766033024e+01 0.0000000000000000e+00 -5.6356180506367604e-01
16 4.9820826233966976e+01 0.0000000000000000e+00 -1.3643819493632370e-01
17 3.9996552992425393e+01 3.9393166336731644e+00 -2.7760761631764246e+00
18 3.9717743614017571e+01 3.9118563067246397e+00 -2.4239238368235756e+00
19 4.1369355676317490e+01 4.0745258965421787e+00 -1.6784670730857649e+00
20 4.1103024315474137e+01 4.0482945470546934e+00 -1.3166943232338828e+00
21 4.2728060401276011e+01 4.2083466316513523e+00 -7.4419430527394015e-01
22 4.2502402975864285e+01 4.1861213151445869e+00 -3.5549807212686696e-01
23 4.4069627503256896e+01 4.3404794582232542e+00 -9.2720597873723720e-02
24 4.3918919259232055e+01 4.3256359917717537e+00 3.3103251029971709e-01
25 4.5397038130803395e+01 4.4712179937615231e+00 2.1685085279669664e-01
26 4.5349592017034219e+01 4.4665449594325537e+00 6.6431820248643958e-01
27 4.6725800690591370e+01 4.6020896830034985e+00 1.9102749871403596e-01
28 4.6778912842594906e+01 4.6073207733896453e+00 6.3785155245658620e-01
29 4.8071859246452014e+01 4.7346648791711310e+00 -1.0733803571760892e-01
30 4.8190937672082924e+01 4.7463930804210808e+00 3.2646235368367515e-01
31 4.9439954965650152e+01 4.8694105464818849e+00 -5.6356180506367604e-01
32 4.9580925338233442e+01 4.8832949163093957e+00 -1.3643819493632370e-01
33 3.9417838106311585e+01 7.8406954947145326e+00 -2.7760761631764246e+00
34 3.9143062853987168e+01 7.7860392987773386e+00 -2.4239238368235756e+00
35 4.0770777544763114e+01 8.1098118813382296e+00 -1.6784670730857649e+00
36 4.0508299764081741e+01 8.0576018045983400e+00 -1.3166943232338828e+00
37 4.2109823009326973e+01 8.3761645847236235e+00 -7.4419430527394015e-01
38 4.1887430648063969e+01 8.3319279936576454e+00 -3.5549807212686696e-01
39 4.3431978817219999e+01 8.6391577265163875e+00 -9.2720597873723720e-02
40 4.3283451188717045e+01 8.6096137443095788e+00 3.3103251029971709e-01
41 4.4740182982392291e+01 8.8993757140267373e+00 2.1685085279669664e-01
42 4.4693423372090848e+01 8.8900746492439282e+00 6.6431820248643958e-01
43 4.6049719518537543e+01 9.1598587266015468e+00 1.9102749871403596e-01
44 4.6102063184491698e+01 9.1702705291138180e+00 6.3785155245658620e-01
45 4.7376301792929503e+01 9.4237323473247425e+00 -1.0733803571760892e-01
46 4.7493657258645825e+01 9.4470758008353197e+00 3.2646235368367515e-01
47 4.8724602372319509e+01 9.6919260075105740e+00 -5.6356180506367604e-01
48 4.8863533027801921e+01 9.7195610330941875e+00 -1.3643819493632370e-01
49 3.8459507891251818e+01 1.1666564171981651e+01 -2.7760761631764246e+00
50 3.8191413000898109e+01 1.1585238476100781e+01 -2.4239238368235756e+00
51 3.9779554537878553e+01 1.2066995944442866e+01 -1.6784670730857649e+00
52 3.9523458141872062e+01 1.1989309952030505e+01 -1.3166943232338828e+00
53 4.1086045002227301e+01 1.2463315493967675e+01 -7.4419430527394015e-01
54 4.0869059465124010e+01 1.2397493650896633e+01 -3.5549807212686696e-01
55 4.2376056432838560e+01 1.2854636183259165e+01 -9.2720597873723720e-02
56 4.2231139822113441e+01 1.2810676209996082e+01 3.3103251029971709e-01
57 4.3652455414388903e+01 1.3241827581272251e+01 2.1685085279669664e-01
58 4.3606832628163794e+01 1.3227988060373937e+01 6.6431820248643958e-01
59 4.4930154374182855e+01 1.3629413323374296e+01 1.9102749871403596e-01
60 4.4981225455970531e+01 1.3644905566662828e+01 6.3785155245658620e-01
61 4.6224484654620106e+01 1.4022044121437499e+01 -1.0733803571760892e-01
62 4.6338986963133976e+01 1.4056778016990565e+01 3.2646235368367515e-01
63 4.7540005222566386e+01 1.4421102922941248e+01 -5.6356180506367604e-01
64 4.7675558182788393e+01 1.4462222463877753e+01 -1.3643819493632370e-01
65 3.7130791591093690e+01 1.5380077458679880e+01 -2.7760761631764246e+00
66 3.6871958963060372e+01 1.5272865473763810e+01 -2.4239238368235756e+00
67 3.8405232675077720e+01 1.5907968240111535e+01 -1.6784670730857649e+00
68 3.8157984012036195e+01 1.5805554490601118e+01 -1.3166943232338828e+00
69 3.9666585921839342e+01 1.6430437861863535e+01 -7.4419430527394015e-01
70 3.9457096898234425e+01 1.6343664667118080e+01 -3.5549807212686696e-01
71 4.0912029459900076e+01 1.6946317466498222e+01 -9.2720597873723720e-02
72 4.0772119493133545e+01 1.6888364860752358e+01 3.3103251029971709e-01
73 4.2144330837885477e+01 1.7456753410190828e+01 2.1685085279669664e-01
74 4.2100284248107997e+01 1.7438508715328716e+01 6.6431820248643958e-01
75 4.3377887281884014e+01 1.7967709219247752e+01 1.9102749871403596e-01
76 4.3427193937069312e+01 1.7988132704540753e+01 6.3785155245658620e-01
77 4.4627500460213042e+01 1.8485315945431786e+01 -1.0733803571760892e-01
78 4.4738046891700137e+01 1.8531105776625687e+01 3.2646235368367515e-01
79 4.5897571834509570e+01 1.9011396733847242e+01 -5.6356180506367604e-01
80 4.6028441650363462e+01 1.9065604786479192e+01 -1.3643819493632370e-01
81 3.5444485470157943e+01 1.8945472191845450e+01 -2.7760761631764246e+00
82 3.5197407804145293e+01 1.8813406427916959e+01 -2.4239238368235756e+00
83 3.6661047427180144e+01 1.9595738105447904e+01 -1.6784670730857649e+00
84 3.6425027636888537e+01 1.9469582899232268e+01 -1.3166943232338828e+00
85 3.7865115935062498e+01 2.0239326131358677e+01 -7.4419430527394015e-01
86 3.7665140918771620e+01 2.0132437258239264e+01 -3.5549807212686696e-01
87 3.9053997278472487e+01 2.0874796448735452e+01 -9.2720597873723720e-02
88 3.8920441365127076e+01 2.0803409325780251e+01 3.3103251029971709e-01
89 4.0230333316978488e+01 2.1503561160937149e+01 2.1685085279669664e-01
90 4.0188287116386519e+01 2.1481086998496320e+01 6.6431820248643958e-01
91 4.1407867422295368e+01 2.2132966253190872e+01 1.9102749871403596e-01
92 4.1454934800835076e+01 2.2158124291160362e+01 6.3785155245658620e-01
93 4.2600729040500809e+01 2.2770564071769964e+01 -1.0733803571760892e-01
94 4.2706254972395080e+01 2.2826968857499036e+01 3.2646235368367515e-01
95 4.3813119739521476e+01 2.3418600401519676e+01 -5.6356180506367604e-01
96 4.3938046063139851e+01 2.3485374912667091e+01 -1.3643819493632370e-01
97 3.3416829578217879e+01 2.2328411671154964e+01 -2.7760761631764246e+00
98 3.3183886367215990e+01 2.2172763993715169e+01 -2.4239238368235756e+00
99 3.4563796251591711e+01 2.3094790300708716e+01 -1.6784670730857649e+00
100 3.4341278333652070e+01 2.2946108581387168e+01 -1.3166943232338828e+00
101 3.5698984182653092e+01 2.3853298626267737e+01 -7.4419430527394015e-01
102 3.5510449042400602e+01 2.3727323473053904e+01 -3.5549807212686696e-01
103 3.6819853754166644e+01 2.4602239729846850e+01 -9.2720597873723720e-02
104 3.6693938110696962e+01 2.4518105586700546e+01 3.3103251029971709e-01
105 3.7928895694091743e+01 2.5343277862661381e+01 2.1685085279669664e-01
106 3.7889254810581775e+01 2.5316790671111772e+01 6.6431820248643958e-01
107 3.9039067163587141e+01 2.6085070723005682e+01 1.9102749871403596e-01
108 3.9083441980896289e+01 2.6114721027993227e+01 6.3785155245658620e-01
109 4.0163689312201193e+01 2.6836519218440493e+01 -1.0733803571760892e-01
110 4.0263178472092150e+01 2.6902995749784168e+01 3.2646235368367515e-01
111 4.1306723350754254e+01 2.7600270145416275e+01 -5.6356180506367604e-01
112 4.1424503073348994e+01 2.7678968040034142e+01 -1.3643819493632370e-01
113 3.1067351349942353e+01 2.5496316340119836e+01 -2.7760761631764246e+00
114 3.0850785964412875e+01 2.5318585721388164e+01 -2.4239238368235756e+00
115 3.2133676823607459e+01 2.6371427040477116e+01 -1.6784670730857649e+00
116 3.1926803747210212e+01 2.6201650694284417e+01 -1.3166943232338828e+00
117 3.3189051697514898e+01 2.7237550815866420e+01 -7.4419430527394015e-01
118 3.3013772129765215e+01 2.7093702592148645e+01 -3.5549807212686696e-01
119 3.4231114910428708e+01 2.8092749993407555e+01 -9.2720597873723720e-02
120 3.4114052173313851e+01 2.7996679087861043e+01 3.3103251029971709e-01
121 3.5262182071627429e+01 2.8938924944523265e+01 2.1685085279669664e-01
122 3.5225328268577570e+01 2.8908679809998866e+01 6.6431820248643958e-01
123 3.6294299347168646e+01 2.9785961702207796e+01 1.9102749871403596e-01
124 3.6335554249498799e+01 2.9819818725567863e+01 6.3785155245658620e-01
125 3.7339851300119143e+01 3.0644024014703760e+01 -1.0733803571760892e-01
126 3.7432345553010741e+01 3.0719932086325436e+01 3.2646235368367515e-01
127 3.8402520635567377e+01 3.1516134199970111e+01 -5.6356180506367604e-01
128 3.8512019474024953e+01 3.1605997574312614e+01 -1.3643819493632370e-01
129 2.8418677545025094e+01 2.8418677545025087e+01 -2.7760761631764246e+00
130 2.8220575628017365e+01 2.8220575628017361e+01 -2.4239238368235756e+00
131 2.9394092521757283e+01 2.9394092521757280e+01 -1.6784670730857649e+00
132 2.9204856587716463e+01 2.9204856587716456e+01 -1.3166943232338828e+00
133 3.0359490501548457e+01 3.0359490501548454e+01 -7.4419430527394015e-01
134 3.0199154544356578e+01 3.0199154544356571e+01 -3.5549807212686696e-01
135 3.1312711717472464e+01 3.1312711717472460e+01 -9.2720597873723720e-02
136 3.1205629264863859e+01 3.1205629264863855e+01 3.3103251029971709e-01
137 3.2255874359543832e+01 3.2255874359543824e+01 2.1685085279669664e-01
138 3.2222162559223783e+01 3.2222162559223783e+01 6.6431820248643958e-01
139 3.3199997587554705e+01 3.3199997587554698e+01 1.9102749871403596e-01
140 3.3237735267644204e+01 3.3237735267644197e+01 6.3785155245658620e-01
141 3.4156410107977905e+01 3.4156410107977898e+01 -1.0733803571760892e-01
142 3.4241018683652293e+01 3.4241018683652285e+01 3.2646235368367515e-01
143 3.5128480653706788e+01 3.5128480653706781e+01 -5.6356180506367604e-01
144 3.5228644074354698e+01 3.5228644074354690e+01 -1.3643819493632370e-01
145 2.5496316340119836e+01 3.1067351349942353e+01 -2.7760761631764246e+00
146 2.5318585721388164e+01 3.0850785964412875e+01 -2.4239238368235756e+00
147 2.6371427040477116e+01 3.2133676823607459e+01 -1.6784670730857649e+00
148 2.6201650694284417e+01 3.1926803747210212e+01 -1.3166943232338828e+00
149 2.7237550815866420e+01 3.3189051697514898e+01 -7.4419430527394015e-01
150 2.7093702592148645e+01 3.3013772129765215e+01 -3.5549807212686696e-01
151 2.8092749993407555e+01 3.4231114910428708e+01 -9.2720597873723720e-02
152 2.7996679087861043e+01 3.4114052173313851e+01 3.3103251029971709e-01
153 2.8938924944523265e+01 3.5262182071627429e+01 2.1685085279669664e-01
154 2.8908679809998866e+01 3.5225328268577570e+01 6.6431820248643958e-01
155 2.9785961702207796e+01 3.6294299347168646e+01 1.9102749871403596e-01
156 2.9819818725567863e+01 3.6335554249498799e+01 6.3785155245658620e-01
157 3.0644024014703760e+01 3.7339851300119143e+01 -1.0733803571760892e-01
158 3.0719932086325436e+01 3.7432345553010741e+01 3.2646235368367515e-01
159 3.1516134199970111e+01 3.8402520635567377e+01 -5.6356180506367604e-01
160 3.1605997574312614e+01 3.8512019474024953e+01 -1.3643819493632370e-01
161 2.2328411671154967e+01 3.3416829578217879e+01 -2.7760761631764246e+00
162 2.2172763993715172e+01 3.3183886367215990e+01 -2.4239238368235756e+00
163 2.3094790300708723e+01 3.4563796251591711e+01 -1.6784670730857649e+00
164 2.2946108581387175e+01 3.4341278333652070e+01 -1.3166943232338828e+00
165 2.3853298626267740e+01 3.5698984182653092e+01 -7.4419430527394015e-01
166 2.3727323473053911e+01 3.5510449042400602e+01 -3.5549807212686696e-01
167 2.4602239729846858e+01 3.6819853754166644e+01 -9.2720597873723720e-02
168 2.4518105586700550e+01 3.6693938110696962e+01 3.3103251029971709e-01
169 2.5343277862661385e+01 3.7928895694091743e+01 2.1685085279669664e-01
170 2.5316790671111775e+01 3.7889254810581775e+01 6.6431820248643958e-01
171 2.6085070723005686e+01 3.9039067163587141e+01 1.9102749871403596e-01
172 2.6114721027993230e+01 3.9083441980896289e+01 6.3785155245658620e-01
173 2.6836519218440497e+01 4.0163689312201193e+01 -1.0733803571760892e-01
174 2.6902995749784175e+01 4.0263178472092150e+01 3.2646235368367515e-01
175 2.7600270145416282e+01 4.1306723350754254e+01 -5.6356180506367604e-01
176 2.7678968040034146e+01 4.1424503073348994e+01 -1.3643819493632370e-01
177 1.8945472191845457e+01 3.5444485470157936e+01 -2.7760761631764246e+00
178 1.8813406427916966e+01 3.5197407804145286e+01 -2.4239238368235756e+00
179 1.9595738105447911e+01 3.6661047427180137e+01 -1.6784670730857649e+00
180 1.9469582899232275e+01 3.6425027636888530e+01 -1.3166943232338828e+00
181 2.0239326131358684e+01 3.7865115935062491e+01 -7.4419430527394015e-01
182 2.0132437258239271e+01 3.7665140918771620e+01 -3.5549807212686696e-01
183 2.0874796448735459e+01 3.9053997278472480e+01 -9.2720597873723720e-02
184 2.0803409325780258e+01 3.8920441365127068e+01 3.3103251029971709e-01
185 2.1503561160937156e+01 4.0230333316978481e+01 2.1685085279669664e-01
186 2.1481086998496327e+01 4.0188287116386512e+01 6.6431820248643958e-01
187 2.2132966253190883e+01 4.1407867422295361e+01 1.9102749871403596e-01
188 2.2158124291160370e+01 4.1454934800835069e+01 6.3785155245658620e-01
189 2.2770564071769972e+01 4.2600729040500802e+01 -1.0733803571760892e-01
190 2.2826968857499043e+01 4.2706254972395072e+01 3.2646235368367515e-01
191 2.3418600401519683e+01 4.3813119739521468e+01 -5.6356180506367604e-01
192 2.3485374912667098e+01 4.3938046063139844e+01 -1.3643819493632370e-01
193 1.5380077458679882e+01 3.7130791591093690e+01 -2.7760761631764246e+00
194 1.5272865473763813e+01 3.6871958963060372e+01 -2.4239238368235756e+00
195 1.5907968240111536e+01 3.8405232675077720e+01 -1.6784670730857649e+00
196 1.5805554490601121e+01 3.8157984012036195e+01 -1.3166943232338828e+00
197 1.6430437861863538e+01 3.9666585921839342e+01 -7.4419430527394015e-01
198 1.6343664667118084e+01 3.9457096898234425e+01 -3.5549807212686696e-01
199 1.6946317466498225e+01 4.0912029459900076e+01 -9.2720597873723720e-02
200 1.6888364860752358e+01 4.0772119493133545e+01 3.3103251029971709e-01
201 1.7456753410190831e+01 4.2144330837885477e+01 2.1685085279669664e-01
202 1.7438508715328716e+01 4.2100284248107997e+01 6.6431820248643958e-01
203 1.7967709219247755e+01 4.3377887281884014e+01 1.9102749871403596e-01
204 1.7988132704540757e+01 4.3427193937069312e+01 6.3785155245658620e-01
205 1.8485315945431786e+01 4.4627500460213042e+01 -1.0733803571760892e-01
206 1.8531105776625687e+01 4.4738046891700137e+01 3.2646235368367515e-01
207 1.9011396733847246e+01 4.5897571834509570e+01 -5.6356180506367604e-01
208 1.9065604786479195e+01 4.6028441650363462e+01 -1.3643819493632370e-01
209 1.1666564171981651e+01 3.8459507891251818e+01 -2.7760761631764246e+00
210 1.1585238476100781e+01 3.8191413000898109e+01 -2.4239238368235756e+00
211 1.2066995944442866e+01 3.9779554537878553e+01 -1.6784670730857649e+00
212 1.1989309952030505e+01 3.9523458141872069e+01 -1.3166943232338828e+00
213 1.2463315493967675e+01 4.1086045002227308e+01 -7.4419430527394015e-01
214 1.2397493650896633e+01 4.0869059465124010e+01 -3.5549807212686696e-01
215 1.2854636183259165e+01 4.2376056432838567e+01 -9.2720597873723720e-02
216 1.2810676209996082e+01 4.2231139822113441e+01 3.3103251029971709e-01
217 1.3241827581272251e+01 4.3652455414388911e+01 2.1685085279669664e-01
218 1.3227988060373937e+01 4.3606832628163801e+01 6.6431820248643958e-01
219 1.3629413323374296e+01 4.4930154374182862e+01 1.9102749871403596e-01
220 1.3644905566662828e+01 4.4981225455970538e+01 6.3785155245658620e-01
221 1.4022044121437499e+01 4.6224484654620113e+01 -1.0733803571760892e-01
222 1.4056778016990565e+01 4.6338986963133983e+01 3.2646235368367515e-01
223 1.4421102922941248e+01 4.7540005222566386e+01 -5.6356180506367604e-01
224 1.4462222463877753e+01 4.7675558182788400e+01 -1.3643819493632370e-01
225 7.8406954947145362e+00 3.9417838106311585e+01 -2.7760761631764246e+00
226 7.7860392987773421e+00 3.9143062853987168e+01 -2.4239238368235756e+00
227 8.1098118813382332e+00 4.0770777544763114e+01 -1.6784670730857649e+00
228 8.0576018045983435e+00 4.0508299764081741e+01 -1.3166943232338828e+00
229 8.3761645847236270e+00 4.2109823009326973e+01 -7.4419430527394015e-01
230 8.3319279936576489e+00 4.1887430648063969e+01 -3.5549807212686696e-01
231 8.6391577265163910e+00 4.3431978817219999e+01 -9.2720597873723720e-02
232 8.6096137443095824e+00 4.3283451188717045e+01 3.3103251029971709e-01
233 8.8993757140267409e+00 4.4740182982392291e+01 2.1685085279669664e-01
234 8.8900746492439318e+00 4.4693423372090848e+01 6.6431820248643958e-01
235 9.1598587266015503e+00 4.6049719518537543e+01 1.9102749871403596e-01
236 9.1702705291138216e+00 4.6102063184491698e+01 6.3785155245658620e-01
237 9.4237323473247461e+00 4.7376301792929503e+01 -1.0733803571760892e-01
238 9.4470758008353233e+00 4.7493657258645825e+01 3.2646235368367515e-01
239 9.6919260075105775e+00 4.8724602372319509e+01 -5.6356180506367604e-01
240 9.7195610330941911e+00 4.8863533027801921e+01 -1.3643819493632370e-01
241 3.9393166336731711e+00 3.9996552992425393e+01 -2.7760761631764246e+00
242 3.9118563067246463e+00 3.9717743614017571e+01 -2.4239238368235756e+00
243 4.0745258965421849e+00 4.1369355676317483e+01 -1.6784670730857649e+00
244 4.0482945470547005e+00 4.1103024315474137e+01 -1.3166943232338828e+00
245 4.2083466316513594e+00 4.2728060401276004e+01 -7.4419430527394015e-01
246 4.1861213151445940e+00 4.2502402975864278e+01 -3.5549807212686696e-01
247 4.3404794582232613e+00 4.4069627503256889e+01 -9.2720597873723720e-02
248 4.3256359917717608e+00 4.3918919259232048e+01 3.3103251029971709e-01
249 4.4712179937615302e+00 4.5397038130803388e+01 2.1685085279669664e-01
250 4.4665449594325608e+00 4.5349592017034212e+01 6.6431820248643958e-01
251 4.6020896830035065e+00 4.6725800690591363e+01 1.9102749871403596e-01
252 4.6073207733896533e+00 4.6778912842594899e+01 6.3785155245658620e-01
253 4.7346648791711390e+00 4.8071859246452007e+01 -1.0733803571760892e-01
254 4.7463930804210888e+00 4.8190937672082917e+01 3.2646235368367515e-01
255 4.8694105464818929e+00 4.9439954965650145e+01 -5.6356180506367604e-01
256 4.8832949163094037e+00 4.9580925338233435e+01 -1.3643819493632370e-01
257 2.4609325930318097e-15 4.0190079208882217e+01 -2.7760761631764246e+00
258 2.4437778375533393e-15 3.9909920791117777e+01 -2.4239238368235756e+00
259 2.5453992436762141e-15 4.1569524297918719e+01 -1.6784670730857649e+00
260 2.5290122433622112e-15 4.1301904273509848e+01 -1.3166943232338828e+00
261 2.6289984664039821e-15 4.2934803214026985e+01 -7.4419430527394015e-01
262 2.6151140770877197e-15 4.2708053928830154e+01 -3.5549807212686696e-01
263 2.7115432348901374e-15 4.4282861585528487e+01 -9.2720597873723720e-02
264 2.7022703650548404e-15 4.4131424128757224e+01 3.3103251029971709e-01
265 2.7932169750818142e-15 4.5616694985469451e+01 2.1685085279669664e-01
266 2.7902976813164397e-15 4.5569019300244832e+01 6.6431820248643958e-01
267 2.8749738977946762e-15 4.6951886859073895e+01 1.9102749871403596e-01
268 2.8782418150568541e-15 4.7005255998068961e+01 6.3785155245658620e-01
269 2.9577950192266684e-15 4.8304458416679822e+01 -1.0733803571760892e-01
270 2.9651217500781375e-15 4.8424113011891606e+01 3.2646235368367515e-01
271 3.0419720568428753e-15 4.9679173766033024e+01 -5.6356180506367604e-01
272 3.0506457689152070e-15 4.9820826233966976e+01 -1.3643819493632370e-01
$EndNodes
$Elements
672
1 4 2 0 0 1 17 19 20
2 4 2 0 0 1 19 3 20
3 4 2 0 0 1 3 4 20
4 4 2 0 0 1 4 2 20
5 4 2 0 0 1 2 18 20
6 4 2 0 0 1 18 17 20
7 4 2 0 0 3 19 21 22
8 4 2 0 0 3 21 5 22
9 4 2 0 0 3 5 6 22
10 4 2 0 0 3 6 4 22
11 4 2 0 0 3 4 20 22
12 4 2 0 0 3 20 19 22
13 4 2 0 0 5 21 23 24
14 4 2 0 0 5 23 7 24
15 4 2 0 0 5 7 8 24
16 4 2 0 0 5 8 6 24
17 4 2 0 0 5 6 22 24
18 4 2 0 0 5 22 21 24
19 4 2 0 0 7 23 25 26
20 4 2 0 0 7 25 9 26
21 4 2 0 0 7 9 10 26
22 4 2 0 0 7 10 8 26
23 4 2 0 0 7 8 24 26
24 4 2 0 0 7 24 23 26
25 4 2 0 0 9 25 27 28
26 4 2 0 0 9 27 11 28
27 4 2 0 0 9 11 12 28
28 4 2 0 0 9 12 10 28
29 4 2 0 0 9 10 26 28
30 4 2 0 0 9 26 25 28
31 4 2 0 0 11 27 29 30
32 4 2 0 0 11 29 13 30
33 4 2 0 0 11 13 14 30
34 4 2 0 0 11 14 12 30
35 4 2 0 0 11 12 28 30
36 4 2 0 0 11 28 27 30
37 4 2 0 0 13 29 31 32
38 4 2 0 0 13 31 15 32
39 4 2 0 0 13 15 16 32
40 4 2 0 0 13 16 14 32
41 4 2 0 0 13 14 30 32
42 4 2 0 0 13 30 29 32
43 4 2 0 0 17 33 35 36
44 4 2 0 0 17 35 19 36
45 4 2 0 0 17 19 20 36
46 4 2 0 0 17 20 18 36
47 4 2 0 0 17 18 34 36
48 4 2 0 0 17 34 33 36
49 4 2 0 0 19 35 37 38
50 4 2 0 0 19 37 21 38
51 4 2 0 0 19 21 22 38
52 4 2 0 0 19 22 20 38
53 4 2 0 0 19 20 36 38
54 4 2 0 0 19 36 35 38
55 4 2 0 0 21 37 39 40
56 4 2 0 0 21 39 23 40
57 4 2 0 0 21 23 24 40
58 4 2 0 0 21 24 22 40
59 4 2 0 0 21 22 38 40
60 4 2 0 0 21 38 37 40
61 4 2 0 0 23 39 41 42
62 4 2 0 0 23 41 25 42
63 4 2 0 0 23 25 26 42
64 4 2 0 0 23 26 24 42
65 4 2 0 0 23 24 40 42
66 4 2 0 0 23 40 39 42
67 4 2 0 0 25 41 43 44
68 4 2 0 0 25 43 27 44
69 4 2 0 0 25 27 28 44
70 4 2 0 0 25 28 26 44
71 4 2 0 0 25 26 42 44
72 4 2 0 0 25 42 41 44
73 4 2 0 0 27 43 45 46
74 4 2 0 0 27 45 29 46
75 4 2 0 0 27 29 30 46
76 4 2 0 0 27 30 28 46
77 4 2 0 0 27 28 44 46
78 4 2 0 0 27 44 43 46
79 4 2 0 0 29 45 47 48
80 4 2 0 0 29 47 31 48
81 4 2 0 0 29 31 32 48
82 4 2 0 0 29 32 30 48
83 4 2 0 0 29 30 46 48
84 4 2 0 0 29 46 45 48
85 4 2 0 0 33 49 51 52
86 4 2 0 0 33 51 35 52
87 4 2 0 0 33 35 36 52
88 4 2 0 0 33 36 34 52
89 4 2 0 0 33 34 50 52
90 4 2 0 0 33 50 49 52
91 4 2 0 0 35 51 53 54
92 4 2 0 0 35 53 37 54
93 4 2 0 0 35 37 38 54
94 4 2 0 0 35 38 36 54
95 4 2 0 0 35 36 52 54
96 4 2 0 0 35 52 51 54
97 4 2 0 0 37 53 55 56
98 4 2 0 0 37 55 39 56
99 4 2 0 0 37 39 40 56
100 4 2 0 0 37 40 38 56
101 4 2 0 0 37 38 54 56
102 4 2 0 0 37 54 53 56
103 4 2 0 0 39 55 57 58
104 4 2 0 0 39 57 41 58
105 4 2 0 0 39 41 42 58
106 4 2 0 0 39 42 40 58
107 4 2 0 0 39 40 56 58
108 4 2 0 0 39 56 55 58
109 4 2 0 0 41 57 59 60
110 4 2 0 0 41 59 43 60
111 4 2 0 0 41 43 44 60
112 4 2 0 0 41 44 42 60
113 4 2 0 0 41 42 58 60
114 4 2 0 0 41 58 57 60
115 4 2 0 0 43 59 61 62
116 4 2 0 0 43 61 45 62
117 4 2 0 0 43 45 46 62
118 4 2 0 0 43 46 44 62
119 4 2 0 0 43 44 60 62
120 4 2 0 0 43 60 59 62
121 4 2 0 0 45 61 63 64
122 4 2 0 0 45 63 47 64
123 4 2 0 0 45 47 48 64
124 4 2 0 0 45 48 46 64
125 4 2 0 0 45 46 62 64
126 4 2 0 0 45 62 61 64
127 4 2 0 0 49 65 67 68
128 4 2 0 0 49 67 51 68
129 4 2 0 0 49 51 52 68
130 4 2 0 0 49 52 50 68
131 4 2 0 0 49 50 66 68
132 4 2 0 0 49 66 65 68
133 4 2 0 0 51 67 69 70
134 4 2 0 0 51 69 53 70
135 4 2 0 0 51 53 54 70
136 4 2 0 0 51 54 52 70
137 4 2 0 0 51 52 68 70
138 4 2 0 0 51 68 67 70
139 4 2 0 0 53 69 71 72
140 4 2 0 0 53 71 55 72
141 4 2 0 0 53 55 56 72
142 4 2 0 0 53 56 54 72
143 4 2 0 0 53 54 70 72
144 4 2 0 0 53 70 69 72
145 4 2 0 0 55 71 73 74
146 4 2 0 0 55 73 57 74
147 4 2 0 0 55 57 58 74
148 4 2 0 0 55 58 56 74
149 4 2 0 0 55 56 72 74
150 4 2 0 0 55 72 71 74
151 4 2 0 0 57 73 75 76
152 4 2 0 0 57 75 59 76
153 4 2 0 0 57 59 60 76
154 4 2 0 0 57 60 58 76
155 4 2 0 0 57 58 74 76
156 4 2 0 0 57 74 73 76
157 4 2 0 0 59 75 77 78
158 4 2 0 0 59 77 61 78
159 4 2 0 0 59 61 62 78
160 4 2 0 0 59 62 60 78
161 4 2 0 0 59 60 76 78
162 4 2 0 0 59 76 75 78
163 4 2 0 0 61 77 79 80
164 4 2 0 0 61 79 63 80
165 4 2 0 0 61 63 64 80
166 4 2 0 0 61 64 62 80
167 4 2 0 0 61 62 78 80
168 4 2 0 0 61 78 77 80
169 4 2 0 0 65 81 83 84
170 4 2 0 0 65 83 67 84
171 4 2 0 0 65 67 68 84
172 4 2 0 0 65 68 66 84
173 4 2 0 0 65 66 82 84
174 4 2 0 0 65 82 81 84
175 4 2 0 0 67 83 85 86
176 4 2 0 0 67 85 69 86
177 4 2 0 0 67 69 70 86
178 4 2 0 0 67 70 68 86
179 4 2 0 0 67 68 84 86
180 4 2 0 0 67 84 83 86
181 4 2 0 0 69 85 87 88
182 4 2 0 0 69 87 71 88
183 4 2 0 0 69 71 72 88
184 4 2 0 0 69 72 70 88
185 4 2 0 0 69 70 86 88
186 4 2 0 0 69 86 85 88
187 4 2 0 0 71 87 89 90
188 4 2 0 0 71 89 73 90
189 4 2 0 0 71 73 74 90
190 4 2 0 0 71 74 72 90
191 4 2 0 0 71 72 88 90
192 4 2 0 0 71 88 87 90
193 4 2 0 0 73 89 91 92
194 4 2 0 0 73 91 75 92
195 4 2 0 0 73 75 76 92
196 4 2 0 0 73 76 74 92
197 4 2 0 0 73 74 90 92
198 4 2 0 0 73 90 89 92
199 4 2 0 0 75 91 93 94
200 4 2 0 0 75 93 77 94
201 4 2 0 0 75 77 78 94
202 4 2 0 0 75 78 76 94
203 4 2 0 0 75 76 92 94
204 4 2 0 0 75 92 91 94
205 4 2 0 0 77 93 95 96
206 4 2 0 0 77 95 79 96
207 4 2 0 0 77 79 80 96
208 4 2 0 0 77 80 78 96
209 4 2 0 0 77 78 94 96
210 4 2 0 0 77 94 93 96
211 4 2 0 0 81 97 99 100
212 4 2 0 0 81 99 83 100
213 4 2 0 0 81 83 84 100
214 4 2 0 0 81 84 82 100
215 4 2 0 0 81 82 98 100
216 4 2 0 0 81 98 97 100
217 4 2 0 0 83 99 101 102
218 4 2 0 0 83 101 85 102
219 4 2 0 0 83 85 86 102
220 4 2 0 0 83 86 84 102
221 4 2 0 0 83 84 100 102
222 4 2 0 0 83 100 99 102
223 4 2 0 0 85 101 103 104
224 4 2 0 0 85 103 87 104
225 4 2 0 0 85 87 88 104
226 4 2 0 0 85 88 86 104
227 4 2 0 0 85 86 102 104
228 4 2 0 0 85 102 101 104
229 4 2 0 0 87 103 105 106
230 4 2 0 0 87 105 89 106
231 4 2 0 0 87 89 90 106
232 4 2 0 0 87 90 88 106
233 4 2 0 0 87 88 104 106
234 4 2 0 0 87 104 103 106
235 4 2 0 0 89 105 107 108
236 4 2 0 0 89 107 91 108
237 4 2 0 0 89 91 92 108
238 4 2 0 0 89 92 90 108
239 4 2 0 0 89 90 106 108
240 4 2 0 0 89 106 105 108
241 4 2 0 0 91 107 109 110
242 4 2 0 0 91 109 93 110
243 4 2 0 0 91 93 94 110
244 4 2 0 0 91 94 92 110
245 4 2 0 0 91 92 108 110
246 4 2 0 0 91 108 107 110
247 4 2 0 0 93 109 111 112
248 4 2 0 0 93 111 95 112
249 4 2 0 0 93 95 96 112
250 4 2 0 0 93 96 94 112
251 4 2 0 0 93 94 110 112
252 4 2 0 0 93 110 109 112
253 4 2 0 0 97 113 115 116
254 4 2 0 0 97 115 99 116
255 4 2 0 0 97 99 100 116
256 4 2 0 0 97 100 98 116
257 4 2 0 0 97 98 114 116
258 4 2 0 0 97 114 113 116
259 4 2 0 0 99 115 117 118
260 4 2 0 0 99 117 101 118
261 4 2 0 0 99 101 102 118
262 4 2 0 0 99 102 100 118
263 4 2 0 0 99 100 116 118
264 4 2 0 0 99 116 115 118
265 4 2 0 0 101 117 119 120
266 4 2 0 0 101 119 103 120
267 4 2 0 0 101 103 104 120
268 4 2 0 0 101 104 102 120
269 4 2 0 0 101 102 118 120
270 4 2 0 0 101 118 117 120
271 4 2 0 0 103 119 121 122
272 4 2 0 0 103 121 105 122
273 4 2 0 0 103 105 106 122
274 4 2 0 0 103 106 104 122
275 4 2 0 0 103 104 120 122
276 4 2 0 0 103 120 119 122
277 4 2 0 0 105 121 123 124
278 4 2 0 0 105 123 107 124
279 4 2 0 0 105 107 108 124
280 4 2 0 0 105 108 106 124
281 4 2 0 0 105 106 122 124
282 4 2 0 0 105 122 121 124
283 4 2 0 0 107 123 125 126
284 4 2 0 0 107 125 109 126
285 4 2 0 0 107 109 110 126
286 4 2 0 0 107 110 108 126
287 4 2 0 0 107 108 124 126
288 4 2 0 0 107 124 123 126
289 4 2 0 0 109 125 127 128
290 4 2 0 0 109 127 111 128
291 4 2 0 0 109 111 112 128
292 4 2 0 0 109 112 110 128
293 4 2 0 0 109 110 126 128
294 4 2 0 0 109 126 125 128
295 4 2 0 0 113 129 131 132
296 4 2 0 0 113 131 115 132
297 4 2 0 0 113 115 116 132
298 4 2 0 0 113 116 114 132
299 4 2 0 0 113 114 130 132
300 4 2 0 0 113 130 129 132
301 4 2 0 0 115 131 133 134
302 4 2 0 0 115 133 117 134
303 4 2 0 0 115 117 118 134
304 4 2 0 0 115 118 116 134
305 4 2 0 0 115 116 132 134
306 4 2 0 0 115 132 131 134
307 4 2 0 0 117 133 135 136
308 4 2 0 0 117 135 119 136
309 4 2 0 0 117 119 120 136
310 4 2 0 0 117 120 118 136
311 4 2 0 0 117 118 134 136
312 4 2 0 0 117 134 133 136
313 4 2 0 0 119 135 137 138
314 4 2 0 0 119 137 121 138
315 4 2 0 0 119 121 122 138
316 4 2 0 0 119 122 120 138
317 4 2 0 0 119 120 136 138
318 4 2 0 0 119 136 135 138
319 4 2 0 0 121 137 139 140
320 4 2 0 0 121 139 123 140
321 4 2 0 0 121 123 124 140
322 4 2 0 0 121 124 122 140
323 4 2 0 0 121 122 138 140
324 4 2 0 0 121 138 137 140
325 4 2 0 0 123 139 141 142
326 4 2 0 0 123 141 125 142
327 4 2 0 0 123 125 126 142
328 4 2 0 0 123 126 124 142
329 4 2 0 0 123 124 140 142
330 4 2 0 0 123 140 139 142
331 4 2 0 0 125 141 143 144
332 4 2 0 0 125 143 127 144
333 4 2 0 0 125 127 128 144
334 4 2 0 0 125 128 126 144
335 4 2 0 0 125 126 142 144
336 4 2 0 0 125 142 141 144
337 4 2 0 0 129 145 147 148
338 4 2 0 0 129 147 131 148
339 4 2 0 0 129 131 132 148
340 4 2 0 0 129 132 130 148
341 4 2 0 0 129 130 146 148
342 4 2 0 0 129 146 145 148
343 4 2 0 0 131 147 149 150
344 4 2 0 0 131 149 133 150
345 4 2 0 0 131 133 134 150
346 4 2 0 0 131 134 132 150
347 4 2 0 0 131 132 148 150
348 4 2 0 0 131 148 147 150
349 4 2 0 0 133 149 151 152
350 4 2 0 0 133 151 135 152
351 4 2 0 0 133 135 136 152
352 4 2 0 0 133 136 134 152
353 4 2 0 0 133 134 150 152
354 4 2 0 0 133 150 149 152
355 4 2 0 0 135 151 153 154
356 4 2 0 0 135 153 137 154
357 4 2 0 0 135 137 138 154
358 4 2 0 0 135 138 136 154
359 4 2 0 0 135 136 152 154
360 4 2 0 0 135 152 151 154
361 4 2 0 0 137 153 155 156
362 4 2 0 0 137 155 139 156
363 4 2 0 0 137 139 140 156
364 4 2 0 0 137 140 138 156
365 4 2 0 0 137 138 154 156
366 4 2 0 0 137 154 153 156
367 4 2 0 0 139 155 157 158
368 4 2 0 0 139 157 141 158
369 4 2 0 0 139 141 142 158
370 4 2 0 0 139 142 140 158
371 4 2 0 0 139 140 156 158
372 4 2 0 0 139 156 155 158
373 4 2 0 0 141 157 159 160
374 4 2 0 0 141 159 143 160
375 4 2 0 0 141 143 144 160
376 4 2 0 0 141 144 142 160
377 4 2 0 0 141 142 158 160
378 4 2 0 0 141 158 157 160
379 4 2 0 0 145 161 163 164
380 4 2 0 0 145 163 147 164
381 4 2 0 0 145 147 148 164
382 4 2 0 0 145 148 146 164
383 4 2 0 0 145 146 162 164
384 4 2 0 0 145 162 161 164
385 4 2 0 0 147 163 165 166
386 4 2 0 0 147 165 149 166
387 4 2 0 0 147 149 150 166
388 4 2 0 0 147 150 148 166
389 4 2 0 0 147 148 164 166
390 4 2 0 0 147 164 163 166
391 4 2 0 0 149 165 167 168
392 4 2 0 0 149 167 151 168
393 4 2 0 0 149 151 152 168
394 4 2 0 0 149 152 150 168
395 4 2 0 0 149 150 166 168
396 4 2 0 0 149 166 165 168
397 4 2 0 0 151 167 169 170
398 4 2 0 0 151 169 153 170
399 4 2 0 0 151 153 154 170
400 4 2 0 0 151 154 152 170
401 4 2 0 0 151 152 168 170
402 4 2 0 0 151 168 167 170
403 4 2 0 0 153 169 171 172
404 4 2 0 0 153 171 155 172
405 4 2 0 0 153 155 156 172
406 4 2 0 0 153 156 154 172
407 4 2 0 0 153 154 170 172
408 4 2 0 0 153 170 169 172
409 4 2 0 0 155 171 173 174
410 4 2 0 0 155 173 157 174
411 4 2 0 0 155 157 158 174
412 4 2 0 0 155 158 156 174
413 4 2 0 0 155 156 172 174
414 4 2 0 0 155 172 171 174
415 4 2 0 0 157 173 175 176
416 4 2 0 0 157 175 159 176
417 4 2 0 0 157 159 160 176
418 4 2 0 0 157 160 158 176
419 4 2 0 0 157 158 174 176
420 4 2 0 0 157 174 173 176
421 4 2 0 0 161 177 179 180
422 4 2 0 0 161 179 163 180
423 4 2 0 0 161 163 164 180
424 4 2 0 0 161 164 162 180
425 4 2 0 0 161 162 178 180
426 4 2 0 0 161 178 177 180
427 4 2 0 0 163 179 181 182
428 4 2 0 0 163 181 165 182
429 4 2 0 0 163 165 166 182
430 4 2 0 0 163 166 164 182
431 4 2 0 0 163 164 180 182
432 4 2 0 0 163 180 179 182
433 4 2 0 0 165 181 183 184
434 4 2 0 0 165 183 167 184
435 4 2 0 0 165 167 168 184
436 4 2 0 0 165 168 166 184
437 4 2 0 0 165 166 182 184
438 4 2 0 0 165 182 181 184
439 4 2 0 0 167 183 185 186
440 4 2 0 0 167 185 169 186
441 4 2 0 0 167 169 170 186
442 4 2 0 0 167 170 168 186
443 4 2 0 0 167 168 184 186
444 4 2 0 0 167 184 183 186
445 4 2 0 0 169 185 187 188
446 4 2 0 0 169 187 171 188
447 4 2 0 0 169 171 172 188
448 4 2 0 0 169 172 170 188
449 4 2 0 0 169 170 186 188
450 4 2 0 0 169 186 185 188
451 4 2 0 0 171 187 189 190
452 4 2 0 0 171 189 173 190
453 4 2 0 0 171 173 174 190
454 4 2 0 0 171 174 172 190
455 4 2 0 0 171 172 188 190
456 4 2 0 0 171 188 187 190
457 4 2 0 0 173 189 191 192
458 4 2 0 0 173 191 175 192
459 4 2 0 0 173 175 176 192
460 4 2 0 0 173 176 174 192
461 4 2 0 0 173 174 190 192
462 4 2 0 0 173 190 189 192
463 4 2 0 0 177 193 195 196
464 4 2 0 0 177 195 179 196
465 4 2 0 0 177 179 180 196
466 4 2 0 0 177 180 178 196
467 4 2 0 0 177 178 194 196
468 4 2 0 0 177 194 193 196
469 4 2 0 0 179 195 197 198
470 4 2 0 0 179 197 181 198
471 4 2 0 0 179 181 182 198
472 4 2 0 0 179 182 180 198
473 4 2 0 0 179 180 196 198
474 4 2 0 0 179 196 195 198
475 4 2 0 0 181 197 199 200
476 4 2 0 0 181 199 183 200
477 4 2 0 0 181 183 184 200
478 4 2 0 0 181 184 182 200
479 4 2 0 0 181 182 198 200
480 4 2 0 0 181 198 197 200
481 4 2 0 0 183 199 201 202
482 4 2 0 0 183 201 185 202
483 4 2 0 0 183 185 186 202
484 4 2 0 0 183 186 184 202
485 4 2 0 0 183 184 200 202
486 4 2 0 0 183 200 199 202
487 4 2 0 0 185 201 203 204
488 4 2 0 0 185 203 187 204
489 4 2 0 0 185 187 188 204
490 4 2 0 0 185 188 186 204
491 4 2 0 0 185 186 202 204
492 4 2 0 0 185 202 201 204
493 4 2 0 0 187 203 205 206
494 4 2 0 0 187 205 189 206
495 4 2 0 0 187 189 190 206
496 4 2 0 0 187 190 188 206
497 4 2 0 0 187 188 204 206
498 4 2 0 0 187 204 203 206
499 4 2 0 0 189 205 207 208
500 4 2 0 0 189 207 191 208
501 4 2 0 0 189 191 192 208
502 4 2 0 0 189 192 190 208
503 4 2 0 0 189 190 206 208
504 4 2 0 0 189 206 205 208
505 4 2 0 0 193 209 211 212
506 4 2 0 0 193 211 195 212
507 4 2 0 0 193 195 196 212
508 4 2 0 0 193 196 194 212
509 4 2 0 0 193 194 210 212
510 4 2 0 0 193 210 209 212
511 4 2 0 0 195 211 213 214
512 4 2 0 0 195 213 197 214
513 4 2 0 0 195 197 198 214
514 4 2 0 0 195 198 196 214
515 4 2 0 0 195 196 212 214
516 4 2 0 0 195 212 211 214
517 4 2 0 0 197 213 215 216
518 4 2 0 0 197 215 199 216
519 4 2 0 0 197 199 200 216
520 4 2 0 0 197 200 198 216
521 4 2 0 0 197 198 214 216
522 4 2 0 0 197 214 213 216
523 4 2 0 0 199 215 217 218
524 4 2 0 0 199 217 201 218
525 4 2 0 0 199 201 202 218
526 4 2 0 0 199 202 200 218
527 4 2 0 0 199 200 216 218
528 4 2 0 0 199 216 215 218
529 4 2 0 0 201 217 219 220
530 4 2 0 0 201 219 203 220
531 4 2 0 0 201 203 204 220
532 4 2 0 0 201 204 202 220
533 4 2 0 0 201 202 218 220
534 4 2 0 0 201 218 217 220
535 4 2 0 0 203 219 221 222
536 4 2 0 0 203 221 205 222
537 4 2 0 0 203 205 206 222
538 4 2 0 0 203 206 204 222
539 4 2 0 0 203 204 220 222
540 4 2 0 0 203 220 219 222
541 4 2 0 0 205 221 223 224
542 4 2 0 0 205 223 207 224
543 4 2 0 0 205 207 208 224
544 4 2 0 0 205 208 206 224
545 4 2 0 0 205 206 222 224
546 4 2 0 0 205 222 221 224
547 4 2 0 0 209 225 227 228
548 4 2 0 0 209 227 211 228
549 4 2 0 0 209 211 212 228
550 4 2 0 0 209 212 210 228
551 4 2 0 0 209 210 226 228
552 4 2 0 0 209 226 225 228
553 4 2 0 0 211 227 229 230
554 4 2 0 0 211 229 213 230
555 4 2 0 0 211 213 214 230
556 4 2 0 0 211 214 212 230
557 4 2 0 0 211 212 228 230
558 4 2 0 0 211 228 227 230
559 4 2 0 0 213 229 231 232
560 4 2 0 0 213 231 215 232
561 4 2 0 0 213 215 216 232
562 4 2 0 0 213 216 214 232
563 4 2 0 0 213 214 230 232
564 4 2 0 0 213 230 229 232
565 4 2 0 0 215 231 233 234
566 4 2 0 0 215 233 217 234
567 4 2 0 0 215 217 218 234
568 4 2 0 0 215 218 216 234
569 4 2 0 0 215 216 232 234
570 4 2 0 0 215 232 231 234
571 4 2 0 0 217 233 235 236
572 4 2 0 0 217 235 219 236
573 4 2 0 0 217 219 220 236
574 4 2 0 0 217 220 218 236
575 4 2 0 0 217 218 234 236
576 4 2 0 0 217 234 233 236
577 4 2 0 0 219 235 237 238
578 4 2 0 0 219 237 221 238
579 4 2 0 0 219 221 222 238
580 4 2 0 0 219 222 220 238
581 4 2 0 0 219 220 236 238
582 4 2 0 0 219 236 235 238
583 4 2 0 0 221 237 239 240
584 4 2 0 0 221 239 223 240
585 4 2 0 0 221 223 224 240
586 4 2 0 0 221 224 222 240
587 4 2 0 0 221 222 238 240
588 4 2 0 0 221 238 237 240
589 4 2 0 0 225 241 243 244
590 4 2 0 0 225 243 227 244
591 4 2 0 0 225 227 228 244
592 4 2 0 0 225 228 226 244
593 4 2 0 0 225 226 242 244
594 4 2 0 0 225 242 241 244
595 4 2 0 0 227 243 245 246
596 4 2 0 0 227 245 229 246
597 4 2 0 0 227 229 230 246
598 4 2 0 0 227 230 228 246
599 4 2 0 0 227 228 244 246
600 4 2 0 0 227 244 243 246
601 4 2 0 0 229 245 247 248
602 4 2 0 0 229 247 231 248
603 4 2 0 0 229 231 232 248
604 4 2 0 0 229 232 230 248
605 4 2 0 0 229 230 246 248
606 4 2 0 0 229 246 245 248
607 4 2 0 0 231 247 249 250
608 4 2 0 0 231 249 233 250
609 4 2 0 0 231 233 234 250
610 4 2 0 0 231 234 232 250
611 4 2 0 0 231 232 248 250
612 4 2 0 0 231 248 247 250
613 4 2 0 0 233 249 251 252
614 4 2 0 0 233 251 235 252
615 4 2 0 0 233 235 236 252
616 4 2 0 0 233 236 234 252
617 4 2 0 0 233 234 250 252
618 4 2 0 0 233 250 249 252
619 4 2 0 0 235 251 253 254
620 4 2 0 0 235 253 237 254
621 4 2 0 0 235 237 238 254
622 4 2 0 0 235 238 236 254
623 4 2 0 0 235 236 252 254
624 4 2 0 0 235 252 251 254
625 4 2 0 0 237 253 255 256
626 4 2 0 0 237 255 239 256
627 4 2 0 0 237 239 240 256
628 4 2 0 0 237 240 238 256
629 4 2 0 0 237 238 254 256
630 4 2 0 0 237 254 253 256
631 4 2 0 0 241 257 259 260
632 4 2 0 0 241 259 243 260
633 4 2 0 0 241 243 244 260
634 4 2 0 0 241 244 242 260
635 4 2 0 0 241 242 258 260
636 4 2 0 0 241 258 257 260
637 4 2 0 0 243 259 261 262
638 4 2 0 0 243 261 245 262
639 4 2 0 0 243 245 246 262
640 4 2 0 0 243 246 244 262
641 4 2 0 0 243 244 260 262
642 4 2 0 0 243 260 259 262
643 4 2 0 0 245 261 263 264
644 4 2 0 0 245 263 247 264
645 4 2 0 0 245 247 248 264
646 4 2 0 0 245 248 246 264
647 4 2 0 0 245 246 262 264
648 4 2 0 0 245 262 261 264
649 4 2 0 0 247 263 265 266
650 4 2 0 0 247 265 249 266
651 4 2 0 0 247 249 250 266
652 4 2 0 0 247 250 248 266
653 4 2 0 0 247 248 264 266
654 4 2 0 0 247 264 263 266
655 4 2 0 0 249 265 267 268
656 4 2 0 0 249 267 251 268
657 4 2 0 0 249 251 252 268
658 4 2 0 0 249 252 250 268
659 4 2 0 0 249 250 266 268
660 4 2 0 0 249 266 265 268
661 4 2 0 0 251 267 269 270
662 4 2 0 0 251 269 253 270
663 4 2 0 0 251 253 254 270
664 4 2 0 0 251 254 252 270
665 4 2 0 0 251 252 268 270
666 4 2 0 0 251 268 267 270
667 4 2 0 0 253 269 271 272
668 4 2 0 0 253 271 255 272
669 4 2 0 0 253 255 256 272
670 4 2 0 0 253 256 254 272
671 4 2 0 0 253 254 270 272
672 4 2 0 0 253 270 269 272
$EndElements
